<svg width="39" height="41" viewBox="0 0 39 41" fill="none" xmlns="http://www.w3.org/2000/svg">
<path fill-rule="evenodd" clip-rule="evenodd" d="M18.9822 4.38047H20.0684V5.45859H18.9822V4.38047ZM10.5748 35.1872H11.6611V35.6123C14.5955 33.889 18.1838 32.9105 21.6866 31.9553C23.3197 31.5105 24.9346 31.07 26.451 30.5604V29.6757H27.5373V30.1763C30.6603 29.0094 33.1989 27.4889 34.9981 25.3543C36.9154 23.0793 38.006 20.0866 38.0861 16.0521C38.1552 12.5808 37.2427 9.47512 35.2922 6.98803C34.3906 5.83834 33.2645 4.81812 31.9092 3.95217V4.21936H30.8229V3.31781C29.649 2.69208 28.3288 2.16848 26.8591 1.75924C23.5271 0.831792 20.6652 0.683631 18.3797 1.19356C16.0511 1.71321 14.3232 2.92115 13.3147 4.68506C13.226 4.84005 13.049 4.93463 12.86 4.91018C11.4865 4.73145 10.3492 4.77856 9.49759 5.09754C8.85596 5.33776 8.37547 5.74233 8.07783 6.33281H17.759C17.788 6.33281 17.8162 6.33569 17.8434 6.34036C18.4608 6.41193 18.9329 6.68272 19.2472 7.12828C19.5514 7.55874 19.6911 8.14095 19.656 8.84975C19.61 9.77468 19.2537 10.4749 18.6581 10.9859C18.1204 11.4465 17.3948 11.7389 16.5334 11.8942V15.1013C16.5334 16.3718 16.2028 17.4618 15.5988 18.236C15.1393 18.8251 14.5299 19.2304 13.7941 19.3962C9.47007 21.364 6.57914 23.3645 4.76145 25.3884C2.98576 27.3656 2.24275 29.3636 2.18518 31.3746C2.36079 33.4089 2.96874 35.0912 3.88881 36.5188C4.72995 37.8232 5.83432 38.9218 7.10997 39.8856C8.03257 38.4054 9.23905 37.2291 10.6349 36.2646H10.5748V35.1865V35.1872ZM9.55444 32.8986H10.6407V33.9767H9.55444V32.8986ZM9.25535 30.5226H10.3416V31.6008H9.25535V30.5226ZM9.84881 28.1323H10.9351V29.2104H9.84881V28.1323ZM11.1596 26.113H12.2459V27.1912H11.1596V26.113ZM12.6575 24.466H13.7438V25.5441H12.6575V24.466ZM14.6907 22.6863H15.777V23.7644H14.6907V22.6863ZM16.5019 21.2115H17.5881V22.2896H16.5019V21.2115ZM17.851 19.294H18.9373V20.3722H17.851V19.294ZM19.1067 17.1457H20.193V18.2238H19.1067V17.1457ZM19.1998 14.8125H20.2861V15.8906H19.1998V14.8125ZM18.8511 12.4563H19.9374V13.5345H18.8511V12.4563ZM20.8513 9.36077H21.9376V10.4389H20.8513V9.36077ZM22.6654 10.9546H23.7516V12.0327H22.6654V10.9546ZM23.8983 12.9411H24.9845V14.0192H23.8983V12.9411ZM24.6192 15.3667H25.7055V16.4448H24.6192V15.3667ZM24.759 17.6999H25.8452V18.778H24.759V17.6999ZM24.3646 20.0866H25.4509V21.1647H24.3646V20.0866ZM23.0007 22.0789H24.0869V23.157H23.0007V22.0789ZM21.3423 23.8324H22.4285V24.9105H21.3423V23.8324ZM20.0583 25.7448H21.1446V26.8229H20.0583V25.7448ZM18.8815 28.0823H19.9678V29.1604H18.8815V28.0823ZM18.3467 30.4996H19.433V31.5777H18.3467V30.4996ZM27.9218 27.8698H29.0081V28.9479H27.9218V27.8698ZM29.0986 25.9839H30.1849V27.0621H29.0986V25.9839ZM30.0346 23.8324H31.1209V24.9105H30.0346V23.8324ZM30.7298 21.5743H31.8161V22.6525H30.7298V21.5743ZM31.1915 19.102H32.2778V20.1801H31.1915V19.102ZM31.2614 16.6077H32.3476V17.6858H31.2614V16.6077ZM30.7729 14.1364H31.8592V15.2146H30.7729V14.1364ZM29.9825 11.9885H31.0687V13.0666H29.9825V11.9885ZM28.432 9.81028H29.5183V10.8884H28.432V9.81028ZM26.5719 8.40455H27.6582V9.48268H26.5719V8.40455ZM24.4892 7.50084H25.5755V8.57896H24.4892V7.50084ZM22.0426 6.9384H23.1288V8.01653H22.0426V6.9384ZM19.6162 6.7176H20.7025V7.79572H19.6162V6.7176ZM28.172 2.70287H29.2583V3.78099H28.172V2.70287ZM25.6841 2.6108H26.7704V3.68893H25.6841V2.6108ZM23.3356 2.74926H24.4219V3.82738H23.3356V2.74926ZM21.0106 3.32644H22.0969V4.40456H21.0106V3.32644ZM10.0038 7.24048C10.4104 7.46848 10.6852 7.90181 10.6852 8.39916C10.6852 9.13313 10.086 9.72865 9.34623 9.72865C8.60685 9.72865 8.00759 9.13349 8.00759 8.39916C8.00759 7.90217 8.28241 7.46883 8.68904 7.24048H3.25805C2.69066 7.24048 2.24203 7.41525 1.88826 7.67921C1.77638 7.763 1.67318 7.85578 1.57759 7.95539C1.65979 7.94029 1.73908 7.92986 1.8144 7.92519C2.0436 7.91044 2.25108 7.94209 2.43285 8.02264C2.6367 8.1129 2.79784 8.25783 2.91008 8.46029C3.00242 8.62823 3.05854 8.83033 3.07375 9.06732C3.12589 9.87322 2.49549 10.1073 1.83359 10.3533C1.54211 10.4615 1.24012 10.5737 1.10941 10.7237C0.982315 11.1926 0.945382 11.6076 1.00114 11.9665C1.04278 12.2352 1.13874 12.4775 1.28937 12.6922C2.99192 12.3164 4.40081 12.1647 5.41104 12.3233C6.66351 12.52 7.35438 13.1511 7.32758 14.3418C7.30115 15.5087 6.63165 16.196 5.44327 16.4998C4.47648 16.7465 3.14399 16.7188 1.52799 16.4804C1.20066 17.351 1.06415 18.1559 1.10615 18.8981C1.14272 19.5472 1.31652 20.1539 1.61742 20.7213C2.17576 20.2686 2.78227 19.873 3.4391 19.5382C4.24801 19.1265 5.13114 18.8096 6.09322 18.5957C6.13703 18.582 6.18338 18.5744 6.2319 18.5744H13.0153C13.8054 18.5744 14.4394 18.2468 14.8775 17.6848C15.3569 17.0698 15.6194 16.1726 15.6194 15.1024V11.5084C15.6209 11.284 15.7889 11.0891 16.0188 11.0603C16.8824 10.9506 17.587 10.7097 18.0614 10.3033C18.4687 9.95413 18.7128 9.46469 18.7454 8.80876C18.7704 8.30494 18.6867 7.91368 18.501 7.65044C18.3406 7.42316 18.0864 7.28291 17.7438 7.2412H10.0031L10.0038 7.24048ZM0.0354497 8.70519C0.3005 8.08989 0.713282 7.42676 1.34296 6.95638C1.84481 6.58131 2.47413 6.33353 3.25841 6.33353H7.0886C7.45975 5.30575 8.17125 4.62788 9.17605 4.25137C10.1073 3.90254 11.2885 3.82594 12.6782 3.97842C13.8325 2.12964 15.7053 0.864157 18.1794 0.311789C20.6098 -0.230509 23.6234 -0.0805498 27.1049 0.888251C31.0883 1.99694 34.0404 3.9216 36.0095 6.43207C38.0937 9.08926 39.0688 12.3916 38.996 16.0701C38.9113 20.329 37.7464 23.5044 35.6973 25.9354C33.6566 28.3563 30.7512 30.0206 27.1719 31.2703C25.5168 31.8482 23.7324 32.3347 21.9256 32.827C16.2444 34.3755 10.3311 35.9877 7.64332 40.7673C7.5213 40.9856 7.24394 41.064 7.02415 40.9428L6.9673 40.9058C5.43783 39.8108 4.11331 38.5463 3.12154 37.0083C2.12109 35.4565 1.46136 33.6337 1.2738 31.4375C1.27126 31.408 1.27199 31.3792 1.27488 31.3512C1.33789 29.1313 2.1468 26.9384 4.07927 24.7868C5.69419 22.9884 8.10137 21.2173 11.5271 19.4807H6.27426C5.39438 19.6781 4.58873 19.9672 3.85297 20.3419C3.10634 20.7221 2.42742 21.1935 1.81186 21.7491C1.62575 21.9174 1.33716 21.9038 1.16807 21.7193C1.14634 21.6955 1.12751 21.6704 1.11194 21.6438C0.564101 20.8224 0.251617 19.9259 0.196218 18.9477C0.141542 17.9743 0.341416 16.9271 0.81684 15.8022C0.904104 15.5958 1.12715 15.4868 1.34006 15.5357C2.98974 15.8018 4.3168 15.855 5.21877 15.6249C5.9759 15.4314 6.40244 15.0161 6.41801 14.3242C6.4325 13.6812 6.01826 13.3341 5.26874 13.2166C4.33056 13.0691 2.9376 13.2403 1.21695 13.6373C1.04785 13.6758 0.879482 13.6154 0.772665 13.4945C0.407678 13.1018 0.185355 12.6376 0.102798 12.105C0.0227766 11.5915 0.0741933 11.0233 0.253066 10.4026C0.267912 10.3501 0.291809 10.3026 0.322225 10.2609C0.595965 9.84984 1.06523 9.67507 1.51712 9.50749C1.8535 9.3827 2.17395 9.26331 2.1649 9.12486C2.15838 9.02273 2.14064 8.94757 2.11348 8.89902L2.1124 8.89686C2.099 8.87421 2.08235 8.85803 2.06243 8.84939C2.02079 8.83105 1.95598 8.82458 1.87197 8.82998C1.57976 8.84867 1.17205 9.00439 0.674177 9.27806C0.454388 9.39817 0.178113 9.31905 0.0571751 9.10077C-0.0130704 8.97454 -0.015605 8.82926 0.0361739 8.70591L0.0354497 8.70519Z" fill="#081B43"/>
</svg>
