<svg width="43" height="34" viewBox="0 0 43 34" fill="none" xmlns="http://www.w3.org/2000/svg">
<path fill-rule="evenodd" clip-rule="evenodd" d="M9.79259 21.7493H10.8034V22.7663H9.79259V21.7493ZM31.2943 22.3693H32.3051V23.3864H31.2943V22.3693ZM34.7325 30.7636H35.7433V31.7806H34.7325V30.7636ZM33.5578 29.1193H34.5687V30.1363H33.5578V29.1193ZM32.4118 27.5039H33.4226V28.521H32.4118V27.5039ZM31.323 25.6866H32.3338V26.7037H31.323V25.6866ZM30.2055 23.8982H31.2163V24.9153H30.2055V23.8982ZM29.0595 22.3693H30.0703V23.3864H29.0595V22.3693ZM27.8848 20.552H28.8957V21.5691H27.8848V20.552ZM26.7961 18.879H27.8069V19.896H26.7961V18.879ZM24.4911 18.8397H25.5019V19.8568H24.4911V18.8397ZM23.2704 20.5954H24.2812V21.6124H23.2704V20.5954ZM22.1245 22.2759H23.1353V23.293H22.1245V22.2759ZM21.1031 24.0066H22.1139V25.0237H21.1031V24.0066ZM20.0568 22.2259H21.0676V23.2429H20.0568V22.2259ZM18.8111 20.6458H19.822V21.6628H18.8111V20.6458ZM17.7899 22.2761H18.8007V23.2931H17.7899V22.2761ZM16.5194 24.0821H17.5302V25.0991H16.5194V24.0821ZM15.3982 22.3264H16.4091V23.3435H15.3982V22.3264ZM15.0066 20.5204H15.4625V21.5375H14.4516V21.4148L7.17405 33.1443H41.4414L29.5819 14.6686L28.1518 17.1217L27.4214 16.6906L29.5477 13.043C34.0329 20.028 38.5177 27.0135 43.0004 34.0002C28.667 33.9972 14.3337 34.0001 0.000488281 34.0001L13.0594 13.3376L16.151 17.0635L20.5993 9.89377V0.000396729L26.6818 3.47595L21.4493 5.65933V9.88529L26.6319 17.6252L25.9282 18.1031L21.038 10.7996L15.0067 20.5206L15.0066 20.5204ZM10.939 23.4801H11.9498V23.8347L15.6783 17.8255L13.1512 14.7799L1.5448 33.1441H6.17395L11.539 24.497H10.9391V23.48L10.939 23.4801ZM21.4495 1.46696V4.73455L24.7546 3.35543L21.4495 1.46696Z" fill="#081B43"/>
</svg>
