<svg width="40" height="29" viewBox="0 0 40 29" fill="none" xmlns="http://www.w3.org/2000/svg">
<path fill-rule="evenodd" clip-rule="evenodd" d="M36.277 9.34765H37.207V10.2664H36.277V9.34765ZM22.1591 24.1705H23.0891V25.0893H22.1591V24.1705ZM20.672 22.6401H21.602V23.5589H20.672V22.6401ZM24.77 21.0496H25.7V21.9684H24.77V21.0496ZM23.3127 19.6691H24.2427V20.5879H23.3127V19.6691ZM27.9574 18.0485H28.8874V18.9673H27.9574V18.0485ZM26.3789 16.5783H27.3089V17.4971H26.3789V16.5783ZM36.277 11.3606H37.207V12.2794H36.277V11.3606ZM39.2297 0.109334C39.4422 0.0728829 39.6447 0.21348 39.6816 0.423507C39.7184 0.633535 39.5762 0.833726 39.3638 0.870178C37.0906 1.27114 34.7114 1.57837 32.2135 1.76583C29.7243 1.95272 27.1129 2.01983 24.3656 1.94288C23.7563 1.92552 23.1968 1.99611 22.6982 2.1882C22.2124 2.37509 21.7775 2.68289 21.403 3.14403C21.3901 3.15965 21.3766 3.17412 21.362 3.18742L20.8312 3.6989L20.8224 3.707L14.694 9.61149C14.9662 10.2236 15.2875 10.7461 15.648 11.1644C16.1098 11.7002 16.6365 12.0647 17.2066 12.2267C17.769 12.387 18.3853 12.3517 19.0344 12.0925L19.0531 12.0855C19.4962 11.9062 19.9562 11.6215 20.4273 11.2252L24.6799 7.6414L24.6805 7.64082L24.6822 7.63908L24.684 7.63735L24.6857 7.63619L24.6875 7.63445L24.6881 7.63387L24.6893 7.63272L24.691 7.63098L24.6928 7.62982L24.6945 7.62867L24.6957 7.62751L24.6963 7.62693L24.698 7.62519L24.6998 7.62404L24.7016 7.62288L24.7033 7.62172L24.7039 7.62114L24.7056 7.61999L24.7074 7.61883L24.7092 7.61767L24.7109 7.61652L24.7121 7.61536L24.7127 7.61478L24.7144 7.61362L24.7162 7.61247L24.7179 7.61131L24.7197 7.61015L24.7215 7.60899L24.7232 7.60784L24.725 7.60668L24.7267 7.60552L24.7279 7.60494L24.7291 7.60437L24.7308 7.60321L24.7326 7.60205L24.7343 7.60089L24.7361 7.59974L24.7396 7.59742L24.7414 7.59627L24.7431 7.59511L24.7443 7.59453L24.7454 7.59395L24.7472 7.59279L24.749 7.59164L24.7507 7.59048L24.7525 7.58932L24.7542 7.58816L24.756 7.58701L24.7577 7.58585L24.7595 7.58469L24.7607 7.58412L24.7618 7.58354L24.7636 7.58238L24.7659 7.58122L24.7677 7.58006L24.7694 7.57891H24.77L24.7718 7.57775L24.7735 7.57659L24.7753 7.57544L24.7771 7.57428L24.7776 7.5737L24.7788 7.57312L24.7806 7.57254L24.7823 7.57139L24.7841 7.57081L24.7858 7.57023H24.7864L24.7882 7.56965L24.7923 7.56791L24.794 7.56734H24.7946L24.7958 7.56676L24.7975 7.56618C25.2915 7.38161 25.8311 7.27631 26.4105 7.24275C26.9812 7.20919 27.5899 7.24448 28.2307 7.33937C28.4444 7.37004 28.5918 7.56618 28.5608 7.77736C28.5298 7.98855 28.3314 8.13435 28.1178 8.10369C27.5255 8.01632 26.9695 7.98334 26.4562 8.01285C26.1758 8.02905 25.9072 8.06434 25.652 8.11931L33.0709 15.8626C33.0891 15.8811 33.1043 15.9007 33.1177 15.9216C33.25 16.1275 33.353 16.3376 33.4279 16.5482C34.0676 16.3 34.6055 15.9673 35.0474 15.5524C35.6092 15.0248 36.0184 14.3611 36.2841 13.5702C36.3379 13.4088 36.4901 13.3064 36.6534 13.3064V13.3046H39.6072C39.8232 13.3046 39.9982 13.4776 39.9982 13.6911C39.9982 13.9046 39.8232 14.0776 39.6072 14.0776H36.9279C36.6212 14.8761 36.1764 15.5559 35.5853 16.1108C35.041 16.6217 34.3761 17.0244 33.5842 17.3131C33.5936 17.4762 33.5877 17.6382 33.5678 17.7979C33.5128 18.2469 33.3466 18.6739 33.0949 19.05C32.8462 19.4226 32.5126 19.7455 32.1204 19.9914C31.6031 20.3159 30.9815 20.508 30.3114 20.5069C30.2224 21.5038 29.9187 22.2629 29.3925 22.7755C28.8617 23.2934 28.1271 23.545 27.1837 23.5231C27.0965 24.612 26.7717 25.3954 26.2455 25.919C25.7 26.4623 24.9597 26.7117 24.0618 26.7209C23.6486 27.7178 23.0967 28.3329 22.4137 28.5834C21.7764 28.8171 21.0577 28.7275 20.2611 28.3288C19.7999 28.7425 19.1906 28.9942 18.524 28.9942C17.8059 28.9942 17.1545 28.702 16.6828 28.2299C16.2426 27.789 15.9599 27.1919 15.9254 26.53C15.871 26.5329 15.8177 26.5346 15.765 26.5346C14.9252 26.5346 14.1649 26.1932 13.6136 25.6419C13.0646 25.0928 12.7252 24.3348 12.7246 23.4993L12.6573 23.5005C11.8174 23.5005 11.0571 23.1591 10.5058 22.6077C9.95624 22.0581 9.61678 21.299 9.61678 20.4623V20.4525L9.53718 20.4537C8.69732 20.4537 7.93705 20.1123 7.38573 19.5609C6.83616 19.0112 6.4967 18.2521 6.4967 17.4155C6.4967 16.5788 6.83674 15.8197 7.38573 15.2701C7.58004 15.0757 7.8001 14.9073 8.04065 14.7713L7.65086 14.2847L0.388229 14.29C0.173434 14.29 -0.000976562 14.1175 -0.000976562 13.9052C-0.000976562 13.6929 0.173434 13.5204 0.388229 13.5204L7.83931 13.5146C7.96749 13.5146 8.08161 13.576 8.15243 13.6709L8.79213 14.4699C9.03092 14.4097 9.28084 14.3773 9.53777 14.3773C10.3776 14.3773 11.1379 14.7187 11.6892 15.2701C12.2388 15.8197 12.5783 16.5788 12.5783 17.4155V17.4253L12.6578 17.4242C13.4977 17.4242 14.258 17.7655 14.8093 18.3169C15.3583 18.866 15.6977 19.624 15.6983 20.4594L15.7656 20.4583C16.6055 20.4583 17.3658 20.7996 17.9171 21.351C18.4667 21.9007 18.8061 22.6598 18.8061 23.4964C18.8061 23.5977 18.8003 23.7024 18.7891 23.8095C19.4019 23.872 19.9527 24.1474 20.3659 24.5605C20.8358 25.0309 21.1267 25.6795 21.1267 26.3952C21.1267 26.876 20.9956 27.3267 20.7668 27.7132C21.2976 27.951 21.7571 28.0036 22.1427 27.8619C22.6601 27.6721 23.0909 27.1236 23.4309 26.1996C23.4871 26.0463 23.6387 25.9392 23.8125 25.9462C24.619 25.9803 25.2599 25.8073 25.6942 25.3751C26.1407 24.9308 26.3977 24.196 26.4269 23.1128L26.4287 23.0764C26.4498 22.8646 26.6406 22.7101 26.8548 22.7304C27.7532 22.8189 28.4145 22.6477 28.8476 22.2259C29.2883 21.7966 29.5224 21.0878 29.557 20.1111C29.5564 20.092 29.557 20.0724 29.5593 20.0527C29.5845 19.8409 29.7788 19.6893 29.993 19.7148C30.6315 19.7917 31.2262 19.6384 31.7037 19.3393C32.004 19.1513 32.258 18.9053 32.4459 18.6247C32.6314 18.3476 32.7531 18.0346 32.7935 17.7077C32.804 17.6226 32.8087 17.5358 32.8076 17.4485C32.7139 17.4022 32.6396 17.3189 32.608 17.2118C32.5676 17.0741 32.6086 16.9329 32.7022 16.8369C32.6489 16.6778 32.574 16.5187 32.4769 16.3625L24.9046 8.45894L20.9342 11.8049C20.3986 12.2562 19.8672 12.5825 19.3475 12.7931L19.3276 12.8018C18.5082 13.1293 17.721 13.171 16.9929 12.9633C16.2719 12.7584 15.6176 12.3112 15.0557 11.6597C14.5939 11.1245 14.1936 10.4493 13.8694 9.65662C13.8126 9.51602 13.843 9.34939 13.9595 9.23714L19.9614 3.45415L18.4608 2.30565C17.8539 1.84105 17.021 1.89312 16.2011 1.94404C16.0378 1.95387 15.8763 1.96429 15.6796 1.97181C13.1887 2.06496 10.6779 1.97933 8.14717 1.7612C5.61997 1.54365 3.05999 1.19419 0.470167 0.760824C0.257713 0.726109 0.114322 0.527075 0.149438 0.317047C0.184554 0.10702 0.385888 -0.0347345 0.598341 -1.91741e-05C3.15949 0.428136 5.69781 0.77471 8.21389 0.991102C10.7265 1.20749 13.2068 1.29313 15.6521 1.20171C15.7931 1.1965 15.9734 1.18493 16.1519 1.17394C17.117 1.11376 18.0968 1.05243 18.9372 1.69524L20.5256 2.91086L20.8095 2.63719C21.2707 2.07538 21.8103 1.69698 22.4167 1.46381C23.0171 1.23237 23.6773 1.14732 24.3861 1.16757C27.0936 1.24395 29.6799 1.17683 32.155 0.990524C34.6219 0.805376 36.9764 0.501038 39.2286 0.103548L39.2297 0.109334ZM19.6536 27.8359C19.636 27.7444 19.6524 27.6467 19.7057 27.5616C19.7847 27.4366 19.924 27.3713 20.0627 27.3805C20.2418 27.0976 20.3454 26.762 20.3454 26.401C20.3454 25.8947 20.1411 25.437 19.811 25.1067C19.4827 24.778 19.0279 24.5749 18.5258 24.5749L18.4427 24.5761L18.383 24.5796C18.3315 24.5871 18.277 24.5848 18.2238 24.5709C18.0154 24.5159 17.8919 24.3042 17.9475 24.0982C17.9744 23.9987 17.9949 23.8997 18.0072 23.8037C18.0195 23.7117 18.026 23.611 18.026 23.5022C18.026 22.875 17.7725 22.3074 17.3628 21.8972C16.9555 21.4893 16.3913 21.2371 15.7674 21.2371C15.6866 21.2371 15.6164 21.24 15.5567 21.2457C15.4888 21.2521 15.418 21.2625 15.3466 21.2758C15.3039 21.2833 15.2594 21.2845 15.2137 21.2776C15.0013 21.244 14.8561 21.0467 14.8901 20.8367C14.8989 20.7834 14.9059 20.7221 14.9117 20.6521C14.9164 20.5937 14.9187 20.5318 14.9187 20.4681C14.9187 19.8409 14.6653 19.2733 14.2556 18.8631C13.8483 18.4552 13.2841 18.2029 12.6602 18.2029C12.5777 18.2029 12.5051 18.2064 12.4425 18.2122C12.3769 18.2186 12.3043 18.2296 12.2271 18.2446C12.1832 18.2527 12.1364 18.2539 12.0896 18.2463C11.8771 18.2122 11.7325 18.0137 11.7671 17.8037C11.7764 17.747 11.7846 17.6828 11.7905 17.6122C11.7957 17.5515 11.7981 17.4878 11.7981 17.4219C11.7981 16.7947 11.5447 16.2271 11.135 15.8168C10.7276 15.4089 10.1634 15.1567 9.53953 15.1567C9.38092 15.1567 9.22582 15.1729 9.07658 15.2041C9.05199 15.2487 9.01863 15.2898 8.97532 15.3233C8.85768 15.4153 8.70259 15.4292 8.57441 15.3725C8.33855 15.4842 8.12551 15.6352 7.94349 15.8174C7.5338 16.2276 7.28038 16.7952 7.28038 17.4224C7.28038 18.0496 7.5338 18.6172 7.94349 19.0274C8.35084 19.4353 8.91504 19.6876 9.53894 19.6876C9.62146 19.6876 9.69404 19.6841 9.75666 19.6783C9.82221 19.672 9.89478 19.661 9.97204 19.6459C10.0159 19.6378 10.0628 19.6367 10.1096 19.6442C10.322 19.6783 10.4666 19.8768 10.4321 20.0868C10.4227 20.1435 10.4145 20.2078 10.4087 20.2783C10.4034 20.3397 10.401 20.4033 10.401 20.4687C10.401 21.0959 10.6545 21.6635 11.0642 22.0737C11.4715 22.4816 12.0357 22.7339 12.6596 22.7339C12.7404 22.7339 12.8106 22.731 12.8703 22.7252C12.9382 22.7188 13.009 22.7084 13.0804 22.6951C13.1231 22.6876 13.1676 22.6864 13.2133 22.6934C13.4257 22.7269 13.5709 22.9242 13.5369 23.1343C13.5281 23.1875 13.5211 23.2488 13.5153 23.3188C13.5106 23.3773 13.5082 23.4392 13.5082 23.5028C13.5082 24.13 13.7617 24.6976 14.1714 25.1078C14.5787 25.5157 15.1429 25.768 15.7668 25.768C15.854 25.768 15.9354 25.7639 16.0103 25.7558C16.0905 25.7472 16.1654 25.7356 16.2362 25.7205C16.2842 25.7078 16.3357 25.7043 16.3878 25.7113C16.6014 25.7396 16.7506 25.9335 16.7226 26.1446C16.7173 26.1828 16.7126 26.2256 16.7097 26.2731L16.7056 26.4015C16.7056 26.9078 16.9098 27.3655 17.2399 27.6958C17.5683 28.0239 18.023 28.2276 18.5252 28.2276C18.9518 28.2276 19.3434 28.0812 19.653 27.8359H19.6536Z" fill="#081B43"/>
</svg>
