<svg width="39" height="34" viewBox="0 0 39 34" fill="none" xmlns="http://www.w3.org/2000/svg">
<g clip-path="url(#clip0_1101_64)">
<path d="M15.4233 0.886606H0.967463L6.21209 29.8252C6.34584 30.561 6.9091 31.3312 7.59273 31.9462C8.36255 32.6373 9.25721 33.1149 9.84722 33.1149H20.9963C21.5863 33.1149 22.4825 32.6373 23.2508 31.9462C23.9359 31.3312 24.4992 30.561 24.6315 29.8252L29.8761 0.886606H15.4203H15.4233ZM32.7666 10.4706C32.5883 10.3049 32.5764 10.0258 32.7414 9.84521C32.9063 9.6661 33.1843 9.65416 33.3641 9.81983L35.4209 11.7244V3.2494C35.4209 2.5225 35.1995 1.92695 34.8131 1.51798C34.4311 1.11647 33.8753 0.886606 33.1976 0.886606H30.7737L25.5008 29.9819C25.3299 30.9282 24.6537 31.8745 23.8408 32.6044C22.9209 33.4313 21.7959 34.0015 20.9993 34.0015H9.85019C9.0551 34.0015 7.9286 33.4313 7.00867 32.6044C6.19426 31.873 5.51954 30.9282 5.34864 29.9819L0.0178125 0.562711C0.00740945 0.525396 0.00146484 0.485096 0.00146484 0.443303C0.00146484 0.198516 0.199123 0 0.442852 0H30.4081H33.1976C34.125 0 34.9008 0.329865 35.4506 0.907503C35.9946 1.47917 36.3037 2.28667 36.3037 3.2479V11.6736L38.2535 9.73923C38.4259 9.56758 38.7053 9.57057 38.8762 9.74371C39.0471 9.91685 39.0441 10.1975 38.8717 10.3691L36.1967 13.023C36.1164 13.1155 35.996 13.1752 35.8638 13.1752C35.7389 13.1752 35.626 13.123 35.5457 13.0394L32.7696 10.4691L32.7666 10.4706ZM35.7523 17.4276C35.5026 17.8396 35.2693 18.256 35.0672 18.6769C34.7729 19.2874 34.5396 19.9098 34.4029 20.5516C34.391 20.6069 34.3851 20.6606 34.3851 20.7114C34.3851 20.9352 34.4846 21.1591 34.6541 21.3457C34.8354 21.5457 35.0969 21.6995 35.4046 21.7666C35.516 21.7905 35.6334 21.8039 35.7508 21.8025C35.8682 21.8025 35.9856 21.7905 36.0971 21.7666C36.4062 21.701 36.6663 21.5457 36.8476 21.3457C37.017 21.1591 37.1166 20.9352 37.1166 20.7129C37.1166 20.6621 37.1107 20.6084 37.0988 20.5516C36.962 19.9098 36.7287 19.2859 36.4345 18.6769C36.2309 18.256 35.999 17.8396 35.7493 17.4276H35.7523ZM34.2736 18.2933C34.5901 17.6366 34.9706 16.9963 35.3793 16.3634C35.412 16.3112 35.4566 16.2634 35.5116 16.2276C35.7152 16.0947 35.9871 16.1529 36.1194 16.3574C36.5281 16.9933 36.9115 17.6351 37.2281 18.2933C37.552 18.9635 37.8092 19.6531 37.9607 20.3696C37.9845 20.4815 37.9964 20.5979 37.9949 20.7158C37.9934 21.1651 37.8106 21.598 37.4985 21.9428C37.1983 22.2741 36.7748 22.5264 36.2784 22.6338C36.112 22.6697 35.9351 22.6876 35.7493 22.6876C35.5636 22.6876 35.3867 22.6697 35.2203 22.6338C34.7239 22.5279 34.3018 22.2741 34.0001 21.9428C33.6881 21.5995 33.5053 21.1666 33.5038 20.7188V20.7158C33.5038 20.5979 33.5142 20.4815 33.538 20.3696C33.6895 19.6531 33.9466 18.965 34.2706 18.2933H34.2736ZM15.4233 25.3623C15.1022 25.8862 14.8035 26.4161 14.5449 26.9519C14.1957 27.6758 13.9178 28.4162 13.7558 29.1804C13.7409 29.2505 13.7335 29.3207 13.7335 29.3864C13.7335 29.6685 13.8583 29.9506 14.0709 30.1849C14.2953 30.4327 14.6178 30.6222 14.9982 30.7043C15.1349 30.7342 15.2776 30.7491 15.4218 30.7491C15.5659 30.7491 15.7086 30.7342 15.8453 30.7043C16.2258 30.6222 16.5483 30.4327 16.7727 30.1849C16.9852 29.9506 17.11 29.6685 17.11 29.3864C17.11 29.3207 17.1026 29.252 17.0877 29.1804C16.9258 28.4162 16.6493 27.6773 16.2986 26.9519C16.04 26.4161 15.7413 25.8862 15.4203 25.3623H15.4233ZM13.7528 26.5683C14.1244 25.7981 14.5717 25.0459 15.0517 24.3011C15.0844 24.2488 15.129 24.2011 15.184 24.1652C15.3876 24.0324 15.6596 24.0906 15.7918 24.2951C16.2718 25.0414 16.7222 25.7952 17.0937 26.5683C17.4727 27.3534 17.7729 28.1594 17.9512 28.9968C17.9779 29.1237 17.9913 29.255 17.9898 29.3864C17.9884 29.8953 17.7803 30.3879 17.4251 30.7805C17.0818 31.1596 16.5973 31.4476 16.0296 31.57C15.8394 31.6103 15.6358 31.6327 15.4233 31.6312C15.2107 31.6312 15.0071 31.6103 14.8169 31.57C14.2492 31.4491 13.7647 31.1596 13.4214 30.7805C13.0647 30.3879 12.8567 29.8968 12.8552 29.3864C12.8552 29.255 12.8671 29.1237 12.8938 28.9968C13.0722 28.1594 13.3724 27.3534 13.7513 26.5683H13.7528Z" fill="#081B43"/>
<path fill-rule="evenodd" clip-rule="evenodd" d="M7.79637 4.10764C6.99682 5.34948 6.30427 6.61222 6.01596 7.97049C5.83019 8.84366 6.65352 9.75714 7.79637 9.75415C8.93773 9.75714 9.76106 8.84366 9.57678 7.97049C9.28847 6.61073 8.59592 5.34948 7.79637 4.10764V4.10764ZM15.4233 4.10764C14.6237 5.34948 13.9312 6.61222 13.6429 7.97049C13.4571 8.84366 14.2804 9.75714 15.4233 9.75415C16.5647 9.75714 17.388 8.84366 17.2037 7.97049C16.9154 6.61073 16.2228 5.34948 15.4233 4.10764V4.10764ZM23.0502 4.10764C22.2507 5.34948 21.5581 6.61222 21.2698 7.97049C21.084 8.84366 21.9074 9.75714 23.0502 9.75415C24.1916 9.75714 25.0149 8.84366 24.8306 7.97049C24.5423 6.61073 23.8498 5.34948 23.0502 4.10764V4.10764Z" fill="#081B43"/>
<path fill-rule="evenodd" clip-rule="evenodd" d="M2.73193 13.0841L2.81219 13.523H4.04123V12.2095H2.73342V13.0826L2.73193 13.0841ZM3.21047 15.7216L3.44826 17.0351H4.04123V15.7216H3.21047ZM3.85249 19.2605L4.04123 20.3039V19.2605H3.85249ZM26.4494 22.283L26.6872 20.9696H25.8579V22.283H26.4494V22.283ZM27.0914 18.7441L27.1672 18.3277V17.4306H25.8594V18.7441H27.0929H27.0914ZM28.0381 13.523L28.2759 12.2095H27.7409V13.523H28.0381ZM25.8594 13.92H27.1672V15.2335H25.8594V13.92ZM22.2867 13.92H23.5945V15.2335H22.2867V13.92ZM18.714 13.92H20.0218V15.2335H18.714V13.92V13.92ZM15.1413 13.92H16.4491V15.2335H15.1413V13.92ZM11.5686 13.92H12.8764V15.2335H11.5686V13.92ZM7.99588 13.92H9.30369V15.2335H7.99588V13.92V13.92ZM4.42317 13.92H5.73099V15.2335H4.42317V13.92V13.92ZM24.1667 12.211H25.4745V13.5245H24.1667V12.211ZM20.594 12.211H21.9018V13.5245H20.594V12.211ZM17.0213 12.211H18.3291V13.5245H17.0213V12.211ZM13.4486 12.211H14.7564V13.5245H13.4486V12.211ZM9.87586 12.211H11.1837V13.5245H9.87586V12.211ZM6.30316 12.211H7.61097V13.5245H6.30316V12.211V12.211ZM24.1652 15.7216H25.473V17.0351H24.1652V15.7216ZM20.5925 15.7216H21.9003V17.0351H20.5925V15.7216ZM17.0198 15.7216H18.3276V17.0351H17.0198V15.7216ZM13.4471 15.7216H14.7549V17.0351H13.4471V15.7216ZM9.87438 15.7216H11.1822V17.0351H9.87438V15.7216ZM6.30167 15.7216H7.60948V17.0351H6.30167V15.7216V15.7216ZM22.2823 17.4306H23.5901V18.7441H22.2823V17.4306ZM18.7095 17.4306H20.0174V18.7441H18.7095V17.4306V17.4306ZM15.1368 17.4306H16.4447V18.7441H15.1368V17.4306ZM11.5641 17.4306H12.8719V18.7441H11.5641V17.4306ZM7.99142 17.4306H9.29924V18.7441H7.99142V17.4306V17.4306ZM4.41872 17.4306H5.72653V18.7441H4.41872V17.4306V17.4306ZM24.1622 19.259H25.47V20.5725H24.1622V19.259ZM20.5895 19.259H21.8973V20.5725H20.5895V19.259ZM17.0168 19.259H18.3246V20.5725H17.0168V19.259ZM13.4441 19.259H14.7519V20.5725H13.4441V19.259ZM9.8714 19.259H11.1792V20.5725H9.8714V19.259ZM6.2987 19.259H7.60651V20.5725H6.2987V19.259V19.259ZM22.2793 20.9681H23.5871V22.2816H22.2793V20.9681ZM18.7066 20.9681H20.0144V22.2816H18.7066V20.9681V20.9681ZM15.1339 20.9681H16.4417V22.2816H15.1339V20.9681ZM11.5612 20.9681H12.869V22.2816H11.5612V20.9681ZM7.98845 20.9681H9.29626V22.2816H7.98845V20.9681V20.9681ZM4.41574 20.9681H5.72356V22.2816H4.41574V20.9681V20.9681Z" fill="#081B43"/>
</g>
<defs>
<clipPath id="clip0_1101_64">
<rect width="39" height="34" fill="white"/>
</clipPath>
</defs>
</svg>
