<svg width="41" height="44" viewBox="0 0 41 44" fill="none" xmlns="http://www.w3.org/2000/svg">
<path d="M2.71783 2.9843H7.01895V0.886738C7.01895 0.644745 7.11917 0.423274 7.27936 0.26166L7.28108 0.25995C7.44298 0.0991915 7.66484 0 7.90727 0H9.46547C9.7079 0 9.92976 0.100047 10.0917 0.25995L10.0934 0.26166C10.2544 0.423274 10.3538 0.644745 10.3538 0.886738V2.9843H24.6817V0.886738C24.6817 0.644745 24.7819 0.423274 24.9421 0.26166L24.9438 0.25995C25.1057 0.0991915 25.3276 0 25.57 0H27.1282C27.3707 0 27.5925 0.100047 27.7544 0.25995L27.7561 0.26166C27.9172 0.423274 28.0166 0.644745 28.0166 0.886738V2.9843H32.3177C33.0638 2.9843 33.744 3.28957 34.2365 3.7821C34.7299 4.27208 35.0357 4.95103 35.0357 5.69838V10.5254V26.06C36.2624 26.5303 37.3641 27.2529 38.2772 28.1636C39.9588 29.8421 40.9996 32.162 40.9996 34.723C40.9996 37.2849 39.9596 39.6039 38.2772 41.2825C36.5957 42.961 34.2716 44 31.7052 44C29.1387 44 26.8156 42.9619 25.1332 41.2825C24.1763 40.3273 23.4276 39.1653 22.959 37.8681L2.71612 37.8689C1.97 37.8689 1.28984 37.5637 0.797279 37.0711C0.303862 36.5812 -0.00195312 35.9022 -0.00195312 35.1548V10.5229V5.69582C-0.00195312 4.94932 0.303862 4.27037 0.796422 3.77868L0.823834 3.75303C1.31468 3.27674 1.9837 2.98173 2.71612 2.98173L2.71783 2.9843ZM2.93884 33.4455H3.98735V34.4921H2.93884V33.4455ZM19.3441 33.4455H20.3926V34.4921H19.3441V33.4455ZM17.0004 33.4455H18.0489V34.4921H17.0004V33.4455ZM14.6566 33.4455H15.7051V34.4921H14.6566V33.4455ZM12.3129 33.4455H13.3614V34.4921H12.3129V33.4455ZM9.96917 33.4455H11.0177V34.4921H9.96917V33.4455ZM7.62544 33.4455H8.67395V34.4921H7.62544V33.4455ZM5.28171 33.4455H6.33022V34.4921H5.28171V33.4455ZM17.9384 15.792L19.1102 19.604L22.9119 19.5963C23.1543 19.5963 23.3514 19.793 23.3514 20.035C23.3514 20.1769 23.2837 20.3035 23.1783 20.3839L20.0799 22.7379L21.2715 26.5611C21.3434 26.7928 21.2141 27.0391 20.9819 27.1118C20.8346 27.1571 20.6813 27.122 20.5708 27.0314L17.5169 24.6927L14.4493 27.0408C14.2566 27.1879 13.9799 27.1511 13.8325 26.9587C13.7426 26.8416 13.7212 26.6928 13.7623 26.562L14.9539 22.7388L11.8555 20.3856C11.6627 20.2385 11.6259 19.9623 11.7732 19.7699C11.8649 19.6502 12.0054 19.5903 12.1459 19.598L15.9253 19.6057L17.098 15.7937C17.1691 15.562 17.4158 15.432 17.6471 15.503C17.7919 15.5474 17.8964 15.6594 17.9384 15.7937V15.792ZM18.365 20.1727L17.5178 17.4167L16.6705 20.1727C16.6149 20.3522 16.4478 20.4822 16.2499 20.4822L13.4299 20.4762L15.718 22.2138C15.8713 22.3207 15.945 22.5173 15.8867 22.7055L15.0155 25.5016L17.2436 23.7957C17.3978 23.6734 17.6205 23.6657 17.7842 23.7906L20.0191 25.5016L19.1479 22.7055C19.0948 22.5344 19.1505 22.3403 19.3012 22.2257L21.6047 20.4762L18.8061 20.4822C18.6099 20.4916 18.4249 20.3685 18.3641 20.1727H18.365ZM27.2644 35.4174C27.088 35.2523 27.0785 34.9753 27.2439 34.7983C27.4092 34.6221 27.6868 34.6127 27.8641 34.7777L29.9791 36.7547L35.4264 31.4146C35.5994 31.2445 35.8778 31.247 36.0483 31.4198C36.2187 31.5925 36.2162 31.8704 36.0431 32.0406L30.2952 37.6757C30.1273 37.839 29.8592 37.8433 29.687 37.6825L27.2636 35.4182L27.2644 35.4174ZM34.4704 26.7903L34.4678 26.7894L34.4652 26.7886L34.4627 26.7877L34.4412 26.78L34.4387 26.7792L34.4361 26.7783L34.4335 26.7774C33.6788 26.5201 32.8762 26.3661 32.0418 26.3328H32.0324L32.0196 26.3319L31.975 26.3302L31.9527 26.3294L31.9305 26.3285H31.9245H31.9082L31.8859 26.3277L31.8414 26.3268H31.8191H31.8157H31.7968H31.7746H31.7523H31.73H31.7078C29.3846 26.3268 27.2816 27.2666 25.7593 28.7861C24.2371 30.3056 23.2957 32.4048 23.2957 34.723V34.7444V34.7658L23.2965 34.8273V34.8291V34.8325V34.8504L23.2974 34.8923V34.9137L23.2983 34.9351V34.9419V34.9565L23.2991 34.977C23.3651 37.1951 24.2928 39.1986 25.7593 40.6625C27.2816 42.1821 29.3846 43.1218 31.7078 43.1218C34.0309 43.1218 36.1339 42.1821 37.6562 40.6625C39.1784 39.143 40.1198 37.0438 40.1198 34.7256C40.1198 32.4066 39.1784 30.3073 37.6562 28.7886C36.7687 27.9028 35.6834 27.2135 34.4721 26.7928L34.4704 26.7903ZM32.2654 25.4632C32.9156 25.5016 33.5478 25.6068 34.1551 25.7718V10.9649H0.882084V35.1566C0.882084 35.6602 1.08853 36.1185 1.42176 36.4512V36.4529C1.75327 36.7838 2.21242 36.9899 2.71783 36.9899H22.6918C22.5359 36.3699 22.4425 35.7252 22.4185 35.0625L22.4177 35.0403L22.4168 35.018L22.4159 34.9958V34.9932L22.4151 34.9505L22.4142 34.9282L22.4134 34.906L22.4125 34.8607V34.8453V34.8385V34.8162V34.794V34.7718V34.7495V34.7273C22.4125 32.1654 23.4525 29.8464 25.1349 28.1678C26.8164 26.4893 29.1404 25.4503 31.7069 25.4503L31.8268 25.4512H31.8285H31.8525L31.9219 25.4529H31.9253H31.9459H31.9502L31.9742 25.4537L31.9981 25.4546L32.0221 25.4555L32.0461 25.4563L32.0641 25.4572H32.0701L32.0941 25.458L32.1181 25.4589L32.1421 25.4597L32.166 25.4606L32.2149 25.4632L32.2389 25.4649L32.2628 25.4666L32.2654 25.4632ZM0.882084 10.085H34.1551V5.69838C34.1551 5.19473 33.9487 4.7364 33.6155 4.40376V4.40205C33.2839 4.07113 32.8248 3.86505 32.3194 3.86505H28.0183V5.98142V5.99254V6.00365V6.01477L28.0174 6.02589L28.0166 6.037L28.0157 6.04812L28.0148 6.05923L28.014 6.07035L28.0131 6.08147L28.0114 6.09258L28.0097 6.1037L28.008 6.11482L28.0063 6.12508L28.0046 6.13534L28.0028 6.1456L28.0011 6.15586L27.9986 6.16612L27.996 6.17638L27.9934 6.18664L27.9909 6.19691L27.9883 6.20717L27.9857 6.21743L27.9823 6.22769L27.9789 6.23795V6.23881L27.9754 6.24821V6.24907L27.972 6.25847V6.25933L27.9686 6.26873V6.26959L27.9652 6.279V6.27985L27.9617 6.28926V6.29011L27.9583 6.29952V6.30037L27.9549 6.30978V6.31063L27.9506 6.32004V6.32089L27.9463 6.3303V6.33116L27.942 6.34056V6.34142L27.9377 6.35082V6.35168L27.9335 6.36108V6.36194L27.9292 6.37135V6.3722L27.9249 6.38161V6.38246L27.9206 6.39101V6.39187L27.9163 6.40042V6.40127L27.9112 6.40983V6.41068L27.906 6.41923V6.42009L27.9009 6.42864L27.9001 6.42949L27.8949 6.43804L27.8941 6.4389L27.8889 6.44745V6.44831L27.8838 6.45686L27.8829 6.45771L27.8778 6.46626L27.8769 6.46712L27.8718 6.47567L27.8709 6.47652L27.8658 6.48507L27.8649 6.48593L27.8589 6.49363L27.8581 6.49448L27.8521 6.50218L27.8512 6.50303L27.8452 6.51073L27.8444 6.51158L27.8384 6.51928L27.8375 6.52013L27.8315 6.52783L27.8307 6.52868L27.8247 6.53638L27.8238 6.53723L27.8178 6.54493L27.817 6.54579L27.811 6.55348L27.8101 6.55434L27.8041 6.56118L27.8033 6.56203L27.7973 6.56973L27.7964 6.57058L27.7904 6.57742L27.7895 6.57828L27.7827 6.58512L27.7818 6.58598L27.775 6.59282L27.7741 6.59367L27.7673 6.60051L27.7664 6.60137L27.7596 6.60821L27.7587 6.60906L27.7579 6.60992L27.757 6.61077L27.7501 6.61761L27.7493 6.61847L27.7424 6.62531L27.7416 6.62616L27.7347 6.63215L27.727 6.63985L27.7262 6.6407L27.7193 6.64669L27.7116 6.65353L27.7107 6.65438L27.703 6.66037L27.7022 6.66122L27.6945 6.66721L27.6936 6.66807L27.6859 6.67405L27.685 6.67491L27.6773 6.68089L27.6765 6.68175L27.6688 6.68773L27.6679 6.68859L27.6602 6.69457L27.6593 6.69543L27.6516 6.70141L27.6508 6.70227L27.6431 6.7074L27.6422 6.70825L27.6345 6.71424L27.6336 6.7151L27.6251 6.72023L27.6242 6.72108L27.6157 6.72621L27.6148 6.72707L27.6062 6.7322L27.6054 6.73305L27.5968 6.73818L27.5959 6.73904L27.5874 6.74417L27.5865 6.74502L27.578 6.75015H27.5771L27.5685 6.75529L27.5677 6.75614L27.5591 6.76127L27.5583 6.76213L27.5497 6.7664L27.5488 6.76726L27.5403 6.77153H27.5394L27.5308 6.77581H27.53L27.5206 6.78008H27.5197L27.5103 6.78436H27.5094L27.5 6.78863H27.4992L27.4897 6.79291H27.4889L27.4795 6.79718H27.4786L27.4692 6.80146H27.4683L27.4589 6.80488H27.458L27.4486 6.8083H27.4478L27.4383 6.81172H27.4375L27.4281 6.81514H27.4272L27.4178 6.81856L27.4083 6.82198H27.4075L27.3981 6.8254H27.3972L27.3878 6.82882H27.3869L27.3767 6.83224L27.3664 6.83566H27.3655L27.3552 6.83823L27.345 6.8408L27.3347 6.84336L27.3244 6.84593L27.3141 6.84849L27.3038 6.85106L27.2936 6.85277L27.2833 6.85448L27.273 6.85619L27.2627 6.8579L27.2516 6.85961L27.2404 6.86132L27.2293 6.86303L27.2182 6.86388L27.207 6.86474L27.1959 6.86559L27.1848 6.86645L27.1736 6.8673L27.1625 6.86816H27.1514H27.1402H27.1291H25.5709H25.5598H25.5486H25.5375L25.5263 6.8673L25.5152 6.86645L25.5041 6.86559L25.4929 6.86474L25.4818 6.86388L25.4707 6.86303L25.4595 6.86132L25.4484 6.85961L25.4373 6.8579L25.427 6.85619L25.4167 6.85448L25.4064 6.85277L25.3961 6.85106L25.3859 6.84849L25.3756 6.84593L25.3653 6.84336L25.355 6.8408L25.3447 6.83823L25.3345 6.83566L25.3242 6.83224L25.3139 6.82882L25.3036 6.8254H25.3028L25.2933 6.82198L25.2839 6.81856H25.2831L25.2736 6.81514H25.2728L25.2634 6.81172H25.2625L25.2531 6.8083H25.2522L25.2428 6.80488H25.2419L25.2325 6.80061H25.2317L25.2222 6.79633H25.2214L25.212 6.79205H25.2111L25.2017 6.78778H25.2008L25.1914 6.7835H25.1905L25.1811 6.77923H25.1803L25.1708 6.77495H25.17L25.1606 6.77068H25.1597L25.1511 6.7664H25.1503L25.1417 6.76127H25.1409L25.1323 6.75614H25.1314L25.1229 6.75101L25.122 6.75015L25.1135 6.74502L25.1126 6.74417L25.104 6.73904H25.1032L25.0946 6.73391L25.0937 6.73305L25.0852 6.72792L25.0843 6.72707L25.0758 6.72194L25.0749 6.72108L25.0672 6.71595L25.0663 6.7151L25.0586 6.70911L25.0578 6.70825L25.0501 6.70227L25.0492 6.70141L25.0415 6.69543L25.0406 6.69457L25.0329 6.68859L25.0321 6.68773L25.0244 6.68175L25.0235 6.68089L25.0158 6.67491L25.0149 6.67405L25.0072 6.66807L25.0064 6.66721L24.9987 6.66122L24.9978 6.66037L24.991 6.65438L24.9901 6.65353L24.9824 6.64754L24.9815 6.64669L24.9747 6.6407L24.9738 6.63985L24.967 6.63301L24.9661 6.63215L24.9593 6.62531L24.9584 6.62446L24.9515 6.61761L24.9507 6.61676L24.9438 6.60992L24.943 6.60906L24.9421 6.60821L24.9413 6.60735L24.9344 6.60051L24.9336 6.59966L24.9267 6.59282L24.9258 6.59196L24.9199 6.58512L24.9121 6.57742L24.9113 6.57657L24.9053 6.56973L24.8984 6.56203L24.8976 6.56118L24.8916 6.55348L24.8907 6.55263L24.8847 6.54493L24.8839 6.54408L24.8779 6.53638L24.877 6.53552L24.871 6.52783L24.8702 6.52697L24.8642 6.51928L24.8633 6.51842L24.8573 6.51073L24.8565 6.50987L24.8505 6.50218L24.8496 6.50132L24.8445 6.49363L24.8436 6.49277L24.8376 6.48507L24.8368 6.48422L24.8316 6.47567L24.8308 6.47481L24.8256 6.46626L24.8248 6.46541L24.8196 6.45686L24.8188 6.456L24.8136 6.44745L24.8128 6.44659L24.8076 6.43804L24.8068 6.43719L24.8016 6.42864V6.42778L24.7965 6.41923L24.7956 6.41838L24.7905 6.40983L24.7896 6.40897L24.7854 6.40042L24.7845 6.39956L24.7802 6.39101V6.39016L24.7759 6.38161V6.38075L24.7717 6.37135V6.37049L24.7674 6.36108V6.36023L24.7631 6.35082V6.34997L24.7588 6.34056V6.33971L24.7545 6.3303V6.32945L24.7502 6.32004V6.31918L24.7468 6.30978V6.30892L24.7434 6.29952V6.29866L24.74 6.28926V6.2884L24.7365 6.279V6.27814L24.7331 6.26873L24.7297 6.25933V6.25847L24.7263 6.24907V6.24821L24.7228 6.23881V6.23795L24.7194 6.22769L24.716 6.21743V6.21657L24.7134 6.20631L24.7108 6.19605L24.7083 6.18579L24.7057 6.17553L24.7031 6.16527L24.7006 6.15501L24.6988 6.14474L24.6971 6.13448L24.6954 6.12422L24.6937 6.11396L24.692 6.10284L24.6903 6.09173L24.6886 6.08061L24.6877 6.0695L24.6868 6.05838L24.686 6.04726L24.6851 6.03615L24.6843 6.02503L24.6834 6.01391V6.0028V5.99168V5.98057V3.86419H10.3555V5.98057V5.99168V6.0028V6.01391L10.3546 6.02503L10.3538 6.03615L10.3529 6.04726L10.3521 6.05838L10.3512 6.0695L10.3504 6.08061L10.3487 6.09173L10.3469 6.10284L10.3452 6.11396L10.3435 6.12422L10.3418 6.13448L10.3401 6.14474L10.3384 6.15501L10.3358 6.16527L10.3332 6.17553L10.3307 6.18579L10.3281 6.19605L10.3255 6.20631L10.323 6.21657L10.3195 6.22683L10.3161 6.2371V6.23795L10.3127 6.24736V6.24821L10.3092 6.25762V6.25847L10.3058 6.26788V6.26873L10.3024 6.27814V6.279L10.299 6.2884V6.28926L10.2955 6.29866V6.29952L10.2921 6.30892V6.30978L10.2878 6.31918V6.32004L10.2835 6.32945V6.3303L10.2793 6.33971V6.34056L10.275 6.34997V6.35082L10.2707 6.36023V6.36108L10.2664 6.37049V6.37135L10.2621 6.38075V6.38161L10.2579 6.39016V6.39101L10.2536 6.39956V6.40042L10.2484 6.40897V6.40983L10.2433 6.41838V6.41923L10.2381 6.42778L10.2373 6.42864L10.2322 6.43719L10.2313 6.43804L10.2262 6.44659V6.44745L10.221 6.456L10.2202 6.45686L10.215 6.46541L10.2142 6.46626L10.209 6.47481L10.2082 6.47567L10.203 6.48422L10.2022 6.48507L10.1962 6.49277L10.1953 6.49363L10.1893 6.50132L10.1885 6.50218L10.1825 6.50987L10.1816 6.51073L10.1756 6.51842L10.1748 6.51928L10.1688 6.52697L10.1679 6.52783L10.1619 6.53552L10.1611 6.53638L10.1551 6.54408L10.1542 6.54493L10.1482 6.55263L10.1473 6.55348L10.1413 6.56032L10.1405 6.56118L10.1345 6.56887L10.1336 6.56973L10.1276 6.57657L10.1268 6.57742L10.1199 6.58427L10.1191 6.58512L10.1122 6.59196L10.1114 6.59282L10.1045 6.59966L10.1037 6.60051L10.0968 6.60735L10.0959 6.60821L10.0951 6.60906L10.0942 6.60992L10.0874 6.61676L10.0865 6.61761L10.0797 6.62446L10.0788 6.62531L10.072 6.6313L10.0643 6.63899L10.0634 6.63985L10.0565 6.64583L10.0488 6.65267L10.048 6.65353L10.0403 6.65951L10.0394 6.66037L10.0317 6.66636L10.0308 6.66721L10.0231 6.6732L10.0223 6.67405L10.0146 6.68004L10.0137 6.68089L10.006 6.68688L10.0051 6.68773L9.99744 6.69372L9.99658 6.69457L9.98887 6.70056L9.98801 6.70141L9.9803 6.70654L9.97945 6.7074L9.97174 6.71339L9.97088 6.71424L9.96231 6.71937L9.96146 6.72023L9.95289 6.72536L9.95203 6.72621L9.94347 6.73134L9.94261 6.7322L9.93405 6.73733L9.93319 6.73818L9.92462 6.74331L9.92377 6.74417L9.9152 6.7493H9.91434L9.90578 6.75443L9.90492 6.75529L9.89635 6.76042L9.8955 6.76127L9.88693 6.76555L9.88608 6.7664L9.87751 6.77068H9.87665L9.86809 6.77495H9.86723L9.85781 6.77923H9.85695L9.84753 6.7835H9.84667L9.83725 6.78778H9.83639L9.82697 6.79205H9.82611L9.81669 6.79633H9.81583L9.80641 6.80061H9.80555L9.79613 6.80403H9.79527L9.78585 6.80745H9.78499L9.77557 6.81087H9.77471L9.76529 6.81429H9.76443L9.75501 6.81771L9.74559 6.82113H9.74473L9.73531 6.82455H9.73445L9.72503 6.82797H9.72417L9.71389 6.83139L9.70361 6.83481H9.70276L9.69248 6.83737L9.6822 6.83994L9.67192 6.8425L9.66164 6.84507L9.65136 6.84764L9.64108 6.8502L9.6308 6.85191L9.62052 6.85362L9.61024 6.85533L9.59996 6.85704L9.58883 6.85875L9.57769 6.86046L9.56655 6.86217L9.55542 6.86303L9.54428 6.86388L9.53314 6.86474L9.52201 6.86559L9.51087 6.86645L9.49974 6.8673H9.4886H9.47746H9.46633H7.90813H7.89699H7.88585H7.87472L7.86358 6.86645L7.85245 6.86559L7.84131 6.86474L7.83017 6.86388L7.81904 6.86303L7.8079 6.86217L7.79676 6.86046L7.78563 6.85875L7.77449 6.85704L7.76421 6.85533L7.75393 6.85362L7.74365 6.85191L7.73338 6.8502L7.7231 6.84764L7.71282 6.84507L7.70254 6.8425L7.69226 6.83994L7.68198 6.83737L7.6717 6.83481L7.66142 6.83139L7.65114 6.82797L7.64086 6.82455H7.64L7.63058 6.82113L7.62116 6.81771H7.6203L7.61088 6.81429H7.61002L7.6006 6.81087H7.59974L7.59032 6.80745H7.58946L7.58004 6.80403H7.57918L7.56976 6.79975H7.5689L7.55948 6.79548H7.55862L7.5492 6.7912H7.54834L7.53892 6.78692H7.53806L7.52864 6.78265H7.52778L7.51836 6.77837H7.51751L7.50808 6.7741H7.50723L7.4978 6.76982H7.49695L7.48838 6.76555H7.48752L7.47896 6.76042H7.4781L7.46953 6.75529H7.46868L7.46011 6.75015L7.45925 6.7493L7.45069 6.74417L7.44983 6.74331L7.44127 6.73818H7.44041L7.43184 6.73305L7.43099 6.7322L7.42242 6.72707L7.42156 6.72621L7.413 6.72108L7.41214 6.72023L7.40443 6.7151L7.40357 6.71424L7.39586 6.70825L7.39501 6.7074L7.3873 6.70141L7.38644 6.70056L7.37873 6.69457L7.37788 6.69372L7.37017 6.68773L7.36931 6.68688L7.3616 6.68089L7.36074 6.68004L7.35303 6.67405L7.35218 6.6732L7.34447 6.66721L7.34361 6.66636L7.3359 6.66037L7.33504 6.65951L7.32819 6.65353L7.32733 6.65267L7.31962 6.64669L7.31877 6.64583L7.31192 6.63985L7.31106 6.63899L7.30421 6.63215L7.30335 6.6313L7.2965 6.62446L7.29564 6.6236L7.28879 6.61676L7.28793 6.6159L7.28108 6.60906L7.28022 6.60821L7.27936 6.60735L7.27851 6.6065L7.27165 6.59966L7.2708 6.5988L7.26394 6.59196L7.26309 6.59111L7.25709 6.58427L7.24938 6.57657L7.24853 6.57571L7.24253 6.56887L7.23568 6.56118L7.23482 6.56032L7.22882 6.55263L7.22797 6.55177L7.22197 6.54408L7.22111 6.54322L7.21512 6.53552L7.21426 6.53467L7.20826 6.52697L7.20741 6.52612L7.20141 6.51842L7.20055 6.51757L7.19456 6.50987L7.1937 6.50902L7.18771 6.50132L7.18685 6.50047L7.18171 6.49277L7.18085 6.49191L7.17486 6.48422L7.174 6.48336L7.16886 6.47481L7.168 6.47396L7.16286 6.46541L7.16201 6.46455L7.15687 6.456L7.15601 6.45515L7.15087 6.44659L7.15001 6.44574L7.14487 6.43719L7.14402 6.43633L7.13888 6.42778V6.42693L7.13374 6.41838L7.13288 6.41752L7.12774 6.40897L7.12688 6.40812L7.1226 6.39956L7.12174 6.39871L7.11746 6.39016V6.3893L7.11318 6.38075V6.3799L7.10889 6.37049V6.36964L7.10461 6.36023V6.35937L7.10033 6.34997V6.34911L7.09605 6.33971V6.33885L7.09176 6.32945V6.32859L7.08748 6.31918V6.31833L7.08405 6.30892V6.30807L7.08063 6.29866V6.29781L7.0772 6.2884V6.28755L7.07377 6.27814V6.27729L7.07035 6.26788L7.06692 6.25847V6.25762L7.06349 6.24821V6.24736L7.06007 6.23795V6.2371L7.05664 6.22683L7.05321 6.21657V6.21572L7.05064 6.20546L7.04807 6.1952L7.0455 6.18493L7.04293 6.17467L7.04037 6.16441L7.0378 6.15415L7.03608 6.14389L7.03437 6.13363L7.03266 6.12337L7.03094 6.11311L7.02923 6.10199L7.02752 6.09087L7.0258 6.07976L7.02495 6.06864L7.02409 6.05752L7.02323 6.04641L7.02238 6.03529L7.02152 6.02418L7.02066 6.01306V6.00194V5.99083V5.97971V3.86334H2.71955C2.22442 3.86334 1.77383 4.06087 1.44403 4.37982L1.42347 4.40205C1.09024 4.73469 0.883798 5.19302 0.883798 5.69667V10.0833L0.882084 10.085Z" fill="#081B43"/>
</svg>
