<svg width="12" height="16" viewBox="0 0 12 16" fill="none" xmlns="http://www.w3.org/2000/svg">
<path d="M6 16C5.17157 16 4.5 15.2837 4.5 14.4H7.5C7.5 15.2837 6.82843 16 6 16ZM12 13.6H0V12L1.5 11.2V6.8C1.5 4.0304 2.56575 2.2344 4.5 1.744V0H7.5V1.744C9.43425 2.2336 10.5 4.0288 10.5 6.8V11.2L12 12V13.6ZM6 3C5.08475 2.93696 4.20209 3.37382 3.65625 4.16C3.18941 4.94765 2.96035 5.86911 3 6.8V12H9V6.8C9.0396 5.86911 8.81055 4.94767 8.34375 4.16C7.79791 3.37382 6.91525 2.93696 6 3Z" fill="white"/>
</svg>
