<svg width="1440" height="27" viewBox="0 0 1440 27" fill="none" xmlns="http://www.w3.org/2000/svg">
<g filter="url(#filter0_d_1008_3875)">
<rect width="1440" height="23" fill="#3174AD"/>
</g>
<path d="M0 0H13.4784L30.9638 23H17.4855L0 0Z" fill="#2E6FA5"/>
<path d="M27.6853 0H41.1637L58.6491 23H45.1708L27.6853 0Z" fill="#2E6FA5"/>
<path d="M54.6421 0H68.1205L85.6059 23H72.1275L54.6421 0Z" fill="#2E6FA5"/>
<path d="M82.3274 0H95.8058L113.291 23H99.8128L82.3274 0Z" fill="#2E6FA5"/>
<path d="M110.013 0H123.491L140.977 23H127.498L110.013 0Z" fill="#2E6FA5"/>
<path d="M137.698 0H151.176L168.662 23H155.183L137.698 0Z" fill="#2E6FA5"/>
<path d="M165.383 0H178.862L196.347 23H182.869L165.383 0Z" fill="#2E6FA5"/>
<path d="M193.068 0H206.547L224.032 23H210.554L193.068 0Z" fill="#2E6FA5"/>
<path d="M220.754 0H234.232L251.718 23H238.239L220.754 0Z" fill="#2E6FA5"/>
<path d="M248.439 0H261.917L279.403 23H265.924L248.439 0Z" fill="#2E6FA5"/>
<path d="M276.125 0H289.603L307.088 23H293.61L276.125 0Z" fill="#2E6FA5"/>
<path d="M303.81 0H317.288L334.774 23H321.295L303.81 0Z" fill="#2E6FA5"/>
<path d="M331.495 0H344.973L362.459 23H348.981L331.495 0Z" fill="#2E6FA5"/>
<path d="M359.18 0H372.659L390.144 23H376.666L359.18 0Z" fill="#2E6FA5"/>
<path d="M386.137 0H399.616L417.101 23H403.623L386.137 0Z" fill="#2E6FA5"/>
<path d="M413.822 0H427.301L444.786 23H431.308L413.822 0Z" fill="#2E6FA5"/>
<path d="M441.508 0H454.986L472.472 23H458.993L441.508 0Z" fill="#2E6FA5"/>
<path d="M469.193 0H482.671L500.157 23H486.679L469.193 0Z" fill="#2E6FA5"/>
<path d="M496.878 0H510.357L527.842 23H514.364L496.878 0Z" fill="#2E6FA5"/>
<path d="M524.563 0H538.042L555.527 23H542.049L524.563 0Z" fill="#2E6FA5"/>
<path d="M552.249 0H565.727L583.213 23H569.734L552.249 0Z" fill="#2E6FA5"/>
<path d="M579.934 0H593.413L610.898 23H597.42L579.934 0Z" fill="#2E6FA5"/>
<path d="M607.62 0H621.098L638.583 23H625.105L607.62 0Z" fill="#2E6FA5"/>
<path d="M635.305 0H648.783L666.269 23H652.79L635.305 0Z" fill="#2E6FA5"/>
<path d="M662.99 0H676.469L693.954 23H680.476L662.99 0Z" fill="#2E6FA5"/>
<path d="M690.676 0H704.154L721.639 23H708.161L690.676 0Z" fill="#2E6FA5"/>
<path d="M718.361 0H731.839L749.325 23H735.846L718.361 0Z" fill="#2E6FA5"/>
<path d="M745.318 0H758.796L776.281 23H762.803L745.318 0Z" fill="#2E6FA5"/>
<path d="M773.003 0H786.481L803.967 23H790.488L773.003 0Z" fill="#2E6FA5"/>
<path d="M800.688 0H814.166L831.652 23H818.173L800.688 0Z" fill="#2E6FA5"/>
<path d="M828.373 0H841.852L859.337 23H845.859L828.373 0Z" fill="#2E6FA5"/>
<path d="M856.059 0H869.537L887.023 23H873.544L856.059 0Z" fill="#2E6FA5"/>
<path d="M883.744 0H897.222L914.708 23H901.229L883.744 0Z" fill="#2E6FA5"/>
<path d="M911.429 0H924.908L942.393 23H928.915L911.429 0Z" fill="#2E6FA5"/>
<path d="M939.115 0H952.593L970.078 23H956.6L939.115 0Z" fill="#2E6FA5"/>
<path d="M966.8 0H980.278L997.764 23H984.286L966.8 0Z" fill="#2E6FA5"/>
<path d="M994.485 0H1007.96L1025.45 23H1011.97L994.485 0Z" fill="#2E6FA5"/>
<path d="M1022.17 0H1035.65L1053.13 23H1039.66L1022.17 0Z" fill="#2E6FA5"/>
<path d="M1049.86 0H1063.33L1080.82 23H1067.34L1049.86 0Z" fill="#2E6FA5"/>
<path d="M1076.81 0H1090.29L1107.78 23H1094.3L1076.81 0Z" fill="#2E6FA5"/>
<path d="M1104.5 0H1117.98L1135.46 23H1121.98L1104.5 0Z" fill="#2E6FA5"/>
<path d="M1132.18 0H1145.66L1163.15 23H1149.67L1132.18 0Z" fill="#2E6FA5"/>
<path d="M1159.87 0H1173.35L1190.83 23H1177.35L1159.87 0Z" fill="#2E6FA5"/>
<path d="M1187.55 0H1201.03L1218.52 23H1205.04L1187.55 0Z" fill="#2E6FA5"/>
<path d="M1215.24 0H1228.72L1246.2 23H1232.72L1215.24 0Z" fill="#2E6FA5"/>
<path d="M1242.92 0H1256.4L1273.89 23H1260.41L1242.92 0Z" fill="#2E6FA5"/>
<path d="M1270.61 0H1284.09L1301.57 23H1288.1L1270.61 0Z" fill="#2E6FA5"/>
<path d="M1298.29 0H1311.77L1329.26 23H1315.78L1298.29 0Z" fill="#2E6FA5"/>
<path d="M1325.98 0H1339.46L1356.94 23H1343.47L1325.98 0Z" fill="#2E6FA5"/>
<path d="M1353.67 0H1367.14L1384.63 23H1371.15L1353.67 0Z" fill="#2E6FA5"/>
<path d="M1381.35 0H1394.83L1412.31 23H1398.84L1381.35 0Z" fill="#2E6FA5"/>
<path d="M1409.04 0H1422.51L1440 23H1426.52L1409.04 0Z" fill="#2E6FA5"/>
<defs>
<filter id="filter0_d_1008_3875" x="-2" y="0" width="1444" height="27" filterUnits="userSpaceOnUse" color-interpolation-filters="sRGB">
<feFlood flood-opacity="0" result="BackgroundImageFix"/>
<feColorMatrix in="SourceAlpha" type="matrix" values="0 0 0 0 0 0 0 0 0 0 0 0 0 0 0 0 0 0 127 0" result="hardAlpha"/>
<feOffset dy="2"/>
<feGaussianBlur stdDeviation="1"/>
<feColorMatrix type="matrix" values="0 0 0 0 0.27451 0 0 0 0 0.298039 0 0 0 0 0.298039 0 0 0 0.5 0"/>
<feBlend mode="normal" in2="BackgroundImageFix" result="effect1_dropShadow_1008_3875"/>
<feBlend mode="normal" in="SourceGraphic" in2="effect1_dropShadow_1008_3875" result="shape"/>
</filter>
</defs>
</svg>
