<svg width="12" height="16" viewBox="0 0 12 16" fill="none" xmlns="http://www.w3.org/2000/svg">
<path d="M4.45263 12.1176C4.45263 11.8587 4.45263 11.6705 4.45263 11.5293C4.45263 10.7764 4.58036 10.1176 4.81027 9.57638C4.98909 9.15285 5.24454 8.75285 5.62772 8.32932C5.90872 8.02344 6.41962 7.57638 7.13489 6.98814C7.85016 6.39991 8.33552 5.92932 8.53989 5.57638C8.76979 5.22344 8.87198 4.84697 8.87198 4.42344C8.87198 3.6705 8.56543 3.01167 7.9268 2.44697C7.28817 1.88226 6.52181 1.59991 5.60217 1.59991C4.70809 1.59991 3.96727 1.85873 3.37973 2.37638C2.79219 2.89403 2.38346 3.69403 2.20465 4.79991L0.0588379 4.56461C0.263201 3.10579 0.825198 1.97638 1.79592 1.19991C2.76664 0.423437 4.01836 0.0234375 5.60217 0.0234375C7.26262 0.0234375 8.59098 0.446967 9.58724 1.2705C10.5835 2.11756 11.0689 3.12932 11.0689 4.30579C11.0689 4.98814 10.8901 5.62344 10.5324 6.21167C10.1748 6.79991 9.51061 7.50579 8.4888 8.32932C7.79907 8.89403 7.3648 9.29403 7.16044 9.55285C6.95608 9.81167 6.8028 10.1176 6.70062 10.4705C6.59844 10.7999 6.54735 11.3646 6.52181 12.1411H4.52927L4.45263 12.1176ZM4.06945 15.9764V13.7881H6.44517V15.9764H4.06945Z" fill="white"/>
</svg>
