<svg width="16" height="19" viewBox="0 0 16 19" fill="none" xmlns="http://www.w3.org/2000/svg">
<path d="M0 18C0 18.5523 0.447715 19 1 19C1.55228 19 2 18.5523 2 18H0ZM14 18C14 18.5523 14.4477 19 15 19C15.5523 19 16 18.5523 16 18H14ZM2 18V17H0V18H2ZM6 13H10V11H6V13ZM14 17V18H16V17H14ZM11 5C11 6.65685 9.65685 8 8 8V10C10.7614 10 13 7.76142 13 5H11ZM8 8C6.34315 8 5 6.65685 5 5H3C3 7.76142 5.23858 10 8 10V8ZM5 5C5 3.34315 6.34315 2 8 2V0C5.23858 0 3 2.23858 3 5H5ZM8 2C9.65685 2 11 3.34315 11 5H13C13 2.23858 10.7614 0 8 0V2ZM10 13C12.2091 13 14 14.7909 14 17H16C16 13.6863 13.3137 11 10 11V13ZM2 17C2 14.7909 3.79086 13 6 13V11C2.68629 11 0 13.6863 0 17H2Z" fill="#081B43"/>
</svg>
