<svg width="19" height="20" viewBox="0 0 19 20" fill="none" xmlns="http://www.w3.org/2000/svg">
<path d="M13 14.5C13 13.9477 12.5523 13.5 12 13.5C11.4477 13.5 11 13.9477 11 14.5H13ZM11 6.0625C11 6.61478 11.4477 7.0625 12 7.0625C12.5523 7.0625 13 6.61478 13 6.0625H11ZM8 9C7.44772 9 7 9.44771 7 10C7 10.5523 7.44772 11 8 11V9ZM18 10L18.7071 10.7071C19.0976 10.3166 19.0976 9.68342 18.7071 9.29289L18 10ZM16.2071 6.79289C15.8166 6.40237 15.1834 6.40237 14.7929 6.79289C14.4024 7.18342 14.4024 7.81658 14.7929 8.20711L16.2071 6.79289ZM14.7929 11.7929C14.4024 12.1834 14.4024 12.8166 14.7929 13.2071C15.1834 13.5976 15.8166 13.5976 16.2071 13.2071L14.7929 11.7929ZM3 2H10V0H3V2ZM10 18H3V20H10V18ZM2 17V3H0V17H2ZM11 14.5V17H13V14.5H11ZM8 11H18V9H8V11ZM18.7071 9.29289L16.2071 6.79289L14.7929 8.20711L17.2929 10.7071L18.7071 9.29289ZM17.2929 9.29289L14.7929 11.7929L16.2071 13.2071L18.7071 10.7071L17.2929 9.29289ZM3 18C2.44772 18 2 17.5523 2 17H0C0 18.6569 1.34315 20 3 20V18ZM10 20C11.6569 20 13 18.6569 13 17H11C11 17.5523 10.5523 18 10 18V20ZM10 2C10.5523 2 11 2.44772 11 3H13C13 1.34315 11.6569 0 10 0V2ZM3 0C1.34315 0 0 1.34315 0 3H2C2 2.44772 2.44772 2 3 2V0ZM11 3V6.0625H13V3H11Z" fill="#081B43"/>
</svg>
