<svg width="18" height="18" viewBox="0 0 18 18" fill="none" xmlns="http://www.w3.org/2000/svg">
<path d="M7.8735 17.9981H2.62483C1.58958 17.9971 0.750591 17.158 0.749599 16.1227V7.39369C0.0146343 6.87209 -0.214198 5.88323 0.216904 5.09175C1.02674 3.64472 1.85278 2.21838 2.66532 0.851442C2.99121 0.317803 3.57341 -0.00543906 4.19862 6.92907e-05C4.57971 0.00394126 4.95041 0.124899 5.26041 0.3466L5.28201 0.360099C5.65274 0.576074 9.23403 2.70793 12.1126 4.42043L14.6672 5.93945L14.7841 6.00875C16.78 7.18851 17.229 7.45668 17.2542 7.47378C17.9889 7.99401 18.2148 8.9836 17.7788 9.77121C16.9842 11.1903 16.1591 12.6167 15.3303 14.0115C15.0087 14.5394 14.4367 14.8632 13.8186 14.8673C13.6975 14.8674 13.5768 14.8538 13.4587 14.8268C13.3543 14.8889 12.7784 15.2588 12.0487 15.7267C10.7502 16.5591 8.97578 17.6975 8.77062 17.8028C8.49382 17.9453 8.18447 18.0126 7.8735 17.9981ZM2.2496 9.92599V16.1227C2.2496 16.3299 2.4176 16.4979 2.62483 16.4979H6.06486C4.75741 14.2905 3.47426 12.0785 2.2496 9.92599ZM3.47156 9.0261C3.83149 9.64433 7.71513 16.3441 7.74752 16.389C7.79868 16.4555 7.87782 16.4944 7.96168 16.4943C8.00592 16.4943 8.04949 16.4836 8.08856 16.4628C8.21003 16.3944 11.8624 14.0475 11.8984 14.0241C11.6159 13.8576 9.57147 12.6392 7.40649 11.3496L3.45357 8.9991L3.45987 9.009L3.46887 9.0243V9.0297L3.47156 9.0261ZM3.89808 1.70994C3.17102 2.87981 1.54414 5.78467 1.52255 5.83777C1.4692 5.96524 1.51653 6.11258 1.63413 6.18513C1.7538 6.25622 13.6504 13.3447 13.7637 13.3627C13.7781 13.3638 13.7926 13.3638 13.8069 13.3627C13.9047 13.363 13.9955 13.3122 14.0463 13.2286C14.7787 11.9985 16.4659 9.0378 16.4704 9.0288C16.5225 8.9008 16.4751 8.75387 16.3579 8.68054C16.2437 8.61215 4.36959 1.55516 4.2931 1.52186C4.25834 1.50723 4.22104 1.49958 4.18333 1.49937C4.08857 1.49988 4.00038 1.54787 3.94847 1.62715L3.94217 1.63795L3.93497 1.64875L3.92418 1.66675V1.67125L3.91068 1.69284L3.89718 1.70994H3.89808ZM5.11554 6.65037C4.2882 6.64987 3.61767 5.97916 3.61734 5.15174C3.61701 4.32433 4.287 3.65308 5.11435 3.65192C5.94169 3.65076 6.61356 4.32013 6.61555 5.14754C6.61456 5.97563 5.94356 6.64668 5.11554 6.64767V6.65037Z" fill="#081B43"/>
</svg>
