<svg width="69" height="63" viewBox="0 0 69 63" fill="none" xmlns="http://www.w3.org/2000/svg">
<path d="M16.1017 62.384C16.0242 62.7935 15.6256 63.0635 15.2123 62.9874C14.799 62.9106 14.5266 62.5156 14.6034 62.106C15.1785 59.0878 15.6047 56.0958 15.6182 53.1818C15.6299 50.5061 15.2941 47.8804 14.4036 45.3376C13.5315 45.4662 12.7141 45.4595 11.9601 45.34C10.5295 45.1133 9.33144 44.4837 8.4212 43.6029C7.51158 42.7222 6.89163 41.5916 6.61672 40.3616C6.48079 39.7546 6.42852 39.1237 6.46726 38.4874C5.09145 38.0778 3.9229 37.5 2.97515 36.7894C1.71619 35.8453 0.843464 34.6695 0.381579 33.3396C-0.0784604 32.0146 -0.127048 30.5469 0.260419 29.0159C0.566702 27.8072 1.14544 26.5584 2.00894 25.3107C1.63377 24.9444 1.30227 24.5098 1.02244 24.0271C0.38896 22.9355 0.0156386 21.583 0.00579817 20.2226C-0.00404225 18.8452 0.356363 17.4488 1.1928 16.2859C1.59318 15.7282 2.10304 15.2266 2.73159 14.8079C2.77957 11.4873 3.66213 8.95915 5.4863 7.32631C7.30739 5.6959 10.0123 5.00595 13.6994 5.36251C15.3279 2.93184 17.2917 1.52695 19.5987 1.17283C21.8546 0.826636 24.3873 1.5044 27.1998 3.22805C29.4809 1.05337 31.8734 -0.0802943 34.3938 0.00442572C36.9387 0.0897552 39.5557 1.42394 42.252 4.18984C45.2336 3.00254 47.9649 2.89039 50.4416 3.8662C52.9319 4.84749 55.122 6.92404 57.007 10.1087C59.9807 10.3805 62.1401 11.3508 63.578 12.9361C65.0165 14.5226 65.7004 16.69 65.7306 19.359C68.0548 21.3441 69.0019 23.4902 69.0001 25.429C68.9995 26.573 68.6686 27.6378 68.0947 28.5526C67.5258 29.4602 66.7171 30.222 65.7558 30.7682C64.0946 31.711 61.9691 32.0188 59.8226 31.335C58.5778 33.6761 56.9609 35.3101 54.9461 36.1847C52.903 37.0716 50.4859 37.1606 47.6697 36.395C46.6912 37.9559 45.5042 39.1262 44.0798 39.8478C42.6862 40.5536 41.0896 40.82 39.2666 40.5926C38.7223 44.0357 37.5698 46.6315 35.7228 48.257C33.7412 50.0008 31.024 50.6079 27.4759 49.9295C25.4464 50.809 23.9371 52.2651 22.8682 54.2063C21.7341 56.2664 21.0834 58.8836 20.8214 61.9476C20.7869 62.3638 20.4179 62.6735 19.9978 62.6399C19.5778 62.6058 19.2653 62.2401 19.2992 61.8238C19.5778 58.5606 20.2869 55.7441 21.5311 53.4853C22.803 51.1753 24.6235 49.4578 27.0971 48.4496C27.2342 48.3917 27.3898 48.3735 27.5461 48.4052C30.6987 49.0518 33.0555 48.5819 34.7074 47.1276C36.3926 45.6441 37.4142 43.1153 37.8594 39.6808L37.8724 39.5778C37.9529 39.1682 38.3539 38.9007 38.7672 38.9805C40.5772 39.3346 42.1056 39.1536 43.3867 38.5051C44.6807 37.8493 45.7582 36.7022 46.6482 35.1358C46.8204 34.8323 47.1882 34.6775 47.5375 34.7841C50.2387 35.6137 52.4958 35.6002 54.3366 34.8006C56.1614 34.0088 57.6215 32.4223 58.7402 30.1026L58.742 30.0983C58.905 29.7131 59.3528 29.5315 59.7415 29.693C61.6388 30.4829 63.5479 30.2769 64.9969 29.4541C65.7417 29.0311 66.3647 28.4466 66.7989 27.7536C67.2288 27.0679 67.4766 26.2749 67.4773 25.4284C67.4785 23.8382 66.6168 22.0261 64.4858 20.2988C64.3154 20.1574 64.2065 19.9447 64.2078 19.707C64.2336 17.255 63.6764 15.3077 62.4433 13.9473C61.2095 12.5869 59.2605 11.7738 56.4978 11.5842C56.2506 11.5654 56.0162 11.4294 55.8859 11.1997C54.1336 8.12718 52.1293 6.15425 49.8801 5.26804C47.6623 4.39402 45.1561 4.56894 42.3663 5.7794C42.0779 5.90252 41.7292 5.84035 41.5041 5.59899C38.9732 2.88734 36.5931 1.58851 34.3458 1.51293C32.1323 1.43857 29.9797 2.55761 27.88 4.68597C27.634 4.96756 27.209 5.03277 26.8861 4.8231C24.1868 3.06715 21.838 2.35586 19.8318 2.66366C17.8754 2.96353 16.1871 4.25627 14.7603 6.5169C14.6176 6.78568 14.3175 6.9533 13.9952 6.91551C10.5264 6.50532 8.0651 7.04899 6.50724 8.44351C4.95122 9.83621 4.23287 12.1328 4.25255 15.2242C4.25255 15.4862 4.11602 15.741 3.87062 15.8806C3.26667 16.2243 2.79248 16.6638 2.43454 17.1611C1.79614 18.0492 1.51999 19.1353 1.52799 20.2165C1.53598 21.3149 1.83489 22.4022 2.34105 23.2756C2.64426 23.7992 3.02189 24.2404 3.45179 24.5513L3.49853 24.5836C3.83434 24.8353 3.90137 25.3095 3.64798 25.6423C2.67563 26.9161 2.04523 28.1802 1.74079 29.3815C1.42651 30.6225 1.46157 31.7982 1.82566 32.8478C2.18853 33.8924 2.88474 34.8244 3.89461 35.5813C4.82699 36.2804 6.02691 36.8333 7.47898 37.1947C7.85784 37.2892 8.10815 37.6567 8.04604 38.0462C7.93718 38.7221 7.96055 39.3974 8.10262 40.0355C8.31419 40.9797 8.78837 41.8464 9.48335 42.5192C10.1783 43.1921 11.0972 43.673 12.1981 43.8479C12.9447 43.9662 13.7762 43.9461 14.6822 43.7535C15.061 43.6413 15.4694 43.837 15.6127 44.2094C16.7364 47.1179 17.1533 50.1233 17.1398 53.1867C17.1263 56.2183 16.6896 59.2938 16.101 62.3833L16.1017 62.384ZM55.7549 26.1409H57.9364V28.304H55.7549V26.1409ZM55.7549 21.9475H57.9364V24.1106H55.7549V21.9475ZM51.4638 11.7305H53.6453V13.8936H51.4638V11.7305ZM49.08 14.6835H51.2615V16.8466H49.08V14.6835ZM48.7226 18.8769H50.9041V21.04H48.7226V18.8769ZM7.35905 33.097H9.54055V35.2601H7.35905V33.097ZM10.3758 30.6895H12.5573V32.8526H10.3758V30.6895ZM6.77109 13.993H8.95259V16.1561H6.77109V13.993ZM10.0154 15.9129H12.1968V18.076H10.0154V15.9129ZM11.0966 20.155H13.2781V22.3181H11.0966V20.155ZM30.3979 17.3288C31.9749 17.3288 33.4036 17.9626 34.4368 18.9866C35.4701 20.0105 36.1097 21.4258 36.1097 22.9885C36.1097 24.5513 35.4701 25.9665 34.4368 26.9905C33.4036 28.0144 31.9749 28.6483 30.3979 28.6483C28.821 28.6483 27.3923 28.0144 26.3591 26.9905C25.3258 25.9665 24.6862 24.5513 24.6862 22.9885C24.6862 21.4258 25.3258 20.0105 26.3591 18.9866C27.3923 17.9626 28.821 17.3288 30.3979 17.3288ZM32.8199 12.5704C33.8765 12.8106 34.8735 13.2049 35.7856 13.7266C36.7192 14.2605 37.5642 14.9292 38.2924 15.7038L40.2267 14.597C40.5902 14.3898 41.0539 14.5135 41.2642 14.8731L42.9236 17.7176C43.1345 18.0784 43.0103 18.541 42.6462 18.7495L40.7125 19.8545C40.8362 20.2549 40.937 20.6657 41.0133 21.0851C41.1271 21.7129 41.1873 22.3504 41.1873 22.9885C41.1873 23.6267 41.1271 24.2636 41.0133 24.892C40.937 25.3113 40.8362 25.7221 40.7125 26.1226L42.6431 27.2276C43.0072 27.4348 43.1327 27.8962 42.9236 28.257L41.2655 31.1052C41.0545 31.466 40.5883 31.5891 40.2242 31.3801L38.2924 30.2732C37.5636 31.0479 36.7192 31.7159 35.7856 32.2505C34.8722 32.7728 33.8753 33.1671 32.8193 33.4073V35.6185C32.8193 36.0366 32.4773 36.3755 32.0554 36.3755H28.7398C28.3179 36.3755 27.976 36.0366 27.976 35.6185V33.4073C26.9206 33.1671 25.923 32.7734 25.0097 32.2505C24.0767 31.7165 23.2323 31.0491 22.5041 30.2745L20.5717 31.3801C20.2076 31.5891 19.7408 31.466 19.5304 31.1052L17.8723 28.2564C17.6632 27.8956 17.7887 27.4348 18.1528 27.227L20.0833 26.1226C19.9597 25.7221 19.8588 25.3113 19.7826 24.892C19.6688 24.2642 19.6085 23.6267 19.6085 22.9885C19.6085 22.351 19.6688 21.7135 19.7826 21.0851C19.8588 20.6657 19.9597 20.2549 20.0833 19.8545L18.1528 18.7501C17.7887 18.5429 17.6632 18.0815 17.8723 17.7207L19.5304 14.8749C19.7395 14.5141 20.2051 14.3898 20.5692 14.597L22.5047 15.7026C23.2329 14.9286 24.0779 14.2605 25.0103 13.7266C25.9224 13.2049 26.92 12.8106 27.976 12.5704V10.3586C27.976 9.94044 28.3179 9.60156 28.7398 9.60156H32.0554C32.4773 9.60156 32.8193 9.94044 32.8193 10.3586V12.5704H32.8199ZM35.0217 15.034C34.0973 14.505 33.0721 14.1295 31.9829 13.9442C31.5954 13.9076 31.2922 13.584 31.2922 13.1903V11.1155H29.5043V13.1903C29.5031 13.5541 29.2368 13.8753 28.8628 13.9357C27.7552 14.1179 26.7127 14.497 25.7748 15.034C24.8129 15.5844 23.9586 16.3036 23.2538 17.1496C23.0201 17.4287 22.6111 17.5086 22.2839 17.3208L20.4683 16.2816L19.5716 17.8206L21.3638 18.8458C21.6953 19.0207 21.8528 19.4163 21.7181 19.7741C21.5268 20.2812 21.3798 20.8084 21.2808 21.3508C21.1867 21.8707 21.1369 22.4181 21.1369 22.9879C21.1369 23.5584 21.1867 24.1057 21.2808 24.625C21.3798 25.1681 21.5268 25.6953 21.7181 26.2018C21.846 26.5413 21.7113 26.9326 21.3841 27.1185L19.5716 28.1552L20.4683 29.6942L22.2519 28.6733C22.5723 28.4679 23.0047 28.5283 23.2538 28.8263C23.9586 29.6723 24.8129 30.3909 25.7748 30.9412C26.6998 31.4703 27.7269 31.8464 28.821 32.0322C29.2054 32.0719 29.5049 32.3937 29.5049 32.7856V34.8603H31.2928V32.7856C31.294 32.4223 31.5585 32.1017 31.9312 32.0402C33.0419 31.8573 34.085 31.4782 35.0229 30.9419C35.9842 30.3915 36.8385 29.6729 37.5439 28.8269C37.7776 28.5502 38.1848 28.4697 38.5107 28.6556L40.3275 29.6954L41.2249 28.1552L39.4333 27.1301C39.1018 26.9551 38.9443 26.5596 39.079 26.2018C39.2703 25.6953 39.4173 25.1675 39.5163 24.625C39.6104 24.1051 39.6602 23.5578 39.6602 22.9879C39.6602 22.4174 39.6104 21.8701 39.5163 21.3508C39.4173 20.8078 39.2703 20.2805 39.079 19.7741C38.9511 19.4346 39.0858 19.0433 39.413 18.8574L41.2249 17.8206L40.3275 16.2804L38.5643 17.2891C38.2426 17.5092 37.7979 17.4525 37.5439 17.1483C36.8391 16.3024 35.9842 15.5838 35.0229 15.0328L35.0217 15.034ZM33.3562 20.0575C32.5997 19.3078 31.553 18.8434 30.3979 18.8434C29.2429 18.8434 28.1961 19.3078 27.4397 20.0575C26.6832 20.8071 26.2145 21.8439 26.2145 22.9891C26.2145 24.1338 26.6832 25.1705 27.4397 25.9208C28.1961 26.6705 29.2429 27.1349 30.3979 27.1349C31.553 27.1349 32.5997 26.6705 33.3562 25.9208C34.1127 25.1711 34.5813 24.1344 34.5813 22.9891C34.5813 21.8445 34.1127 20.8078 33.3562 20.0575Z" fill="#081B43"/>
</svg>
