<svg width="54" height="66" viewBox="0 0 54 66" fill="none" xmlns="http://www.w3.org/2000/svg">
<path d="M47.5922 0.485961H53.1728C53.5901 0.485961 53.9295 0.820958 53.9295 1.23284L53.9239 1.32345C53.5929 9.73958 50.7525 16.478 46.229 22.1372C41.7222 27.7718 35.5491 32.3162 28.5218 36.3746C21.6393 40.3507 16.4509 44.7551 12.9401 49.4944C9.40976 54.2613 7.58201 59.3741 7.44013 64.7313C7.43179 65.135 7.09517 65.4563 6.68622 65.4563L0.905307 65.459C0.488012 65.459 0.148613 65.124 0.148613 64.7121L0.151395 64.638C0.209816 58.4597 1.98471 52.5012 5.84329 46.798C9.68796 41.1168 15.608 35.6936 23.965 30.5753C30.7669 26.4098 36.3558 21.9285 40.3146 17.0354C44.2316 12.1917 46.5434 6.94427 46.8383 1.19165C46.8577 0.793499 47.1916 0.483215 47.5922 0.480469V0.485961ZM29.9017 45.112H32.0605V42.9812H29.9017V45.112ZM26.0181 45.112H28.1769V42.9812H26.0181V45.112ZM22.1344 45.112H24.2932V42.9812H22.1344V45.112ZM37.9471 52.0069H40.1059V49.8761H37.9471V52.0069ZM33.9661 52.0069H36.1249V49.8761H33.9661V52.0069ZM29.9851 52.0069H32.1439V49.8761H29.9851V52.0069ZM26.0042 52.0069H28.163V49.8761H26.0042V52.0069ZM22.0232 52.0069H24.182V49.8761H22.0232V52.0069ZM18.0422 52.0069H20.201V49.8761H18.0422V52.0069ZM14.0612 52.0069H16.22V49.8761H14.0612V52.0069ZM40.1003 58.9952H42.2591V56.8644H40.1003V58.9952ZM36.0776 58.9952H38.2364V56.8644H36.0776V58.9952ZM32.0549 58.9952H34.2137V56.8644H32.0549V58.9952ZM28.0322 58.9952H30.191V56.8644H28.0322V58.9952ZM24.0095 58.9952H26.1683V56.8644H24.0095V58.9952ZM19.9868 58.9952H22.1456V56.8644H19.9868V58.9952ZM15.9641 58.9952H18.1229V56.8644H15.9641V58.9952ZM11.9413 58.9952H14.1001V56.8644H11.9413V58.9952ZM42.1284 66.0027H44.2872V63.8719H42.1284V66.0027ZM38.1085 66.0027H40.2673V63.8719H38.1085V66.0027ZM34.0885 66.0027H36.2473V63.8719H34.0885V66.0027ZM30.0686 66.0027H32.2274V63.8719H30.0686V66.0027ZM26.0487 66.0027H28.2075V63.8719H26.0487V66.0027ZM22.0287 66.0027H24.1875V63.8719H22.0287V66.0027ZM18.0088 66.0027H20.1676V63.8719H18.0088V66.0027ZM13.9889 66.0027H16.1477V63.8719H13.9889V66.0027ZM9.96893 66.0027H12.1277V63.8719H9.96893V66.0027ZM29.8989 20.8933H32.0577V23.0242H29.8989V20.8933ZM26.0153 20.8933H28.1741V23.0242H26.0153V20.8933ZM22.1317 20.8933H24.2905V23.0242H22.1317V20.8933ZM37.9443 13.9984H40.1031V16.1292H37.9443V13.9984ZM33.9633 13.9984H36.1221V16.1292H33.9633V13.9984ZM29.9824 13.9984H32.1412V16.1292H29.9824V13.9984ZM26.0014 13.9984H28.1602V16.1292H26.0014V13.9984ZM22.0204 13.9984H24.1792V16.1292H22.0204V13.9984ZM18.0394 13.9984H20.1982V16.1292H18.0394V13.9984ZM14.0584 13.9984H16.2172V16.1292H14.0584V13.9984ZM40.0976 7.01017H42.2564V9.14098H40.0976V7.01017ZM36.0749 7.01017H38.2337V9.14098H36.0749V7.01017ZM32.0521 7.01017H34.2109V9.14098H32.0521V7.01017ZM28.0294 7.01017H30.1882V9.14098H28.0294V7.01017ZM24.0067 7.01017H26.1655V9.14098H24.0067V7.01017ZM19.984 7.01017H22.1428V9.14098H19.984V7.01017ZM15.9613 7.01017H18.1201V9.14098H15.9613V7.01017ZM11.9386 7.01017H14.0974V9.14098H11.9386V7.01017ZM42.1256 0.00268555H44.2844V2.13349H42.1256V0.00268555ZM38.1057 0.00268555H40.2645V2.13349H38.1057V0.00268555ZM34.0857 0.00268555H36.2445V2.13349H34.0857V0.00268555ZM30.0658 0.00268555H32.2246V2.13349H30.0658V0.00268555ZM26.0459 0.00268555H28.2047V2.13349H26.0459V0.00268555ZM22.0259 0.00268555H24.1847V2.13349H22.0259V0.00268555ZM18.006 0.00268555H20.1648V2.13349H18.006V0.00268555ZM13.9861 0.00268555H16.1449V2.13349H13.9861V0.00268555ZM9.96615 0.00268555H12.125V2.13349H9.96615V0.00268555ZM30.7474 39.969C30.4108 39.7246 30.3384 39.2606 30.586 38.9283C30.8336 38.596 31.3038 38.5247 31.6404 38.769C37.1292 42.7286 41.241 46.8694 43.9617 51.1859C46.5601 55.313 47.8898 59.5993 47.9427 64.0504H52.4689C52.2937 58.8304 50.8693 53.973 48.2209 49.4752C45.4334 44.7386 41.2827 40.3918 35.7994 36.4241C35.4628 36.1797 35.3905 35.7156 35.6381 35.3834C35.8857 35.0511 36.3558 34.9797 36.6924 35.2241C42.3426 39.3155 46.6324 43.8132 49.5284 48.7311C52.4244 53.649 53.9211 58.976 53.9935 64.7231L53.9962 64.8C53.9962 65.2119 53.6568 65.5469 53.2395 65.5469L47.1721 65.5441C46.7576 65.5359 46.4265 65.1954 46.4349 64.7863C46.5267 60.3599 45.272 56.0901 42.682 51.9767C40.0642 47.8195 36.0832 43.8187 30.7502 39.9717L30.7474 39.969ZM23.5143 25.9458C23.8537 26.1819 23.9372 26.646 23.6979 26.9837C23.4587 27.3187 22.9885 27.4011 22.6463 27.1649C17.3912 23.5129 13.3629 19.5369 10.5893 15.2313C7.93254 11.1043 6.43028 6.67792 6.10479 1.94128H1.55907C2.02365 7.73783 3.72343 12.8067 6.44419 17.2688C9.29292 21.9423 13.2683 25.965 18.1229 29.4797C18.4595 29.7241 18.5318 30.1882 18.2842 30.5204C18.0366 30.8527 17.5665 30.9241 17.2299 30.6797C12.2195 27.0551 8.11058 22.8869 5.15058 18.0321C2.19335 13.1802 0.393426 7.64722 0.00116939 1.2905L-0.00439453 1.1944C-0.00439453 0.782516 0.335005 0.447518 0.752299 0.447518H6.81975C7.22314 0.450264 7.55697 0.763294 7.57367 1.16419C7.77953 5.89535 9.22059 10.3162 11.869 14.4295C14.5369 18.5703 18.4289 22.4063 23.5199 25.943L23.5143 25.9458ZM52.3771 1.97972H48.2932C47.8342 7.78726 45.4417 13.0841 41.4913 17.969C37.4241 22.9994 31.7016 27.5906 24.7523 31.8467C16.5872 36.8469 10.8202 42.1218 7.0896 47.6327C3.54539 52.8691 1.84005 58.3279 1.66478 63.9707H5.95456C6.24389 58.5668 8.16066 53.4183 11.7132 48.6158C15.3409 43.7144 20.6823 39.1754 27.7484 35.0923C34.631 31.1163 40.6651 26.6844 45.0383 21.2146C49.2447 15.9563 51.9292 9.72036 52.3744 1.97697L52.3771 1.97972Z" fill="#081B43"/>
</svg>
