<svg width="70" height="57" viewBox="0 0 70 57" fill="none" xmlns="http://www.w3.org/2000/svg">
<path d="M26.8843 0H41.2515C42.2047 0 43.0712 0.382433 43.6981 0.997325L43.7427 1.04482C44.3441 1.65721 44.7149 2.48706 44.7149 3.3969C44.7149 4.32924 44.325 5.17909 43.6968 5.79523C43.182 6.30389 42.5016 6.65258 41.7459 6.76006V27.184L47.2494 34.6527V12.8053C47.2494 12.3966 47.5871 12.0654 48.0038 12.0654H69.2481C69.6648 12.0654 70.0025 12.3966 70.0025 12.8053C70.0025 12.9327 69.9693 13.054 69.9107 13.1589L67.0984 19.1104V41.0516C67.0984 41.9264 66.7697 42.68 66.2179 43.2237C65.6598 43.7723 64.8863 44.0948 64.0046 44.0948H54.2081L58.6718 50.1525C59.2172 50.8923 59.4721 51.7372 59.4721 52.5733C59.4721 53.2557 59.3026 53.9355 58.984 54.5492C58.6667 55.1603 58.1991 55.7077 57.604 56.1302L57.5569 56.1614C56.805 56.6801 55.8596 57.0013 54.7624 57.0013H13.376C12.2572 57.0013 11.2964 56.6688 10.537 56.1302C9.93808 55.7065 9.47043 55.1578 9.15441 54.5492C8.83585 53.9355 8.66638 53.2569 8.66638 52.5733C8.66638 51.7359 8.92123 50.8923 9.46661 50.1525L13.8628 44.186H7.61512C7.45201 44.186 7.30038 44.1348 7.17805 44.0485C4.89587 42.7475 3.11574 41.1928 1.89755 39.3593C0.655158 37.4884 0.00274102 35.3388 0.00146677 32.883C0.000192519 30.4909 0.630947 28.3525 1.91794 26.4816C3.12083 24.7332 4.89459 23.2272 7.26088 21.9749V12.5241H7.24686C6.79832 12.5241 6.43134 12.1641 6.43134 11.7242C6.43134 11.2843 6.79832 10.9243 7.24686 10.9243H17.906C18.3545 10.9243 18.7215 11.2843 18.7215 11.7242C18.7215 12.1641 18.3545 12.5241 17.906 12.5241H17.8359V21.9524C19.509 22.8147 20.9272 23.9795 22.0932 25.4418C23.0756 26.6728 23.8758 28.1126 24.4977 29.756L26.3925 27.1852V6.76131C25.6356 6.65383 24.9564 6.30514 24.4391 5.79898L24.3945 5.75149C23.793 5.1391 23.4222 4.30924 23.4222 3.3994C23.4222 2.46707 23.8121 1.61722 24.4403 1.00107C25.066 0.384933 25.9325 0.00249956 26.8856 0.00249956L26.8843 0ZM39.4446 4.99787H41.5969V5.28407C41.9957 5.21284 42.355 5.02162 42.6315 4.75042H42.6341C42.9871 4.40423 43.2062 3.92556 43.2062 3.3969C43.2062 2.88449 43.0011 2.41833 42.6672 2.07589L42.6315 2.04214C42.2773 1.6947 41.788 1.47849 41.2503 1.47849H26.8831C26.3466 1.47849 25.8573 1.6947 25.5018 2.04214H25.4992C25.1463 2.38833 24.9271 2.867 24.9271 3.39565C24.9271 3.90806 25.1323 4.37423 25.4661 4.71667L25.5018 4.75042C25.8433 5.08536 26.3071 5.29782 26.8206 5.31407V4.99787H28.9728V7.11H27.8961V27.4164C27.8936 27.5652 27.8477 27.7164 27.7521 27.8464L24.8621 31.7669L24.8519 31.7819L24.8417 31.7957L15.9806 43.8211C15.9576 43.8586 15.9309 43.8948 15.9016 43.9273L10.6835 51.0086C10.3344 51.4822 10.1713 52.0259 10.1713 52.5695C10.1713 53.0195 10.2834 53.4694 10.4949 53.8755C10.7077 54.2867 11.0186 54.6517 11.4111 54.9304C11.9234 55.2941 12.586 55.519 13.3722 55.519H54.7586C55.5257 55.519 56.1756 55.3053 56.6827 54.9566L56.7171 54.9304C57.1134 54.6492 57.4243 54.2842 57.6371 53.8755C57.8487 53.4694 57.9608 53.0195 57.9608 52.5695C57.9608 52.0271 57.7977 51.4822 57.4485 51.0086L52.2279 43.9248C52.126 43.8436 52.0457 43.7361 51.9986 43.6136L47.4469 37.4372C47.4049 37.3922 47.3679 37.3422 47.3374 37.2885L40.4156 27.8964C40.3022 27.7664 40.2334 27.5989 40.2334 27.4152V7.10875H39.4408V4.99662L39.4446 4.99787ZM35.2371 4.99787H37.3893V7.11H35.2371V4.99787ZM31.0295 4.99787H33.1817V7.11H31.0295V4.99787ZM64.6226 24.4807H65.5884V18.9492C65.5897 18.8454 65.6127 18.7405 65.6585 18.6405L68.0669 13.5426H48.7556V24.4807H50.1229V26.5928H48.7556V36.6961L53.1161 42.6125H64.002C64.4722 42.6125 64.8736 42.4526 65.1501 42.1814C65.4254 41.9114 65.5884 41.5177 65.5884 41.0491V26.5928H64.6226V24.4807ZM60.4596 24.4807H62.6118V26.5928H60.4596V24.4807ZM56.2966 24.4807H58.4488V26.5928H56.2966V24.4807ZM52.1336 24.4807H54.2858V26.5928H52.1336V24.4807ZM43.4292 36.3511H45.5814V38.4633H43.4292V36.3511ZM39.3491 36.3511H41.5013V38.4633H39.3491V36.3511ZM35.2689 36.3511H37.4211V38.4633H35.2689V36.3511ZM31.1888 36.3511H33.341V38.4633H31.1888V36.3511ZM27.1086 36.3511H29.2608V38.4633H27.1086V36.3511ZM23.0285 36.3511H25.1807V38.4633H23.0285V36.3511ZM18.8324 29.4636H20.9846V31.5757H18.8324V29.4636ZM14.8541 29.4636H17.0064V31.5757H14.8541V29.4636ZM10.8759 29.4636H13.0281V31.5757H10.8759V29.4636ZM6.89772 29.4636H9.04992V31.5757H6.89772V29.4636ZM2.9195 29.4636H5.07171V31.5757H2.9195V29.4636ZM14.951 42.705L23.4171 31.217C22.8118 29.3124 21.9772 27.6876 20.9068 26.3466C19.7982 24.9569 18.431 23.8696 16.8012 23.0897C16.5234 22.981 16.3259 22.7148 16.3259 22.4023V12.6615H8.76577V22.4148H8.76322C8.76322 22.6823 8.61413 22.941 8.35418 23.071C6.01848 24.2445 4.29569 25.6605 3.16416 27.3052C2.04791 28.9287 1.50126 30.7908 1.50126 32.8805C1.50253 35.0389 2.07213 36.9223 3.15651 38.5532C4.22306 40.158 5.79167 41.534 7.81135 42.7038H14.951V42.705Z" fill="#081B43"/>
</svg>
