<svg width="78" height="57" viewBox="0 0 78 57" fill="none" xmlns="http://www.w3.org/2000/svg">
<path d="M0.500571 0.00815684C6.29 0.74839 11.9852 1.28878 17.5453 1.55388C23.0849 1.81694 28.4893 1.80266 33.7197 1.43356L33.8896 1.42133L34.0535 1.48454C35.3908 2.0025 36.6379 2.65505 37.7929 3.43607C38.737 4.07434 39.6176 4.79418 40.4368 5.59355L44.2398 2.00047L44.5551 2.00454C49.935 2.09019 55.3599 2.00454 60.8401 1.69051C66.2998 1.37647 71.8107 0.831998 77.3872 0L77.6104 1.52329C72.0012 2.36141 66.4411 2.90995 60.924 3.22603C55.534 3.53599 50.1766 3.62368 44.8459 3.54415L28.7473 18.773C28.7248 19.0116 28.7207 19.244 28.7371 19.4683C28.8129 20.5246 29.3371 21.3913 30.1461 22.0418C31.0144 22.7392 32.2022 23.2042 33.5292 23.4081C34.2644 23.5223 35.0467 23.5549 35.8433 23.506C38.2107 22.8004 40.5412 21.6115 42.6137 20.1209C44.7456 18.5874 46.601 16.7399 47.9424 14.7741L48.1595 14.456L55.7961 14.0705L55.8678 15.6061L50.2524 15.8895L64.6226 31.5894C65.0772 32.0849 65.3987 32.6151 65.6076 33.1596C66.906 32.6212 67.9955 31.9136 68.872 31.0388C69.9082 30.0029 70.6557 28.7202 71.1083 27.1847L71.2721 26.63H78.0015V28.1717H72.4108C71.8742 29.7154 71.0591 31.0307 69.9656 32.1216C68.8781 33.2085 67.5244 34.065 65.9046 34.6931C65.9107 34.95 65.8964 35.2049 65.8636 35.4619C65.7325 36.4692 65.2984 37.446 64.6758 38.2882C64.0594 39.1222 63.2525 39.8258 62.3658 40.3009C61.4053 40.8148 60.3445 41.0656 59.3103 40.9331C59.257 42.7276 58.6959 44.0918 57.6843 45.0727C56.6357 46.0923 55.1305 46.6571 53.2362 46.8325C53.1051 48.9594 52.458 50.499 51.3398 51.5023C50.2237 52.5035 48.6796 52.9318 46.7525 52.84C46.2549 54.7915 45.3436 56.0212 44.0493 56.5697C42.6772 57.1509 40.9508 56.9184 38.8968 55.9315C38.0407 56.6024 36.9594 57 35.784 57C34.3893 57 33.1258 56.4372 32.2104 55.5257C31.3789 54.6977 30.8362 53.5802 30.7441 52.3404L30.5065 52.3465C28.8764 52.3465 27.3957 51.6858 26.3226 50.6193C25.2495 49.5548 24.588 48.0805 24.588 46.4532V46.4389H24.5737C22.9436 46.4389 21.4629 45.7782 20.3898 44.7117C19.3167 43.6473 18.6553 42.1729 18.6553 40.5456V40.4783L18.5365 40.4804C16.9063 40.4804 15.4257 39.8197 14.3526 38.7531C13.2795 37.6887 12.618 36.2143 12.618 34.587C12.618 32.9598 13.2816 31.4854 14.3526 30.4189C14.7192 30.0559 15.1329 29.7398 15.5834 29.4809L14.3833 28.2471H0.00292969V26.7055H15.0264L17.1234 28.863C17.5781 28.7508 18.0511 28.6917 18.5385 28.6917C20.1728 28.6917 21.6534 29.3524 22.7245 30.4169V30.4209C23.7955 31.4874 24.459 32.9598 24.459 34.585V34.6523L24.5778 34.6503C26.212 34.6503 27.6927 35.311 28.7637 36.3754V36.3795C29.8348 37.446 30.4983 38.9183 30.4983 40.5436V40.5578H30.5126C32.1469 40.5578 33.6275 41.2186 34.6986 42.283V42.2871C35.7696 43.3536 36.4331 44.8259 36.4331 46.4512C36.4331 46.6265 36.4249 46.7999 36.4106 46.9732C37.5574 47.1139 38.5875 47.6359 39.3637 48.4088C40.2771 49.3224 40.8443 50.5806 40.8443 51.9672C40.8443 52.9909 40.5351 53.9432 40.0047 54.7406C41.4423 55.3666 42.5973 55.5155 43.4513 55.1525C44.3893 54.7548 45.0446 53.6781 45.3927 51.8755L45.5279 51.1801L46.2344 51.2555C48.0366 51.4472 49.4148 51.1658 50.3159 50.3563C51.2252 49.5406 51.7105 48.1417 51.729 46.1045L51.7351 45.3724L52.4703 45.3418C54.3195 45.2664 55.7306 44.832 56.6193 43.9674C57.4836 43.1273 57.887 41.8222 57.7559 39.9808L57.6679 38.7307L58.827 39.2181C59.7158 39.5913 60.7315 39.4302 61.647 38.9408C62.3371 38.5717 62.9679 38.0211 63.4491 37.3706C63.9222 36.7323 64.2498 36.0023 64.3481 35.2579C64.4649 34.3587 64.2335 33.4288 63.4942 32.6192L48.6632 16.4177C47.285 18.2367 45.5156 19.9312 43.5271 21.3628C41.2928 22.9697 38.7718 24.2503 36.2058 25.0028L36.1219 25.0272L36.042 25.0333C35.1122 25.0986 34.1866 25.0599 33.3039 24.9232C31.7127 24.6765 30.2689 24.1055 29.1897 23.2368C28.0531 22.3212 27.3138 21.0916 27.2053 19.5723C27.1766 19.1665 27.195 18.7363 27.2667 18.2815L27.3077 18.0205C31.3093 14.2255 35.317 10.4367 39.3248 6.64782C38.5793 5.9239 37.7827 5.2734 36.9369 4.70038C35.9273 4.01724 34.8378 3.44015 33.6664 2.97317C28.4402 3.33411 23.0316 3.3443 17.4839 3.08125C11.8951 2.81615 6.15894 2.26964 0.318307 1.52329L0.512858 0L0.500571 0.00815684ZM71.1533 22.2355H73.363V24.4359H71.1533V22.2355ZM70.9137 18.0205H73.1234V20.2208H70.9137V18.0205ZM54.5305 35.676H56.7402V37.8763H54.5305V35.676ZM51.2661 32.4948H53.4758V34.6951H51.2661V32.4948ZM48.2803 41.6917H50.49V43.892H48.2803V41.6917ZM45.0855 38.7185H47.2952V40.9188H45.0855V38.7185ZM43.2097 48.054H45.4193V50.2543H43.2097V48.054ZM40.0149 44.7341H42.2246V46.9345H40.0149V44.7341ZM21.6288 31.5038C20.8363 30.7187 19.7427 30.2313 18.5365 30.2313C17.3282 30.2313 16.2346 30.7166 15.4462 31.5038V31.5078C14.6557 32.295 14.1662 33.3839 14.1662 34.585C14.1662 35.7861 14.6557 36.875 15.4462 37.6622V37.6662C16.2346 38.4513 17.3282 38.9387 18.5365 38.9387C18.6962 38.9387 18.8355 38.9326 18.9543 38.9224C19.0833 38.9102 19.2225 38.8898 19.3679 38.8612L20.4758 38.6491L20.2711 39.7544C20.2465 39.889 20.2281 40.0195 20.2158 40.1439V40.148C20.2055 40.2581 20.2014 40.3886 20.2014 40.5456C20.2014 41.7467 20.6909 42.8356 21.4814 43.6228V43.6269C22.2698 44.412 23.3634 44.8993 24.5717 44.8993C24.6986 44.8993 24.8215 44.8932 24.9403 44.8851C25.0714 44.8749 25.1942 44.8585 25.3048 44.8402L26.3718 44.6607L26.1916 45.7232C26.1731 45.8333 26.1567 45.9556 26.1465 46.0861C26.1363 46.2044 26.1322 46.3268 26.1322 46.4532C26.1322 47.6543 26.6216 48.7432 27.4121 49.5304V49.5345C28.2006 50.3195 29.2941 50.8069 30.5024 50.8069C30.6662 50.8069 30.8137 50.8008 30.9427 50.7865C31.0942 50.7723 31.2396 50.7498 31.3769 50.7213L32.4192 50.5133L32.2943 51.5614L32.2759 51.7633L32.2718 51.9693C32.2718 52.9338 32.665 53.8066 33.2978 54.4367C33.9326 55.0689 34.8091 55.4584 35.7758 55.4584C36.7444 55.4584 37.6209 55.0668 38.2537 54.4367H38.2578C38.8906 53.8066 39.2818 52.9338 39.2818 51.9693C39.2818 51.0027 38.8906 50.1299 38.2578 49.5018H38.2537C37.6189 48.8697 36.7424 48.4802 35.7758 48.4802C35.3477 48.4781 34.9034 48.5291 34.4753 48.5597L34.7375 47.5319C34.7805 47.3586 34.8153 47.1812 34.8378 47.0018C34.8603 46.8243 34.8706 46.6429 34.8706 46.4573C34.8706 45.2542 34.3811 44.1652 33.5906 43.3781C32.7981 42.593 31.7045 42.1056 30.4983 42.1056C30.3734 42.1056 30.2505 42.1117 30.1317 42.1199C29.9986 42.1301 29.8778 42.1464 29.7652 42.1647L28.6982 42.3442L28.8764 41.2818C28.8948 41.1716 28.9112 41.0493 28.9214 40.9188C28.9317 40.8005 28.9358 40.6782 28.9358 40.5517C28.9358 39.3486 28.4463 38.2597 27.6558 37.4725C26.8633 36.6874 25.7697 36.2001 24.5635 36.2001C24.4037 36.2001 24.2645 36.2062 24.1457 36.2164C24.0167 36.2286 23.8774 36.249 23.732 36.2775L22.6241 36.4896L22.8289 35.3844C22.8535 35.2498 22.8719 35.1193 22.8842 34.9949V34.9908C22.8944 34.8807 22.8985 34.7502 22.8985 34.5932C22.8985 33.39 22.4091 32.3011 21.6186 31.514L21.6288 31.5038Z" fill="white"/>
</svg>
