<svg width="71" height="71" viewBox="0 0 71 71" fill="none" xmlns="http://www.w3.org/2000/svg">
<path fill-rule="evenodd" clip-rule="evenodd" d="M48.3265 36.1227H70.1284C70.6079 36.1227 70.9998 36.5134 70.9998 36.9914C70.9998 37.4695 70.6079 37.8602 70.1284 37.8602H69.1434V46.4604C69.1434 48.1912 68.5143 49.6549 67.4757 50.8814C66.5807 51.9381 65.3831 52.8085 64.0312 53.5148C65.4884 54.5549 66.6313 55.6399 67.456 56.7681C68.5176 58.2198 69.0511 59.736 69.0511 61.3133V69.1488H70.1287C70.6082 69.1488 71.0001 69.5394 71.0001 70.0175C71.0001 70.4955 70.6082 70.8862 70.1287 70.8862H68.6949C68.579 70.9586 68.442 71.0002 68.2951 71.0002H50.0686C49.9216 71.0002 49.7847 70.9586 49.6687 70.8862H48.3272C47.8477 70.8862 47.4558 70.4955 47.4558 70.0175C47.4558 69.5394 47.8477 69.1488 48.3272 69.1488H49.3122V60.905C49.3122 59.4035 49.8919 57.9873 50.9542 56.6428C51.7736 55.6057 52.8852 54.6094 54.2414 53.6487C53.0505 52.853 51.9692 51.8693 51.1478 50.7986C50.1485 49.4954 49.5227 48.0513 49.5227 46.6308V37.8602H48.3272C47.8477 37.8602 47.4558 37.4695 47.4558 36.9914C47.4558 36.5134 47.8477 36.1227 48.3272 36.1227H48.3265ZM54.2327 60.9934H56.393V63.1481H54.2327V60.9934ZM58.263 60.9934H60.4232V63.1481H58.263V60.9934ZM62.1769 60.9934H64.3371V63.1481H62.1769V60.9934ZM60.1616 57.9796H62.3218V60.1343H60.1616V57.9796ZM56.1314 57.9796H58.2916V60.1343H56.1314V57.9796ZM58.2373 50.9744H60.3975V53.1291H58.2373V50.9744ZM60.2136 48.038H62.3738V50.1927H60.2136V48.038ZM56.222 48.038H58.3823V50.1927H56.222V48.038ZM38.9382 52.2105H41.0984V54.3652H38.9382V52.2105ZM34.8743 52.2105H37.0345V54.3652H34.8743V52.2105ZM30.8108 52.2105H32.971V54.3652H30.8108V52.2105ZM26.7472 52.2105H28.9074V54.3652H26.7472V52.2105ZM22.6837 52.2105H24.8439V54.3652H22.6837V52.2105ZM18.6201 52.2105H20.7803V54.3652H18.6201V52.2105ZM14.5565 52.2105H16.7168V54.3652H14.5565V52.2105ZM10.493 52.2105H12.6532V54.3652H10.493V52.2105ZM6.42945 52.2105H8.58968V54.3652H6.42945V52.2105ZM2.3659 52.2105H4.52613V54.3652H2.3659V52.2105ZM43.8091 60.3566C43.5405 60.0812 43.298 59.7822 43.086 59.4596C42.4813 58.5384 42.1271 57.4361 42.1271 56.1628V49.6426H7.25549C7.12287 49.7565 6.95059 49.8256 6.76166 49.8256C6.57306 49.8256 6.40046 49.7565 6.26784 49.6426H1.56585C1.56585 51.8049 1.63716 54.0858 1.56418 56.2332C1.59184 57.0893 2.13598 58.1643 3.00134 59.049C3.88869 59.9559 5.10059 60.633 6.42445 60.633C17.4495 59.7171 32.3512 60.4413 43.8088 60.3566H43.8091ZM17.9253 39.7827C17.5078 39.7827 17.169 39.4448 17.169 39.0285C17.169 38.6123 17.5078 38.2744 17.9253 38.2744H19.9186C20.3362 38.2744 20.675 38.6123 20.675 39.0285C20.675 39.4448 20.3362 39.7827 19.9186 39.7827H17.9253ZM24.2534 39.7827C23.8359 39.7827 23.497 39.4448 23.497 39.0285C23.497 38.6123 23.8359 38.2744 24.2534 38.2744H43.7208C44.1383 38.2744 44.4772 38.6123 44.4772 39.0285C44.4772 39.4448 44.1383 39.7827 43.7208 39.7827H24.2534ZM17.9253 31.6788C17.5078 31.6788 17.169 31.3409 17.169 30.9247C17.169 30.5084 17.5078 30.1706 17.9253 30.1706H19.9186C20.3362 30.1706 20.675 30.5084 20.675 30.9247C20.675 31.3409 20.3362 31.6788 19.9186 31.6788H17.9253ZM24.2534 31.6788C23.8359 31.6788 23.497 31.3409 23.497 30.9247C23.497 30.5084 23.8359 30.1706 24.2534 30.1706H43.7208C44.1383 30.1706 44.4772 30.5084 44.4772 30.9247C44.4772 31.3409 44.1383 31.6788 43.7208 31.6788H24.2534ZM17.9253 23.6683C17.5078 23.6683 17.169 23.3304 17.169 22.9142C17.169 22.4979 17.5078 22.1601 17.9253 22.1601H19.9186C20.3362 22.1601 20.675 22.4979 20.675 22.9142C20.675 23.3304 20.3362 23.6683 19.9186 23.6683H17.9253ZM24.2534 23.6683C23.8359 23.6683 23.497 23.3304 23.497 22.9142C23.497 22.4979 23.8359 22.1601 24.2534 22.1601H43.7208C44.1383 22.1601 44.4772 22.4979 44.4772 22.9142C44.4772 23.3304 44.1383 23.6683 43.7208 23.6683H24.2534ZM17.9253 15.5654C17.5078 15.5654 17.169 15.2276 17.169 14.8113C17.169 14.395 17.5078 14.0572 17.9253 14.0572H19.9186C20.3362 14.0572 20.675 14.395 20.675 14.8113C20.675 15.2276 20.3362 15.5654 19.9186 15.5654H17.9253ZM24.2534 15.5654C23.8359 15.5654 23.497 15.2276 23.497 14.8113C23.497 14.395 23.8359 14.0572 24.2534 14.0572H43.7208C44.1383 14.0572 44.4772 14.395 44.4772 14.8113C44.4772 15.2276 44.1383 15.5654 43.7208 15.5654H24.2534ZM55.9331 31.803C55.9331 32.2193 55.5942 32.5571 55.1767 32.5571C54.7592 32.5571 54.4203 32.2193 54.4203 31.803V1.50806H7.51839V48.1343H42.8838C43.3013 48.1343 43.6402 48.4722 43.6402 48.8885V56.1628C43.6402 57.1259 43.9028 57.9517 44.3509 58.6347C44.8487 59.3925 45.5775 59.9868 46.4355 60.4084C46.6931 60.527 46.8727 60.7865 46.8737 61.0878C46.875 61.5024 46.5388 61.8405 46.123 61.8419L6.42478 62.1382C4.65041 62.1355 3.06165 61.2645 1.92039 60.0975C0.800454 58.952 0.0957058 57.4893 0.0577193 56.2645C-0.0715679 53.9463 0.0530543 51.2481 0.0530543 48.8881C0.0530543 48.4719 0.391934 48.134 0.809451 48.134H6.00493V0.753622C6.00493 0.337366 6.34381 -0.000488281 6.76133 -0.000488281H55.1761C55.5936 -0.000488281 55.9325 0.337366 55.9325 0.753622V31.8027L55.9331 31.803ZM50.8236 67.025H67.5373V69.1484H50.8236V67.025ZM67.5373 65.2533H50.8236V60.9044C50.8236 59.7606 51.2891 58.6514 52.1408 57.573C53.0418 56.4325 54.3664 55.329 56.0281 54.2576C56.1374 54.1915 56.231 54.0968 56.2967 53.9772C56.4969 53.6131 56.3636 53.155 55.9981 52.955C54.5823 52.1783 53.2711 51.0913 52.3454 49.8844C51.5387 48.8326 51.0335 47.7005 51.0335 46.6298V41.7543H67.6293V46.4594C67.6293 47.8045 67.1358 48.9469 66.3218 49.9087C65.3328 51.0767 63.867 51.9982 62.2169 52.7052C62.0786 52.7627 61.9563 52.8613 61.8697 52.9972C61.6461 53.3487 61.7507 53.8144 62.1033 54.0373C63.9516 55.2067 65.3314 56.4119 66.2374 57.6511C67.1021 58.8337 67.537 60.0553 67.537 61.3127V65.253L67.5373 65.2533ZM67.6296 37.8598H51.0339V39.9833H67.6296V37.8598Z" fill="#081B43"/>
</svg>
