<svg width="26" height="21" viewBox="0 0 26 21" fill="none" xmlns="http://www.w3.org/2000/svg">
<path d="M18.1019 21L10.4115 13.312C7.53624 15.2085 3.69198 14.6219 1.51344 11.9541C-0.665094 9.28626 -0.47113 5.40284 1.9624 2.96533C4.39981 0.531191 8.28418 0.336413 10.9529 2.51451C13.6217 4.69261 14.2088 8.53679 12.3118 11.412L19.9995 19.1013L18.1019 21ZM6.7097 3.68532C4.78844 3.68411 3.13386 5.04003 2.75782 6.92387C2.38178 8.80772 3.38901 10.6948 5.16353 11.4311C6.93805 12.1674 8.98566 11.5479 10.0541 9.95135C11.1226 8.35481 10.9143 6.22595 9.55674 4.86667C8.80364 4.10846 7.77843 3.68306 6.7097 3.68532ZM21.333 9H18.666V6.33333H15.9989V3.66667H18.666V1H21.333V3.66667H24V6.33333H21.333V9Z" fill="#464C4C"/>
<rect x="14" width="12" height="10" fill="white"/>
<rect x="16" y="4" width="8" height="3" fill="#464C4C"/>
</svg>
