<svg width="11" height="12" viewBox="0 0 11 12" fill="none" xmlns="http://www.w3.org/2000/svg">
<path d="M8.55556 12H2.44444C1.76943 12 1.22222 11.4627 1.22222 10.8V3H0V1.8H2.44444V1.2C2.44444 0.537258 2.99165 0 3.66667 0H7.33333C8.00835 0 8.55556 0.537258 8.55556 1.2V1.8H11V3H9.77778V10.8C9.77778 11.4627 9.23057 12 8.55556 12ZM2.44444 3V10.8H8.55556V3H2.44444ZM3.66667 1.2V1.8H7.33333V1.2H3.66667ZM7.33333 9.6H6.11111V4.2H7.33333V9.6ZM4.88889 9.6H3.66667V4.2H4.88889V9.6Z" fill="#C4C4C4"/>
</svg>
