<svg width="13" height="14" viewBox="0 0 13 14" fill="none" xmlns="http://www.w3.org/2000/svg">
<path fill-rule="evenodd" clip-rule="evenodd" d="M6.56354 3.59646C6.56354 1.44383 5.12357 0 3.28661 0C1.44795 0 0 1.4337 0 3.59646C0 5.75735 1.44795 7.17058 3.28661 7.17058C5.12338 7.17058 6.56354 5.74701 6.56354 3.59646ZM5.18682 3.59646C5.18682 4.84531 4.38411 5.79808 3.2868 5.79808C2.18759 5.79808 1.37729 4.85544 1.37729 3.59646C1.37729 2.34574 2.18759 1.38243 3.2868 1.38243C4.38411 1.38243 5.18682 2.34553 5.18682 3.59646ZM1.01107 7.90315C0.716471 7.90315 0.482649 8.17297 0.482649 8.51269V13.3036C0.482649 13.6431 0.716471 13.9123 1.01107 13.9123C1.29162 13.9123 1.5414 13.6431 1.5414 13.3036V12.043H2.67385C3.07026 12.043 3.46687 11.965 3.82207 11.6437C4.11971 11.3731 4.33853 10.979 4.43255 10.5042L5.25216 11.1274L5.76596 9.70902L4.48117 9.85273C4.45572 9.21134 4.22646 8.6903 3.87335 8.34686C3.51151 7.99867 3.09192 7.90335 2.67366 7.90335H1.01107V7.90315ZM4.43255 10.5042C4.46579 10.3363 4.48345 10.1583 4.48345 9.97223C4.48345 9.93192 4.48269 9.8918 4.48098 9.85231L5.76577 9.70861L6.24215 8.39359C6.32421 8.16656 6.53163 8.03196 6.74531 8.0454C6.95786 8.03196 7.16642 8.16656 7.2481 8.39359L7.64831 9.49833L9.16654 9.32858L8.9236 8.90306C8.85788 8.78975 8.8216 8.65039 8.8216 8.51227C8.8216 8.16408 9.0482 7.91059 9.34319 7.91059C9.51927 7.91059 9.68908 8.00653 9.78405 8.18993L10.3444 9.19666L11.531 9.06413L12.029 8.18124C12.1306 8.00653 12.3004 7.91059 12.4765 7.91059C12.7707 7.91059 12.9981 8.17256 12.9981 8.51227C12.9981 8.65039 12.962 8.79823 12.8961 8.91153L11.433 11.4512V13.3913C11.433 13.7293 11.1896 14 10.9026 14C10.6168 14 10.3734 13.7293 10.3734 13.3913V11.4425L10.1461 11.0445L8.63336 12.2179L8.96957 13.1454C9.07119 13.4275 8.94202 13.7498 8.68256 13.8606C8.42347 13.9723 8.12735 13.8331 8.02402 13.5509L7.78146 12.8785C7.76418 12.8802 7.74822 12.8816 7.73094 12.8816H5.70651L5.46471 13.5509C5.36271 13.8329 5.06677 13.9723 4.80731 13.8606C4.54746 13.7496 4.41868 13.4275 4.52068 13.1454L5.25178 11.127L4.43217 10.5038L4.43255 10.5042ZM3.40894 9.97223C3.40894 10.363 3.28395 10.6333 3.07824 10.7898C2.92344 10.9118 2.71792 10.9467 2.51183 10.9467H1.5414V8.99755H2.45086L3.38766 9.70964C3.40153 9.78946 3.40894 9.87692 3.40894 9.97203V9.97223ZM2.45086 8.99776H2.53348C2.74755 8.99776 2.93787 9.04138 3.09192 9.17206C3.23723 9.28412 3.34417 9.46049 3.38766 9.70985L2.45086 8.99776ZM7.6485 9.49854L8.63393 12.2183L10.1467 11.0449L9.16673 9.32878L7.6485 9.49854ZM6.10786 11.7779H7.38277L6.7455 10.0179L6.10786 11.7779ZM11.5313 9.06454L10.8969 10.1891L10.3448 9.19708L11.5313 9.06454ZM12.9998 0.675912C12.9998 0.305597 12.7204 0 12.3789 0C12.0358 0 11.7576 0.305804 11.7576 0.675912V4.62056L8.90213 0.378792C8.75835 0.152178 8.53383 0 8.27152 0C7.85763 0 7.53491 0.358529 7.53491 0.79873V6.5048C7.53491 6.87346 7.80387 7.17058 8.14691 7.17058C8.48844 7.17058 8.76784 6.87346 8.76784 6.5048V2.54982L11.6229 6.80171C11.7671 7.02667 11.9912 7.17037 12.2526 7.17037C12.6665 7.17037 13 6.82218 13 6.37164V0.675705L12.9998 0.675912Z" fill="#464C4C"/>
</svg>
