<svg width="18" height="14" viewBox="0 0 18 14" fill="none" xmlns="http://www.w3.org/2000/svg">
<g clip-path="url(#clip0_907_1064)">
<path d="M17.6682 13.9664C17.6685 13.9664 17.6688 13.9664 17.6692 13.9664C17.684 13.9664 17.6987 13.9634 17.7123 13.9574C17.7258 13.9517 17.738 13.9434 17.7483 13.9331C17.7587 13.9228 17.767 13.9105 17.7727 13.8971C17.7786 13.883 17.7816 13.8678 17.7816 13.8525C17.7816 13.8373 17.7786 13.8221 17.7727 13.808C17.7669 13.7946 17.7586 13.7824 17.7483 13.772C17.738 13.7617 17.7257 13.7534 17.7123 13.7477C17.6987 13.7421 17.6841 13.7392 17.6694 13.7392C17.669 13.7392 17.6685 13.7392 17.6681 13.7392C17.6678 13.7392 17.6674 13.7392 17.6671 13.7392C17.652 13.7392 17.6371 13.7421 17.6232 13.7476C17.6095 13.7533 17.5969 13.7616 17.5863 13.772C17.5652 13.7937 17.5533 13.8229 17.5533 13.8532C17.5533 13.8685 17.5564 13.8838 17.5623 13.898C17.5678 13.9115 17.576 13.9237 17.5864 13.934C17.5969 13.9444 17.6094 13.9527 17.6232 13.9583C17.6371 13.9643 17.652 13.9673 17.6672 13.9673C17.6675 13.9673 17.6678 13.9673 17.6681 13.9673L17.6682 13.9664ZM18.0001 5.56138C18.0001 8.63287 15.51 11.1227 12.438 11.1227C12.4353 11.1227 12.4326 11.1227 12.4299 11.1227C11.1861 11.1227 9.97673 10.7035 9.00005 9.934C10.2941 8.91568 11.1249 7.33563 11.1249 5.5617C11.1249 3.78777 10.2941 2.20772 9.00005 1.1894C9.97673 0.41925 11.1861 0 12.4299 0C12.4319 0 12.436 0 12.438 0C15.5099 0 18.0001 2.48987 18.0001 5.56138H18.0001ZM17.6682 13.7064C17.6682 13.7064 17.6683 13.7064 17.6683 13.7064C17.7078 13.7064 17.7457 13.722 17.7739 13.7496C17.7875 13.7629 17.7983 13.7788 17.8057 13.7963C17.8134 13.8143 17.8174 13.8337 17.8174 13.8532C17.8174 13.8728 17.8134 13.8921 17.8058 13.9101C17.7981 13.9275 17.7873 13.9434 17.7739 13.9568C17.7601 13.97 17.744 13.9807 17.7265 13.9883C17.7083 13.996 17.6887 14 17.669 14C17.6687 14 17.6684 14 17.6682 14C17.6678 14 17.6674 14 17.6671 14C17.6472 14 17.6274 13.996 17.6091 13.9883C17.5914 13.9809 17.5751 13.9702 17.5613 13.9568C17.5479 13.9429 17.5372 13.9265 17.5299 13.9086C17.5223 13.8906 17.5183 13.8712 17.5183 13.8517C17.5183 13.8321 17.5223 13.8128 17.5299 13.7948C17.5374 13.7773 17.5482 13.7614 17.5618 13.7481C17.5754 13.7345 17.5917 13.7237 17.6096 13.7166C17.6279 13.7089 17.6476 13.7049 17.6675 13.7049C17.6679 13.7049 17.6683 13.7049 17.6686 13.7049L17.6682 13.7064ZM3.88917 13.1808C3.88917 12.9212 4.05925 12.708 4.33722 12.708C4.60286 12.708 4.78212 12.912 4.78212 13.1808C4.78212 13.4495 4.60286 13.6535 4.33722 13.6535C4.05925 13.6535 3.88917 13.4403 3.88917 13.1808ZM15.9368 13.1808C15.9368 12.9212 16.1068 12.708 16.3849 12.708C16.6508 12.708 16.8298 12.912 16.8298 13.1808C16.8298 13.4495 16.6508 13.6535 16.3849 13.6535C16.1069 13.6535 15.9368 13.4403 15.9368 13.1808ZM9.07104 12.6928C9.27802 12.6928 9.41092 12.8225 9.44486 13.051H8.67852C8.7128 12.8378 8.84229 12.6928 9.07113 12.6928H9.07104ZM9.07752 12.4049C8.64468 12.4049 8.34187 12.7198 8.34187 13.1803C8.34187 13.6499 8.65682 13.9557 9.09903 13.9557C9.32148 13.9557 9.52521 13.9002 9.70446 13.7488L9.54707 13.5109C9.42326 13.6098 9.26559 13.6653 9.11738 13.6653C8.91041 13.6653 8.72197 13.5695 8.67563 13.3037H9.77232C9.77547 13.2637 9.77871 13.2234 9.77871 13.1802C9.77547 12.7199 9.49075 12.4048 9.07734 12.4048L9.07752 12.4049ZM12.9549 13.1802C12.9549 12.9207 13.125 12.7075 13.403 12.7075C13.6686 12.7075 13.8479 12.9115 13.8479 13.1802C13.8479 13.449 13.6686 13.653 13.403 13.653C13.125 13.653 12.9548 13.4398 12.9548 13.1802H12.9549ZM11.1412 13.1802C11.1412 13.6282 11.4531 13.9556 11.9292 13.9556C12.1516 13.9556 12.2998 13.9062 12.4601 13.7796L12.3058 13.52C12.1853 13.6067 12.0586 13.653 11.9189 13.653C11.6625 13.6499 11.474 13.4645 11.474 13.1802C11.474 12.8959 11.6625 12.7107 11.9189 12.7075C12.0583 12.7075 12.1849 12.7538 12.3058 12.8404L12.4601 12.5809C12.2995 12.4543 12.1513 12.4048 11.9292 12.4048C11.4531 12.4048 11.1412 12.7322 11.1412 13.1802ZM15.2816 12.4048C15.0963 12.4048 14.9756 12.4915 14.8922 12.6212L14.8922 12.4422H14.5739V13.9187H14.8954V13.091C14.8954 12.8466 15.0005 12.7109 15.2104 12.7109C15.2128 12.7109 15.2154 12.7108 15.2179 12.7108C15.2841 12.7108 15.3498 12.7235 15.4113 12.748L15.5102 12.4454C15.4391 12.4174 15.3465 12.4051 15.2814 12.4051L15.2816 12.4048V12.4048ZM10.8168 12.4054C10.6315 12.4054 10.5109 12.492 10.4278 12.6217V12.4422H10.1095V13.9187H10.4307V13.091C10.4307 12.8466 10.5357 12.7109 10.7456 12.7109C10.7481 12.7109 10.7507 12.7108 10.7531 12.7108C10.8193 12.7108 10.8851 12.7235 10.9465 12.748L11.0455 12.4454C10.9744 12.4174 10.8817 12.4051 10.8166 12.4051L10.8168 12.4054ZM17.6432 13.8087V13.8447H17.6768C17.677 13.8447 17.6772 13.8447 17.6774 13.8447C17.6835 13.8447 17.6895 13.8431 17.6948 13.8401C17.699 13.8371 17.7015 13.8322 17.7015 13.8271C17.7015 13.8268 17.7015 13.8266 17.7015 13.8264C17.7015 13.8262 17.7015 13.8259 17.7015 13.8257C17.7015 13.8206 17.699 13.8158 17.6948 13.813C17.6898 13.8099 17.684 13.8083 17.6781 13.8083C17.6777 13.8083 17.6772 13.8084 17.6768 13.8084H17.6432L17.6432 13.8087ZM17.6432 13.8084H17.6432V13.8087L17.6432 13.8084ZM18.0001 5.56138L17.6443 13.7834H17.6776L17.6771 13.7833C17.6784 13.7832 17.6797 13.7832 17.681 13.7832C17.6941 13.7832 17.7069 13.7873 17.7175 13.795C17.7264 13.8023 17.7316 13.8133 17.7316 13.8249C17.7316 13.8255 17.7316 13.8262 17.7316 13.8268C17.7316 13.8273 17.7316 13.8278 17.7316 13.8283C17.7316 13.8383 17.7275 13.8479 17.7202 13.8548C17.7113 13.8626 17.6999 13.8673 17.688 13.8682L17.733 13.9195H17.6984L17.657 13.8686H17.6436V13.9195H17.6146V13.7834H17.6443L18.0001 5.56138V5.56138ZM6.87533 5.56138C6.87533 3.78754 7.7061 2.20739 8.99977 1.18908C8.02361 0.419107 6.81464 2.28289e-07 5.57051 2.28289e-07C5.5678 2.28289e-07 5.5651 2.28289e-07 5.56239 2.28289e-07C2.4904 1.20993e-05 0.000244141 2.48987 0.000244141 5.56138C0.000244141 8.63287 2.4904 11.1227 5.56232 11.1227C5.56518 11.1227 5.56789 11.1227 5.57059 11.1227C6.81473 11.1227 8.02369 10.7036 9.00007 9.93369C7.70629 8.91554 6.87533 7.3353 6.87533 5.56138H6.87533ZM17.8263 9.00748V8.79157H17.7701L17.705 8.93974L17.6403 8.79157H17.5839V9.00748H17.6239V8.84483L17.6847 8.98517H17.7261L17.7869 8.84447V9.00748H17.8265H17.8263V9.00748ZM17.4695 9.00748V8.82854H17.5415V8.79211H17.3576V8.82855L17.4296 8.82854V9.00748H17.4692H17.4695V9.00748ZM5.08493 13.1808V12.4422H4.76376V12.6221C4.6619 12.4891 4.50739 12.4057 4.29727 12.4057C3.88332 12.4057 3.55847 12.7303 3.55847 13.1811C3.55847 13.6319 3.88314 13.9565 4.29727 13.9565C4.5073 13.9565 4.6619 13.8731 4.76376 13.7402V13.9195H5.08457V13.1808H5.08493V13.1808ZM17.1329 13.1808V11.8493H16.8115V12.6221C16.7096 12.4891 16.5551 12.4057 16.345 12.4057C15.931 12.4057 15.6062 12.7303 15.6062 13.1811C15.6062 13.6319 15.9308 13.9565 16.345 13.9565C16.5551 13.9565 16.7096 13.8731 16.8115 13.7402V13.9195H17.1329V13.1808V13.1808ZM14.1506 13.1802V12.4422H13.8296V12.6221C13.7274 12.4891 13.5732 12.4057 13.3631 12.4057C12.9492 12.4057 12.6243 12.7303 12.6243 13.1811C12.6243 13.6319 12.949 13.9565 13.3631 13.9565C13.5732 13.9565 13.7274 13.8731 13.8296 13.7402V13.9195H14.1507V13.1808L14.1506 13.1802ZM6.67277 12.5596C6.51827 12.4577 6.30536 12.4051 6.07049 12.4051C5.69631 12.4051 5.45541 12.5844 5.45541 12.8778C5.45541 13.1185 5.63476 13.2671 5.96501 13.3134L6.11674 13.335C6.29284 13.3597 6.37599 13.406 6.37599 13.4894C6.37599 13.6036 6.25901 13.6687 6.03934 13.6687C5.8169 13.6687 5.65636 13.5977 5.5481 13.5143L5.39719 13.7647C5.5733 13.8944 5.79575 13.9563 6.03665 13.9563C6.46319 13.9563 6.71039 13.7555 6.71039 13.4743C6.71039 13.2148 6.51584 13.079 6.1944 13.0327L6.04304 13.0107C5.90401 12.9928 5.79261 12.9648 5.79261 12.8658C5.79261 12.7579 5.89761 12.6929 6.07381 12.6929C6.26234 12.6929 6.44484 12.764 6.53428 12.8195L6.67331 12.5599L6.67277 12.5596ZM8.07613 12.4422H7.55097V11.9942H7.22628V12.4422H6.92672V12.7356H7.22628V13.4092C7.22628 13.7518 7.35928 13.9558 7.73923 13.9558C7.87861 13.9558 8.03915 13.9126 8.14102 13.8417L8.04824 13.5667C7.9524 13.6222 7.84738 13.6502 7.76388 13.6502C7.60334 13.6502 7.55097 13.5513 7.55097 13.4031V12.7359H8.07613V12.4422ZM3.27446 13.919V12.9924C3.27446 12.6434 3.05201 12.4086 2.69341 12.4055C2.50489 12.4023 2.31041 12.461 2.17426 12.6682C2.07241 12.5044 1.91187 12.4055 1.68617 12.4055C1.52843 12.4055 1.37427 12.4518 1.2536 12.6247V12.4422H0.932162V13.9187H1.25612V13.1C1.25612 12.8437 1.3983 12.7075 1.61787 12.7075C1.83114 12.7075 1.93903 12.8465 1.93903 13.0968V13.9185L2.26372 13.9185V13.0998C2.26372 12.8435 2.41192 12.7073 2.62511 12.7073C2.84441 12.7073 2.94907 12.8463 2.94907 13.0966V13.9183L3.27446 13.919H3.27446Z" fill="#464C4C"/>
</g>
<defs>
<clipPath id="clip0_907_1064">
<rect width="18" height="14" fill="white"/>
</clipPath>
</defs>
</svg>
