<svg width="43" height="14" viewBox="0 0 43 14" fill="none" xmlns="http://www.w3.org/2000/svg">
<path fill-rule="evenodd" clip-rule="evenodd" d="M18.6334 13.7985H15.1501L17.3289 0.245866H20.8122L18.6334 13.7985ZM5.66212 0.245866H0.0578724L0 0.519767C1.36704 0.871589 2.5894 1.37846 3.66082 2.00891L6.76482 13.7835H10.4483L15.9243 0.245866H12.24L8.82868 9.48768L8.45563 7.61366L8.45485 7.61208L7.23718 1.38555C7.03619 0.520554 6.42071 0.274987 5.66055 0.246653L5.66212 0.245866ZM35.8903 8.99733C36.1773 8.21891 37.2808 5.20521 37.2808 5.20521C37.2667 5.23355 37.5678 4.41184 37.7391 3.90733L37.9831 5.07535C37.9831 5.07535 38.6432 8.31966 38.7855 8.99733H35.8903ZM37.4959 0.245866C36.6645 0.245866 36.0334 0.491432 35.6752 1.37059L30.5011 13.7985H34.1565C34.1565 13.7985 34.7579 12.1252 34.8869 11.7655H39.3595C39.4596 12.2416 39.7756 13.7985 39.7756 13.7985H43.0008L40.1908 0.245866H37.4967H37.4959ZM28.1362 0.000298792C24.6967 0.000298792 22.2746 1.84598 22.259 4.48425C22.2308 6.43068 23.9936 7.51134 25.3129 8.16067C26.6604 8.82417 27.1187 9.25628 27.1187 9.84737C27.1046 10.7549 26.0301 11.1736 25.0267 11.1736C23.6362 11.1736 22.8917 10.9579 21.7585 10.4534L21.3002 10.237L20.813 13.279C21.6294 13.6537 23.1349 13.9858 24.6975 14C28.352 14 30.7311 12.1826 30.76 9.37119C30.7741 7.82853 29.8434 6.64634 27.8366 5.6806C26.6182 5.06039 25.8721 4.64245 25.8721 4.00729C25.887 3.43036 26.5032 2.84006 27.8781 2.84006C29.0105 2.81094 29.8426 3.08484 30.473 3.35874L30.7874 3.50277L31.2613 0.577223C30.5746 0.302535 29.4852 -0.000488281 28.137 -0.000488281L28.1362 0.000298792Z" fill="#464C4C"/>
</svg>
