<svg width="53" height="14" viewBox="0 0 53 14" fill="none" xmlns="http://www.w3.org/2000/svg">
<path fill-rule="evenodd" clip-rule="evenodd" d="M4.90105 0.00197164C5.37468 -0.00108096 6.78138 -0.123185 7.37794 1.82438C7.77986 3.13699 8.41898 5.28603 9.29689 8.273H9.65467C10.5956 5.12424 11.2426 2.97444 11.5941 1.82438C12.1962 -0.14379 13.7022 0.00197164 14.3043 0.00197164H18.9507V13.9997H14.2144V5.75079H13.8968L11.2568 13.9997H7.69317L5.05315 5.74468H4.73555V13.9997H-0.000732422V0.00197164H4.90026H4.90105ZM47.6718 0.00197164H37.5404C37.7816 3.11868 40.5532 5.78589 43.4218 5.78589H52.9062C53.4539 3.19576 51.5696 0.00197164 47.6711 0.00197164H47.6718ZM25.751 0.00197164V8.25697H26.1284L29.3398 1.46875C29.9632 0.11797 31.2919 0.00197164 31.2919 0.00197164H35.8753V13.9997H31.0405V5.74468H30.663L27.5146 12.5329C26.8913 13.8776 25.4996 13.9997 25.4996 13.9997H20.9162V0.00197164H25.751ZM52.587 6.65359C51.9124 8.50423 49.7949 9.82983 47.4496 9.82983H42.3792V13.9997H37.7816V6.65359H52.587Z" fill="#464C4C"/>
</svg>
