<svg width="52" height="14" viewBox="0 0 52 14" fill="none" xmlns="http://www.w3.org/2000/svg">
<g clip-path="url(#clip0_907_1066)">
<path fill-rule="evenodd" clip-rule="evenodd" d="M6.96773 0.852054C3.58864 0.852054 0.848407 3.60538 0.848407 7.00024C0.848407 10.3949 3.58888 13.1479 6.96773 13.1479C10.3471 13.1479 13.0873 10.3949 13.0873 7.00024C13.0873 3.60538 10.3471 0.852054 6.96773 0.852054ZM6.96773 0C3.12059 0 0.000244141 3.13456 0.000244141 7C0.000244141 10.8652 3.12035 13.9998 6.96773 13.9998C10.8151 13.9998 13.9352 10.8652 13.9352 7C13.9352 3.13456 10.8151 0 6.96773 0ZM9.17959 6.87325C9.78209 6.87325 10.271 7.36423 10.271 7.96958C10.271 8.57517 9.78209 9.06591 9.17959 9.06591C8.57684 9.06591 8.08819 8.57493 8.08819 7.96958C8.08819 7.36423 8.57684 6.87325 9.17959 6.87325ZM9.17959 6.02289C10.2494 6.02289 11.117 6.89486 11.117 7.96982C11.117 9.04478 10.2494 9.9165 9.17959 9.9165C8.82709 9.9165 8.49689 9.82156 8.21223 9.65644V9.71715H7.36334C7.28582 9.71715 7.22259 9.65353 7.22259 9.57583V4.2253C7.22259 4.14736 7.28582 4.08398 7.36334 4.08398H8.07148C8.149 4.08398 8.21223 4.14736 8.21223 4.2253V6.05349C8.21223 6.10278 8.235 6.14479 8.2757 6.17174C8.31665 6.1987 8.36413 6.20282 8.40895 6.1834C8.64491 6.08044 8.90559 6.02338 9.17959 6.02338V6.02289ZM4.75611 6.87325C4.1536 6.87325 3.66496 7.36423 3.66496 7.96958C3.66496 8.57517 4.1536 9.06591 4.75611 9.06591C5.35862 9.06591 5.84726 8.57493 5.84726 7.96958C5.84726 7.36423 5.35862 6.87325 4.75611 6.87325ZM4.75611 6.02289C3.68627 6.02289 2.81849 6.89486 2.81849 7.96982C2.81849 9.04478 3.68627 9.9165 4.75611 9.9165C5.1086 9.9165 5.43856 9.82156 5.72346 9.65644V9.71715H6.57235C6.64988 9.71715 6.71311 9.65353 6.71311 9.57583V4.2253C6.71311 4.14736 6.64988 4.08398 6.57235 4.08398H5.86446C5.78694 4.08398 5.72371 4.14736 5.72371 4.2253V6.05349C5.72371 6.10278 5.70093 6.14479 5.65999 6.17174C5.61905 6.19894 5.57156 6.20282 5.52675 6.1834C5.29054 6.0802 5.03011 6.02314 4.75635 6.02314L4.75611 6.02289ZM25.785 7.28871H23.6645C23.6703 7.12772 23.6986 6.97426 23.7476 6.82687C23.7963 6.68093 23.866 6.55127 23.9564 6.44103C24.0456 6.33079 24.1568 6.24143 24.2903 6.17587C24.4237 6.10885 24.5781 6.07437 24.7559 6.07437C25.0999 6.07437 25.3594 6.1817 25.5345 6.39756C25.7109 6.61222 25.794 6.90991 25.785 7.28847V7.28871ZM26.506 7.50166V7.37078C26.506 7.11437 26.4733 6.87446 26.4079 6.64791C26.3429 6.42306 26.2419 6.22638 26.1024 6.05956C25.9631 5.8925 25.785 5.75846 25.5701 5.66012C25.3535 5.56032 25.0926 5.51103 24.7857 5.51103C24.4996 5.51103 24.2401 5.56178 24.0087 5.66158C23.7757 5.76283 23.5785 5.9061 23.4154 6.0938C23.2507 6.2815 23.1262 6.51096 23.0387 6.77928C22.9527 7.04881 22.9081 7.35282 22.9081 7.68961C22.9081 8.04437 22.9513 8.35566 23.0344 8.62373C23.1189 8.89181 23.2434 9.11374 23.4079 9.291C23.5741 9.4685 23.7771 9.60254 24.0189 9.69335C24.2607 9.78271 24.5424 9.82909 24.8642 9.82909C25.0495 9.82909 25.2247 9.81428 25.3877 9.78757C25.551 9.75916 25.6949 9.72808 25.8194 9.6936C25.9439 9.6579 26.0462 9.62221 26.1235 9.58627C26.2019 9.55058 26.2494 9.52387 26.2659 9.50735C26.2807 9.4923 26.294 9.47433 26.3044 9.45806C26.3148 9.44009 26.3223 9.42067 26.3267 9.39857C26.3313 9.37623 26.334 9.35219 26.3371 9.32402C26.34 9.29707 26.3415 9.26478 26.3415 9.22568C26.3415 9.17372 26.3386 9.1288 26.3357 9.09335C26.3313 9.05741 26.3238 9.02924 26.3148 9.00836C26.3059 8.98723 26.294 8.97242 26.278 8.96198C26.263 8.95154 26.2439 8.94717 26.2245 8.94717C26.1889 8.94717 26.1385 8.96198 26.0702 8.99355C26.0021 9.02317 25.9144 9.05765 25.8092 9.0948C25.7041 9.13341 25.5781 9.16789 25.4342 9.19752C25.2889 9.2286 25.1241 9.24365 24.9388 9.24365C24.7031 9.24365 24.5059 9.21111 24.3428 9.1441C24.181 9.07683 24.049 8.97995 23.9482 8.8549C23.8459 8.72985 23.7733 8.581 23.7301 8.40641C23.6873 8.23061 23.665 8.03538 23.665 7.81636H26.2288C26.3018 7.81636 26.3655 7.79256 26.4217 7.74497C26.4781 7.69713 26.5065 7.6153 26.5065 7.50191L26.506 7.50166ZM32.7174 9.63653V7.15298C32.7174 6.93104 32.6953 6.721 32.6507 6.5214C32.6062 6.32302 32.5306 6.14892 32.4252 5.99983C32.3184 5.85243 32.1805 5.73321 32.01 5.64531C31.8394 5.55571 31.6274 5.51103 31.3752 5.51103C31.2715 5.51103 31.1676 5.52463 31.0651 5.5528C30.9614 5.58096 30.8561 5.62418 30.7478 5.68538C30.6395 5.74657 30.5254 5.82694 30.4081 5.9265C30.2911 6.02484 30.1678 6.14576 30.0375 6.28878C29.9917 6.17247 29.9323 6.0666 29.864 5.97142C29.7942 5.87745 29.7099 5.79562 29.612 5.7269C29.5127 5.65818 29.3998 5.60622 29.2709 5.56761C29.142 5.53046 28.9965 5.51103 28.8334 5.51103C28.6229 5.51103 28.4138 5.56906 28.2062 5.68392C27.9983 5.79853 27.7849 5.9804 27.5654 6.22783V5.70796C27.5654 5.68416 27.5596 5.66498 27.5506 5.64847C27.5402 5.63341 27.5225 5.61884 27.5 5.60524C27.4762 5.59189 27.4438 5.58436 27.4021 5.57999C27.3604 5.57538 27.3072 5.57246 27.2434 5.57246C27.1768 5.57246 27.1233 5.57538 27.0833 5.57999C27.0416 5.58436 27.0092 5.59213 26.9823 5.60524C26.9571 5.61884 26.9394 5.63341 26.9304 5.64847C26.9212 5.66498 26.9169 5.68416 26.9169 5.70796V9.63678C26.9169 9.65912 26.9229 9.68 26.9331 9.69481C26.9421 9.71132 26.9612 9.72443 26.9895 9.73658C27.0164 9.74872 27.0533 9.75746 27.0993 9.76353C27.1468 9.76936 27.2047 9.77251 27.273 9.77251C27.3454 9.77251 27.4048 9.76936 27.4523 9.76353C27.4981 9.75746 27.5339 9.74872 27.5606 9.73658C27.586 9.72443 27.6051 9.71132 27.617 9.69481C27.6289 9.68 27.6347 9.65912 27.6347 9.63678V6.89122C27.8304 6.64378 28.0143 6.45608 28.182 6.32788C28.3496 6.19991 28.5156 6.13556 28.6818 6.13556C28.815 6.13556 28.9293 6.16227 29.0272 6.21448C29.1236 6.26693 29.2036 6.34269 29.2675 6.44103C29.331 6.54083 29.3787 6.6586 29.4114 6.79555C29.4425 6.93128 29.4587 7.08329 29.4587 7.24865V9.63678C29.4587 9.65912 29.4647 9.68 29.4735 9.69481C29.4841 9.71132 29.5033 9.72443 29.5299 9.73658C29.558 9.74872 29.5953 9.75746 29.644 9.76353C29.6915 9.76936 29.7477 9.77251 29.8146 9.77251C29.8843 9.77251 29.9422 9.76936 29.9897 9.76353C30.0355 9.75746 30.0728 9.74872 30.0995 9.73658C30.1276 9.72443 30.1467 9.71132 30.1586 9.69481C30.1707 9.68 30.1763 9.65912 30.1763 9.63678V6.89122C30.3749 6.64378 30.559 6.45608 30.725 6.32788C30.8912 6.19991 31.0574 6.13556 31.2236 6.13556C31.3556 6.13556 31.4729 6.16227 31.5705 6.21448C31.6686 6.26693 31.75 6.34269 31.8137 6.44103C31.8774 6.54083 31.9235 6.6586 31.953 6.79555C31.9811 6.93128 31.9959 7.08329 31.9959 7.24865V9.63678C31.9959 9.65912 32.002 9.68 32.0138 9.69481C32.0257 9.71132 32.0448 9.72443 32.0717 9.73658C32.0998 9.74872 32.1371 9.75746 32.1829 9.76353C32.229 9.76936 32.2883 9.77251 32.3608 9.77251C32.4305 9.77251 32.4884 9.76936 32.5342 9.76353C32.5817 9.75746 32.6173 9.74872 32.644 9.73658C32.6692 9.72443 32.6883 9.71132 32.7002 9.69481C32.7108 9.68 32.7164 9.65912 32.7164 9.63678L32.7174 9.63653ZM33.9544 9.63678V5.70771C33.9544 5.68707 33.9485 5.66911 33.9367 5.65114C33.9248 5.63341 33.9057 5.6186 33.8802 5.60792C33.8536 5.59577 33.818 5.58703 33.7719 5.58096C33.7245 5.57513 33.6651 5.57222 33.5927 5.57222C33.5241 5.57222 33.4664 5.57513 33.419 5.58096C33.3732 5.58703 33.3359 5.59577 33.3092 5.60792C33.2811 5.61836 33.2617 5.63341 33.2528 5.65114C33.2423 5.66935 33.2365 5.68707 33.2365 5.70771V9.63678C33.2365 9.65912 33.2426 9.68 33.2528 9.69457C33.2615 9.71108 33.2809 9.72443 33.3092 9.73658C33.3361 9.74847 33.3732 9.75721 33.419 9.76353C33.4664 9.76936 33.5241 9.77251 33.5927 9.77251C33.6651 9.77251 33.7245 9.76936 33.7719 9.76353C33.8177 9.75746 33.8536 9.74872 33.8802 9.73658C33.9057 9.72468 33.9248 9.71108 33.9367 9.69457C33.9485 9.67976 33.9544 9.65887 33.9544 9.63678ZM34.036 4.5247C34.036 4.35958 34.005 4.24618 33.9425 4.18669C33.8802 4.1272 33.7661 4.09734 33.5973 4.09734C33.4265 4.09734 33.3095 4.12866 33.2457 4.18985C33.182 4.2508 33.1508 4.36565 33.1508 4.53417C33.1508 4.70098 33.1818 4.81268 33.2443 4.87242C33.3063 4.93191 33.4209 4.96177 33.5898 4.96177C33.7603 4.96177 33.8776 4.93215 33.9413 4.87072C34.0052 4.80977 34.0362 4.69491 34.0362 4.52494L34.036 4.5247ZM36.7462 5.96535C36.7462 5.89833 36.7462 5.84466 36.7447 5.80581C36.7433 5.76721 36.7401 5.73734 36.7358 5.71646C36.7314 5.69557 36.7271 5.6793 36.721 5.66571C36.7152 5.65211 36.7033 5.63875 36.6856 5.62418C36.6692 5.61059 36.6396 5.59577 36.5965 5.58096C36.5548 5.56615 36.5076 5.55425 36.4555 5.54235C36.4036 5.53046 36.3532 5.52293 36.3058 5.51832C36.2583 5.51394 36.2152 5.51079 36.1766 5.51079C36.0938 5.51079 36.0107 5.52293 35.9276 5.54357C35.8445 5.56615 35.7616 5.60476 35.6785 5.66134C35.594 5.71791 35.5048 5.79683 35.4101 5.89517C35.3168 5.99351 35.2158 6.12172 35.1092 6.27955V5.70747C35.1092 5.68368 35.1032 5.66449 35.0944 5.64798C35.084 5.63293 35.0663 5.61836 35.0441 5.60476C35.0203 5.5914 34.9879 5.58388 34.9462 5.57951C34.9045 5.57489 34.8512 5.57198 34.7875 5.57198C34.7209 5.57198 34.6673 5.57489 34.6274 5.57951C34.5859 5.58388 34.5532 5.59165 34.5266 5.60476C34.5011 5.61836 34.4835 5.63293 34.4747 5.64798C34.4658 5.66449 34.4614 5.68368 34.4614 5.70747V9.63629C34.4614 9.65863 34.4672 9.67951 34.4776 9.69432C34.4866 9.71084 34.5057 9.72395 34.5339 9.73609C34.5605 9.74823 34.5976 9.75697 34.6436 9.76304C34.6911 9.76887 34.749 9.77203 34.8171 9.77203C34.8897 9.77203 34.9491 9.76887 34.9966 9.76304C35.0426 9.75697 35.078 9.74823 35.1049 9.73609C35.1301 9.72395 35.1492 9.71084 35.1611 9.69432C35.1729 9.67951 35.1788 9.65863 35.1788 9.63629V7.05148C35.2795 6.89219 35.3731 6.75645 35.4562 6.64621C35.5405 6.53597 35.6206 6.44661 35.6979 6.3796C35.7735 6.31258 35.8479 6.26499 35.9174 6.23658C35.9872 6.20695 36.057 6.1919 36.1296 6.1919C36.1904 6.1919 36.2467 6.19797 36.2999 6.20987C36.3518 6.22176 36.3981 6.23366 36.4409 6.24702C36.4826 6.26037 36.5194 6.27227 36.5536 6.28562C36.5863 6.29922 36.6144 6.30505 36.6381 6.30505C36.6619 6.30505 36.6798 6.29922 36.6929 6.28562C36.7048 6.27227 36.7166 6.25454 36.7256 6.22929C36.7331 6.20549 36.7392 6.17126 36.7418 6.12634C36.745 6.08336 36.7464 6.02945 36.7464 5.96535H36.7462ZM21.7954 6.86839C21.7954 7.25277 21.754 7.58495 21.6707 7.86662C21.5893 8.14684 21.4645 8.38067 21.3 8.56691C21.1341 8.75316 20.9293 8.89156 20.6832 8.98116C20.4371 9.07198 20.1345 9.11666 19.774 9.11666H19.0058V4.72162H19.7665C20.1534 4.72162 20.4707 4.77529 20.7171 4.88261C20.9633 4.9914 21.1663 5.14025 21.3281 5.33232C21.4882 5.52463 21.6069 5.75264 21.6825 6.01634C21.7567 6.27858 21.7952 6.56317 21.7952 6.86863L21.7954 6.86839ZM22.5813 6.83852C22.5813 6.41408 22.522 6.03261 22.4047 5.69436C22.2875 5.35757 22.1157 5.06983 21.8887 4.83308C21.6602 4.59463 21.3787 4.413 21.0437 4.28625C20.7069 4.15974 20.2961 4.09734 19.8098 4.09734H18.536C18.4694 4.09734 18.4069 4.11943 18.3478 4.16435C18.2884 4.21049 18.2589 4.28965 18.2589 4.40256V9.43985C18.2589 9.553 18.2884 9.63216 18.3478 9.6783C18.4071 9.72322 18.4694 9.74532 18.536 9.74532H19.727C20.2074 9.74532 20.6229 9.68583 20.9698 9.5666C21.3167 9.44738 21.6103 9.26696 21.849 9.0273C22.0878 8.78739 22.2703 8.48508 22.3948 8.11988C22.5193 7.75493 22.5816 7.32732 22.5816 6.83852H22.5813ZM40.1292 8.16893C40.1292 8.32677 40.1008 8.46566 40.0461 8.58464C39.9911 8.70411 39.9157 8.80366 39.8176 8.88258C39.7212 8.96295 39.6085 9.0239 39.4811 9.06421C39.3534 9.10452 39.2052 9.1254 39.0332 9.1254H37.9476V7.13476H38.842C39.0777 7.13476 39.272 7.1571 39.4276 7.20203C39.5821 7.24816 39.711 7.31372 39.813 7.40162C39.9169 7.48807 39.9942 7.59685 40.0475 7.72506C40.1023 7.85157 40.1292 8.00042 40.1292 8.16893ZM39.7895 5.59893C39.7895 5.72131 39.7718 5.83884 39.7362 5.95491C39.6991 6.06976 39.6427 6.16956 39.5642 6.256C39.4855 6.34074 39.3876 6.40946 39.2689 6.45997C39.1504 6.51218 38.9932 6.53743 38.7989 6.53743H37.9476V4.70778H38.7204C38.9353 4.70778 39.1073 4.72867 39.2379 4.76897C39.3685 4.80904 39.4738 4.86853 39.5552 4.94623C39.6366 5.02369 39.696 5.11742 39.7333 5.22766C39.7704 5.3379 39.7895 5.4615 39.7895 5.59845V5.59893ZM40.9153 8.12595C40.9153 7.93388 40.8857 7.75784 40.8278 7.59855C40.7702 7.43756 40.6915 7.2977 40.5921 7.17847C40.4913 7.05925 40.3755 6.96091 40.2421 6.8849C40.1086 6.80744 39.9647 6.75378 39.8118 6.72537C39.9334 6.67195 40.0417 6.60615 40.1352 6.52432C40.2302 6.44224 40.3072 6.34997 40.3695 6.24702C40.4317 6.1443 40.4792 6.03091 40.5105 5.90901C40.5432 5.78687 40.5594 5.65867 40.5594 5.52463C40.5594 5.30123 40.5221 5.10018 40.4497 4.92292C40.3784 4.74542 40.2704 4.59487 40.1263 4.47298C39.9838 4.3506 39.8043 4.25687 39.5894 4.19301C39.376 4.1289 39.1003 4.09758 38.765 4.09758H37.4868C37.4199 4.09758 37.3577 4.11968 37.2986 4.1646C37.2392 4.21073 37.2094 4.28989 37.2094 4.4028V9.44009C37.2094 9.55325 37.2392 9.63241 37.2986 9.67854C37.3577 9.72346 37.4202 9.74556 37.4868 9.74556H38.9564C39.1669 9.74556 39.3554 9.73099 39.5184 9.69942C39.6815 9.6698 39.8358 9.62342 39.9797 9.56223C40.1219 9.50128 40.251 9.42504 40.3654 9.33592C40.4795 9.24511 40.5773 9.1407 40.6587 9.02147C40.7404 8.90225 40.8026 8.76675 40.8487 8.61766C40.8933 8.46711 40.9155 8.30321 40.9155 8.12595H40.9153ZM43.7127 7.84744V8.68031C43.5363 8.87845 43.3672 9.02584 43.2071 9.12103C43.0455 9.21791 42.8721 9.2655 42.6836 9.2655C42.4522 9.2655 42.2712 9.20456 42.1424 9.08388C42.0132 8.96319 41.9495 8.80075 41.9495 8.59654C41.9495 8.47731 41.9718 8.37314 42.0164 8.28063C42.061 8.18981 42.1322 8.1109 42.2272 8.04534C42.3233 7.97978 42.4435 7.93048 42.5874 7.89625C42.7328 7.86347 42.9031 7.8472 43.1005 7.8472H43.713L43.7127 7.84744ZM44.4262 9.64115V6.99077C44.4262 6.7465 44.3981 6.5333 44.3431 6.35021C44.2883 6.16689 44.1994 6.01342 44.0776 5.88983C43.9562 5.76623 43.7973 5.67226 43.6001 5.60816C43.4029 5.54405 43.164 5.51127 42.8837 5.51127C42.7325 5.51127 42.5828 5.52487 42.436 5.55304C42.2875 5.58121 42.1511 5.61544 42.0266 5.65721C41.902 5.70043 41.7923 5.74681 41.6976 5.79707C41.6009 5.84782 41.5343 5.8925 41.496 5.92989C41.4558 5.96875 41.432 6.00881 41.4216 6.05058C41.4112 6.0921 41.4054 6.15037 41.4054 6.22322C41.4054 6.26644 41.4083 6.30675 41.4144 6.34244C41.4202 6.3796 41.4306 6.40946 41.4425 6.4318C41.4558 6.4556 41.4706 6.47357 41.4885 6.48547C41.5062 6.49566 41.527 6.50173 41.5493 6.50173C41.5849 6.50173 41.6368 6.48085 41.708 6.43933C41.7792 6.39611 41.8667 6.34997 41.9735 6.29947C42.0786 6.24872 42.2017 6.20234 42.3427 6.15936C42.4835 6.11735 42.6407 6.09671 42.8185 6.09671C42.983 6.09671 43.1226 6.11614 43.2352 6.15475C43.3481 6.19505 43.4399 6.25333 43.5111 6.33079C43.5824 6.40679 43.6328 6.50368 43.6655 6.61974C43.6967 6.73605 43.713 6.87009 43.713 7.0221V7.32781H43.1746C42.8706 7.32781 42.5964 7.35452 42.3529 7.40818C42.1097 7.46184 41.9037 7.54222 41.7361 7.651C41.5687 7.75808 41.4396 7.89358 41.349 8.05626C41.26 8.22017 41.2157 8.41078 41.2157 8.63272C41.2157 8.82187 41.2482 8.99039 41.3121 9.13924C41.3773 9.28687 41.4694 9.41193 41.5864 9.51464C41.7034 9.61614 41.8458 9.6936 42.012 9.74726C42.1782 9.80238 42.365 9.82933 42.5709 9.82933C42.8054 9.82933 43.0278 9.77713 43.2369 9.67587C43.4477 9.57461 43.6374 9.43159 43.8094 9.24827V9.64139C43.8094 9.67563 43.8181 9.70258 43.8389 9.71885C43.8595 9.73658 43.8922 9.75017 43.9368 9.75916C43.9811 9.76814 44.0422 9.77276 44.1178 9.77276C44.1948 9.77276 44.2542 9.76814 44.2958 9.75916C44.3358 9.75042 44.3685 9.73682 44.3908 9.71885C44.4145 9.70258 44.4264 9.67563 44.4264 9.64139L44.4262 9.64115ZM48.3227 9.63653V7.23942C48.3227 6.96066 48.299 6.721 48.2501 6.5214C48.2026 6.32302 48.1241 6.14892 48.0143 5.99983C47.9046 5.85243 47.759 5.73321 47.5812 5.64531C47.4031 5.55571 47.1836 5.51103 46.9229 5.51103C46.7003 5.51103 46.4796 5.56906 46.2613 5.68392C46.0418 5.79853 45.8226 5.9804 45.6028 6.22783V5.70796C45.6028 5.68416 45.597 5.66498 45.5881 5.64847C45.5777 5.63341 45.56 5.61884 45.5377 5.60524C45.5139 5.59189 45.4815 5.58436 45.4398 5.57999C45.3984 5.57538 45.3448 5.57246 45.2811 5.57246C45.2145 5.57246 45.161 5.57538 45.1212 5.57999C45.0796 5.58436 45.0471 5.59213 45.0202 5.60524C44.995 5.61884 44.9773 5.63341 44.9684 5.64847C44.9594 5.66498 44.9548 5.68416 44.9548 5.70796V9.63678C44.9548 9.65912 44.9606 9.68 44.971 9.69481C44.98 9.71132 44.9991 9.72443 45.0272 9.73658C45.0539 9.74872 45.0909 9.75746 45.137 9.76353C45.1845 9.76936 45.2424 9.77251 45.3104 9.77251C45.3831 9.77251 45.4425 9.76936 45.4899 9.76353C45.5357 9.75746 45.5714 9.74872 45.5982 9.73658C45.6234 9.72443 45.6426 9.71132 45.6544 9.69481C45.6663 9.68 45.6721 9.65912 45.6721 9.63678V6.89122C45.8679 6.64378 46.0564 6.45608 46.2373 6.32788C46.4169 6.19991 46.5961 6.13556 46.7759 6.13556C46.9152 6.13556 47.0368 6.16227 47.1419 6.21448C47.2488 6.26693 47.3348 6.34269 47.4014 6.44103C47.4683 6.54083 47.5187 6.6586 47.5528 6.79555C47.5884 6.93128 47.6047 7.1117 47.6047 7.33655V9.63678C47.6047 9.65912 47.6107 9.68 47.6226 9.69481C47.6345 9.71132 47.6536 9.72443 47.679 9.73658C47.7057 9.74872 47.7413 9.75746 47.7871 9.76353C47.8346 9.76936 47.8939 9.77251 47.9666 9.77251C48.0349 9.77251 48.0928 9.76936 48.1401 9.76353C48.1861 9.75746 48.2217 9.74872 48.2484 9.73658C48.2752 9.72443 48.2927 9.71132 48.3048 9.69481C48.3169 9.68 48.3225 9.65912 48.3225 9.63678L48.3227 9.63653ZM52.0005 9.63216C52.0005 9.60545 51.993 9.5768 51.9765 9.54718C51.9603 9.51585 51.9334 9.47579 51.8966 9.42649L50.3066 7.35403L51.7229 5.92989C51.7658 5.88376 51.797 5.84345 51.8164 5.80776C51.8341 5.77352 51.8445 5.73928 51.8445 5.70334C51.8445 5.67809 51.837 5.65575 51.8251 5.6407C51.8118 5.62443 51.7895 5.61107 51.76 5.60039C51.7289 5.58995 51.6887 5.58412 51.6398 5.57975C51.5909 5.57513 51.5298 5.57222 51.4574 5.57222C51.3876 5.57222 51.3282 5.57513 51.2795 5.57975C51.2304 5.58412 51.1875 5.59189 51.1519 5.605C51.1148 5.6186 51.0838 5.63463 51.0584 5.65259C51.0317 5.67202 51.0065 5.69582 50.9842 5.72568L49.5074 7.35719V4.2236C49.5074 4.19981 49.5013 4.17892 49.4895 4.16265C49.4776 4.14493 49.4582 4.12987 49.433 4.11798C49.4064 4.10729 49.3708 4.09855 49.3247 4.09248C49.2772 4.08665 49.2179 4.08374 49.1452 4.08374C49.0769 4.08374 49.019 4.08665 48.9718 4.09248C48.926 4.09855 48.8887 4.10729 48.862 4.11798C48.8339 4.12987 48.8145 4.14493 48.8056 4.16265C48.7951 4.17892 48.7891 4.19981 48.7891 4.2236V9.63653C48.7891 9.65887 48.7951 9.67976 48.8056 9.69457C48.8143 9.71108 48.8337 9.72419 48.862 9.73633C48.8887 9.74847 48.9257 9.75721 48.9718 9.76328C49.019 9.76911 49.0769 9.77227 49.1452 9.77227C49.2179 9.77227 49.2772 9.76911 49.3247 9.76328C49.3708 9.75721 49.4064 9.74847 49.433 9.73633C49.4582 9.72419 49.4776 9.71108 49.4895 9.69457C49.5013 9.67976 49.5074 9.65887 49.5074 9.63653V7.45844L51.1579 9.63216C51.1756 9.65766 51.195 9.68121 51.2158 9.69918C51.2379 9.71861 51.2662 9.73342 51.3018 9.74386C51.3358 9.75284 51.3789 9.76037 51.4293 9.76474C51.4799 9.76911 51.5451 9.77227 51.6221 9.77227C51.6979 9.77227 51.7602 9.76911 51.8089 9.76328C51.8593 9.75721 51.8964 9.74847 51.9245 9.73633C51.9526 9.72419 51.9719 9.71108 51.9838 9.69311C51.9942 9.67538 52.0003 9.6545 52.0003 9.63216H52.0005ZM19.2459 11.4043C19.2459 11.3285 19.2369 11.2593 19.2194 11.1962C19.202 11.133 19.1751 11.0791 19.14 11.0342C19.1046 10.989 19.0596 10.9543 19.0055 10.93C18.9515 10.9058 18.8883 10.8934 18.8158 10.8934C18.7778 10.8934 18.7419 10.8975 18.7078 10.9053C18.6739 10.9133 18.6414 10.9247 18.6111 10.9397C18.5804 10.9548 18.5513 10.973 18.5237 10.9944C18.4958 11.0157 18.4699 11.0398 18.4452 11.0658C18.4505 11.0259 18.4558 10.9888 18.4614 10.9538C18.467 10.9191 18.4742 10.8868 18.4827 10.8572C18.4914 10.8276 18.5019 10.8011 18.5142 10.7778C18.5266 10.7545 18.5401 10.7348 18.5552 10.7193C18.5699 10.7035 18.585 10.6906 18.6 10.6804C18.615 10.6702 18.6322 10.6612 18.6521 10.653C18.6719 10.6447 18.6942 10.6372 18.7199 10.6304C18.7453 10.6238 18.7749 10.6178 18.8083 10.6124L19.1431 10.5561C19.155 10.5539 19.1647 10.551 19.1724 10.5471C19.1797 10.5432 19.1853 10.5379 19.1892 10.5313C19.193 10.5245 19.1955 10.5158 19.1969 10.5053C19.1984 10.4949 19.1993 10.4823 19.1993 10.4672C19.1993 10.4446 19.1984 10.4272 19.1969 10.4143C19.1955 10.4017 19.1926 10.3924 19.188 10.3868C19.1836 10.3813 19.1773 10.3781 19.1691 10.3776C19.1608 10.3774 19.1504 10.3783 19.1378 10.3805L18.7783 10.44C18.7359 10.4478 18.6974 10.4563 18.6635 10.4658C18.6293 10.4757 18.599 10.4871 18.5721 10.5002C18.5452 10.5134 18.521 10.5277 18.4987 10.543C18.4767 10.5583 18.4541 10.5787 18.4314 10.6044C18.4086 10.6299 18.3863 10.6644 18.3647 10.7081C18.3432 10.7516 18.3245 10.8043 18.3088 10.8662C18.293 10.9281 18.2809 10.9978 18.2724 11.0755C18.2637 11.1532 18.2594 11.2382 18.2594 11.3302C18.2594 11.439 18.2686 11.5337 18.2875 11.6143C18.3061 11.6949 18.3349 11.7619 18.3742 11.8158C18.4132 11.8695 18.4631 11.9096 18.5232 11.9363C18.5835 11.963 18.6545 11.9761 18.7366 11.9761C18.8158 11.9761 18.8868 11.9623 18.95 11.9343C19.013 11.9069 19.0666 11.8676 19.1109 11.8168C19.1548 11.7663 19.1884 11.7061 19.2117 11.6364C19.2347 11.5665 19.2466 11.4895 19.2466 11.4045L19.2459 11.4043ZM19.0542 11.4203C19.0542 11.4807 19.0477 11.5361 19.0341 11.5856C19.0205 11.6352 19.0009 11.6772 18.9755 11.7117C18.9498 11.7461 18.9176 11.7731 18.8796 11.7923C18.8415 11.8115 18.7981 11.8209 18.7497 11.8209C18.6945 11.8209 18.6477 11.8105 18.6097 11.7894C18.5716 11.7682 18.5409 11.7372 18.5179 11.6959C18.4946 11.6546 18.4779 11.6034 18.4679 11.5417C18.458 11.4803 18.4529 11.4089 18.4529 11.3278V11.2794C18.4529 11.2639 18.4532 11.2498 18.4539 11.2379C18.4839 11.2054 18.5118 11.1775 18.538 11.1539C18.5641 11.1304 18.5903 11.1104 18.6162 11.0944C18.6424 11.0784 18.669 11.0663 18.6964 11.0585C18.7235 11.0505 18.7528 11.0466 18.7843 11.0466C18.835 11.0466 18.8779 11.057 18.9125 11.0777C18.9474 11.0983 18.9748 11.1257 18.9954 11.1597C19.0157 11.194 19.0307 11.2336 19.0402 11.2785C19.0494 11.3234 19.054 11.3708 19.054 11.4203H19.0542ZM20.1621 11.9278V11.2447C20.1621 11.1816 20.1548 11.1265 20.1408 11.0794C20.1267 11.0323 20.1039 10.9927 20.0725 10.9606C20.041 10.9288 20 10.9045 19.9491 10.888C19.8983 10.8715 19.8367 10.8633 19.7645 10.8633C19.7255 10.8633 19.687 10.8669 19.649 10.8739C19.6109 10.881 19.5758 10.89 19.5438 10.9009C19.5116 10.9118 19.4833 10.924 19.4588 10.9371C19.4341 10.9502 19.4166 10.9616 19.4067 10.9716C19.3968 10.9813 19.3902 10.9915 19.3878 11.0024C19.3852 11.0133 19.3837 11.0281 19.3837 11.0468C19.3837 11.0582 19.3844 11.0684 19.3859 11.0779C19.3876 11.0871 19.39 11.0951 19.3931 11.101C19.3965 11.107 19.4004 11.1114 19.4048 11.1143C19.4094 11.1172 19.4145 11.1187 19.4205 11.1187C19.4295 11.1187 19.4431 11.1134 19.4615 11.1024C19.4799 11.0918 19.5027 11.0796 19.5298 11.0665C19.5569 11.0534 19.5889 11.0412 19.625 11.0306C19.6613 11.0196 19.702 11.0143 19.7476 11.0143C19.79 11.0143 19.8258 11.0191 19.8551 11.0293C19.8845 11.0395 19.908 11.0546 19.9264 11.0743C19.9448 11.0942 19.9579 11.1189 19.9661 11.1491C19.9746 11.1789 19.9785 11.2136 19.9785 11.2527V11.3314H19.8396C19.7611 11.3314 19.6906 11.3382 19.6279 11.3523C19.5652 11.3661 19.5123 11.3868 19.469 11.4147C19.4256 11.4426 19.3924 11.4773 19.3692 11.5194C19.3461 11.5614 19.3345 11.6109 19.3345 11.668C19.3345 11.7168 19.3428 11.7602 19.3597 11.7984C19.3764 11.8367 19.3999 11.8688 19.4302 11.8952C19.4605 11.9215 19.4971 11.9414 19.54 11.9555C19.5828 11.9693 19.6308 11.9763 19.6839 11.9763C19.7442 11.9763 19.8016 11.9632 19.8559 11.937C19.9097 11.9108 19.9591 11.8739 20.0032 11.8265V11.9278C20.0032 11.937 20.0058 11.9438 20.0112 11.9482C20.0165 11.9525 20.0247 11.9562 20.0364 11.9584C20.048 11.9606 20.0635 11.9615 20.0829 11.9615C20.103 11.9615 20.1182 11.9606 20.1287 11.9584C20.1393 11.9562 20.1473 11.9528 20.1534 11.9482C20.1592 11.9438 20.1623 11.937 20.1623 11.9278H20.1621ZM19.9782 11.4654V11.6803C19.9327 11.7316 19.8893 11.7692 19.8479 11.794C19.8064 11.819 19.7614 11.8314 19.7129 11.8314C19.6533 11.8314 19.6068 11.8156 19.5736 11.7845C19.5402 11.7534 19.5237 11.7117 19.5237 11.659C19.5237 11.6284 19.5293 11.6012 19.5409 11.5774C19.5526 11.5538 19.5707 11.5337 19.5954 11.5167C19.6199 11.4997 19.6512 11.4871 19.6885 11.4786C19.7258 11.4698 19.7699 11.4654 19.8205 11.4654H19.9785H19.9782ZM21.2598 11.9268V10.914C21.2598 10.9082 21.2583 10.9031 21.2554 10.899C21.2525 10.8948 21.2474 10.8909 21.2409 10.8878C21.2341 10.8844 21.2247 10.8822 21.2128 10.881C21.2009 10.8798 21.1859 10.8793 21.168 10.8793C21.1493 10.8793 21.134 10.88 21.1222 10.881C21.1103 10.8822 21.1009 10.8844 21.0941 10.8878C21.0873 10.8909 21.0824 10.8948 21.0795 10.899C21.0766 10.9031 21.0749 10.9082 21.0749 10.914V11.3258H20.5609V10.914C20.5609 10.9082 20.5592 10.9031 20.5565 10.899C20.5536 10.8948 20.5485 10.8909 20.542 10.8878C20.5352 10.8844 20.5257 10.8822 20.5139 10.881C20.5017 10.8798 20.4865 10.8793 20.4681 10.8793C20.4499 10.8793 20.4351 10.88 20.4233 10.881C20.4111 10.8822 20.4017 10.8844 20.3947 10.8878C20.3876 10.8909 20.3825 10.8948 20.3801 10.899C20.3775 10.9031 20.376 10.9082 20.376 10.914V11.9268C20.376 11.9329 20.3772 11.9377 20.3801 11.9419C20.3825 11.946 20.3874 11.9496 20.3947 11.9525C20.4017 11.9555 20.4111 11.9579 20.4233 11.9593C20.4351 11.9608 20.4501 11.9615 20.4681 11.9615C20.4867 11.9615 20.502 11.9608 20.5139 11.9593C20.5257 11.9579 20.5349 11.9557 20.542 11.9525C20.5485 11.9496 20.5536 11.946 20.5565 11.9419C20.5594 11.9377 20.5609 11.9326 20.5609 11.9268V11.4822H21.0749V11.9268C21.0749 11.9329 21.0766 11.9377 21.0795 11.9419C21.0824 11.946 21.0873 11.9496 21.0941 11.9525C21.1009 11.9555 21.1103 11.9579 21.1222 11.9593C21.134 11.9608 21.1493 11.9615 21.168 11.9615C21.1859 11.9615 21.2009 11.9608 21.2128 11.9593C21.2247 11.9579 21.2341 11.9557 21.2409 11.9525C21.2474 11.9496 21.2525 11.946 21.2554 11.9419C21.2583 11.9377 21.2598 11.9326 21.2598 11.9268ZM22.2993 11.9346C22.2993 11.9324 22.2993 11.93 22.2988 11.9273C22.2986 11.9246 22.2979 11.9212 22.2972 11.9171C22.2964 11.913 22.2952 11.9086 22.2938 11.9042C22.2923 11.8999 22.2901 11.8948 22.2872 11.8897L22.1763 11.633C22.162 11.5992 22.1467 11.5696 22.1305 11.5436C22.114 11.5179 22.0963 11.4956 22.0772 11.4766C22.0583 11.4579 22.0377 11.4421 22.0154 11.4293C21.9934 11.4166 21.9694 11.4057 21.9432 11.3967V11.3945C21.9604 11.3892 21.9783 11.3819 21.997 11.3727C22.0156 11.3632 22.0338 11.3501 22.052 11.3331C22.0697 11.3164 22.0874 11.295 22.105 11.2697C22.1227 11.2442 22.1387 11.2127 22.154 11.1753L22.2502 10.9524C22.254 10.9427 22.2567 10.9342 22.2586 10.9266C22.2606 10.9193 22.2613 10.9121 22.2613 10.9053C22.2613 10.9014 22.2601 10.898 22.2579 10.8946C22.2555 10.8912 22.2514 10.8885 22.2451 10.8863C22.2388 10.8839 22.2298 10.8822 22.2182 10.881C22.2065 10.8798 22.1918 10.8793 22.1738 10.8793C22.1537 10.8793 22.1375 10.88 22.1251 10.881C22.1128 10.8822 22.1026 10.8841 22.0953 10.8873C22.0878 10.8902 22.0823 10.8939 22.0784 10.8985C22.0748 10.9031 22.0723 10.9084 22.0706 10.9142L21.9764 11.1471C21.9638 11.1801 21.9497 11.2083 21.9345 11.2316C21.919 11.2547 21.9015 11.2736 21.8822 11.2884C21.8628 11.303 21.8415 11.3134 21.8177 11.32C21.7942 11.3263 21.7683 11.3295 21.7399 11.3295H21.6617V10.9053C21.6617 10.9014 21.6598 10.898 21.6559 10.8946C21.6523 10.8912 21.6467 10.8885 21.6392 10.8863C21.6317 10.8839 21.622 10.8822 21.6101 10.881C21.5982 10.8798 21.5844 10.8793 21.5687 10.8793C21.5529 10.8793 21.5391 10.88 21.527 10.881C21.5151 10.8822 21.5054 10.8837 21.4979 10.8863C21.4904 10.8885 21.4851 10.8912 21.4819 10.8946C21.4785 10.898 21.4769 10.9016 21.4769 10.9053V11.9338C21.4769 11.9375 21.4785 11.9414 21.4819 11.945C21.4853 11.9489 21.4907 11.9516 21.4979 11.954C21.5054 11.9564 21.5151 11.9581 21.527 11.9596C21.5391 11.961 21.5527 11.9618 21.5687 11.9618C21.5844 11.9618 21.5982 11.961 21.6101 11.9596C21.6222 11.9581 21.6317 11.9564 21.6392 11.954C21.6467 11.9516 21.6523 11.9487 21.6559 11.945C21.6598 11.9414 21.6617 11.9375 21.6617 11.9338V11.4781H21.7399C21.7729 11.4781 21.802 11.4812 21.8272 11.4883C21.8526 11.4948 21.8754 11.506 21.8957 11.5208C21.9158 11.5359 21.9335 11.5555 21.9488 11.5798C21.964 11.6043 21.9783 11.6332 21.9919 11.6672L22.0992 11.9295C22.1007 11.9348 22.1033 11.9392 22.1072 11.9436C22.1109 11.9477 22.1169 11.9511 22.1251 11.9538C22.1331 11.9562 22.1438 11.9584 22.1569 11.9598C22.17 11.9613 22.1869 11.962 22.208 11.962C22.2257 11.962 22.2407 11.9615 22.2521 11.9603C22.2637 11.9591 22.2729 11.9574 22.2802 11.9552C22.2872 11.953 22.2921 11.9501 22.2947 11.947C22.2974 11.9436 22.2986 11.9397 22.2986 11.9348L22.2993 11.9346ZM22.9454 12.2947V11.955H23.8537V12.2947C23.8537 12.3 23.8549 12.3041 23.8576 12.3078C23.8602 12.3112 23.8646 12.3139 23.8711 12.316C23.8774 12.3185 23.8854 12.3202 23.8954 12.3216C23.9051 12.3231 23.9174 12.3241 23.9322 12.3241C23.9465 12.3241 23.9591 12.3233 23.9693 12.3216C23.9797 12.3202 23.9881 12.3185 23.9944 12.316C24.001 12.3139 24.0051 12.3112 24.0075 12.3078C24.0097 12.3044 24.0109 12.3 24.0109 12.2947V11.8435C24.0109 11.8248 24.0075 11.8124 24.001 11.8064C23.9942 11.8005 23.9828 11.7974 23.9673 11.7974H23.8273V10.9512C23.8273 10.9286 23.8224 10.9121 23.8123 10.9011C23.8021 10.8905 23.7883 10.8849 23.7701 10.8849H23.2102C23.2013 10.8849 23.1935 10.8866 23.1867 10.8895C23.18 10.8924 23.1744 10.8963 23.1693 10.9011C23.1642 10.9062 23.1606 10.9128 23.1582 10.9215C23.1555 10.9303 23.1536 10.9397 23.1519 10.9502C23.1378 11.0782 23.1221 11.1886 23.1049 11.2809C23.0877 11.3732 23.0688 11.4521 23.0484 11.5177C23.0276 11.5832 23.0055 11.6379 22.9818 11.6813C22.9578 11.7248 22.9321 11.7636 22.9043 11.7974H22.8328C22.8154 11.7974 22.8042 11.8003 22.7979 11.8064C22.7921 11.8124 22.7892 11.8248 22.7892 11.8435V12.2947C22.7892 12.3 22.7904 12.3041 22.7933 12.3078C22.7957 12.3112 22.8001 12.3139 22.8066 12.316C22.8129 12.3185 22.8212 12.3202 22.8313 12.3216C22.8413 12.3231 22.8544 12.3241 22.8699 12.3241C22.8842 12.3241 22.8963 12.3233 22.9057 12.3216C22.9156 12.3202 22.9236 12.3185 22.9299 12.316C22.9365 12.3139 22.9406 12.3112 22.9428 12.3078C22.9452 12.3044 22.9462 12.3 22.9462 12.2947H22.9454ZM23.641 11.0378V11.7974H23.0944C23.117 11.7697 23.1385 11.7374 23.1594 11.7012C23.1802 11.6646 23.2003 11.6177 23.2192 11.5599C23.2383 11.5021 23.256 11.4312 23.273 11.3472C23.2897 11.2632 23.3062 11.1602 23.3217 11.0378H23.6407H23.641ZM24.917 11.9268V10.9521C24.917 10.9295 24.9119 10.913 24.9017 10.9021C24.8915 10.8912 24.8777 10.8861 24.8598 10.8861H24.3423C24.3251 10.8861 24.3121 10.8914 24.3026 10.9021C24.2932 10.913 24.2878 10.9295 24.2864 10.9521C24.2752 11.0616 24.2631 11.1588 24.2505 11.243C24.2377 11.3273 24.2244 11.4011 24.2103 11.464C24.196 11.5269 24.1803 11.5801 24.1633 11.623C24.1461 11.6663 24.1279 11.701 24.1083 11.7279C24.0892 11.7544 24.0681 11.7738 24.0458 11.7852C24.0233 11.7967 24 11.8027 23.9751 11.8027C23.9693 11.8027 23.9642 11.8039 23.96 11.8061C23.9559 11.8083 23.9525 11.8129 23.9501 11.8197C23.9474 11.8263 23.9458 11.8355 23.9445 11.8467C23.9433 11.8578 23.9431 11.8724 23.9431 11.8906C23.9431 11.9079 23.9438 11.9217 23.9453 11.9326C23.9467 11.9436 23.9489 11.9518 23.9521 11.9581C23.955 11.964 23.9588 11.9681 23.9637 11.9703C23.9688 11.9725 23.9743 11.9737 23.9811 11.9737C24.0221 11.9737 24.0608 11.9671 24.0969 11.9545C24.1333 11.9419 24.1667 11.9207 24.1977 11.8921C24.2287 11.8632 24.2571 11.8251 24.2835 11.778C24.3096 11.7306 24.3331 11.6726 24.354 11.6034C24.3748 11.5344 24.3937 11.4533 24.4104 11.3606C24.4271 11.2673 24.4414 11.1614 24.4533 11.042H24.7312V11.9266C24.7312 11.9326 24.7326 11.9375 24.7355 11.9416C24.7384 11.9457 24.7435 11.9494 24.7505 11.9523C24.7576 11.9552 24.767 11.9576 24.7789 11.9591C24.791 11.9606 24.8063 11.9613 24.8249 11.9613C24.8429 11.9613 24.8576 11.9606 24.8697 11.9591C24.8819 11.9576 24.8911 11.9555 24.8978 11.9523C24.9046 11.9494 24.9092 11.9457 24.9124 11.9416C24.9153 11.9375 24.9167 11.9324 24.9167 11.9266L24.917 11.9268ZM25.8793 11.9268V10.9648C25.8793 10.9436 25.8739 10.9261 25.8625 10.9121C25.8514 10.8975 25.8344 10.8895 25.8121 10.8873C25.7949 10.8858 25.7748 10.8841 25.7511 10.8822C25.7276 10.8803 25.7034 10.8786 25.6784 10.8771C25.6532 10.8756 25.629 10.8744 25.6055 10.8739C25.582 10.8732 25.5614 10.8727 25.5432 10.8727C25.4693 10.8727 25.4037 10.88 25.3468 10.8946C25.2898 10.9092 25.2416 10.9303 25.2024 10.9577C25.1631 10.9852 25.1336 11.0184 25.1132 11.0578C25.0931 11.0973 25.0829 11.1413 25.0829 11.1901C25.0829 11.2637 25.1045 11.3224 25.1471 11.3674C25.19 11.412 25.2479 11.4412 25.3201 11.4545C25.2806 11.4708 25.2455 11.4965 25.215 11.5315C25.1844 11.5665 25.1585 11.608 25.1377 11.6558L25.057 11.8459C25.0444 11.8751 25.0359 11.8957 25.0318 11.9071C25.0277 11.919 25.0258 11.9273 25.0258 11.9326C25.0258 11.9387 25.0275 11.9438 25.0311 11.9477C25.035 11.9518 25.0403 11.955 25.0478 11.9567C25.0553 11.9586 25.0645 11.9601 25.0754 11.9608C25.0863 11.9615 25.0987 11.9618 25.113 11.9618C25.1326 11.9618 25.1486 11.9613 25.1617 11.9601C25.1748 11.9589 25.1854 11.9567 25.1941 11.9535C25.2029 11.9499 25.2094 11.9455 25.2138 11.9394C25.2181 11.9334 25.2225 11.9256 25.2261 11.9156L25.308 11.7177C25.3228 11.6779 25.3385 11.6444 25.3548 11.617C25.3712 11.5898 25.3896 11.5669 25.4102 11.5495C25.4308 11.5317 25.4538 11.5191 25.4798 11.5118C25.5054 11.5043 25.5415 11.5004 25.5878 11.5004H25.6942V11.927C25.6942 11.9331 25.6954 11.9382 25.698 11.9428C25.7007 11.9472 25.7055 11.9508 25.7126 11.9535C25.7198 11.9559 25.7293 11.9581 25.7412 11.9596C25.753 11.961 25.7681 11.9618 25.786 11.9618C25.8054 11.9618 25.8211 11.961 25.833 11.9596C25.8449 11.9581 25.8543 11.9559 25.8611 11.9535C25.8679 11.9508 25.8725 11.9472 25.8751 11.9428C25.8778 11.9382 25.879 11.9331 25.879 11.927L25.8793 11.9268ZM25.6946 11.0221V11.3642H25.5423C25.4848 11.3642 25.44 11.3601 25.4078 11.3525C25.3758 11.3445 25.3494 11.3334 25.3288 11.3188C25.3085 11.304 25.293 11.2862 25.283 11.2649C25.2729 11.2435 25.2678 11.2192 25.2678 11.192C25.2678 11.1658 25.2721 11.142 25.2809 11.1202C25.2893 11.0983 25.3041 11.0796 25.3247 11.0633C25.3451 11.0473 25.3724 11.0349 25.4064 11.0259C25.4403 11.0174 25.4827 11.0133 25.5335 11.0133C25.5575 11.0133 25.5837 11.0138 25.6118 11.0148C25.6401 11.016 25.6678 11.0184 25.6949 11.0221H25.6946ZM27.4431 11.6352C27.4431 11.5669 27.4244 11.5104 27.3869 11.4654C27.3495 11.4205 27.2938 11.3902 27.2199 11.3742C27.279 11.3569 27.3236 11.328 27.3539 11.2877C27.3842 11.2472 27.3992 11.1983 27.3992 11.1413C27.3992 11.0978 27.3907 11.0592 27.3738 11.0255C27.3573 10.9917 27.3311 10.9633 27.296 10.94C27.2611 10.9169 27.217 10.899 27.164 10.8871C27.1112 10.8749 27.0484 10.8691 26.9757 10.8691C26.9503 10.8691 26.9253 10.8693 26.9006 10.8703C26.8759 10.871 26.8522 10.872 26.8292 10.873C26.8059 10.8742 26.7834 10.8754 26.7613 10.8769C26.7393 10.8783 26.7187 10.8803 26.6991 10.8824C26.6707 10.8856 26.6494 10.8951 26.6358 10.9118C26.622 10.9281 26.615 10.9516 26.615 10.9825V11.8547C26.615 11.8863 26.622 11.9101 26.6363 11.9261C26.6506 11.9421 26.6727 11.9521 26.7025 11.9559C26.7233 11.9581 26.7444 11.9601 26.7657 11.9613C26.787 11.963 26.8086 11.9642 26.8301 11.9654C26.8519 11.9664 26.8742 11.9671 26.8972 11.9676C26.9205 11.9678 26.9442 11.9681 26.969 11.9681C27.0472 11.9681 27.116 11.9608 27.1751 11.9462C27.234 11.9317 27.2834 11.9101 27.3229 11.8819C27.3626 11.8537 27.3924 11.819 27.4125 11.7772C27.4326 11.7355 27.4428 11.6881 27.4428 11.6347L27.4431 11.6352ZM27.2202 11.1648C27.2202 11.2187 27.1998 11.2603 27.1591 11.2892C27.1184 11.3181 27.0596 11.3326 26.9828 11.3326H26.7948V11.0177C26.8149 11.0155 26.8393 11.0133 26.8687 11.0114C26.8977 11.0097 26.9299 11.0085 26.9651 11.0085C27.0113 11.0085 27.0508 11.0119 27.0833 11.0187C27.1158 11.0255 27.1424 11.0357 27.1628 11.0493C27.1834 11.0629 27.1979 11.0791 27.2071 11.0988C27.2161 11.1185 27.2204 11.1403 27.2204 11.1651L27.2202 11.1648ZM27.2539 11.6386C27.2539 11.668 27.2488 11.6942 27.2381 11.718C27.2277 11.7415 27.2112 11.7614 27.1882 11.7782C27.1657 11.7947 27.1368 11.8073 27.1027 11.8158C27.0683 11.8243 27.0269 11.8287 26.9784 11.8287C26.9648 11.8287 26.9503 11.8282 26.9341 11.8275C26.9178 11.8265 26.9018 11.8258 26.8859 11.8246C26.8699 11.8236 26.8541 11.8224 26.8389 11.8212C26.8236 11.82 26.8088 11.8185 26.7945 11.8161V11.457H26.9748C27.0232 11.457 27.0651 11.4608 27.1007 11.4684C27.1361 11.4756 27.1654 11.4871 27.188 11.5021C27.2107 11.5169 27.2274 11.5361 27.2379 11.5589C27.2485 11.5818 27.2536 11.6082 27.2536 11.6381L27.2539 11.6386ZM28.3484 11.9278V11.2447C28.3484 11.1816 28.3411 11.1265 28.3273 11.0794C28.313 11.0323 28.2903 10.9927 28.259 10.9606C28.2275 10.9288 28.1866 10.9045 28.1357 10.888C28.0848 10.8715 28.0233 10.8633 27.9508 10.8633C27.9121 10.8633 27.8736 10.8669 27.8355 10.8739C27.7975 10.881 27.7624 10.89 27.7304 10.9009C27.6982 10.9118 27.6698 10.924 27.6453 10.9371C27.6206 10.9502 27.6032 10.9616 27.5933 10.9716C27.5831 10.9813 27.5768 10.9915 27.5741 11.0024C27.5715 11.0133 27.57 11.0281 27.57 11.0468C27.57 11.0582 27.5707 11.0684 27.5722 11.0779C27.5736 11.0871 27.5763 11.0951 27.5795 11.101C27.5828 11.107 27.5867 11.1114 27.5913 11.1143C27.5957 11.1172 27.601 11.1187 27.6071 11.1187C27.6158 11.1187 27.6296 11.1134 27.648 11.1024C27.6662 11.0918 27.689 11.0796 27.7163 11.0665C27.7435 11.0534 27.7754 11.0412 27.8115 11.0306C27.8479 11.0196 27.8886 11.0143 27.9341 11.0143C27.9768 11.0143 28.0124 11.0191 28.0417 11.0293C28.071 11.0395 28.0945 11.0546 28.1129 11.0743C28.1313 11.0942 28.1444 11.1189 28.1526 11.1491C28.1609 11.1789 28.165 11.2136 28.165 11.2527V11.3314H28.0262C27.9477 11.3314 27.8772 11.3382 27.8144 11.3523C27.7517 11.3661 27.6986 11.3868 27.6555 11.4147C27.6122 11.4426 27.579 11.4773 27.5557 11.5194C27.5327 11.5614 27.5211 11.6109 27.5211 11.668C27.5211 11.7168 27.5295 11.7602 27.5463 11.7984C27.5632 11.8367 27.5867 11.8688 27.617 11.8952C27.6473 11.9215 27.6839 11.9414 27.7267 11.9555C27.7696 11.9693 27.8178 11.9763 27.8709 11.9763C27.9312 11.9763 27.9884 11.9632 28.0429 11.937C28.0969 11.9108 28.1461 11.8739 28.19 11.8265V11.9278C28.19 11.937 28.1926 11.9438 28.198 11.9482C28.2033 11.9525 28.2115 11.9562 28.2231 11.9584C28.2348 11.9606 28.25 11.9615 28.2697 11.9615C28.2898 11.9615 28.305 11.9606 28.3154 11.9584C28.3261 11.9562 28.3341 11.9528 28.3402 11.9482C28.346 11.9438 28.3491 11.937 28.3491 11.9278H28.3484ZM28.1648 11.4654V11.6803C28.1192 11.7316 28.0756 11.7692 28.0344 11.794C27.993 11.819 27.9479 11.8314 27.8995 11.8314C27.8399 11.8314 27.7934 11.8156 27.7602 11.7845C27.7267 11.7534 27.7103 11.7117 27.7103 11.659C27.7103 11.6284 27.7158 11.6012 27.7277 11.5774C27.7393 11.5538 27.7573 11.5337 27.782 11.5167C27.8065 11.4997 27.8375 11.4871 27.875 11.4786C27.9123 11.4698 27.9564 11.4654 28.007 11.4654H28.165H28.1648ZM29.8909 11.8897V10.914C29.8909 10.9082 29.8894 10.9031 29.8865 10.899C29.8836 10.8948 29.8785 10.8909 29.8715 10.8878C29.8642 10.8844 29.8548 10.8822 29.8429 10.881C29.8308 10.8798 29.8158 10.8793 29.7969 10.8793C29.779 10.8793 29.7644 10.88 29.7526 10.881C29.7409 10.8822 29.7315 10.8844 29.7247 10.8878C29.7177 10.8909 29.7126 10.8948 29.7102 10.899C29.7075 10.9031 29.706 10.9082 29.706 10.914V11.7952H29.3165V10.914C29.3165 10.9082 29.3148 10.9031 29.3119 10.899C29.309 10.8948 29.3041 10.8909 29.2973 10.8878C29.2906 10.8844 29.2814 10.8822 29.2692 10.881C29.2571 10.8798 29.2426 10.8793 29.2256 10.8793C29.207 10.8793 29.1922 10.88 29.1808 10.881C29.1697 10.8822 29.1607 10.8844 29.1539 10.8878C29.1471 10.8909 29.1425 10.8948 29.1399 10.899C29.1372 10.9031 29.136 10.9082 29.136 10.914V11.7952H28.7474V10.914C28.7474 10.9082 28.7457 10.9031 28.743 10.899C28.7401 10.8948 28.735 10.8909 28.7283 10.8878C28.7215 10.8844 28.7123 10.8822 28.7004 10.881C28.6883 10.8798 28.6735 10.8793 28.6556 10.8793C28.6377 10.8793 28.6226 10.88 28.6108 10.881C28.5989 10.8822 28.5892 10.8844 28.5817 10.8878C28.5744 10.8909 28.5693 10.8948 28.5667 10.899C28.564 10.9031 28.5626 10.9082 28.5626 10.914V11.8897C28.5626 11.9113 28.5676 11.9278 28.5778 11.9387C28.5878 11.9496 28.6018 11.955 28.6197 11.955H29.834C29.8509 11.955 29.865 11.9496 29.8754 11.9387C29.8858 11.9278 29.8911 11.9115 29.8911 11.8897H29.8909ZM30.9682 11.3766V11.3428C30.9682 11.2768 30.96 11.2149 30.943 11.1568C30.9263 11.0988 30.8999 11.048 30.8641 11.0048C30.828 10.9616 30.7822 10.9274 30.7267 10.9019C30.6712 10.8764 30.6036 10.8637 30.5246 10.8637C30.4508 10.8637 30.3836 10.8766 30.3243 10.9026C30.2645 10.9283 30.2133 10.9655 30.1714 11.014C30.1293 11.0626 30.0968 11.1214 30.0745 11.1908C30.0522 11.26 30.0411 11.3382 30.0411 11.4254C30.0411 11.5167 30.0517 11.5971 30.0735 11.6663C30.0951 11.7352 30.1273 11.7928 30.1697 11.8384C30.2126 11.8841 30.2649 11.9186 30.3272 11.9419C30.3895 11.9649 30.4621 11.9766 30.5448 11.9766C30.5927 11.9766 30.6375 11.9729 30.6797 11.9659C30.7218 11.9589 30.7592 11.9506 30.7911 11.9416C30.8234 11.9324 30.8495 11.9234 30.8694 11.9139C30.8897 11.9045 30.9016 11.8979 30.906 11.8938C30.9101 11.8894 30.9135 11.8853 30.9161 11.8809C30.9186 11.8763 30.9205 11.8712 30.9217 11.8656C30.9227 11.86 30.9237 11.8535 30.9244 11.8464C30.9251 11.8396 30.9256 11.8309 30.9256 11.8212C30.9256 11.8076 30.9251 11.7962 30.9239 11.7869C30.9229 11.7775 30.9212 11.7702 30.9188 11.7648C30.9166 11.7597 30.9135 11.7556 30.9094 11.7529C30.9052 11.7503 30.9006 11.7491 30.8953 11.7491C30.8861 11.7491 30.8728 11.7529 30.8553 11.761C30.8376 11.769 30.8151 11.7777 30.788 11.7874C30.7606 11.7971 30.7281 11.8059 30.6906 11.8139C30.653 11.8219 30.6104 11.8258 30.5622 11.8258C30.5016 11.8258 30.45 11.8173 30.4081 11.8001C30.366 11.7826 30.332 11.758 30.3056 11.7258C30.2792 11.6937 30.2606 11.6548 30.2494 11.6099C30.238 11.565 30.2325 11.5143 30.2325 11.4579H30.8965C30.9152 11.4579 30.9319 11.4519 30.9464 11.4395C30.9612 11.4271 30.9685 11.4064 30.9685 11.3771L30.9682 11.3766ZM30.7824 11.3212H30.2325C30.2339 11.2802 30.2412 11.2406 30.254 11.2027C30.2669 11.1648 30.2848 11.1316 30.3081 11.1032C30.3313 11.0748 30.3604 11.0519 30.3948 11.0347C30.4294 11.0172 30.4697 11.0087 30.5154 11.0087C30.6048 11.0087 30.6722 11.0364 30.7175 11.092C30.763 11.1474 30.7846 11.2238 30.7824 11.3215V11.3212ZM32.0213 11.9278V10.914C32.0213 10.9082 32.0199 10.9028 32.0172 10.8982C32.0148 10.8936 32.0102 10.89 32.0039 10.8871C31.9974 10.8841 31.9889 10.882 31.9782 10.8807C31.9676 10.8795 31.954 10.879 31.9385 10.879C31.9227 10.879 31.9101 10.8798 31.9005 10.8807C31.8908 10.882 31.8823 10.8839 31.8753 10.8863C31.868 10.889 31.8622 10.8924 31.8571 10.897C31.8525 10.9014 31.8476 10.9067 31.8433 10.9128L31.4099 11.5079C31.3898 11.5342 31.3709 11.5609 31.3532 11.5886C31.3355 11.6158 31.3183 11.6439 31.3011 11.6723C31.3035 11.6439 31.3052 11.615 31.3067 11.5864C31.3081 11.5572 31.3088 11.5283 31.3088 11.499V10.9128C31.3088 10.9016 31.3023 10.8931 31.2887 10.8875C31.2754 10.882 31.2507 10.879 31.2148 10.879C31.1979 10.879 31.1831 10.8798 31.1712 10.8807C31.1591 10.882 31.1497 10.8839 31.1427 10.8871C31.1356 10.89 31.1305 10.8936 31.1279 10.8982C31.1252 10.9028 31.124 10.9077 31.124 10.913V11.928C31.124 11.9331 31.1252 11.9382 31.1279 11.9426C31.1305 11.947 31.1349 11.9506 31.1414 11.9533C31.1477 11.9557 31.1562 11.9579 31.1666 11.9593C31.1773 11.9608 31.1906 11.9615 31.2071 11.9615C31.2211 11.9615 31.233 11.961 31.243 11.9598C31.2526 11.9586 31.2606 11.9569 31.2669 11.9542C31.2732 11.9516 31.2786 11.9482 31.2827 11.9436C31.2868 11.9389 31.2914 11.9336 31.2967 11.9275L31.7246 11.3404C31.7454 11.3117 31.766 11.2831 31.7866 11.2542C31.8072 11.2253 31.8261 11.1962 31.843 11.1661C31.8406 11.1952 31.8389 11.2251 31.8375 11.2554C31.836 11.2858 31.8353 11.3156 31.8353 11.3448V11.9278C31.8353 11.9329 31.8367 11.938 31.8399 11.9423C31.8428 11.9467 31.8481 11.9504 31.8556 11.953C31.8631 11.9555 31.8728 11.9576 31.8847 11.9591C31.8968 11.9606 31.9118 11.9613 31.9295 11.9613C31.9475 11.9613 31.9625 11.9606 31.9743 11.9591C31.9865 11.9576 31.9957 11.9555 32.0024 11.953C32.0092 11.9504 32.0138 11.9467 32.017 11.9423C32.0199 11.9377 32.0216 11.9329 32.0216 11.9278H32.0213ZM31.9227 10.4357C31.9227 10.4281 31.9213 10.4218 31.9184 10.4167C31.9155 10.4114 31.9104 10.4075 31.9034 10.4043C31.8961 10.4014 31.8869 10.3992 31.8753 10.3975C31.8636 10.3961 31.8489 10.3953 31.8309 10.3953C31.814 10.3953 31.8002 10.3963 31.7902 10.3983C31.7803 10.4 31.7723 10.4029 31.7667 10.4065C31.7612 10.4104 31.7573 10.415 31.7556 10.4206C31.7536 10.4262 31.7529 10.4327 31.7529 10.4403C31.7529 10.4645 31.7493 10.4869 31.7418 10.5078C31.7343 10.5289 31.7229 10.5466 31.7081 10.5617C31.6931 10.5765 31.6751 10.5884 31.6538 10.5966C31.6325 10.6049 31.608 10.609 31.5804 10.609C31.5518 10.609 31.5269 10.6049 31.5053 10.5966C31.4838 10.5884 31.4651 10.5767 31.4498 10.5617C31.4346 10.5466 31.4232 10.5289 31.4157 10.5087C31.4082 10.4883 31.4045 10.4662 31.4045 10.4422C31.4045 10.434 31.4036 10.4269 31.4019 10.4208C31.4002 10.415 31.3963 10.4102 31.3907 10.4063C31.3852 10.4024 31.3772 10.3995 31.3665 10.398C31.3561 10.3961 31.3418 10.3951 31.3239 10.3951C31.3074 10.3951 31.2933 10.3958 31.2817 10.3973C31.2701 10.399 31.2609 10.4012 31.2539 10.4041C31.2468 10.4072 31.242 10.4114 31.2393 10.4165C31.2367 10.4218 31.2354 10.4281 31.2354 10.4354C31.2354 10.4835 31.2427 10.5267 31.2572 10.5648C31.2718 10.6032 31.2933 10.6355 31.3219 10.6622C31.3508 10.6889 31.3866 10.7093 31.4295 10.7234C31.4724 10.7377 31.5223 10.7448 31.5792 10.7448C31.6412 10.7448 31.6936 10.7367 31.7372 10.7207C31.7803 10.7045 31.8159 10.6824 31.8435 10.6544C31.8711 10.6263 31.8913 10.5935 31.9041 10.5561C31.9167 10.5187 31.9232 10.4784 31.9232 10.4357H31.9227ZM34.0963 11.9343C34.0963 11.9321 34.0961 11.9297 34.0951 11.927C34.0944 11.9244 34.0937 11.921 34.0929 11.9169C34.0922 11.9127 34.091 11.9084 34.0891 11.904C34.0871 11.8996 34.0849 11.8945 34.0828 11.8894L33.973 11.634C33.958 11.6002 33.9427 11.5703 33.927 11.5444C33.9115 11.5186 33.8943 11.496 33.8759 11.4769C33.8577 11.4577 33.8378 11.4419 33.8165 11.429C33.7952 11.4164 33.7719 11.4055 33.7467 11.3965V11.3943C33.7639 11.389 33.7807 11.3814 33.7976 11.3717C33.8143 11.362 33.8313 11.3489 33.8487 11.3324C33.8659 11.3161 33.8829 11.2952 33.8996 11.27C33.9163 11.245 33.9326 11.2136 33.9481 11.1763L34.0445 10.9521C34.0481 10.9424 34.051 10.9339 34.0534 10.9264C34.0556 10.9191 34.0568 10.9118 34.0568 10.905C34.0568 10.9011 34.0554 10.8977 34.0527 10.8943C34.0501 10.8909 34.0459 10.8883 34.0394 10.8861C34.0329 10.8837 34.0241 10.882 34.0125 10.8807C34.0009 10.8795 33.9861 10.879 33.9682 10.879C33.9481 10.879 33.9318 10.8798 33.9195 10.8807C33.9071 10.882 33.8974 10.8839 33.8902 10.8871C33.8834 10.89 33.878 10.8936 33.8747 10.8982C33.8713 10.9028 33.8681 10.9082 33.8652 10.914L33.7712 11.1481C33.7586 11.1804 33.7448 11.2081 33.7303 11.2309C33.7157 11.254 33.6995 11.2724 33.6811 11.2872C33.6629 11.3018 33.6423 11.3127 33.6203 11.3193C33.5977 11.3261 33.5721 11.3295 33.543 11.3295H33.4679V10.9041C33.4679 10.9002 33.4662 10.8968 33.4623 10.8934C33.4584 10.89 33.4531 10.8871 33.4456 10.8854C33.4381 10.8834 33.4286 10.882 33.417 10.8807C33.4054 10.8795 33.3916 10.879 33.3761 10.879C33.3603 10.879 33.3465 10.8798 33.3347 10.8807C33.3225 10.882 33.3131 10.8834 33.3053 10.8854C33.2978 10.8871 33.2923 10.8897 33.2884 10.8934C33.2847 10.8965 33.283 10.9002 33.283 10.9041V11.3295H33.2079C33.1789 11.3295 33.1532 11.3261 33.1312 11.32C33.1093 11.3134 33.0892 11.303 33.0713 11.2884C33.0536 11.2736 33.0376 11.2547 33.0238 11.2316C33.01 11.2083 32.9967 11.1806 32.9841 11.1483L32.8957 10.9142C32.8942 10.9084 32.8916 10.9031 32.8874 10.8985C32.8833 10.8939 32.877 10.8902 32.8688 10.8873C32.8605 10.8844 32.8496 10.8822 32.8363 10.881C32.8228 10.8798 32.806 10.8793 32.7859 10.8793C32.768 10.8793 32.7532 10.88 32.7416 10.881C32.73 10.8822 32.721 10.8837 32.7147 10.8863C32.7084 10.8885 32.7038 10.8912 32.7011 10.8946C32.6987 10.898 32.6973 10.9016 32.6973 10.9053C32.6973 10.9121 32.6985 10.9191 32.7006 10.9266C32.7031 10.9342 32.706 10.9427 32.7099 10.9524L32.8026 11.1765C32.8184 11.2141 32.8344 11.2455 32.8509 11.271C32.8673 11.2964 32.884 11.3178 32.9012 11.3346C32.9184 11.3513 32.9359 11.3644 32.9533 11.3737C32.971 11.3831 32.9887 11.3907 33.0066 11.3967V11.3989C32.9812 11.4069 32.9579 11.4179 32.9366 11.431C32.9153 11.4441 32.8954 11.4601 32.8773 11.4788C32.8588 11.4975 32.8416 11.5198 32.8254 11.5453C32.8087 11.5708 32.7934 11.6005 32.7794 11.6342L32.6684 11.8897C32.6631 11.9011 32.6595 11.9101 32.6578 11.9171C32.6558 11.9241 32.6549 11.9302 32.6549 11.9346C32.6549 11.9392 32.6563 11.9431 32.6592 11.9467C32.6621 11.9499 32.6675 11.9528 32.6745 11.955C32.6815 11.9572 32.691 11.9589 32.7031 11.9601C32.7149 11.9613 32.7295 11.9618 32.7467 11.9618C32.7668 11.9618 32.7835 11.961 32.7966 11.9596C32.8094 11.9581 32.8196 11.9559 32.8266 11.9535C32.8339 11.9508 32.8395 11.9474 32.8436 11.9433C32.8477 11.9392 32.8504 11.9346 32.8518 11.9292L32.9594 11.6682C32.9737 11.6345 32.9885 11.6053 33.0037 11.5808C33.0192 11.5565 33.0362 11.5366 33.0558 11.5218C33.0754 11.5067 33.0972 11.4956 33.1217 11.4885C33.1464 11.4815 33.175 11.4778 33.2079 11.4778H33.283V11.9358C33.283 11.9397 33.2847 11.9431 33.2884 11.9465C33.2923 11.9496 33.2978 11.9525 33.3053 11.9547C33.3128 11.9569 33.3225 11.9586 33.3347 11.9598C33.3465 11.961 33.3603 11.9615 33.3761 11.9615C33.3916 11.9615 33.4054 11.961 33.417 11.9598C33.4286 11.9586 33.4381 11.9569 33.4456 11.9547C33.4531 11.9525 33.4587 11.9496 33.4623 11.9465C33.4662 11.9431 33.4679 11.9394 33.4679 11.9358V11.4778H33.543C33.5757 11.4778 33.6045 11.4812 33.6285 11.4885C33.6527 11.4956 33.6743 11.5067 33.693 11.5218C33.7116 11.5366 33.7286 11.5565 33.7438 11.5808C33.7591 11.6051 33.7739 11.6345 33.7882 11.6682L33.8955 11.9292C33.8977 11.9346 33.9008 11.9389 33.9047 11.9433C33.9083 11.9474 33.9141 11.9508 33.9219 11.9535C33.9299 11.9559 33.9403 11.9581 33.9534 11.9596C33.9665 11.961 33.9834 11.9618 34.0043 11.9618C34.0222 11.9618 34.0367 11.9613 34.0484 11.9601C34.06 11.9589 34.0694 11.9572 34.0765 11.955C34.0835 11.9528 34.0886 11.9499 34.0915 11.9467C34.0944 11.9433 34.0958 11.9394 34.0958 11.9346L34.0963 11.9343ZM35.1092 11.9278V10.914C35.1092 10.9082 35.1078 10.9028 35.1051 10.8982C35.1024 10.8936 35.0978 10.89 35.0915 10.8871C35.085 10.8841 35.0765 10.882 35.0659 10.8807C35.055 10.8795 35.0416 10.879 35.0259 10.879C35.0104 10.879 34.9975 10.8798 34.9879 10.8807C34.9782 10.882 34.9697 10.8839 34.9627 10.8863C34.9556 10.889 34.9496 10.8924 34.9447 10.897C34.9399 10.9014 34.9353 10.9067 34.9307 10.9128L34.4973 11.5079C34.4772 11.5342 34.4583 11.5609 34.4408 11.5886C34.4231 11.6158 34.4059 11.6439 34.3887 11.6723C34.3909 11.6439 34.3929 11.615 34.3946 11.5864C34.396 11.5572 34.3967 11.5283 34.3967 11.499V10.9128C34.3967 10.9016 34.3902 10.8931 34.3766 10.8875C34.3633 10.882 34.3386 10.879 34.3027 10.879C34.2855 10.879 34.271 10.8798 34.2591 10.8807C34.247 10.882 34.2376 10.8839 34.2305 10.8871C34.2235 10.89 34.2184 10.8936 34.216 10.8982C34.2133 10.9028 34.2119 10.9077 34.2119 10.913V11.928C34.2119 11.9331 34.2131 11.9382 34.216 11.9426C34.2184 11.947 34.223 11.9506 34.2293 11.9533C34.2359 11.9557 34.2441 11.9579 34.2545 11.9593C34.2652 11.9608 34.2785 11.9615 34.295 11.9615C34.309 11.9615 34.3209 11.961 34.3308 11.9598C34.3405 11.9586 34.3485 11.9569 34.3548 11.9542C34.3611 11.9516 34.3664 11.9482 34.3706 11.9436C34.3744 11.9389 34.3793 11.9336 34.3844 11.9275L34.8122 11.3404C34.833 11.3117 34.8539 11.2831 34.8742 11.2542C34.8948 11.2253 34.9137 11.1962 34.9307 11.1661C34.9285 11.1952 34.9266 11.2251 34.9251 11.2554C34.9237 11.2858 34.9229 11.3156 34.9229 11.3448V11.9278C34.9229 11.9329 34.9244 11.938 34.9275 11.9423C34.9307 11.9467 34.9358 11.9504 34.9433 11.953C34.9505 11.9555 34.9602 11.9576 34.9724 11.9591C34.9842 11.9606 34.9992 11.9613 35.0172 11.9613C35.0351 11.9613 35.0501 11.9606 35.0617 11.9591C35.0739 11.9576 35.0831 11.9555 35.0898 11.953C35.0966 11.9504 35.1012 11.9467 35.1044 11.9423C35.1073 11.9377 35.109 11.9329 35.109 11.9278H35.1092ZM36.024 11.6466C36.024 11.6099 36.0172 11.5762 36.0034 11.5456C35.9896 11.5152 35.9714 11.489 35.9489 11.4669C35.9266 11.4448 35.9012 11.4268 35.8728 11.413C35.8445 11.3992 35.8157 11.3904 35.7866 11.3875L35.789 11.3863C35.8188 11.3773 35.8462 11.3644 35.8707 11.3479C35.8954 11.3314 35.9162 11.3127 35.9329 11.2916C35.9499 11.2707 35.9627 11.2474 35.9717 11.2224C35.9806 11.1971 35.9852 11.1709 35.9852 11.143C35.9852 11.0966 35.9763 11.0556 35.9584 11.0208C35.9402 10.9859 35.9152 10.9567 35.8825 10.9332C35.8501 10.9094 35.8113 10.8919 35.7655 10.8803C35.72 10.8686 35.6701 10.8628 35.6153 10.8628C35.578 10.8628 35.5417 10.8657 35.5063 10.8722C35.4707 10.8788 35.438 10.8863 35.4077 10.8958C35.3774 10.9053 35.3512 10.9159 35.3285 10.9278C35.3062 10.94 35.2904 10.9504 35.2815 10.9594C35.2725 10.9684 35.2662 10.9793 35.2631 10.992C35.2597 11.0046 35.258 11.0221 35.258 11.0437C35.258 11.0558 35.2585 11.066 35.2594 11.0748C35.2606 11.0833 35.2623 11.0901 35.265 11.0949C35.2677 11.0998 35.2703 11.1032 35.274 11.1051C35.2774 11.1068 35.2808 11.108 35.2846 11.108C35.2912 11.108 35.3028 11.1029 35.3193 11.0927C35.3355 11.0828 35.3568 11.0716 35.3825 11.059C35.4082 11.0466 35.4389 11.0352 35.4743 11.0247C35.5097 11.0143 35.5504 11.0089 35.5957 11.0089C35.6248 11.0089 35.6519 11.0121 35.6776 11.0184C35.703 11.025 35.7246 11.0342 35.742 11.0466C35.7595 11.059 35.7735 11.0745 35.7839 11.0934C35.7946 11.1121 35.7999 11.134 35.7999 11.1588C35.7999 11.1865 35.7943 11.2112 35.7837 11.2323C35.7728 11.2537 35.7558 11.2717 35.7331 11.2862C35.7103 11.3008 35.6819 11.312 35.648 11.3195C35.6141 11.327 35.5736 11.3307 35.5264 11.3307H35.4179C35.4113 11.3307 35.4055 11.3319 35.4009 11.3346C35.3966 11.3372 35.3929 11.3411 35.3898 11.3465C35.3866 11.3518 35.3844 11.3589 35.383 11.3678C35.3815 11.3771 35.3808 11.3873 35.3808 11.3994C35.3808 11.4123 35.3813 11.4232 35.3825 11.4324C35.3835 11.4419 35.3857 11.4494 35.3893 11.455C35.3924 11.4606 35.3966 11.4647 35.4009 11.4674C35.4055 11.4701 35.4113 11.4713 35.4188 11.4713H35.5308C35.5838 11.4713 35.6291 11.4754 35.6664 11.4837C35.7037 11.4919 35.7343 11.5033 35.7583 11.5179C35.7822 11.5325 35.7999 11.5502 35.8111 11.5713C35.8222 11.5924 35.8278 11.616 35.8278 11.6422C35.8278 11.6728 35.822 11.7 35.8103 11.7233C35.799 11.7466 35.7825 11.7658 35.7619 11.7811C35.7408 11.7964 35.7154 11.8081 35.6858 11.8161C35.6558 11.8241 35.6221 11.828 35.585 11.828C35.532 11.828 35.4872 11.8226 35.4511 11.8122C35.4147 11.8018 35.3844 11.7903 35.3597 11.7777C35.335 11.7656 35.3154 11.7542 35.3009 11.744C35.2863 11.7338 35.2749 11.7287 35.2667 11.7287C35.2614 11.7287 35.2575 11.7301 35.2543 11.7326C35.2514 11.7352 35.249 11.7391 35.2468 11.7444C35.2444 11.7498 35.2425 11.7566 35.241 11.7648C35.2396 11.7731 35.2388 11.7833 35.2388 11.7952C35.2388 11.8088 35.2396 11.8205 35.2403 11.8302C35.2417 11.8399 35.2427 11.8481 35.2444 11.8549C35.2459 11.8615 35.2485 11.8678 35.2522 11.8736C35.256 11.8792 35.2619 11.8855 35.2696 11.8921C35.2776 11.8989 35.2909 11.9071 35.3101 11.9176C35.329 11.9278 35.3525 11.937 35.3806 11.9457C35.4087 11.9542 35.4397 11.9615 35.4738 11.9671C35.5075 11.9725 35.5441 11.9754 35.5829 11.9754C35.6521 11.9754 35.7142 11.9678 35.7687 11.9528C35.8229 11.9377 35.8692 11.9159 35.907 11.887C35.9448 11.8581 35.9739 11.8234 35.994 11.7828C36.0141 11.7423 36.0243 11.6966 36.0243 11.6456L36.024 11.6466ZM37.0546 11.9268V10.914C37.0546 10.9082 37.0531 10.9031 37.0502 10.899C37.0471 10.8948 37.0422 10.8909 37.0357 10.8878C37.0289 10.8844 37.0197 10.8822 37.0076 10.881C36.9957 10.8798 36.9807 10.8793 36.9628 10.8793C36.9441 10.8793 36.9289 10.88 36.9167 10.881C36.9049 10.8822 36.8957 10.8844 36.8889 10.8878C36.8821 10.8909 36.8773 10.8948 36.8744 10.899C36.8714 10.9031 36.87 10.9082 36.87 10.914V11.3258H36.3559V10.914C36.3559 10.9082 36.3542 10.9031 36.3513 10.899C36.3484 10.8948 36.3436 10.8909 36.3368 10.8878C36.33 10.8844 36.3208 10.8822 36.3087 10.881C36.2966 10.8798 36.2813 10.8793 36.2626 10.8793C36.2447 10.8793 36.2299 10.88 36.2178 10.881C36.2057 10.8822 36.1963 10.8844 36.1892 10.8878C36.1822 10.8909 36.1771 10.8948 36.1747 10.899C36.172 10.9031 36.1706 10.9082 36.1706 10.914V11.9268C36.1706 11.9329 36.1718 11.9377 36.1747 11.9419C36.1774 11.946 36.1822 11.9496 36.1892 11.9525C36.1963 11.9555 36.2057 11.9579 36.2178 11.9593C36.2299 11.9608 36.2447 11.9615 36.2626 11.9615C36.2813 11.9615 36.2966 11.9608 36.3087 11.9593C36.3205 11.9579 36.33 11.9557 36.3368 11.9525C36.3436 11.9496 36.3484 11.946 36.3513 11.9419C36.3542 11.9377 36.3559 11.9326 36.3559 11.9268V11.4822H36.87V11.9268C36.87 11.9329 36.8714 11.9377 36.8744 11.9419C36.8773 11.946 36.8821 11.9496 36.8889 11.9525C36.8957 11.9555 36.9049 11.9579 36.9167 11.9593C36.9289 11.9608 36.9439 11.9615 36.9628 11.9615C36.9807 11.9615 36.9957 11.9608 37.0076 11.9593C37.0197 11.9579 37.0289 11.9557 37.0357 11.9525C37.0422 11.9496 37.0473 11.946 37.0502 11.9419C37.0531 11.9377 37.0546 11.9326 37.0546 11.9268ZM38.169 11.9278V10.914C38.169 10.9082 38.1676 10.9028 38.1649 10.8982C38.1622 10.8936 38.1579 10.89 38.1516 10.8871C38.145 10.8841 38.1365 10.882 38.1259 10.8807C38.1152 10.8795 38.1017 10.879 38.0862 10.879C38.0704 10.879 38.0578 10.8798 38.0481 10.8807C38.0384 10.882 38.0299 10.8839 38.0229 10.8863C38.0157 10.889 38.0098 10.8924 38.005 10.897C38.0001 10.9014 37.9955 10.9067 37.9909 10.9128L37.5575 11.5079C37.5374 11.5342 37.5185 11.5609 37.5008 11.5886C37.4832 11.6158 37.466 11.6439 37.4488 11.6723C37.4512 11.6439 37.4531 11.615 37.4543 11.5864C37.4558 11.5572 37.4565 11.5283 37.4565 11.499V10.9128C37.4565 10.9016 37.4497 10.8931 37.4364 10.8875C37.4231 10.882 37.3984 10.879 37.3625 10.879C37.3456 10.879 37.3308 10.8798 37.3189 10.8807C37.3068 10.882 37.2973 10.8839 37.2903 10.8871C37.2833 10.89 37.2782 10.8936 37.2758 10.8982C37.2731 10.9028 37.2719 10.9077 37.2719 10.913V11.928C37.2719 11.9331 37.2731 11.9382 37.2758 11.9426C37.2785 11.947 37.2828 11.9506 37.2893 11.9533C37.2959 11.9557 37.3041 11.9579 37.3145 11.9593C37.3252 11.9608 37.3385 11.9615 37.355 11.9615C37.3693 11.9615 37.3809 11.961 37.3909 11.9598C37.4006 11.9586 37.4085 11.9569 37.4148 11.9542C37.4211 11.9516 37.4265 11.9482 37.4306 11.9436C37.4347 11.9389 37.4396 11.9336 37.4446 11.9275L37.8725 11.3404C37.8933 11.3117 37.9139 11.2831 37.9347 11.2542C37.9553 11.2253 37.974 11.1962 37.9912 11.1661C37.989 11.1952 37.9871 11.2251 37.9856 11.2554C37.9842 11.2858 37.9834 11.3156 37.9834 11.3448V11.9278C37.9834 11.9329 37.9849 11.938 37.988 11.9423C37.9909 11.9467 37.9963 11.9504 38.0035 11.953C38.0111 11.9555 38.0205 11.9576 38.0326 11.9591C38.0447 11.9606 38.0597 11.9613 38.0774 11.9613C38.0954 11.9613 38.1104 11.9606 38.1222 11.9591C38.1344 11.9576 38.1433 11.9555 38.1504 11.953C38.1571 11.9504 38.1617 11.9467 38.1649 11.9423C38.1678 11.9377 38.1695 11.9329 38.1695 11.9278H38.169Z" fill="#464C4C"/>
</g>
<defs>
<clipPath id="clip0_907_1066">
<rect width="52" height="14" fill="white"/>
</clipPath>
</defs>
</svg>
