<svg width="18" height="14" viewBox="0 0 18 14" fill="none" xmlns="http://www.w3.org/2000/svg">
<path d="M13.0679 12.4229C13.1309 12.4229 13.2297 12.432 13.2928 12.4586L13.194 12.7651C13.1218 12.7377 13.0587 12.7294 12.9957 12.7294C12.789 12.7294 12.6803 12.8648 12.6803 13.1074V13.9365H12.3566V12.4594H12.672V12.6397C12.7616 12.5043 12.8878 12.4237 13.0679 12.4237V12.4229ZM15.4165 13.9813C15.4348 13.9813 15.4439 13.9813 15.4613 13.9722C15.4796 13.9631 15.4887 13.9539 15.497 13.9448C15.5062 13.9356 15.5153 13.9265 15.5244 13.9091C15.5335 13.8908 15.5335 13.8816 15.5335 13.8642C15.5335 13.8459 15.5335 13.8368 15.5244 13.8193C15.5153 13.8011 15.5062 13.7919 15.497 13.7836C15.4879 13.7745 15.4788 13.7653 15.4613 13.7562C15.4522 13.7471 15.434 13.7471 15.4165 13.7471C15.3983 13.7471 15.3891 13.7471 15.3717 13.7562C15.3535 13.7653 15.3443 13.7745 15.336 13.7836C15.3269 13.7928 15.3178 13.811 15.3086 13.8193C15.2995 13.8376 15.2995 13.8468 15.2995 13.8642C15.2995 13.8825 15.2995 13.8916 15.3086 13.9091C15.3178 13.9273 15.3269 13.9365 15.336 13.9448C15.3452 13.9539 15.3634 13.9631 15.3717 13.9722C15.39 13.9813 15.3991 13.9813 15.4165 13.9813ZM8.87349 13.1979C8.87349 12.7386 8.58551 12.4229 8.17138 12.4229C7.73899 12.4229 7.43359 12.7386 7.43359 13.1979C7.43359 13.6665 7.74895 13.973 8.18964 13.973C8.41454 13.973 8.61289 13.919 8.79298 13.7662L8.63115 13.5319C8.505 13.6308 8.3523 13.6848 8.19877 13.6848C7.99212 13.6848 7.8029 13.5859 7.75808 13.3242H8.85606C8.86519 13.2794 8.87432 13.2428 8.87432 13.1979H8.87349ZM14.2463 12.7203C14.1833 12.7203 14.1202 12.7294 14.0663 12.756C14.0123 12.7834 13.9584 12.81 13.9227 12.8549C13.887 12.8997 13.8505 12.9446 13.8239 13.0077C13.7965 13.0617 13.7882 13.134 13.7882 13.1971C13.7882 13.2694 13.7974 13.3325 13.8239 13.3865C13.8513 13.4405 13.8779 13.4945 13.9227 13.5394C13.9675 13.5842 14.0123 13.6117 14.0663 13.6382C14.1202 13.6657 14.1833 13.674 14.2463 13.674C14.3094 13.674 14.3725 13.6648 14.4264 13.6382C14.4804 13.6108 14.5343 13.5842 14.57 13.5394C14.6148 13.4945 14.6422 13.4497 14.6688 13.3865C14.6962 13.3325 14.7045 13.2603 14.7045 13.1971C14.7045 13.1248 14.6953 13.0617 14.6688 13.0077C14.6414 12.9537 14.6148 12.8997 14.57 12.8549C14.5252 12.81 14.4804 12.7826 14.4264 12.756C14.3725 12.7377 14.3094 12.7203 14.2463 12.7203ZM14.2463 12.4229C14.3634 12.4229 14.4713 12.4411 14.5617 12.486C14.6605 12.5217 14.7418 12.5757 14.814 12.648C14.8862 12.7203 14.9402 12.8009 14.985 12.8914C15.0207 12.9903 15.048 13.09 15.048 13.1979C15.048 13.3059 15.0298 13.4139 14.985 13.5045C14.9493 13.6033 14.8862 13.6848 14.814 13.7479C14.7418 13.8202 14.6613 13.8742 14.5617 13.9099C14.463 13.9456 14.3551 13.973 14.2463 13.973C14.1293 13.973 14.0214 13.9548 13.931 13.9099C13.8322 13.8742 13.7509 13.8202 13.6787 13.7479C13.6065 13.6756 13.5525 13.595 13.5077 13.5045C13.472 13.4056 13.4447 13.3059 13.4447 13.1979C13.4447 13.09 13.4629 12.982 13.5077 12.8914C13.5434 12.7925 13.6065 12.7111 13.6787 12.648C13.7509 12.5757 13.8314 12.5217 13.931 12.486C14.0206 12.4411 14.1293 12.4229 14.2463 12.4229ZM5.8941 13.1979C5.8941 12.9371 6.06506 12.7203 6.34391 12.7203C6.61363 12.7203 6.78459 12.9271 6.78459 13.1979C6.78459 13.4679 6.6045 13.6665 6.34391 13.6665C6.06506 13.6665 5.8941 13.4596 5.8941 13.1979ZM17.8283 9.01767V8.80168H17.7743L17.7112 8.9454L17.6482 8.80168H17.5942V9.01767H17.6299V8.85568L17.693 8.99939H17.7378L17.8009 8.85568V9.01767H17.8283ZM15.3891 13.8193V13.8551H15.4248C15.434 13.8551 15.4431 13.8551 15.4431 13.8459C15.4522 13.8459 15.4522 13.8368 15.4522 13.8276C15.4522 13.8185 15.4522 13.8185 15.4431 13.8185C15.4431 13.8185 15.434 13.8094 15.4248 13.8094H15.3891V13.8185V13.8193ZM15.4248 13.8011C15.4431 13.8011 15.4522 13.8011 15.4605 13.8102C15.4696 13.8193 15.4788 13.8285 15.4788 13.8459C15.4788 13.8551 15.4788 13.8642 15.4696 13.8733C15.4605 13.8825 15.4514 13.8825 15.434 13.8825L15.4788 13.9365H15.4431L15.3983 13.8825H15.3891V13.9365H15.3618V13.8011H15.4248ZM15.4157 13.7197C15.434 13.7197 15.4514 13.7197 15.4696 13.7288C15.4879 13.7379 15.5053 13.7471 15.5145 13.7562C15.5236 13.7653 15.5418 13.7836 15.5501 13.8011C15.5593 13.8193 15.5593 13.8368 15.5593 13.8551C15.5593 13.8733 15.5593 13.8908 15.5501 13.9091C15.541 13.9273 15.5319 13.9448 15.5145 13.9539C15.4962 13.9631 15.4871 13.9813 15.4696 13.9896C15.4514 13.9988 15.434 13.9988 15.4157 13.9988C15.3974 13.9988 15.3709 13.9988 15.3526 13.9896C15.3344 13.9805 15.3169 13.9714 15.3078 13.9539C15.2987 13.9448 15.2804 13.9265 15.2721 13.9091C15.263 13.8908 15.263 13.8733 15.263 13.8551C15.263 13.8368 15.263 13.8193 15.2721 13.8011C15.2813 13.7828 15.2904 13.7653 15.3078 13.7562C15.3169 13.7471 15.3352 13.7288 15.3526 13.7288C15.3709 13.7197 15.3974 13.7197 15.4157 13.7197ZM11.8786 12.7469H11.3566V13.4131C11.3566 13.5568 11.4105 13.6565 11.5724 13.6565C11.6537 13.6565 11.7616 13.6291 11.8603 13.5751L11.95 13.8542C11.8512 13.9265 11.6894 13.9714 11.545 13.9714C11.1674 13.9714 11.0321 13.7645 11.0321 13.4214V12.746H10.735V12.4486H11.0321V11.9984H11.3558V12.4486H11.8778V12.746L11.8786 12.7469ZM7.76555 13.0625C7.80124 12.8465 7.92738 12.702 8.16142 12.702C8.36807 12.702 8.50334 12.8283 8.53903 13.0625H7.76472H7.76555ZM10.2852 12.8374C10.1955 12.7834 10.0154 12.7111 9.82623 12.7111C9.64614 12.7111 9.54738 12.7743 9.54738 12.8823C9.54738 12.9811 9.65526 13.0085 9.79967 13.026L9.95237 13.0443C10.276 13.0891 10.4653 13.2245 10.4653 13.4854C10.4653 13.7645 10.2221 13.9722 9.79054 13.9722C9.54738 13.9722 9.32247 13.9091 9.15151 13.7828L9.30421 13.5302C9.4121 13.6117 9.57393 13.6831 9.79884 13.6831C10.0146 13.6831 10.1316 13.62 10.1316 13.5028C10.1316 13.4214 10.0503 13.3766 9.87104 13.35L9.71834 13.3317C9.38554 13.2868 9.20545 13.1332 9.20545 12.8989C9.20545 12.6015 9.44862 12.4212 9.8171 12.4212C10.0511 12.4212 10.2669 12.4752 10.4204 12.5741L10.2852 12.8349V12.8374ZM7.09 13.1979V12.4594H6.76634V12.6397C6.66758 12.5043 6.51404 12.4237 6.29826 12.4237C5.88414 12.4237 5.56047 12.7477 5.56047 13.1988C5.56047 13.649 5.88414 13.9739 6.29826 13.9739C6.50491 13.9739 6.65845 13.8924 6.76634 13.7579V13.9381H7.09V13.1996V13.1979ZM5.28079 13.9365V13.0085C5.28079 12.6571 5.05588 12.4229 4.6957 12.4229C4.50648 12.4229 4.30896 12.4769 4.17368 12.6837C4.07492 12.5217 3.91309 12.4229 3.68736 12.4229C3.53465 12.4229 3.37199 12.4677 3.25497 12.6389V12.4586H2.9313V13.9356H3.25497V13.1157C3.25497 12.8632 3.39855 12.7194 3.61515 12.7194C3.83093 12.7194 3.93882 12.8549 3.93882 13.1066V13.9265H4.26249V13.1066C4.26249 12.854 4.41519 12.7103 4.62267 12.7103C4.83845 12.7103 4.94633 12.8457 4.94633 13.0974V13.9174H5.27913V13.9356L5.28079 13.9365ZM17.9976 5.56761C17.9976 8.63968 15.5045 11.1352 12.4355 11.1352C11.1392 11.1352 9.94242 10.6941 8.99714 9.94644C7.70082 8.92878 6.87339 7.3429 6.87339 5.56844C6.87339 3.79398 7.70165 2.2081 8.99714 1.19045C9.94242 0.442784 11.1392 0.000830739 12.4355 0.000830739C15.5045 0.000830739 17.9976 2.49637 17.9976 5.56844V5.56761ZM8.99797 9.94561C10.2943 8.92795 11.1217 7.34207 11.1217 5.56761C11.1217 3.79315 10.2935 2.20727 8.99797 1.18962C8.0527 0.441953 6.85597 0 5.55964 0C2.49062 0 -0.00244141 2.49554 -0.00244141 5.56761C-0.00244141 8.63968 2.49062 11.1352 5.55964 11.1352C6.85597 11.1352 8.0527 10.6941 8.99797 9.94644V9.94561ZM17.4672 9.01767V8.8374H17.5394V8.80168H17.3594V8.8374H17.4316V9.01767H17.4672Z" fill="#464C4C"/>
</svg>
