<svg width="40" height="14" viewBox="0 0 40 14" fill="none" xmlns="http://www.w3.org/2000/svg">
<g clip-path="url(#clip0_907_1054)">
<path fill-rule="evenodd" clip-rule="evenodd" d="M1.23655 7.00013L7.00694 1.23546L8.69723 2.92407C9.07325 3.33252 9.30304 3.8775 9.30304 4.47376C9.30304 5.73724 8.27167 6.76699 7.00694 6.76699C5.36857 6.76699 3.90031 7.5153 2.92684 8.68815L1.23655 6.99953V7.00013ZM21.4634 11.6587H20.2977L22.5126 7.23327H23.6783L25.8932 11.6587H24.7275L24.3778 10.9599H21.8131L21.4634 11.6587ZM14.2354 7.23327H18.7238C19.3332 7.23327 19.8316 7.73115 19.8316 8.33993C19.8316 8.94872 19.3332 9.4466 18.7238 9.4466C19.3332 9.4466 19.8316 9.94448 19.8316 10.5533C19.8316 11.162 19.3332 11.6599 18.7238 11.6599H14.2354V7.23446V7.23327ZM14.2354 2.34153H15.4011V4.20485H18.6653V2.34153H19.831V6.76699H18.6653V4.90367H15.4011V6.76699H14.2354V2.34153ZM24.7275 6.76699H25.8932L23.6783 2.34153H22.5126L20.2977 6.76699H21.4634L21.8131 6.06817H24.3778L24.7275 6.76699ZM23.0952 3.50603L24.028 5.36935H22.1629L23.0957 3.50603H23.0952ZM26.3594 2.34153H27.525V6.06817H30.7892V6.76699H26.3594V2.34153ZM32.4216 4.90367V6.76699H31.2559V4.90367L29.041 2.34153H30.2067L31.8385 4.20485L33.4703 2.34153H34.6359L32.421 4.90367H32.4216ZM34.9863 2.34153H36.1519V4.20485L38.7166 2.34153H39.9993L36.9917 4.55426L39.9993 6.76699H38.7166L36.1519 4.90367V6.76699H34.9863V2.34153ZM34.4264 9.446L37.434 7.23327H36.1513L33.5867 9.09659V7.23327H32.421V11.6587H33.5867V9.79541L36.1513 11.6587H37.434L34.4264 9.446ZM26.3588 7.23327H27.5244L30.7886 10.4942V7.23327H31.9543V11.6587H30.7886L27.5244 8.39777V11.6587H26.3588V7.23327ZM15.4005 7.93209V9.09659H18.0816C18.4021 9.09659 18.6647 8.83424 18.6647 8.51404C18.6647 8.19385 18.4021 7.93149 18.0816 7.93149H15.4005V7.93209ZM15.4005 9.79541V10.9599H18.0816C18.4021 10.9599 18.6647 10.6976 18.6647 10.3774C18.6647 10.0572 18.4021 9.79482 18.0816 9.79482H15.4005V9.79541ZM24.0274 10.2611L23.0946 8.39777L22.1617 10.2611H24.0268H24.0274ZM11.0864 5.31151L12.7767 7.00013L7.00634 12.7648L5.31605 11.0762C4.94003 10.6677 4.71024 10.1228 4.71024 9.5265C4.71024 8.26302 5.74161 7.23327 7.00574 7.23267C8.64411 7.23267 10.1124 6.48436 11.0858 5.31151H11.0864ZM2.34312 2.34153H4.66249L7.00634 0L9.35019 2.34153H11.6696V4.6586L14.0134 7.00013L11.6696 9.34166V11.6587H9.35019L7.00634 14.0003L4.66249 11.6587H2.34312V9.34166L-0.000732422 7.00013L2.34312 4.6586V2.34153ZM4.49179 2.92407H2.92565V4.48867L0.411097 7.00073L2.34252 8.93023L2.92565 9.51278V11.0774H4.49179L5.07432 11.6599L7.00574 13.5894L8.93717 11.6599L9.51969 11.0774H11.0858V9.51278L11.669 8.93023L13.6004 7.00073L11.669 5.07122L11.0858 4.48867V2.92407H9.51969L8.93717 2.34153L7.00574 0.412018L4.4912 2.92407H4.49179Z" fill="#464C4C"/>
</g>
<defs>
<clipPath id="clip0_907_1054">
<rect width="40" height="14" fill="white"/>
</clipPath>
</defs>
</svg>
