<svg width="15" height="14" viewBox="0 0 15 14" fill="none" xmlns="http://www.w3.org/2000/svg">
<g clip-path="url(#clip0_907_1056)">
<path fill-rule="evenodd" clip-rule="evenodd" d="M0.459565 11.1305H14.5406C14.7133 11.1305 14.8555 11.2762 14.8555 11.4549V13.6766C14.8555 13.8545 14.714 14.001 14.5406 14.001H0.459565C0.286892 14.001 0.144691 13.8553 0.144691 13.6766V11.4549C0.144691 11.277 0.286111 11.1305 0.459565 11.1305ZM3.60908 1.42818L0.290017 6.54697H6.92736L5.10688 3.73925L5.07953 3.69658L3.6083 1.42738L3.60908 1.42818ZM7.47663 0.287545L5.26627 3.69739L6.27886 5.25983L8.35797 2.05284L11.1153 6.30629H8.35797H6.95627L6.99143 6.36103L7.04769 6.44796L7.10394 6.5349L7.11332 6.54858H11.534L9.76982 3.82779L9.73935 3.78111L9.70887 3.73442L7.47429 0.28835L7.47663 0.287545ZM11.3918 1.42818L9.89717 3.73361L10.7238 5.00868L12.1185 2.857L14.3906 6.36183H12.1185H11.6012L11.6216 6.39323L11.6895 6.49787L11.7216 6.54778H14.7109L11.3918 1.42899V1.42818ZM9.8042 3.59033L11.3918 1.14162C12.5951 2.99707 13.7975 4.85252 15.0008 6.70797H11.8255H11.6395H7.2188H7.03284H0.00170898L0.0821853 6.5832L3.61064 1.14162L5.17485 3.5541L7.47819 0.000976562L9.80576 3.59033H9.8042ZM4.33571 2.857L2.06362 6.36183H4.33571H6.6078L4.33571 2.857ZM12.6529 8.04985H14.8555V8.64633H14.1155V10.4639H13.392V8.64633H12.6521V8.04985H12.6529ZM10.4496 8.04985H11.6536C11.9161 8.04985 12.1122 8.11425 12.2435 8.24224C12.374 8.37103 12.4396 8.55376 12.4396 8.79203C12.4396 9.03594 12.3685 9.22671 12.2255 9.36436C12.0833 9.50201 11.8653 9.57043 11.5731 9.57043H11.1762V10.4639H10.4496V8.04985ZM11.1762 9.08182H11.3543C11.495 9.08182 11.5934 9.05686 11.6505 9.00615C11.7075 8.95624 11.7356 8.89185 11.7356 8.81376C11.7356 8.7381 11.7114 8.6737 11.6614 8.62138C11.6122 8.56825 11.5192 8.54249 11.3833 8.54249H11.1762V9.08182ZM9.34868 10.0663H8.52829L8.41031 10.4639H7.67118L8.5533 8.04985H9.34556L10.2238 10.4639H9.46588L9.34868 10.0663ZM9.19554 9.54387L8.94005 8.67611L8.683 9.54387H9.19554ZM7.64852 10.4639H6.83282L6.54842 9.84251C6.48279 9.6944 6.43122 9.60263 6.39372 9.5656C6.357 9.52858 6.30621 9.51006 6.24136 9.51006V10.4639H5.51785V8.04985H6.24136V8.97717C6.30387 8.97395 6.35309 8.95061 6.38825 8.90795C6.42341 8.86528 6.4781 8.74212 6.55311 8.53927C6.6078 8.38955 6.66249 8.28168 6.71797 8.21648C6.77344 8.15128 6.86329 8.10459 6.98752 8.07561C7.11254 8.04663 7.30787 8.03295 7.57352 8.03295V8.54169H7.53679C7.41334 8.54169 7.32115 8.56583 7.26177 8.61413C7.20239 8.66243 7.15316 8.74051 7.11488 8.84918C7.07581 8.95785 7.03518 9.03835 6.99143 9.09148C6.9469 9.14461 6.88673 9.18727 6.81016 9.21866C6.91408 9.25408 7.00549 9.31445 7.08285 9.40059C7.16098 9.48752 7.24302 9.62115 7.33052 9.80387L7.64852 10.4639ZM5.03968 10.4639H4.31618V8.64311H3.74972V9.38529C3.74972 9.69037 3.73409 9.91496 3.70284 10.0582C3.67159 10.2015 3.59736 10.307 3.48172 10.3738C3.36609 10.4406 3.17935 10.4744 2.92152 10.4744C2.8426 10.4744 2.75275 10.4656 2.64961 10.4478V9.95843H2.75822C2.85588 9.95843 2.92542 9.93589 2.96527 9.89162C3.0059 9.84734 3.02543 9.76604 3.02543 9.6469V8.04985H5.03812V10.4639H5.03968ZM0.19704 8.61655C0.390808 8.21165 0.750998 8.0088 1.27683 8.0088C1.66827 8.0088 1.9683 8.11586 2.17926 8.33159C2.38943 8.54651 2.49413 8.84999 2.49413 9.2404C2.49413 9.64691 2.39022 9.96004 2.18238 10.1774C1.97455 10.3947 1.68312 10.5042 1.3073 10.5042C0.968988 10.5042 0.708807 10.4358 0.525977 10.2981C0.343929 10.1605 0.216573 9.98177 0.14391 9.76282L0.824443 9.57365C0.890074 9.82078 1.04243 9.94474 1.27917 9.94474C1.55654 9.94474 1.71437 9.79099 1.75344 9.48269H1.04634V9.03433H1.75344C1.70734 8.72441 1.54795 8.56905 1.2737 8.56905C1.05962 8.56905 0.91742 8.67048 0.84632 8.87253L0.195477 8.61655H0.19704ZM0.943204 13.547V11.6617H1.30574L1.73859 12.9964C1.77844 13.1203 1.80735 13.2137 1.8261 13.2757C1.8472 13.2073 1.88001 13.1067 1.92377 12.973L2.36443 11.6617H2.68868V13.547H2.45585V11.97L1.92142 13.547H1.70343L1.17526 11.9411V13.547H0.942423H0.943204ZM3.51063 12.6293C3.51063 12.317 3.59267 12.0723 3.75519 11.8952C3.91848 11.7181 4.12866 11.6303 4.3865 11.6303C4.55526 11.6303 4.70762 11.6722 4.84357 11.7551C4.97874 11.838 5.08266 11.9539 5.15376 12.1029C5.22486 12.251 5.2608 12.42 5.2608 12.6076C5.2608 12.7984 5.22329 12.9698 5.14829 13.1203C5.07328 13.2717 4.96702 13.3852 4.83029 13.4625C4.69278 13.5397 4.54432 13.5784 4.38572 13.5784C4.21304 13.5784 4.05912 13.5357 3.92395 13.4496C3.78878 13.3642 3.68565 13.2475 3.61533 13.0986C3.54579 12.9505 3.51063 12.7943 3.51063 12.6285V12.6293ZM3.76144 12.6333C3.76144 12.8603 3.82082 13.039 3.9388 13.1694C4.05756 13.2999 4.20601 13.3651 4.38493 13.3651C4.56698 13.3651 4.717 13.299 4.83498 13.1678C4.95218 13.0358 5.01156 12.8491 5.01156 12.6068C5.01156 12.4538 4.98655 12.3202 4.93655 12.2059C4.88654 12.0916 4.81232 12.003 4.71622 11.9403C4.61933 11.8775 4.51073 11.8461 4.38962 11.8461C4.21851 11.8461 4.07084 11.9065 3.94739 12.028C3.82394 12.1487 3.76222 12.3508 3.76222 12.6341L3.76144 12.6333ZM6.09135 11.6617H7.27974V11.8831H6.33434V12.4651H6.7711C6.93283 12.4651 7.06097 12.4812 7.15629 12.5126C7.25161 12.544 7.32818 12.6036 7.38522 12.6921C7.44304 12.7798 7.47116 12.8821 7.47116 12.9988C7.47116 13.0938 7.45085 13.1831 7.40944 13.2652C7.36803 13.3481 7.30709 13.4158 7.22505 13.4681C7.14379 13.5204 7.00471 13.547 6.80782 13.547H6.09135V11.6617ZM6.33434 13.3337H6.81876C6.94924 13.3337 7.04769 13.3063 7.11332 13.2516C7.17817 13.1968 7.21098 13.1147 7.21098 13.0052C7.21098 12.9271 7.19223 12.8619 7.15473 12.8096C7.11722 12.7573 7.06566 12.7227 6.99846 12.7058C6.93127 12.6889 6.81798 12.68 6.65702 12.68H6.33356V13.3329L6.33434 13.3337ZM8.00949 13.547L8.71112 11.6617H8.97756L9.72216 13.547H9.44635L9.23461 12.9754H8.46423L8.26577 13.547H8.00871H8.00949ZM8.53611 12.7726H9.1596L8.96896 12.2502C8.91114 12.0916 8.86817 11.9604 8.8377 11.8565C8.8127 11.9797 8.7791 12.1004 8.73691 12.2196L8.53611 12.7726ZM10.4277 11.6617H10.6472V13.1542L11.6216 11.6617H11.8614V13.547H11.6419V12.0578L10.6707 13.547H10.4285V11.6617H10.4277ZM12.9029 11.6617H14.0452V13.547H13.8022V11.8831H13.1451V12.8539C13.1451 13.0511 13.1365 13.196 13.1186 13.2878C13.1006 13.3795 13.0631 13.4512 13.0053 13.5027C12.9475 13.5534 12.8748 13.5792 12.7865 13.5792C12.7326 13.5792 12.6685 13.5679 12.5935 13.5446L12.6373 13.3232C12.6771 13.3441 12.7107 13.3546 12.7388 13.3546C12.7935 13.3546 12.8349 13.3337 12.8623 13.291C12.8896 13.2483 12.9029 13.1485 12.9029 12.9907V11.6617Z" fill="#464C4C"/>
</g>
<defs>
<clipPath id="clip0_907_1056">
<rect width="15" height="14" fill="white"/>
</clipPath>
</defs>
</svg>
