<svg width="62" height="59" viewBox="0 0 62 59" fill="none" xmlns="http://www.w3.org/2000/svg">
<path d="M31.1727 9.46769e-05C33.0214 9.46769e-05 34.6973 0.739506 35.9116 1.93619L35.9141 1.93862C37.1259 3.1353 37.8787 4.78438 37.8787 6.60859C37.8787 8.43036 37.1284 10.0819 35.9141 11.2786L35.9116 11.281C34.6973 12.4752 33.0214 13.2171 31.1727 13.2171C29.3241 13.2171 27.6482 12.4777 26.4339 11.281L26.4314 11.2786C25.9032 10.758 25.4614 10.15 25.1332 9.47867C24.6938 10.437 24.1336 11.174 23.4524 11.6847C22.164 12.6504 20.5153 12.7963 18.5012 12.0958C18.173 11.9815 17.9731 11.6629 18.0002 11.3345C18.0348 9.06032 18.6567 7.4234 19.9081 6.47238C21.0064 5.63324 22.5391 5.36813 24.5285 5.70864C24.7309 4.24441 25.4195 2.93342 26.4314 1.93862L26.4339 1.93619C27.6482 0.741939 29.3241 9.46769e-05 31.1727 9.46769e-05ZM33.7618 46.352H35.9141V46.7387C35.9807 46.7192 36.0523 46.7095 36.1239 46.7095H38.0934V39.2911L38.1033 39.1913C38.1576 38.7852 38.5377 38.5006 38.9474 38.5565C39.1153 38.5784 39.2905 38.5906 39.4707 38.5906C40.0013 38.5906 40.4777 38.4738 40.8208 38.2355C41.1342 38.0166 41.3539 37.676 41.4205 37.1993C41.4329 37.1045 41.4403 36.9926 41.4403 36.8637V24.1526C41.4403 22.1897 40.6875 20.7304 39.5151 19.6723C38.1601 18.4489 36.2349 17.7289 34.2333 17.3811C33.9544 17.8846 33.5915 18.2689 33.1794 18.5389C32.6487 18.8891 32.0465 19.0448 31.4516 19.0278C30.8618 19.0108 30.2793 18.8235 29.7782 18.4878C29.3488 18.1984 28.9786 17.8019 28.7145 17.3082C27.0633 17.3738 25.6614 17.7971 24.5038 18.5729C23.2376 19.4218 22.238 20.7061 21.5025 22.4111L16.4922 37.1385C16.3268 37.6274 16.623 38.1138 17.0771 38.4519C17.2721 38.5979 17.4942 38.7146 17.7213 38.7973C17.9459 38.8776 18.173 38.9238 18.3828 38.9262C18.7703 38.9335 19.1158 38.7803 19.2491 38.3984L23.2549 26.9035C23.361 26.6019 23.6597 26.3903 24.0003 26.4049C24.4149 26.4219 24.7358 26.7697 24.7185 27.1759L23.8621 46.7217H25.9872C26.0242 46.7217 26.0612 46.7241 26.0958 46.729V46.352H28.248V48.4753H26.7399V55.6141C26.7399 56.227 26.93 56.694 27.241 57.0053C27.5742 57.3385 28.0653 57.5137 28.6281 57.5137H33.7199C34.3048 57.5137 34.7244 57.3896 34.9712 57.1269C35.2378 56.8424 35.3711 56.3462 35.3711 55.6165V48.4778H33.7618V46.3544V46.352ZM30.03 46.352H32.1822V48.4753H30.03V46.352ZM36.1633 34.4606H38.3156V36.5839H36.1633V34.4606ZM36.1633 30.4327H38.3156V32.5561H36.1633V30.4327ZM36.1633 26.4049H38.3156V28.5282H36.1633V26.4049ZM55.0842 36.6277H57.2364V38.7511H55.0842V36.6277ZM55.0842 32.5999H57.2364V34.7233H55.0842V32.5999ZM55.0842 28.572H57.2364V30.6954H55.0842V28.572ZM55.0842 24.5442H57.2364V26.6676H55.0842V24.5442ZM4.97577 36.6253H7.128V38.7487H4.97577V36.6253ZM4.97577 32.5974H7.128V34.7208H4.97577V32.5974ZM4.97577 28.5696H7.128V30.693H4.97577V28.5696ZM4.97577 24.5417H7.128V26.6651H4.97577V24.5417ZM30.2965 20.9736C30.2965 20.5625 30.6347 20.2318 31.0493 20.2318C31.4665 20.2318 31.8021 20.565 31.8021 20.9736V30.7659C31.8021 31.177 31.464 31.5078 31.0493 31.5078C30.6322 31.5078 30.2965 31.1746 30.2965 30.7659V20.9736ZM15.2161 42.7692H18.9702C19.3873 42.7692 19.723 43.1024 19.723 43.5111V53.3642C19.723 53.7753 19.3848 54.1061 18.9702 54.1061H15.2161C14.799 54.1061 14.4633 53.7728 14.4633 53.3642V43.5111C14.4633 43.1 14.8015 42.7692 15.2161 42.7692ZM18.2174 44.2553H15.9714V52.6224H18.2174V44.2553ZM22.9982 32.2204L20.6806 38.8727C20.2981 39.9721 19.3799 40.4172 18.3655 40.4002C17.9805 40.3929 17.588 40.3175 17.2153 40.1837C16.8451 40.0499 16.4872 39.8626 16.1762 39.6292C15.2458 38.9384 14.6657 37.8585 15.073 36.6618L20.0907 21.9125L20.1228 21.8322C20.9719 19.8572 22.1516 18.354 23.6671 17.3398C25.1924 16.3182 27.0386 15.8026 29.2106 15.8099C29.5413 15.8099 29.8227 16.0215 29.9239 16.3158C30.0645 16.7293 30.3212 17.0479 30.6297 17.2547C30.8963 17.4322 31.1974 17.5295 31.4985 17.5392C31.7922 17.5465 32.0884 17.4711 32.3476 17.3009C32.6462 17.1039 32.9079 16.7755 33.0831 16.3012C33.2065 15.9655 33.5496 15.7734 33.8927 15.8196C36.3534 16.1601 38.8018 17.0114 40.532 18.5729C42.0055 19.9034 42.9508 21.7227 42.9508 24.1453V36.8564C42.9508 37.0315 42.9384 37.209 42.9137 37.389C42.7854 38.3084 42.3362 38.9846 41.6895 39.437C41.1071 39.8432 40.3814 40.0499 39.604 40.0694V47.4465C39.604 47.8575 39.2658 48.1883 38.8512 48.1883H36.8816V55.6068C36.8816 56.7232 36.615 57.5477 36.0819 58.1217C35.529 58.7152 34.7442 58.9901 33.7248 58.9901H28.633C27.6704 58.9901 26.7992 58.6617 26.1723 58.0342C25.5898 57.4529 25.2368 56.6332 25.2368 55.6043V48.1981H23.0821C22.665 48.1981 22.3294 47.8648 22.3294 47.4562L22.9982 32.2204ZM18.0027 16.0239C18.4198 16.0239 18.7555 16.3571 18.7555 16.7658C18.7555 17.1768 18.4173 17.5076 18.0027 17.5076H6.79973C5.30157 17.5076 3.92187 18.0184 2.95188 18.9791C2.06582 19.8572 1.51048 21.1317 1.51048 22.7565V38.9481C1.51048 39.2959 1.55244 39.5927 1.63142 39.8432C1.77211 40.2883 2.03373 40.6069 2.38174 40.8137C2.76184 41.0399 3.25793 41.1469 3.82067 41.1469C4.36614 41.1469 4.96096 41.0472 5.57306 40.8623C5.97043 40.7431 6.39002 40.962 6.51343 41.3536C6.53564 41.4266 6.54798 41.4996 6.54798 41.5701L6.55045 55.4316C6.55045 56.0835 6.70841 56.6478 7.02434 57.0224C7.27856 57.324 7.66112 57.5064 8.1745 57.5064H15.3593C15.7764 57.5064 16.1121 57.8396 16.1121 58.2482C16.1121 58.6593 15.7739 58.9901 15.3593 58.9901H8.1745C7.17736 58.9901 6.4073 58.6033 5.86924 57.9661C5.31884 57.3142 5.04241 56.4143 5.04241 55.4292V42.5163C4.62282 42.5941 4.21311 42.633 3.82314 42.633C2.99384 42.633 2.23365 42.4579 1.60674 42.0858C0.947744 41.6942 0.454113 41.0982 0.194957 40.2786C0.0690815 39.8821 0.00244141 39.437 0.00244141 38.9481V22.7565C0.00244141 20.7109 0.72561 19.0837 1.88564 17.9333C3.1444 16.6831 4.90666 16.0215 6.79973 16.0215H18.0027V16.0239ZM44.0047 17.51C43.5876 17.51 43.2519 17.1768 43.2519 16.7682C43.2519 16.3571 43.59 16.0264 44.0047 16.0264H55.2076C57.0982 16.0264 58.8605 16.6904 60.1217 17.9381C61.2793 19.0862 62.0049 20.7158 62.0049 22.7613V38.953C62.0049 39.4419 61.9383 39.887 61.8124 40.2834C61.5532 41.1031 61.0596 41.699 60.4006 42.0906C59.7762 42.4628 59.0135 42.6379 58.1842 42.6379C57.7942 42.6379 57.3845 42.599 56.9649 42.5211V55.4341C56.9649 56.4191 56.6885 57.3191 56.1381 57.9709C55.6001 58.6082 54.83 58.9949 53.8329 58.9949H46.6481C45.6164 58.9949 44.8068 58.6495 44.2416 58.0196C43.6863 57.3994 43.4 56.531 43.4 55.4681V42.3582C43.4 41.9471 43.7381 41.6163 44.1528 41.6163C44.5699 41.6163 44.9055 41.9495 44.9055 42.3582V55.4681C44.9055 56.1662 45.061 56.7013 45.3646 57.0394C45.6386 57.3434 46.068 57.5112 46.6481 57.5112H53.8329C54.3462 57.5112 54.7288 57.3264 54.983 57.0272C55.2965 56.6551 55.4569 56.0884 55.4569 55.4365V41.575C55.4594 41.502 55.4692 41.429 55.4915 41.3585C55.6124 40.9669 56.0344 40.748 56.4318 40.8672C57.0439 41.0545 57.6387 41.1518 58.1842 41.1518C58.7469 41.1518 59.2406 41.0447 59.6231 40.8185C59.9712 40.6118 60.2352 40.2932 60.3735 39.8481C60.4524 39.5975 60.4944 39.2984 60.4944 38.953V22.7613C60.4944 21.1366 59.9391 19.8621 59.053 18.984C58.083 18.0233 56.7033 17.5125 55.2051 17.5125H44.0022L44.0047 17.51ZM11.931 -0.00720215C13.7797 -0.00720215 15.4555 0.73221 16.6699 1.92889L16.6723 1.93132C17.8842 3.128 18.637 4.77708 18.637 6.60129C18.637 8.42306 17.8867 10.0746 16.6723 11.2713L16.6699 11.2737C15.4555 12.4679 13.7797 13.2098 11.931 13.2098C10.0824 13.2098 8.4065 12.4704 7.19217 11.2737L7.1897 11.2713C5.97784 10.0746 5.22505 8.4255 5.22505 6.60129C5.22505 4.77952 5.97537 3.128 7.1897 1.93132L7.19217 1.92889C8.4065 0.734642 10.0824 -0.00720215 11.931 -0.00720215ZM15.6086 2.9772C14.6682 2.0505 13.3675 1.47892 11.931 1.47892C10.4946 1.47892 9.19384 2.05293 8.25348 2.9772C7.31311 3.9039 6.73309 5.18571 6.73309 6.60129C6.73309 8.01687 7.31558 9.29868 8.25348 10.2254C9.19384 11.1521 10.4946 11.7237 11.931 11.7237C13.3675 11.7237 14.6682 11.1496 15.6086 10.2254C16.5489 9.29868 17.129 8.01687 17.129 6.60129C17.129 5.18571 16.5465 3.9039 15.6086 2.9772ZM50.138 -0.00720215C51.9867 -0.00720215 53.6626 0.73221 54.8769 1.92889L54.8794 1.93132C56.0912 3.128 56.844 4.77708 56.844 6.60129C56.844 8.42306 56.0937 10.0746 54.8794 11.2713L54.8769 11.2737C53.6626 12.4679 51.9867 13.2098 50.138 13.2098C48.2894 13.2098 46.6135 12.4704 45.3992 11.2737L45.3967 11.2713C44.1848 10.0746 43.4321 8.4255 43.4321 6.60129C43.4321 4.77952 44.1824 3.128 45.3967 1.93132L45.3992 1.92889C46.6135 0.734642 48.2894 -0.00720215 50.138 -0.00720215ZM53.8156 2.9772C52.8752 2.0505 51.5745 1.47892 50.138 1.47892C48.7016 1.47892 47.4009 2.05293 46.4605 2.9772C45.5201 3.9039 44.9401 5.18571 44.9401 6.60129C44.9401 8.01687 45.5226 9.29868 46.4605 10.2254C47.4009 11.1521 48.7016 11.7237 50.138 11.7237C51.5745 11.7237 52.8752 11.1496 53.8156 10.2254C54.7559 9.29868 55.336 8.01687 55.336 6.60129C55.336 5.18571 54.7535 3.9039 53.8156 2.9772ZM20.8337 7.63744C20.0512 8.23335 19.6243 9.31328 19.528 10.8505C20.7868 11.1886 21.7913 11.0669 22.549 10.4978C23.3561 9.89459 23.9485 8.77818 24.336 7.17044C22.7588 6.89073 21.5988 7.05369 20.8312 7.63744H20.8337ZM34.8552 2.9772C33.9149 2.0505 32.6141 1.47892 31.1777 1.47892C29.7412 1.47892 28.4405 2.05293 27.5001 2.9772C26.5598 3.9039 25.9797 5.18571 25.9797 6.60129C25.9797 8.01687 26.5622 9.29868 27.5001 10.2254C28.4405 11.1521 29.7412 11.7237 31.1777 11.7237C32.6141 11.7237 33.9149 11.1496 34.8552 10.2254C35.7956 9.29868 36.3756 8.01687 36.3756 6.60129C36.3756 5.18571 35.7931 3.9039 34.8552 2.9772Z" fill="#081B43"/>
</svg>
