<svg width="66" height="65" viewBox="0 0 66 65" fill="none" xmlns="http://www.w3.org/2000/svg">
<path d="M0.0933063 59.3725L32.4566 0.393284C32.6555 0.0286349 33.1135 -0.106067 33.4787 0.0925845C33.6109 0.164698 33.7118 0.269466 33.7786 0.390562L65.9074 58.782C66.1077 59.1466 65.9742 59.6052 65.6089 59.8052C65.4822 59.8746 65.3432 59.9045 65.2082 59.8977L0.761124 60.4855C0.345441 60.4882 0.0047183 60.1549 0.00199252 59.7385C0.000629625 59.6065 0.0347019 59.4813 0.0933063 59.3725ZM1.71787 62.8421H3.87806V65.0001H1.71787V62.8421ZM62.1254 62.8421H64.2855V65.0001H62.1254V62.8421ZM58.098 62.8421H60.2582V65.0001H58.098V62.8421ZM54.0707 62.8421H56.2309V65.0001H54.0707V62.8421ZM50.0433 62.8421H52.2035V65.0001H50.0433V62.8421ZM46.016 62.8421H48.1762V65.0001H46.016V62.8421ZM41.9886 62.8421H44.1488V65.0001H41.9886V62.8421ZM37.9613 62.8421H40.1215V65.0001H37.9613V62.8421ZM33.9339 62.8421H36.0941V65.0001H33.9339V62.8421ZM29.9066 62.8421H32.0668V65.0001H29.9066V62.8421ZM25.8792 62.8421H28.0394V65.0001H25.8792V62.8421ZM21.8519 62.8421H24.0121V65.0001H21.8519V62.8421ZM17.8245 62.8421H19.9847V65.0001H17.8245V62.8421ZM13.7972 62.8421H15.9574V65.0001H13.7972V62.8421ZM9.76984 62.8421H11.93V65.0001H9.76984V62.8421ZM5.7425 62.8421H7.90268V65.0001H5.7425V62.8421ZM18.8767 58.8146L41.6615 17.8502L33.1162 2.31857L2.03134 58.967L18.8753 58.8133L18.8767 58.8146ZM42.5202 19.4094L20.6117 58.7983L38.0076 58.6405L51.0042 34.8281L42.5215 19.4108L42.5202 19.4094ZM51.8655 36.3942L39.733 58.6241L63.9762 58.4037L51.8669 36.3942H51.8655Z" fill="#081B43"/>
</svg>
