<svg width="59" height="62" viewBox="0 0 59 62" fill="none" xmlns="http://www.w3.org/2000/svg">
<path d="M50.9983 0.410727C56.0365 10.3489 58.4516 19.8856 58.9154 28.1385C59.4535 37.7068 57.3639 45.5824 53.6913 50.401C51.0512 53.8651 48.0903 56.4918 45.0342 58.2182C42.0417 59.9092 38.9528 60.7397 35.9752 60.6549C32.9746 60.5697 30.0965 59.557 27.5503 57.5624C25.8559 56.2348 24.3107 54.4733 22.979 52.2619C19.7471 55.3999 16.3488 57.7791 12.7858 59.4013C8.95738 61.1442 4.94335 62.0094 0.746677 62.0003C0.33405 62.0003 -0.000488281 61.6607 -0.000488281 61.2428C-0.000488281 60.8245 0.334477 60.4854 0.746677 60.4854C4.72999 60.4944 8.54049 59.6725 12.176 58.0175C15.4856 56.5108 18.6569 54.3094 21.6886 51.4128C15.1233 49.4251 10.3604 46.1828 7.62648 41.8302C4.83325 37.3837 4.17228 31.8211 5.88253 25.2968C5.93843 25.0831 6.00542 24.84 6.08436 24.5649C10.1667 10.2979 21.9643 7.74389 33.7619 5.19078C39.5003 3.94883 45.239 2.70688 49.9755 0.0936427C50.3378 -0.106211 50.7918 0.0291877 50.9894 0.396451L50.9979 0.411592L50.9983 0.410727ZM47.2958 7.75816H49.4378V9.9306H47.2958V7.75816ZM46.1351 11.8002H48.2772V13.9727H46.1351V11.8002ZM44.7219 15.4841H46.8639V17.6565H44.7219V15.4841ZM43.4601 19.4747H45.6022V21.6471H43.4601V19.4747ZM41.5924 23.6193H43.7345V25.7917H41.5924V23.6193ZM39.927 26.8939H42.069V29.0664H39.927V26.8939ZM52.0903 27.6099H54.2323V29.7823H52.0903V27.6099ZM49.0623 30.0661H51.2044V32.2385H49.0623V30.0661ZM45.5296 32.1126H47.6717V34.2851H45.5296V32.1126ZM41.6935 33.75H43.8356V35.9224H41.6935V33.75ZM37.9082 30.5778H40.0503V32.7503H37.9082V30.5778ZM30.0235 14.3174H32.1656V16.4899H30.0235V14.3174ZM30.1242 18.6156H32.2663V20.788H30.1242V18.6156ZM30.2249 22.4016H32.367V24.574H30.2249V22.4016ZM31.2345 26.5972H33.3766V28.7696H31.2345V26.5972ZM33.304 30.7418H35.4461V32.9142H33.304V30.7418ZM35.7619 34.1674H37.9039V36.3398H35.7619V34.1674ZM33.1726 37.8604H35.3147V40.0328H33.1726V37.8604ZM30.7152 40.8409H32.8573V43.0133H30.7152V40.8409ZM48.1368 42.8429H50.2789V45.0153H48.1368V42.8429ZM44.0997 43.7773H46.2418V45.9497H44.0997V43.7773ZM40.3255 44.8007H42.4676V46.9732H40.3255V44.8007ZM35.9812 44.8453H38.1233V47.0177H35.9812V44.8453ZM32.2334 44.7302H34.3755V46.9027H32.2334V44.7302ZM28.1959 44.0182H30.338V46.1906H28.1959V44.0182ZM25.212 46.8633H27.354V49.0357H25.212V46.8633ZM26.0457 41.7026H28.1878V43.875H26.0457V41.7026ZM24.0709 38.7662H26.213V40.9386H24.0709V38.7662ZM21.5256 35.6966H23.6677V37.869H21.5256V35.6966ZM19.4787 31.6485H21.6208V33.8209H19.4787V31.6485ZM18.2579 27.6644H20.4V29.8368H18.2579V27.6644ZM17.3422 23.6028H19.4843V25.7753H17.3422V23.6028ZM17.3422 19.4249H19.4843V21.5974H17.3422V19.4249ZM23.7697 50.6298C23.7825 50.6501 23.7944 50.67 23.8051 50.6912C25.139 53.112 26.7191 54.9954 28.4643 56.3633C30.7515 58.155 33.3313 59.0648 36.0162 59.1409C38.7241 59.2179 41.5506 58.4522 44.3075 56.8941C47.1899 55.2654 49.9938 52.7733 52.5076 49.4752C55.972 44.9301 57.9379 37.4174 57.4211 28.2228C56.9786 20.3541 54.7124 11.2759 50.0096 1.78807C45.2211 4.26289 39.6466 5.46979 34.073 6.67584C22.7132 9.13464 11.3525 11.5935 7.52023 24.9867L7.33035 25.6831C5.73233 31.78 6.32417 36.9372 8.88655 41.0161C11.4643 45.1196 16.051 48.1788 22.4234 50.0527C22.6922 50.1319 22.9969 50.2171 23.3315 50.3075L23.3387 50.3097L23.3404 50.3101L23.3494 50.3127L23.3562 50.3149L23.3669 50.3179L23.3733 50.3201L23.3754 50.3205L23.3839 50.3235L23.3903 50.3257L23.3929 50.3266L23.4019 50.3296L23.4074 50.3318L23.4104 50.3331L23.4189 50.3365L23.4245 50.3387L23.4275 50.34L23.436 50.3439L23.4415 50.346L23.4445 50.3473L23.4531 50.3512L23.4582 50.3538L23.4612 50.3551L23.4697 50.359L23.4744 50.3616L23.4778 50.3633L23.4859 50.3677L23.4906 50.3698L23.494 50.372L23.5021 50.3768L23.5068 50.3789L23.5102 50.3811L23.5184 50.3858L23.523 50.3884L23.5265 50.3906L23.5346 50.3953L23.5393 50.3979L23.5427 50.4001L23.5508 50.4053L23.555 50.4083L23.5585 50.4105L23.5661 50.4157L23.5708 50.4187L23.5738 50.4209L23.5815 50.4265L23.5858 50.43L23.5888 50.4321L23.5964 50.4377L23.6007 50.4412L23.6037 50.4434L23.6109 50.4494L23.6152 50.4529L23.6182 50.455L23.6255 50.4615L23.6301 50.4654L23.64 50.4736L23.6447 50.478L23.6468 50.4801L23.6536 50.4866L23.6583 50.4914L23.6604 50.4935L23.6668 50.5L23.672 50.5052L23.6737 50.507L23.6801 50.5139L23.6852 50.5195L23.6865 50.5208L23.6929 50.5282L23.698 50.5338L23.6993 50.5351L23.7057 50.5424L23.7108 50.5481L23.7121 50.5498L23.7185 50.5571L23.7232 50.5628L23.7245 50.5645L23.7304 50.5723L23.7351 50.5779L23.7364 50.5801L23.7535 50.6039L23.7573 50.6086L23.7594 50.6116L23.765 50.6199L23.768 50.6242L23.7701 50.6281L23.7697 50.6298Z" fill="#081B43"/>
</svg>
