<svg width="66" height="58" viewBox="0 0 66 58" fill="none" xmlns="http://www.w3.org/2000/svg">
<path d="M26.1013 1.51245H1.6377L10.5132 50.8783C10.7396 52.1335 11.6928 53.4474 12.8497 54.4964C14.1525 55.6753 15.6665 56.4901 16.665 56.4901H35.5327C36.5312 56.4901 38.0477 55.6753 39.348 54.4964C40.5074 53.4474 41.4606 52.1335 41.6844 50.8783L50.56 1.51245H26.0963H26.1013ZM55.4517 17.8616C55.1499 17.579 55.1298 17.1029 55.4089 16.7948C55.6881 16.4892 56.1584 16.4689 56.4627 16.7515L59.9435 20.0004V5.54309C59.9435 4.30309 59.5688 3.28715 58.9149 2.58949C58.2685 1.90456 57.3279 1.51245 56.1811 1.51245H52.079L43.1557 51.1456C42.8665 52.7599 41.7222 54.3742 40.3465 55.6193C38.7897 57.0299 36.8858 58.0025 35.5377 58.0025H16.67C15.3245 58.0025 13.4181 57.0299 11.8613 55.6193C10.483 54.3717 9.34122 52.7599 9.05199 51.1456L0.030595 0.959919C0.0129898 0.896264 0.00292969 0.827516 0.00292969 0.756223C0.00292969 0.338645 0.337428 0 0.749892 0H51.4604H56.1811C57.7504 0 59.0633 0.562711 59.9938 1.54809C60.9143 2.52329 61.4375 3.90079 61.4375 5.54054V19.9139L64.7372 16.614C65.0289 16.3212 65.5017 16.3263 65.791 16.6216C66.0802 16.917 66.0752 17.3957 65.7834 17.6885L61.2564 22.2156C61.1206 22.3735 60.9168 22.4753 60.693 22.4753C60.4818 22.4753 60.2906 22.3862 60.1548 22.2436L55.4567 17.8591L55.4517 17.8616ZM60.5044 29.7295C60.0819 30.4322 59.687 31.1426 59.345 31.8607C58.847 32.9021 58.4521 33.9638 58.2207 35.0587C58.2006 35.1529 58.1906 35.2446 58.1906 35.3311C58.1906 35.7131 58.3591 36.095 58.6458 36.4133C58.9526 36.7545 59.3953 37.0167 59.9159 37.1313C60.1045 37.172 60.3032 37.195 60.5019 37.1924C60.7006 37.1924 60.8992 37.172 61.0879 37.1313C61.611 37.0193 62.0511 36.7545 62.358 36.4133C62.6447 36.095 62.8132 35.7131 62.8132 35.3337C62.8132 35.2471 62.8031 35.1554 62.783 35.0587C62.5516 33.9638 62.1568 32.8995 61.6588 31.8607C61.3142 31.1426 60.9219 30.4322 60.4994 29.7295H60.5044ZM58.0019 31.2063C58.5376 30.086 59.1815 28.9936 59.8731 27.914C59.9284 27.8249 60.0039 27.7434 60.0969 27.6823C60.4415 27.4557 60.9018 27.555 61.1256 27.9039C61.8172 28.9885 62.4661 30.0834 63.0018 31.2063C63.5501 32.3495 63.9852 33.5259 64.2417 34.7481C64.282 34.939 64.3021 35.1376 64.2996 35.3388C64.297 36.1052 63.9877 36.8436 63.4595 37.4318C62.9515 37.997 62.2347 38.4273 61.3947 38.6106C61.113 38.6718 60.8137 38.7023 60.4994 38.7023C60.185 38.7023 59.8857 38.6718 59.604 38.6106C58.764 38.4299 58.0497 37.997 57.5392 37.4318C57.011 36.8461 56.7017 36.1077 56.6992 35.3439V35.3388C56.6992 35.1376 56.7168 34.939 56.757 34.7481C57.0135 33.5259 57.4486 32.3521 57.9969 31.2063H58.0019ZM26.1013 43.2651C25.5581 44.1588 25.0526 45.0627 24.615 45.9768C24.0239 47.2117 23.5536 48.4746 23.2795 49.7783C23.2543 49.898 23.2418 50.0176 23.2418 50.1297C23.2418 50.6109 23.453 51.0921 23.8127 51.4919C24.1924 51.9146 24.7382 52.2379 25.382 52.378C25.6134 52.4289 25.8549 52.4544 26.0988 52.4544C26.3428 52.4544 26.5842 52.4289 26.8156 52.378C27.4595 52.2379 28.0052 51.9146 28.385 51.4919C28.7446 51.0921 28.9559 50.6109 28.9559 50.1297C28.9559 50.0176 28.9433 49.9005 28.9182 49.7783C28.644 48.4746 28.1762 47.2143 27.5827 45.9768C27.1451 45.0627 26.6396 44.1588 26.0963 43.2651H26.1013ZM23.2745 45.3224C23.9032 44.0086 24.6602 42.7253 25.4726 41.4548C25.5279 41.3656 25.6034 41.2842 25.6964 41.2231C26.041 40.9964 26.5012 41.0957 26.7251 41.4446C27.5374 42.7177 28.2995 44.0035 28.9282 45.3224C29.5696 46.6617 30.0776 48.0367 30.3794 49.4651C30.4247 49.6815 30.4473 49.9056 30.4448 50.1297C30.4423 50.9979 30.0902 51.8382 29.4891 52.5078C28.9081 53.1546 28.0882 53.646 27.1275 53.8548C26.8056 53.9235 26.461 53.9617 26.1013 53.9592C25.7417 53.9592 25.3971 53.9235 25.0752 53.8548C24.1145 53.6485 23.2946 53.1546 22.7136 52.5078C22.11 51.8382 21.7579 51.0005 21.7554 50.1297C21.7554 49.9056 21.7755 49.6815 21.8208 49.4651C22.1226 48.0367 22.6306 46.6617 23.2719 45.3224H23.2745Z" fill="#081B43"/>
</svg>
