<svg width="60" height="60" viewBox="0 0 60 60" fill="none" xmlns="http://www.w3.org/2000/svg">
<path d="M29.9997 1.50816H8.84035C8.49499 1.50816 8.23986 1.7677 8.11748 2.10923C8.0511 2.29462 8.0205 2.50455 8.03088 2.71813C8.04073 2.92545 8.09155 3.1333 8.18541 3.32129C8.42187 3.79285 8.97466 4.15162 9.93244 4.09626L10.7051 4.05187L10.7196 4.83572C10.8622 12.6058 12.2229 19.8646 14.6695 26.6649C17.0761 33.3539 20.536 39.6028 24.9225 45.4631H35.0775C39.4645 39.6022 42.9243 33.3539 45.3304 26.6649C47.777 19.8646 49.1377 12.6058 49.2803 4.83572L49.2943 4.05187L50.067 4.09626C51.0243 4.15162 51.577 3.79285 51.814 3.32077C51.9084 3.13277 51.9587 2.92493 51.9685 2.71761C51.9789 2.50455 51.9483 2.29462 51.882 2.10871C51.7596 1.76666 51.5044 1.50764 51.1591 1.50764H29.9997V1.50816ZM26.2018 13.1087H33.8303V14.7516H30.8315V24.1525H33.8303V25.7954H30.8315H29.2001H26.2013V24.1525H29.2001V14.7516H26.2013V13.1087H26.2018ZM20.9871 54.0932H23.1252V56.2474H20.9871V54.0932ZM36.8743 54.0932H39.0123V56.2474H36.8743V54.0932ZM32.9026 54.0932H35.0406V56.2474H32.9026V54.0932ZM28.931 54.0932H31.069V56.2474H28.931V54.0932ZM24.9593 54.0932H27.0973V56.2474H24.9593V54.0932ZM44.9436 3.87641H47.0816V6.03055H44.9436V3.87641ZM40.9356 3.87641H43.0737V6.03055H40.9356V3.87641ZM36.9282 3.87641H39.0662V6.03055H36.9282V3.87641ZM32.9208 3.87641H35.0588V6.03055H32.9208V3.87641ZM28.9133 3.87641H31.0514V6.03055H28.9133V3.87641ZM24.9059 3.87641H27.0439V6.03055H24.9059V3.87641ZM20.8985 3.87641H23.0365V6.03055H20.8985V3.87641ZM16.891 3.87641H19.029V6.03055H16.891V3.87641ZM12.8836 3.87641H15.0216V6.03055H12.8836V3.87641ZM52.4218 18.7303C52.8029 18.8859 52.986 19.3241 52.8314 19.7079C52.6769 20.0917 52.2418 20.2761 51.8607 20.1205C50.5581 19.5836 49.7911 18.8191 49.3949 17.8269L49.3716 17.7663C48.7135 20.9967 47.831 24.1326 46.7352 27.1777C46.3883 28.1422 46.0196 29.0979 45.6302 30.0441C47.0977 28.5146 48.8587 27.1014 50.6156 25.6915C54.3135 22.7237 57.9942 19.7701 58.4547 16.0242C58.6144 14.7228 58.3738 13.7515 57.8449 13.0617C57.2491 12.2857 56.2581 11.8183 55.04 11.6057L54.9394 11.5895C53.9349 11.4371 52.9652 11.6261 52.205 12.1363H52.2019C51.4515 12.6397 50.8936 13.4721 50.6976 14.6121L50.681 14.7192C50.5254 15.7537 50.5202 16.6086 50.7826 17.2665C51.0263 17.8781 51.5355 18.3642 52.4228 18.7298L52.4218 18.7303ZM50.3097 11.86C50.6182 11.4757 50.9771 11.1498 51.3738 10.883C52.4456 10.1613 53.7887 9.89025 55.1608 10.0991L55.2899 10.1221C56.8669 10.3958 58.1809 11.0428 59.0257 12.1426C59.7936 13.1431 60.1509 14.481 59.9394 16.2059C59.4042 20.5617 55.4839 23.7081 51.5449 26.8691C49.1865 28.7616 46.8203 30.6609 45.2807 32.7659C44.6937 33.5686 44.7268 34.4454 44.7668 35.4924L44.7797 35.8486C44.7943 36.2632 44.4717 36.6115 44.06 36.6261C43.6482 36.6408 43.3024 36.3159 43.2878 35.9013L43.2749 35.5451L43.2619 35.1932C41.4537 38.7437 39.3385 42.1637 36.9381 45.4626H42.986V54.4097C43.6036 54.4943 44.1585 54.7841 44.5796 55.2076C45.0841 55.7157 45.3979 56.4186 45.3979 57.191C45.3979 57.9639 45.0841 58.6668 44.5796 59.1749C44.075 59.683 43.377 59.999 42.6101 59.999H17.3888C16.6214 59.999 15.9239 59.6835 15.4193 59.1749C14.9148 58.6668 14.601 57.9639 14.601 57.1915C14.601 56.4186 14.9148 55.7157 15.4193 55.2076C15.8399 54.7841 16.3953 54.4943 17.0129 54.4097V45.4626H17.7617H23.0614C20.6609 42.1637 18.5463 38.7437 16.7375 35.1932L16.7246 35.5451L16.7116 35.9013C16.6971 36.3159 16.3512 36.6408 15.9395 36.6261C15.5277 36.6115 15.2052 36.2632 15.2197 35.8486L15.2327 35.4924C15.2726 34.4454 15.3058 33.5691 14.7188 32.7659C13.1792 30.6609 10.813 28.7616 8.45454 26.8691C4.51555 23.7081 0.59523 20.5617 0.0600754 16.2059C-0.151497 14.481 0.205791 13.1426 0.97378 12.1426C1.81852 11.0423 3.13255 10.3952 4.70949 10.1205C4.74372 10.1205 4.80335 10.1059 4.83913 10.0991C6.21125 9.89025 7.55432 10.1613 8.62722 10.8814C9.02392 11.1483 9.38225 11.4752 9.69079 11.8595C9.45433 9.80356 9.30446 7.71156 9.24483 5.58144C8.03036 5.44619 7.25459 4.80125 6.85219 3.99913C6.66136 3.61791 6.5592 3.20171 6.5395 2.78863C6.51979 2.38235 6.58098 1.97345 6.71373 1.60268C7.04043 0.691414 7.78456 0 8.84087 0H51.1596C52.2159 0 52.96 0.690892 53.2867 1.60268C53.4195 1.97345 53.4807 2.38235 53.461 2.78863C53.4407 3.20118 53.3391 3.61791 53.1483 3.99861C52.7459 4.80125 51.9701 5.44619 50.7556 5.58092C50.696 7.71156 50.5467 9.80356 50.3097 11.86ZM24.1835 46.9712H18.5105V55.8928H17.3893C17.0352 55.8928 16.7126 56.039 16.4782 56.275C16.2444 56.5106 16.0986 56.8359 16.0986 57.1926C16.0986 57.5492 16.2444 57.8746 16.4782 58.1101C16.7121 58.3456 17.0352 58.4924 17.3893 58.4924H42.6106C42.9648 58.4924 43.2873 58.3461 43.5217 58.1101C43.7556 57.8746 43.9013 57.5492 43.9013 57.1926C43.9013 56.8359 43.7556 56.5106 43.5217 56.275C43.2878 56.0395 42.9648 55.8928 42.6106 55.8928H41.4895V46.9712H35.8164H30.0002H24.1835ZM8.13977 20.1199C7.75863 20.2756 7.32356 20.0912 7.16903 19.7074C7.0145 19.3236 7.19755 18.8854 7.57869 18.7298C8.46647 18.3642 8.97518 17.8781 9.2189 17.2665C9.48129 16.6086 9.47559 15.7532 9.32054 14.7192L9.3055 14.6116C9.10793 13.4716 8.55048 12.6397 7.7996 12.1363H7.79649C7.03628 11.6261 6.06657 11.4365 5.06212 11.5895L4.961 11.6042C3.7429 11.8183 2.75193 12.2857 2.1561 13.0617C1.62717 13.7515 1.38655 14.7228 1.54627 16.0242C2.00675 19.7701 5.6875 22.7242 9.38536 25.6915C11.1417 27.1009 12.9028 28.5146 14.3703 30.0436C13.9808 29.0973 13.6127 28.1417 13.2658 27.1777C12.17 24.1321 11.2874 20.9962 10.6294 17.7658L10.6061 17.8269C10.2104 18.8196 9.44344 19.5841 8.14029 20.1205L8.13977 20.1199Z" fill="#081B43"/>
</svg>
