<svg width="355" height="51" viewBox="0 0 355 51" fill="none" xmlns="http://www.w3.org/2000/svg">
<rect y="0.169434" width="355" height="50" rx="4" fill="#081B43"/>
<path d="M225 6.16943H340C342.209 6.16943 344 7.96029 344 10.1694V38.1694C344 40.3786 342.209 42.1694 340 42.1694H225V6.16943Z" fill="#F2D08C"/>
<path d="M234.746 18.5767H232.915V17.522H234.746C235.046 17.522 235.288 17.4731 235.474 17.3755C235.662 17.2746 235.801 17.1379 235.889 16.9653C235.977 16.7896 236.021 16.5894 236.021 16.3647C236.021 16.1466 235.977 15.9432 235.889 15.7544C235.801 15.5656 235.662 15.4126 235.474 15.2954C235.288 15.1782 235.046 15.1196 234.746 15.1196H233.354V21.1694H232.012V14.0601H234.746C235.299 14.0601 235.771 14.1593 236.162 14.3579C236.556 14.5532 236.855 14.825 237.061 15.1733C237.269 15.5184 237.373 15.9123 237.373 16.355C237.373 16.814 237.269 17.2095 237.061 17.5415C236.855 17.8735 236.556 18.1291 236.162 18.3081C235.771 18.4871 235.299 18.5767 234.746 18.5767ZM240.483 15.1392L238.457 21.1694H237.036L239.692 14.0601H240.601L240.483 15.1392ZM242.178 21.1694L240.142 15.1392L240.02 14.0601H240.933L243.604 21.1694H242.178ZM242.085 18.5278V19.5874H238.271V18.5278H242.085ZM248.408 18.8306H249.751C249.715 19.3058 249.583 19.7274 249.355 20.0952C249.128 20.4598 248.81 20.7463 248.403 20.9546C247.996 21.1629 247.503 21.2671 246.924 21.2671C246.478 21.2671 246.076 21.189 245.718 21.0327C245.363 20.8732 245.059 20.647 244.805 20.354C244.554 20.0578 244.362 19.703 244.229 19.2896C244.095 18.8729 244.028 18.4058 244.028 17.8882V17.3462C244.028 16.8286 244.097 16.3615 244.233 15.9448C244.37 15.5282 244.565 15.1733 244.819 14.8804C245.076 14.5841 245.384 14.3563 245.742 14.1968C246.104 14.0373 246.507 13.9575 246.953 13.9575C247.533 13.9575 248.022 14.0649 248.423 14.2798C248.823 14.4914 249.134 14.7827 249.355 15.1538C249.577 15.5249 249.71 15.9513 249.756 16.4331H248.413C248.387 16.1336 248.322 15.8797 248.218 15.6714C248.117 15.4631 247.964 15.3052 247.759 15.1978C247.557 15.0871 247.288 15.0317 246.953 15.0317C246.693 15.0317 246.463 15.0806 246.265 15.1782C246.069 15.2759 245.907 15.4224 245.776 15.6177C245.646 15.8097 245.549 16.0506 245.483 16.3403C245.418 16.6268 245.386 16.9588 245.386 17.3364V17.8882C245.386 18.2495 245.415 18.5734 245.474 18.8599C245.532 19.1463 245.623 19.3888 245.747 19.5874C245.871 19.786 246.03 19.9373 246.226 20.0415C246.421 20.1457 246.654 20.1978 246.924 20.1978C247.253 20.1978 247.52 20.1457 247.725 20.0415C247.933 19.9373 248.091 19.7843 248.198 19.5825C248.309 19.3807 248.379 19.13 248.408 18.8306ZM254.951 18.8306H256.294C256.258 19.3058 256.126 19.7274 255.898 20.0952C255.671 20.4598 255.353 20.7463 254.946 20.9546C254.539 21.1629 254.046 21.2671 253.467 21.2671C253.021 21.2671 252.619 21.189 252.261 21.0327C251.906 20.8732 251.602 20.647 251.348 20.354C251.097 20.0578 250.905 19.703 250.771 19.2896C250.638 18.8729 250.571 18.4058 250.571 17.8882V17.3462C250.571 16.8286 250.64 16.3615 250.776 15.9448C250.913 15.5282 251.108 15.1733 251.362 14.8804C251.619 14.5841 251.927 14.3563 252.285 14.1968C252.646 14.0373 253.05 13.9575 253.496 13.9575C254.076 13.9575 254.565 14.0649 254.966 14.2798C255.366 14.4914 255.677 14.7827 255.898 15.1538C256.12 15.5249 256.253 15.9513 256.299 16.4331H254.956C254.93 16.1336 254.865 15.8797 254.761 15.6714C254.66 15.4631 254.507 15.3052 254.302 15.1978C254.1 15.0871 253.831 15.0317 253.496 15.0317C253.236 15.0317 253.006 15.0806 252.808 15.1782C252.612 15.2759 252.45 15.4224 252.319 15.6177C252.189 15.8097 252.091 16.0506 252.026 16.3403C251.961 16.6268 251.929 16.9588 251.929 17.3364V17.8882C251.929 18.2495 251.958 18.5734 252.017 18.8599C252.075 19.1463 252.166 19.3888 252.29 19.5874C252.414 19.786 252.573 19.9373 252.769 20.0415C252.964 20.1457 253.197 20.1978 253.467 20.1978C253.796 20.1978 254.062 20.1457 254.268 20.0415C254.476 19.9373 254.634 19.7843 254.741 19.5825C254.852 19.3807 254.922 19.13 254.951 18.8306ZM257.349 14.0601H258.696V16.2524C258.696 16.578 258.745 16.8319 258.843 17.0142C258.944 17.1965 259.095 17.325 259.297 17.3999C259.499 17.4748 259.749 17.5122 260.049 17.5122C260.179 17.5122 260.322 17.5057 260.479 17.4927C260.638 17.4797 260.799 17.4634 260.962 17.4438C261.128 17.4211 261.286 17.3934 261.436 17.3608C261.589 17.3283 261.722 17.2925 261.836 17.2534V18.313C261.722 18.3488 261.59 18.383 261.44 18.4155C261.294 18.4481 261.139 18.4757 260.977 18.4985C260.817 18.5213 260.656 18.5392 260.493 18.5522C260.334 18.562 260.186 18.5669 260.049 18.5669C259.499 18.5669 259.02 18.4871 258.613 18.3276C258.21 18.1681 257.897 17.9191 257.676 17.5806C257.458 17.2388 257.349 16.7961 257.349 16.2524V14.0601ZM261.543 14.0601H262.891V21.1694H261.543V14.0601ZM265.571 19.021L268.574 14.0601H269.922V21.1694H268.574V16.2085L265.571 21.1694H264.229V14.0601H265.571V19.021ZM274.194 14.0601V21.1694H272.856V14.0601H274.194ZM276.401 14.0601V15.1196H270.674V14.0601H276.401ZM279.624 15.1392L277.598 21.1694H276.177L278.833 14.0601H279.741L279.624 15.1392ZM281.318 21.1694L279.282 15.1392L279.16 14.0601H280.073L282.744 21.1694H281.318ZM281.226 18.5278V19.5874H277.412V18.5278H281.226ZM284.79 19.021L287.793 14.0601H289.141V21.1694H287.793V16.2085L284.79 21.1694H283.447V14.0601H284.79V19.021ZM287.012 12.2192H287.949C287.949 12.4927 287.882 12.7352 287.749 12.9468C287.616 13.1584 287.425 13.3244 287.178 13.4448C286.934 13.562 286.644 13.6206 286.309 13.6206C285.804 13.6206 285.404 13.4904 285.107 13.23C284.811 12.9696 284.663 12.6326 284.663 12.2192H285.601C285.601 12.3918 285.654 12.5464 285.762 12.6831C285.869 12.8198 286.051 12.8882 286.309 12.8882C286.566 12.8882 286.746 12.8198 286.851 12.6831C286.958 12.5464 287.012 12.3918 287.012 12.2192ZM293.56 14.0601V21.1694H292.222V14.0601H293.56ZM295.767 14.0601V15.1196H290.039V14.0601H295.767ZM301.372 20.1147V21.1694H297.593V20.1147H301.372ZM298.003 14.0601V21.1694H296.66V14.0601H298.003ZM300.879 16.9946V18.0249H297.593V16.9946H300.879ZM301.357 14.0601V15.1196H297.593V14.0601H301.357ZM310.425 20.1147V21.1694H305.244V20.1147H310.425ZM305.61 20.1147V22.9126H304.336L304.272 20.1147H305.61ZM311.426 20.1147L311.323 22.9175H310.078V20.1147H311.426ZM309.59 14.0601V15.1196H306.24V14.0601H309.59ZM310.581 14.0601V21.1694H309.243V14.0601H310.581ZM306.025 14.0601H307.368L307.188 16.9507C307.161 17.4162 307.113 17.8312 307.041 18.1958C306.973 18.5604 306.888 18.8843 306.787 19.1675C306.686 19.4507 306.574 19.6997 306.45 19.9146C306.33 20.1261 306.201 20.3101 306.064 20.4663C305.931 20.6226 305.793 20.7576 305.649 20.8716C305.509 20.9823 305.371 21.0815 305.234 21.1694H304.487V20.1147H304.81C304.904 20.0334 305.003 19.9194 305.107 19.7729C305.215 19.6265 305.317 19.4328 305.415 19.1919C305.516 18.951 305.604 18.6466 305.679 18.2788C305.754 17.911 305.807 17.4683 305.84 16.9507L306.025 14.0601ZM317.905 17.4341V17.8003C317.905 18.3374 317.834 18.8208 317.69 19.2505C317.547 19.6769 317.344 20.0399 317.08 20.3394C316.816 20.6388 316.502 20.8683 316.138 21.0278C315.773 21.1873 315.368 21.2671 314.922 21.2671C314.482 21.2671 314.079 21.1873 313.711 21.0278C313.346 20.8683 313.031 20.6388 312.764 20.3394C312.497 20.0399 312.29 19.6769 312.144 19.2505C311.997 18.8208 311.924 18.3374 311.924 17.8003V17.4341C311.924 16.8937 311.997 16.4103 312.144 15.9839C312.29 15.5575 312.495 15.1945 312.759 14.895C313.022 14.5923 313.337 14.3612 313.701 14.2017C314.069 14.0422 314.473 13.9624 314.912 13.9624C315.358 13.9624 315.763 14.0422 316.128 14.2017C316.493 14.3612 316.807 14.5923 317.07 14.895C317.337 15.1945 317.542 15.5575 317.686 15.9839C317.832 16.4103 317.905 16.8937 317.905 17.4341ZM316.548 17.8003V17.4243C316.548 17.0369 316.512 16.6968 316.44 16.4038C316.369 16.1076 316.263 15.8586 316.123 15.6567C315.983 15.4549 315.811 15.3035 315.605 15.2026C315.4 15.0985 315.169 15.0464 314.912 15.0464C314.652 15.0464 314.421 15.0985 314.219 15.2026C314.02 15.3035 313.851 15.4549 313.711 15.6567C313.571 15.8586 313.464 16.1076 313.389 16.4038C313.317 16.6968 313.281 17.0369 313.281 17.4243V17.8003C313.281 18.1844 313.317 18.5246 313.389 18.8208C313.464 19.117 313.571 19.3677 313.711 19.5728C313.854 19.7746 314.027 19.9276 314.229 20.0317C314.43 20.1359 314.661 20.188 314.922 20.188C315.182 20.188 315.413 20.1359 315.615 20.0317C315.817 19.9276 315.986 19.7746 316.123 19.5728C316.263 19.3677 316.369 19.117 316.44 18.8208C316.512 18.5246 316.548 18.1844 316.548 17.8003ZM320.005 14.0601L321.426 16.5942L322.852 14.0601H324.395L322.285 17.5854L324.448 21.1694H322.891L321.426 18.5864L319.966 21.1694H318.403L320.566 17.5854L318.457 14.0601H320.005ZM330.903 17.4341V17.8003C330.903 18.3374 330.832 18.8208 330.688 19.2505C330.545 19.6769 330.342 20.0399 330.078 20.3394C329.814 20.6388 329.5 20.8683 329.136 21.0278C328.771 21.1873 328.366 21.2671 327.92 21.2671C327.48 21.2671 327.077 21.1873 326.709 21.0278C326.344 20.8683 326.029 20.6388 325.762 20.3394C325.495 20.0399 325.288 19.6769 325.142 19.2505C324.995 18.8208 324.922 18.3374 324.922 17.8003V17.4341C324.922 16.8937 324.995 16.4103 325.142 15.9839C325.288 15.5575 325.493 15.1945 325.757 14.895C326.021 14.5923 326.335 14.3612 326.699 14.2017C327.067 14.0422 327.471 13.9624 327.91 13.9624C328.356 13.9624 328.761 14.0422 329.126 14.2017C329.491 14.3612 329.805 14.5923 330.068 14.895C330.335 15.1945 330.54 15.5575 330.684 15.9839C330.83 16.4103 330.903 16.8937 330.903 17.4341ZM329.546 17.8003V17.4243C329.546 17.0369 329.51 16.6968 329.438 16.4038C329.367 16.1076 329.261 15.8586 329.121 15.6567C328.981 15.4549 328.809 15.3035 328.604 15.2026C328.398 15.0985 328.167 15.0464 327.91 15.0464C327.65 15.0464 327.419 15.0985 327.217 15.2026C327.018 15.3035 326.849 15.4549 326.709 15.6567C326.569 15.8586 326.462 16.1076 326.387 16.4038C326.315 16.6968 326.279 17.0369 326.279 17.4243V17.8003C326.279 18.1844 326.315 18.5246 326.387 18.8208C326.462 19.117 326.569 19.3677 326.709 19.5728C326.852 19.7746 327.025 19.9276 327.227 20.0317C327.428 20.1359 327.66 20.188 327.92 20.188C328.18 20.188 328.411 20.1359 328.613 20.0317C328.815 19.9276 328.984 19.7746 329.121 19.5728C329.261 19.3677 329.367 19.117 329.438 18.8208C329.51 18.5246 329.546 18.1844 329.546 17.8003ZM337.505 20.1147V21.1694H332.324V20.1147H337.505ZM332.69 20.1147V22.9126H331.416L331.353 20.1147H332.69ZM338.506 20.1147L338.403 22.9175H337.158V20.1147H338.506ZM336.67 14.0601V15.1196H333.32V14.0601H336.67ZM337.661 14.0601V21.1694H336.323V14.0601H337.661ZM333.105 14.0601H334.448L334.268 16.9507C334.242 17.4162 334.193 17.8312 334.121 18.1958C334.053 18.5604 333.968 18.8843 333.867 19.1675C333.766 19.4507 333.654 19.6997 333.53 19.9146C333.41 20.1261 333.281 20.3101 333.145 20.4663C333.011 20.6226 332.873 20.7576 332.729 20.8716C332.59 20.9823 332.451 21.0815 332.314 21.1694H331.567V20.1147H331.89C331.984 20.0334 332.083 19.9194 332.188 19.7729C332.295 19.6265 332.397 19.4328 332.495 19.1919C332.596 18.951 332.684 18.6466 332.759 18.2788C332.834 17.911 332.887 17.4683 332.92 16.9507L333.105 14.0601ZM243.242 30.8306H244.585C244.549 31.3058 244.417 31.7274 244.189 32.0952C243.962 32.4598 243.644 32.7463 243.237 32.9546C242.83 33.1629 242.337 33.2671 241.758 33.2671C241.312 33.2671 240.91 33.189 240.552 33.0327C240.197 32.8732 239.893 32.647 239.639 32.354C239.388 32.0578 239.196 31.703 239.062 31.2896C238.929 30.8729 238.862 30.4058 238.862 29.8882V29.3462C238.862 28.8286 238.931 28.3615 239.067 27.9448C239.204 27.5282 239.399 27.1733 239.653 26.8804C239.91 26.5841 240.218 26.3563 240.576 26.1968C240.938 26.0373 241.341 25.9575 241.787 25.9575C242.367 25.9575 242.856 26.0649 243.257 26.2798C243.657 26.4914 243.968 26.7827 244.189 27.1538C244.411 27.5249 244.544 27.9513 244.59 28.4331H243.247C243.221 28.1336 243.156 27.8797 243.052 27.6714C242.951 27.4631 242.798 27.3052 242.593 27.1978C242.391 27.0871 242.122 27.0317 241.787 27.0317C241.527 27.0317 241.297 27.0806 241.099 27.1782C240.903 27.2759 240.741 27.4224 240.61 27.6177C240.48 27.8097 240.382 28.0506 240.317 28.3403C240.252 28.6268 240.22 28.9588 240.22 29.3364V29.8882C240.22 30.2495 240.249 30.5734 240.308 30.8599C240.366 31.1463 240.457 31.3888 240.581 31.5874C240.705 31.786 240.864 31.9373 241.06 32.0415C241.255 32.1457 241.488 32.1978 241.758 32.1978C242.087 32.1978 242.354 32.1457 242.559 32.0415C242.767 31.9373 242.925 31.7843 243.032 31.5825C243.143 31.3807 243.213 31.13 243.242 30.8306ZM248.452 27.1392L246.426 33.1694H245.005L247.661 26.0601H248.569L248.452 27.1392ZM250.146 33.1694L248.11 27.1392L247.988 26.0601H248.901L251.572 33.1694H250.146ZM250.054 30.5278V31.5874H246.24V30.5278H250.054ZM252.891 26.0601H254.053L255.996 31.4116L257.935 26.0601H259.102L256.46 33.1694H255.527L252.891 26.0601ZM252.305 26.0601H253.442L253.647 30.9771V33.1694H252.305V26.0601ZM258.545 26.0601H259.688V33.1694H258.345V30.9771L258.545 26.0601ZM266.812 29.4341V29.8003C266.812 30.3374 266.74 30.8208 266.597 31.2505C266.453 31.6769 266.25 32.0399 265.986 32.3394C265.723 32.6388 265.409 32.8683 265.044 33.0278C264.679 33.1873 264.274 33.2671 263.828 33.2671C263.389 33.2671 262.985 33.1873 262.617 33.0278C262.253 32.8683 261.937 32.6388 261.67 32.3394C261.403 32.0399 261.196 31.6769 261.05 31.2505C260.903 30.8208 260.83 30.3374 260.83 29.8003V29.4341C260.83 28.8937 260.903 28.4103 261.05 27.9839C261.196 27.5575 261.401 27.1945 261.665 26.895C261.929 26.5923 262.243 26.3612 262.607 26.2017C262.975 26.0422 263.379 25.9624 263.818 25.9624C264.264 25.9624 264.67 26.0422 265.034 26.2017C265.399 26.3612 265.713 26.5923 265.977 26.895C266.243 27.1945 266.449 27.5575 266.592 27.9839C266.738 28.4103 266.812 28.8937 266.812 29.4341ZM265.454 29.8003V29.4243C265.454 29.0369 265.418 28.6968 265.347 28.4038C265.275 28.1076 265.169 27.8586 265.029 27.6567C264.889 27.4549 264.717 27.3035 264.512 27.2026C264.307 27.0985 264.076 27.0464 263.818 27.0464C263.558 27.0464 263.327 27.0985 263.125 27.2026C262.926 27.3035 262.757 27.4549 262.617 27.6567C262.477 27.8586 262.37 28.1076 262.295 28.4038C262.223 28.6968 262.188 29.0369 262.188 29.4243V29.8003C262.188 30.1844 262.223 30.5246 262.295 30.8208C262.37 31.117 262.477 31.3677 262.617 31.5728C262.76 31.7746 262.933 31.9276 263.135 32.0317C263.337 32.1359 263.568 32.188 263.828 32.188C264.089 32.188 264.32 32.1359 264.521 32.0317C264.723 31.9276 264.893 31.7746 265.029 31.5728C265.169 31.3677 265.275 31.117 265.347 30.8208C265.418 30.5246 265.454 30.1844 265.454 29.8003ZM272.109 30.8306H273.452C273.416 31.3058 273.285 31.7274 273.057 32.0952C272.829 32.4598 272.511 32.7463 272.104 32.9546C271.698 33.1629 271.204 33.2671 270.625 33.2671C270.179 33.2671 269.777 33.189 269.419 33.0327C269.064 32.8732 268.76 32.647 268.506 32.354C268.255 32.0578 268.063 31.703 267.93 31.2896C267.796 30.8729 267.729 30.4058 267.729 29.8882V29.3462C267.729 28.8286 267.798 28.3615 267.935 27.9448C268.071 27.5282 268.267 27.1733 268.521 26.8804C268.778 26.5841 269.085 26.3563 269.443 26.1968C269.805 26.0373 270.208 25.9575 270.654 25.9575C271.234 25.9575 271.724 26.0649 272.124 26.2798C272.524 26.4914 272.835 26.7827 273.057 27.1538C273.278 27.5249 273.411 27.9513 273.457 28.4331H272.114C272.088 28.1336 272.023 27.8797 271.919 27.6714C271.818 27.4631 271.665 27.3052 271.46 27.1978C271.258 27.0871 270.99 27.0317 270.654 27.0317C270.394 27.0317 270.164 27.0806 269.966 27.1782C269.771 27.2759 269.608 27.4224 269.478 27.6177C269.347 27.8097 269.25 28.0506 269.185 28.3403C269.119 28.6268 269.087 28.9588 269.087 29.3364V29.8882C269.087 30.2495 269.116 30.5734 269.175 30.8599C269.233 31.1463 269.325 31.3888 269.448 31.5874C269.572 31.786 269.731 31.9373 269.927 32.0415C270.122 32.1457 270.355 32.1978 270.625 32.1978C270.954 32.1978 271.221 32.1457 271.426 32.0415C271.634 31.9373 271.792 31.7843 271.899 31.5825C272.01 31.3807 272.08 31.13 272.109 30.8306ZM277.397 26.0601V33.1694H276.06V26.0601H277.397ZM279.604 26.0601V27.1196H273.877V26.0601H279.604ZM286.118 29.4341V29.8003C286.118 30.3374 286.047 30.8208 285.903 31.2505C285.76 31.6769 285.557 32.0399 285.293 32.3394C285.029 32.6388 284.715 32.8683 284.351 33.0278C283.986 33.1873 283.581 33.2671 283.135 33.2671C282.695 33.2671 282.292 33.1873 281.924 33.0278C281.559 32.8683 281.243 32.6388 280.977 32.3394C280.71 32.0399 280.503 31.6769 280.356 31.2505C280.21 30.8208 280.137 30.3374 280.137 29.8003V29.4341C280.137 28.8937 280.21 28.4103 280.356 27.9839C280.503 27.5575 280.708 27.1945 280.972 26.895C281.235 26.5923 281.549 26.3612 281.914 26.2017C282.282 26.0422 282.686 25.9624 283.125 25.9624C283.571 25.9624 283.976 26.0422 284.341 26.2017C284.705 26.3612 285.02 26.5923 285.283 26.895C285.55 27.1945 285.755 27.5575 285.898 27.9839C286.045 28.4103 286.118 28.8937 286.118 29.4341ZM284.761 29.8003V29.4243C284.761 29.0369 284.725 28.6968 284.653 28.4038C284.582 28.1076 284.476 27.8586 284.336 27.6567C284.196 27.4549 284.023 27.3035 283.818 27.2026C283.613 27.0985 283.382 27.0464 283.125 27.0464C282.865 27.0464 282.633 27.0985 282.432 27.2026C282.233 27.3035 282.064 27.4549 281.924 27.6567C281.784 27.8586 281.676 28.1076 281.602 28.4038C281.53 28.6968 281.494 29.0369 281.494 29.4243V29.8003C281.494 30.1844 281.53 30.5246 281.602 30.8208C281.676 31.117 281.784 31.3677 281.924 31.5728C282.067 31.7746 282.24 31.9276 282.441 32.0317C282.643 32.1359 282.874 32.188 283.135 32.188C283.395 32.188 283.626 32.1359 283.828 32.0317C284.03 31.9276 284.199 31.7746 284.336 31.5728C284.476 31.3677 284.582 31.117 284.653 30.8208C284.725 30.5246 284.761 30.1844 284.761 29.8003ZM291.074 30.5425H289.126L288.638 30.3423C288.091 30.1698 287.673 29.9093 287.383 29.561C287.093 29.2127 286.948 28.7716 286.948 28.2378C286.948 27.7658 287.052 27.3687 287.261 27.0464C287.472 26.7209 287.772 26.4751 288.159 26.3091C288.55 26.1431 289.012 26.0601 289.546 26.0601H291.978V33.1694H290.63V27.1196H289.546C289.119 27.1196 288.804 27.2254 288.599 27.437C288.394 27.6486 288.291 27.9432 288.291 28.3208C288.291 28.5845 288.337 28.8075 288.428 28.9897C288.522 29.172 288.66 29.3088 288.843 29.3999C289.028 29.491 289.258 29.5366 289.531 29.5366H291.069L291.074 30.5425ZM289.619 29.9761L288.003 33.1694H286.553L288.179 29.9761H289.619ZM296.235 26.0601V33.1694H294.897V26.0601H296.235ZM298.442 26.0601V27.1196H292.715V26.0601H298.442ZM304.048 32.1147V33.1694H300.269V32.1147H304.048ZM300.679 26.0601V33.1694H299.336V26.0601H300.679ZM303.555 28.9946V30.0249H300.269V28.9946H303.555ZM304.033 26.0601V27.1196H300.269V26.0601H304.033ZM309.683 26.0601V27.1196H306.211V26.0601H309.683ZM310.674 26.0601V33.1694H309.326V26.0601H310.674ZM305.996 26.0601H307.334L307.158 29.6099C307.132 30.134 307.085 30.5929 307.017 30.9868C306.948 31.3807 306.855 31.7176 306.738 31.9976C306.621 32.2743 306.475 32.4989 306.299 32.6714C306.123 32.8439 305.915 32.9709 305.674 33.0522C305.436 33.1304 305.16 33.1694 304.844 33.1694H304.507V32.1147L304.697 32.0952C304.863 32.0822 305.007 32.0415 305.127 31.9731C305.251 31.9048 305.356 31.8022 305.444 31.6655C305.532 31.5256 305.604 31.3465 305.659 31.1284C305.718 30.9103 305.763 30.645 305.796 30.3325C305.832 30.02 305.858 29.6538 305.874 29.2339L305.996 26.0601ZM312.939 28.7212H314.663C315.213 28.7212 315.685 28.814 316.079 28.9995C316.473 29.1818 316.774 29.4373 316.982 29.7661C317.194 30.0949 317.3 30.4806 317.3 30.9233C317.3 31.2554 317.24 31.5581 317.119 31.8315C317.002 32.105 316.829 32.3426 316.602 32.5444C316.374 32.743 316.097 32.8976 315.771 33.0083C315.446 33.1157 315.076 33.1694 314.663 33.1694H312.036V26.0601H313.384V32.1147H314.663C314.956 32.1147 315.199 32.0594 315.391 31.9487C315.583 31.8381 315.726 31.6916 315.82 31.5093C315.915 31.327 315.962 31.1284 315.962 30.9136C315.962 30.702 315.915 30.5099 315.82 30.3374C315.726 30.1649 315.583 30.0282 315.391 29.9272C315.199 29.8263 314.956 29.7759 314.663 29.7759H312.939V28.7212ZM323.018 28.9946V30.0493H319.277V28.9946H323.018ZM319.644 26.0601V33.1694H318.301V26.0601H319.644ZM324.014 26.0601V33.1694H322.671V26.0601H324.014ZM331.138 29.4341V29.8003C331.138 30.3374 331.066 30.8208 330.923 31.2505C330.78 31.6769 330.576 32.0399 330.312 32.3394C330.049 32.6388 329.735 32.8683 329.37 33.0278C329.006 33.1873 328.6 33.2671 328.154 33.2671C327.715 33.2671 327.311 33.1873 326.943 33.0278C326.579 32.8683 326.263 32.6388 325.996 32.3394C325.729 32.0399 325.522 31.6769 325.376 31.2505C325.229 30.8208 325.156 30.3374 325.156 29.8003V29.4341C325.156 28.8937 325.229 28.4103 325.376 27.9839C325.522 27.5575 325.728 27.1945 325.991 26.895C326.255 26.5923 326.569 26.3612 326.934 26.2017C327.301 26.0422 327.705 25.9624 328.145 25.9624C328.59 25.9624 328.996 26.0422 329.36 26.2017C329.725 26.3612 330.039 26.5923 330.303 26.895C330.57 27.1945 330.775 27.5575 330.918 27.9839C331.064 28.4103 331.138 28.8937 331.138 29.4341ZM329.78 29.8003V29.4243C329.78 29.0369 329.744 28.6968 329.673 28.4038C329.601 28.1076 329.495 27.8586 329.355 27.6567C329.215 27.4549 329.043 27.3035 328.838 27.2026C328.633 27.0985 328.402 27.0464 328.145 27.0464C327.884 27.0464 327.653 27.0985 327.451 27.2026C327.253 27.3035 327.083 27.4549 326.943 27.6567C326.803 27.8586 326.696 28.1076 326.621 28.4038C326.549 28.6968 326.514 29.0369 326.514 29.4243V29.8003C326.514 30.1844 326.549 30.5246 326.621 30.8208C326.696 31.117 326.803 31.3677 326.943 31.5728C327.087 31.7746 327.259 31.9276 327.461 32.0317C327.663 32.1359 327.894 32.188 328.154 32.188C328.415 32.188 328.646 32.1359 328.848 32.0317C329.049 31.9276 329.219 31.7746 329.355 31.5728C329.495 31.3677 329.601 31.117 329.673 30.8208C329.744 30.5246 329.78 30.1844 329.78 29.8003Z" fill="#081B43"/>
<path d="M215.494 28.4878H211.293C211.305 27.4214 211.393 26.5073 211.557 25.7456C211.732 24.9839 212.02 24.2983 212.418 23.689C212.816 23.0679 213.355 22.4351 214.035 21.7905C214.574 21.2866 215.055 20.812 215.477 20.3667C215.91 19.9097 216.25 19.4351 216.496 18.9429C216.742 18.439 216.865 17.8706 216.865 17.2378C216.865 16.5229 216.748 15.9253 216.514 15.4448C216.291 14.9644 215.957 14.6011 215.512 14.355C215.078 14.0972 214.533 13.9683 213.877 13.9683C213.338 13.9683 212.828 14.0796 212.348 14.3022C211.867 14.5249 211.48 14.8706 211.188 15.3394C210.895 15.7964 210.736 16.394 210.713 17.1323H206.055C206.09 15.5972 206.453 14.3198 207.145 13.3003C207.836 12.269 208.768 11.5015 209.939 10.9976C211.111 10.4819 212.424 10.2241 213.877 10.2241C215.482 10.2241 216.854 10.4937 217.99 11.0327C219.139 11.5601 220.012 12.3335 220.609 13.353C221.219 14.3726 221.523 15.603 221.523 17.0444C221.523 18.0757 221.324 19.0015 220.926 19.8218C220.527 20.6304 220 21.3862 219.344 22.0894C218.688 22.7925 217.979 23.5015 217.217 24.2163C216.549 24.814 216.098 25.4526 215.863 26.1323C215.629 26.812 215.506 27.5972 215.494 28.4878ZM210.854 33.9546C210.854 33.2515 211.088 32.6655 211.557 32.1968C212.037 31.728 212.682 31.4937 213.49 31.4937C214.299 31.4937 214.938 31.728 215.406 32.1968C215.887 32.6655 216.127 33.2515 216.127 33.9546C216.127 34.6343 215.887 35.2085 215.406 35.6772C214.938 36.146 214.299 36.3804 213.49 36.3804C212.682 36.3804 212.037 36.146 211.557 35.6772C211.088 35.2085 210.854 34.6343 210.854 33.9546Z" fill="#FE6E27"/>
<path d="M170.953 33.0601H172.301V35.2524C172.301 35.578 172.35 35.8319 172.447 36.0142C172.548 36.1965 172.7 36.325 172.901 36.3999C173.103 36.4748 173.354 36.5122 173.653 36.5122C173.784 36.5122 173.927 36.5057 174.083 36.4927C174.243 36.4797 174.404 36.4634 174.566 36.4438C174.732 36.4211 174.89 36.3934 175.04 36.3608C175.193 36.3283 175.326 36.2925 175.44 36.2534V37.313C175.326 37.3488 175.195 37.383 175.045 37.4155C174.898 37.4481 174.744 37.4757 174.581 37.4985C174.422 37.5213 174.26 37.5392 174.098 37.5522C173.938 37.562 173.79 37.5669 173.653 37.5669C173.103 37.5669 172.625 37.4871 172.218 37.3276C171.814 37.1681 171.502 36.9191 171.28 36.5806C171.062 36.2388 170.953 35.7961 170.953 35.2524V33.0601ZM175.147 33.0601H176.495V40.1694H175.147V33.0601ZM182.574 39.1147V40.1694H178.795V39.1147H182.574ZM179.205 33.0601V40.1694H177.862V33.0601H179.205ZM182.081 35.9946V37.0249H178.795V35.9946H182.081ZM182.56 33.0601V34.1196H178.795V33.0601H182.56ZM188.209 33.0601V34.1196H184.737V33.0601H188.209ZM189.2 33.0601V40.1694H187.853V33.0601H189.2ZM184.522 33.0601H185.86L185.685 36.6099C185.659 37.134 185.611 37.5929 185.543 37.9868C185.475 38.3807 185.382 38.7176 185.265 38.9976C185.147 39.2743 185.001 39.4989 184.825 39.6714C184.649 39.8439 184.441 39.9709 184.2 40.0522C183.963 40.1304 183.686 40.1694 183.37 40.1694H183.033V39.1147L183.224 39.0952C183.39 39.0822 183.533 39.0415 183.653 38.9731C183.777 38.9048 183.883 38.8022 183.971 38.6655C184.059 38.5256 184.13 38.3465 184.186 38.1284C184.244 37.9103 184.29 37.645 184.322 37.3325C184.358 37.02 184.384 36.6538 184.4 36.2339L184.522 33.0601ZM190.533 39.5396C190.533 39.3442 190.6 39.1799 190.733 39.0464C190.867 38.9129 191.048 38.8462 191.275 38.8462C191.503 38.8462 191.684 38.9129 191.817 39.0464C191.951 39.1799 192.018 39.3442 192.018 39.5396C192.018 39.7316 191.951 39.8944 191.817 40.0278C191.684 40.158 191.503 40.2231 191.275 40.2231C191.048 40.2231 190.867 40.158 190.733 40.0278C190.6 39.8944 190.533 39.7316 190.533 39.5396Z" fill="white"/>
<path d="M165.826 13.4761V24.1694H163.885V15.7393L161.314 16.5889V15.0215L165.606 13.4761H165.826ZM171.334 19.2622L169.789 18.8887L170.382 13.5054H176.249V15.1094H171.986L171.708 17.5996C171.859 17.5068 172.079 17.4141 172.367 17.3213C172.66 17.2236 172.989 17.1748 173.355 17.1748C173.863 17.1748 174.317 17.2578 174.718 17.4238C175.118 17.585 175.458 17.8193 175.736 18.127C176.019 18.4346 176.231 18.8105 176.373 19.2549C176.52 19.6943 176.593 20.1924 176.593 20.749C176.593 21.2373 176.52 21.6963 176.373 22.126C176.231 22.5508 176.014 22.9292 175.721 23.2612C175.428 23.5884 175.06 23.8472 174.615 24.0376C174.171 24.2231 173.648 24.3159 173.048 24.3159C172.594 24.3159 172.157 24.25 171.737 24.1182C171.322 23.9814 170.948 23.7837 170.616 23.5249C170.284 23.2612 170.018 22.939 169.818 22.5581C169.623 22.1772 169.515 21.7402 169.496 21.2471H171.407C171.441 21.5742 171.529 21.8525 171.671 22.082C171.812 22.3115 171.998 22.4873 172.228 22.6094C172.462 22.7314 172.733 22.7925 173.041 22.7925C173.319 22.7925 173.558 22.7412 173.758 22.6387C173.963 22.5312 174.132 22.3823 174.264 22.1919C174.396 22.0015 174.493 21.7769 174.557 21.5181C174.62 21.2593 174.652 20.9761 174.652 20.6685C174.652 20.3706 174.615 20.0996 174.542 19.8555C174.469 19.6064 174.356 19.3916 174.205 19.2109C174.054 19.0303 173.863 18.8911 173.634 18.7935C173.409 18.6958 173.146 18.647 172.843 18.647C172.438 18.647 172.125 18.708 171.905 18.8301C171.69 18.9521 171.5 19.0962 171.334 19.2622ZM183.368 13.4175H183.631V14.9775H183.507C182.916 14.9775 182.396 15.0679 181.947 15.2485C181.502 15.4292 181.131 15.6831 180.833 16.0103C180.541 16.3325 180.318 16.7158 180.167 17.1602C180.016 17.5996 179.94 18.0806 179.94 18.603V20.3315C179.94 20.7368 179.981 21.0933 180.064 21.4009C180.152 21.7036 180.272 21.96 180.423 22.1699C180.58 22.375 180.76 22.5288 180.965 22.6313C181.175 22.7339 181.405 22.7852 181.654 22.7852C181.903 22.7852 182.127 22.7339 182.328 22.6313C182.528 22.5288 182.699 22.3848 182.84 22.1992C182.987 22.0088 183.097 21.7866 183.17 21.5327C183.248 21.2788 183.287 21.0005 183.287 20.6978C183.287 20.3999 183.25 20.124 183.177 19.8701C183.104 19.6162 182.997 19.394 182.855 19.2036C182.713 19.0083 182.538 18.8594 182.328 18.7568C182.123 18.6494 181.888 18.5957 181.625 18.5957C181.283 18.5957 180.978 18.6763 180.709 18.8374C180.44 18.9937 180.228 19.1987 180.072 19.4526C179.916 19.7065 179.83 19.9751 179.815 20.2583L179.164 19.936C179.188 19.521 179.276 19.1401 179.427 18.7935C179.583 18.4468 179.791 18.144 180.05 17.8853C180.313 17.6265 180.624 17.4263 180.98 17.2847C181.341 17.1431 181.742 17.0723 182.181 17.0723C182.689 17.0723 183.133 17.1699 183.514 17.3652C183.895 17.5557 184.21 17.8169 184.459 18.1489C184.713 18.481 184.903 18.8643 185.03 19.2988C185.157 19.7285 185.221 20.1826 185.221 20.6611C185.221 21.1738 185.138 21.6523 184.972 22.0967C184.811 22.541 184.576 22.9292 184.269 23.2612C183.961 23.5933 183.59 23.8521 183.155 24.0376C182.721 24.2231 182.232 24.3159 181.69 24.3159C181.119 24.3159 180.606 24.2085 180.152 23.9937C179.703 23.7788 179.317 23.481 178.995 23.1001C178.673 22.7192 178.426 22.2749 178.255 21.7671C178.084 21.2593 177.999 20.71 177.999 20.1191V19.3428C177.999 18.5078 178.114 17.7314 178.343 17.0137C178.573 16.2959 178.912 15.6685 179.361 15.1313C179.815 14.5894 180.377 14.1694 181.046 13.8716C181.715 13.5688 182.489 13.4175 183.368 13.4175ZM193.775 22.646V24.1694H186.554V22.8657L190.018 19.123C190.379 18.7129 190.665 18.3564 190.875 18.0537C191.085 17.751 191.234 17.4775 191.322 17.2334C191.415 16.9844 191.461 16.7476 191.461 16.5229C191.461 16.1958 191.402 15.9102 191.285 15.666C191.168 15.417 190.997 15.2241 190.772 15.0874C190.553 14.9507 190.282 14.8823 189.959 14.8823C189.603 14.8823 189.298 14.9653 189.044 15.1313C188.795 15.2925 188.604 15.5171 188.473 15.8052C188.346 16.0933 188.282 16.4229 188.282 16.7939H186.341C186.341 16.1641 186.488 15.5903 186.781 15.0728C187.074 14.5503 187.494 14.1328 188.041 13.8203C188.587 13.5078 189.237 13.3516 189.989 13.3516C190.721 13.3516 191.341 13.4736 191.849 13.7178C192.357 13.957 192.743 14.2988 193.006 14.7432C193.27 15.1875 193.402 15.7173 193.402 16.3325C193.402 16.6743 193.346 17.0112 193.233 17.3433C193.121 17.6753 192.962 18.0049 192.757 18.332C192.557 18.6543 192.318 18.9814 192.04 19.3135C191.761 19.6455 191.451 19.9849 191.109 20.3315L189.029 22.646H193.775ZM197.042 19.2622L195.497 18.8887L196.09 13.5054H201.957V15.1094H197.694L197.416 17.5996C197.567 17.5068 197.787 17.4141 198.075 17.3213C198.368 17.2236 198.697 17.1748 199.063 17.1748C199.571 17.1748 200.025 17.2578 200.426 17.4238C200.826 17.585 201.166 17.8193 201.444 18.127C201.727 18.4346 201.939 18.8105 202.081 19.2549C202.228 19.6943 202.301 20.1924 202.301 20.749C202.301 21.2373 202.228 21.6963 202.081 22.126C201.939 22.5508 201.722 22.9292 201.429 23.2612C201.136 23.5884 200.768 23.8472 200.323 24.0376C199.879 24.2231 199.356 24.3159 198.756 24.3159C198.302 24.3159 197.865 24.25 197.445 24.1182C197.03 23.9814 196.656 23.7837 196.324 23.5249C195.992 23.2612 195.726 22.939 195.526 22.5581C195.331 22.1772 195.223 21.7402 195.204 21.2471H197.115C197.149 21.5742 197.237 21.8525 197.379 22.082C197.521 22.3115 197.706 22.4873 197.936 22.6094C198.17 22.7314 198.441 22.7925 198.749 22.7925C199.027 22.7925 199.266 22.7412 199.466 22.6387C199.671 22.5312 199.84 22.3823 199.972 22.1919C200.104 22.0015 200.201 21.7769 200.265 21.5181C200.328 21.2593 200.36 20.9761 200.36 20.6685C200.36 20.3706 200.323 20.0996 200.25 19.8555C200.177 19.6064 200.064 19.3916 199.913 19.2109C199.762 19.0303 199.571 18.8911 199.342 18.7935C199.117 18.6958 198.854 18.647 198.551 18.647C198.146 18.647 197.833 18.708 197.613 18.8301C197.398 18.9521 197.208 19.0962 197.042 19.2622Z" fill="white"/>
<path fill-rule="evenodd" clip-rule="evenodd" d="M145.724 31.0806C145.743 33.7779 145.723 36.4812 145.723 39.1815C145.723 40.7815 145.501 41.6105 146.596 42.3511C147.469 42.9408 148.723 43.1664 149.972 43.1694C151.149 43.1725 152.486 42.9561 153.324 42.406C154.523 41.6212 154.262 40.8196 154.262 39.183C154.262 36.53 154.157 33.6773 154.268 31.0502C155.486 30.7027 155.906 30.753 156.849 30.0597C157.508 29.5735 157.961 28.8086 157.977 27.6139C158.008 25.2808 157.977 22.9265 157.977 20.5904C157.977 19.5207 158.119 18.3153 157.701 17.3994C157.047 15.9685 155.729 15.4017 154.14 15.5007C153.525 15.5388 153.428 15.9015 153.165 16.3312C152.902 16.7579 151.972 18.2101 151.847 18.614C151.705 18.5119 151.811 18.6124 151.695 18.4829C151.074 17.7865 152.595 16.2245 151.689 15.7842C151.445 15.6653 149.282 15.6821 148.766 15.7019C148.272 15.7202 148.348 15.7948 148.047 16.0036C147.977 16.9819 148.855 17.9907 148.21 18.5865C147.949 18.2894 147.773 17.8886 147.546 17.529C147.296 17.1328 147.107 16.8021 146.87 16.4044C146.637 16.0143 146.518 15.5601 145.964 15.5038C144.403 15.3468 143.044 15.9609 142.364 17.2806C141.87 18.2406 142.022 19.3424 142.022 20.5127C142.022 22.8503 142.003 25.1955 142.022 27.5331C142.046 30.7545 145.111 30.7302 145.724 31.0806ZM149.623 6.19299C147.24 6.43986 145.322 8.30658 145.522 10.8529C145.701 13.1494 147.771 14.9933 150.376 14.8089C152.766 14.6397 154.667 12.6343 154.472 10.0956C154.306 7.91952 152.169 5.92937 149.623 6.19299Z" fill="#FE6E27"/>
<rect x="60" y="41.1694" width="72" height="2" fill="#F2D08C"/>
<path d="M64.6953 26.1304L67.5391 18.7944H69.875L65.9531 28.0366C65.8229 28.3335 65.6745 28.62 65.5078 28.896C65.3411 29.172 65.1406 29.4194 64.9062 29.6382C64.6771 29.8517 64.3984 30.021 64.0703 30.146C63.7474 30.271 63.3568 30.3335 62.8984 30.3335C62.7786 30.3335 62.6354 30.3283 62.4688 30.3179C62.3021 30.3127 62.1745 30.3049 62.0859 30.2944V28.6069C62.1484 28.6226 62.25 28.633 62.3906 28.6382C62.5365 28.6434 62.6406 28.646 62.7031 28.646C63.0052 28.646 63.2448 28.5991 63.4219 28.5054C63.6042 28.4064 63.7474 28.2736 63.8516 28.1069C63.9609 27.9351 64.0573 27.7397 64.1406 27.521L64.6953 26.1304ZM62.6797 18.7944L65.4062 24.7554L66.0469 27.0757L64.4141 27.1226L60.3516 18.7944H62.6797ZM75.6016 26.021H72.6719V24.3335H75.6016C76.0807 24.3335 76.4688 24.2554 76.7656 24.0991C77.0677 23.9377 77.2891 23.7189 77.4297 23.4429C77.5703 23.1616 77.6406 22.8413 77.6406 22.4819C77.6406 22.133 77.5703 21.8075 77.4297 21.5054C77.2891 21.2033 77.0677 20.9585 76.7656 20.771C76.4688 20.5835 76.0807 20.4897 75.6016 20.4897H73.375V30.1694H71.2266V18.7944H75.6016C76.487 18.7944 77.2422 18.9533 77.8672 19.271C78.4974 19.5835 78.9766 20.0184 79.3047 20.5757C79.638 21.1278 79.8047 21.758 79.8047 22.4663C79.8047 23.2007 79.638 23.8335 79.3047 24.3647C78.9766 24.896 78.4974 25.3049 77.8672 25.5913C77.2422 25.8778 76.487 26.021 75.6016 26.021ZM90.7031 24.1929V24.7788C90.7031 25.6382 90.5885 26.4116 90.3594 27.0991C90.1302 27.7814 89.8047 28.3621 89.3828 28.8413C88.9609 29.3205 88.4583 29.6877 87.875 29.9429C87.2917 30.1981 86.6432 30.3257 85.9297 30.3257C85.2266 30.3257 84.5807 30.1981 83.9922 29.9429C83.4089 29.6877 82.9036 29.3205 82.4766 28.8413C82.0495 28.3621 81.7188 27.7814 81.4844 27.0991C81.25 26.4116 81.1328 25.6382 81.1328 24.7788V24.1929C81.1328 23.3283 81.25 22.5549 81.4844 21.8726C81.7188 21.1903 82.0469 20.6095 82.4688 20.1304C82.8906 19.646 83.3932 19.2762 83.9766 19.021C84.5651 18.7658 85.2109 18.6382 85.9141 18.6382C86.6276 18.6382 87.276 18.7658 87.8594 19.021C88.4427 19.2762 88.9453 19.646 89.3672 20.1304C89.7943 20.6095 90.1224 21.1903 90.3516 21.8726C90.5859 22.5549 90.7031 23.3283 90.7031 24.1929ZM88.5312 24.7788V24.1772C88.5312 23.5575 88.474 23.0132 88.3594 22.5444C88.2448 22.0705 88.0755 21.672 87.8516 21.3491C87.6276 21.0262 87.3516 20.784 87.0234 20.6226C86.6953 20.4559 86.3255 20.3726 85.9141 20.3726C85.4974 20.3726 85.1276 20.4559 84.8047 20.6226C84.487 20.784 84.2161 21.0262 83.9922 21.3491C83.7682 21.672 83.5964 22.0705 83.4766 22.5444C83.362 23.0132 83.3047 23.5575 83.3047 24.1772V24.7788C83.3047 25.3934 83.362 25.9377 83.4766 26.4116C83.5964 26.8856 83.7682 27.2866 83.9922 27.6147C84.2214 27.9377 84.4974 28.1825 84.8203 28.3491C85.1432 28.5158 85.513 28.5991 85.9297 28.5991C86.3464 28.5991 86.7161 28.5158 87.0391 28.3491C87.362 28.1825 87.6328 27.9377 87.8516 27.6147C88.0755 27.2866 88.2448 26.8856 88.3594 26.4116C88.474 25.9377 88.5312 25.3934 88.5312 24.7788ZM96.8828 25.0991H93.9766L93.9609 23.5835H96.4531C96.8802 23.5835 97.237 23.5236 97.5234 23.4038C97.8099 23.284 98.026 23.1095 98.1719 22.8804C98.3229 22.6512 98.3984 22.3726 98.3984 22.0444C98.3984 21.6799 98.3281 21.383 98.1875 21.1538C98.0521 20.9246 97.8385 20.758 97.5469 20.6538C97.2552 20.5444 96.8854 20.4897 96.4375 20.4897H94.6719V30.1694H92.5234V18.7944H96.4375C97.0833 18.7944 97.6589 18.8569 98.1641 18.9819C98.6745 19.1017 99.1068 19.2892 99.4609 19.5444C99.8151 19.7996 100.083 20.12 100.266 20.5054C100.453 20.8908 100.547 21.3491 100.547 21.8804C100.547 22.3491 100.438 22.7814 100.219 23.1772C100.005 23.5679 99.6745 23.8856 99.2266 24.1304C98.7839 24.3752 98.2214 24.5158 97.5391 24.5522L96.8828 25.0991ZM96.7891 30.1694H93.3438L94.2422 28.4819H96.7891C97.2161 28.4819 97.5677 28.4116 97.8438 28.271C98.125 28.1304 98.3333 27.9377 98.4688 27.6929C98.6094 27.4429 98.6797 27.1564 98.6797 26.8335C98.6797 26.4793 98.6172 26.172 98.4922 25.9116C98.3724 25.6512 98.1797 25.4507 97.9141 25.3101C97.6536 25.1694 97.3099 25.0991 96.8828 25.0991H94.6484L94.6641 23.5835H97.5078L98 24.1694C98.6562 24.1746 99.1901 24.3049 99.6016 24.5601C100.018 24.8153 100.326 25.1434 100.523 25.5444C100.721 25.9455 100.82 26.3778 100.82 26.8413C100.82 27.5705 100.661 28.1825 100.344 28.6772C100.031 29.172 99.5729 29.5444 98.9688 29.7944C98.3698 30.0444 97.6432 30.1694 96.7891 30.1694ZM110.219 28.4819V30.1694H104.172V28.4819H110.219ZM104.828 18.7944V30.1694H102.68V18.7944H104.828ZM109.43 23.4897V25.1382H104.172V23.4897H109.43ZM110.195 18.7944V20.4897H104.172V18.7944H110.195ZM119.258 23.4897V25.1772H113.273V23.4897H119.258ZM113.859 18.7944V30.1694H111.711V18.7944H113.859ZM120.852 18.7944V30.1694H118.703V18.7944H120.852ZM124.461 23.0522H127.219C128.099 23.0522 128.854 23.2007 129.484 23.4976C130.115 23.7892 130.596 24.1981 130.93 24.7241C131.268 25.2502 131.438 25.8674 131.438 26.5757C131.438 27.1069 131.341 27.5913 131.148 28.0288C130.961 28.4663 130.685 28.8465 130.32 29.1694C129.956 29.4871 129.513 29.7345 128.992 29.9116C128.471 30.0835 127.88 30.1694 127.219 30.1694H123.016V18.7944H125.172V28.4819H127.219C127.688 28.4819 128.076 28.3934 128.383 28.2163C128.69 28.0392 128.919 27.8049 129.07 27.5132C129.221 27.2215 129.297 26.9038 129.297 26.5601C129.297 26.2215 129.221 25.9142 129.07 25.6382C128.919 25.3621 128.69 25.1434 128.383 24.9819C128.076 24.8205 127.688 24.7397 127.219 24.7397H124.461V23.0522Z" fill="white"/>
<rect x="60" y="6.16943" width="72" height="2" fill="#F2D08C"/>
<rect x="13" y="6.16943" width="37" height="37" rx="4" fill="#F2D08C"/>
<path d="M34.9883 15.9663H35.4102V18.4624H35.2109C34.2656 18.4624 33.4336 18.6069 32.7148 18.896C32.0039 19.1851 31.4102 19.5913 30.9336 20.1147C30.4648 20.6304 30.1094 21.2437 29.8672 21.9546C29.625 22.6577 29.5039 23.4272 29.5039 24.2632V27.0288C29.5039 27.6772 29.5703 28.2476 29.7031 28.7397C29.8438 29.2241 30.0352 29.6343 30.2773 29.9702C30.5273 30.2983 30.8164 30.5444 31.1445 30.7085C31.4805 30.8726 31.8477 30.9546 32.2461 30.9546C32.6445 30.9546 33.0039 30.8726 33.3242 30.7085C33.6445 30.5444 33.918 30.314 34.1445 30.0171C34.3789 29.7124 34.5547 29.3569 34.6719 28.9507C34.7969 28.5444 34.8594 28.0991 34.8594 27.6147C34.8594 27.1382 34.8008 26.6968 34.6836 26.2905C34.5664 25.8843 34.3945 25.5288 34.168 25.2241C33.9414 24.9116 33.6602 24.6733 33.3242 24.5093C32.9961 24.3374 32.6211 24.2515 32.1992 24.2515C31.6523 24.2515 31.1641 24.3804 30.7344 24.6382C30.3047 24.8882 29.9648 25.2163 29.7148 25.6226C29.4648 26.0288 29.3281 26.4585 29.3047 26.9116L28.2617 26.396C28.3008 25.7319 28.4414 25.1226 28.6836 24.5679C28.9336 24.0132 29.2656 23.5288 29.6797 23.1147C30.1016 22.7007 30.5977 22.3804 31.168 22.1538C31.7461 21.9272 32.3867 21.814 33.0898 21.814C33.9023 21.814 34.6133 21.9702 35.2227 22.2827C35.832 22.5874 36.3359 23.0054 36.7344 23.5366C37.1406 24.0679 37.4453 24.6812 37.6484 25.3765C37.8516 26.064 37.9531 26.7905 37.9531 27.5562C37.9531 28.3765 37.8203 29.1421 37.5547 29.853C37.2969 30.564 36.9219 31.1851 36.4297 31.7163C35.9375 32.2476 35.3438 32.6616 34.6484 32.9585C33.9531 33.2554 33.1719 33.4038 32.3047 33.4038C31.3906 33.4038 30.5703 33.2319 29.8438 32.8882C29.125 32.5444 28.5078 32.0679 27.9922 31.4585C27.4766 30.8491 27.082 30.1382 26.8086 29.3257C26.5352 28.5132 26.3984 27.6343 26.3984 26.689V25.4468C26.3984 24.1108 26.582 22.8687 26.9492 21.7202C27.3164 20.5718 27.8594 19.5679 28.5781 18.7085C29.3047 17.8413 30.2031 17.1694 31.2734 16.6929C32.3438 16.2085 33.582 15.9663 34.9883 15.9663Z" fill="#081B43"/>
</svg>
