<svg width="24" height="20" viewBox="0 0 24 20" fill="none" xmlns="http://www.w3.org/2000/svg">
<path d="M18.1019 20L10.4115 12.312C7.53624 14.2085 3.69198 13.6219 1.51344 10.9541C-0.665094 8.28626 -0.47113 4.40284 1.9624 1.96533C4.39981 -0.468809 8.28418 -0.663587 10.9529 1.51451C13.6217 3.69261 14.2088 7.53679 12.3118 10.412L19.9995 18.1013L18.1019 20ZM6.7097 2.68532C4.78844 2.68411 3.13386 4.04003 2.75782 5.92387C2.38178 7.80772 3.38901 9.69483 5.16353 10.4311C6.93805 11.1674 8.98565 10.5479 10.0541 8.95135C11.1226 7.35481 10.9143 5.22595 9.55674 3.86667C8.80364 3.10846 7.77843 2.68306 6.7097 2.68532ZM21.333 8H18.666V5.33333H15.9989V2.66667H18.666V0H21.333V2.66667H24V5.33333H21.333V8Z" fill="#464C4C"/>
</svg>
