<svg width="8" height="8" viewBox="0 0 8 8" fill="none" xmlns="http://www.w3.org/2000/svg">
<path d="M3.996 8C1.78738 7.99779 -0.00147023 6.20595 9.06736e-07 3.99733C0.00147386 1.78872 1.79271 -0.000735017 4.00133 2.26489e-07C6.20995 0.000735923 8 1.79138 8 4C7.99868 6.21015 6.20615 8.00088 3.996 8ZM0.800001 4.0688C0.818927 5.82929 2.25644 7.24382 4.01702 7.2344C5.77759 7.22489 7.19982 5.795 7.19982 4.0344C7.19982 2.2738 5.77759 0.843908 4.01702 0.834397C2.25644 0.824981 0.818927 2.2395 0.800001 4V4.0688ZM4.4 6H3.6V5.2H4.4V6ZM4.4 4.4H3.6V2H4.4V4.4Z" fill="white"/>
</svg>
