<svg width="43" height="50" viewBox="0 0 43 50" fill="none" xmlns="http://www.w3.org/2000/svg">
<path fill-rule="evenodd" clip-rule="evenodd" d="M43.0006 0.000488281L32.1344 23.8648H23.9512L30.7247 9.2309C31.5647 7.41644 33.9664 0.0237056 43.0006 0.000488281V0.000488281Z" fill="#081B43"/>
<path fill-rule="evenodd" clip-rule="evenodd" d="M9.89984 0.000438062C13.9107 0.000438062 17.3641 2.90304 18.9196 7.07689L18.6871 7.6271L21.9165 0.000438062H26.1158L20.7692 12.0204C20.9413 14.0298 21.2218 16.1378 21.9438 18.1993C22.4435 19.6261 23.5186 20.1723 24.7038 20.1601L23.0779 23.8647C21.1848 23.8647 19.3374 21.4756 18.8553 19.3334L18.8139 19.1503L17.1616 11.7225C16.9424 10.7369 16.68 9.58655 16.3638 8.97896V8.97983C15.3548 5.83411 12.8408 3.60525 9.89896 3.60525C6.06732 3.60525 2.96124 7.38573 2.96124 12.0489C2.96124 16.7121 6.06732 20.4925 9.89896 20.4925C13.4819 20.4925 16.4299 17.1869 16.7979 12.9452L17.9488 19.0618C16.1525 22.1103 13.2168 24.0969 9.8994 24.0969C4.43217 24.0969 0 18.7026 0 12.0485C0 5.3943 4.43217 0 9.8994 0L9.89984 0.000438062Z" fill="#081B43"/>
<path fill-rule="evenodd" clip-rule="evenodd" d="M20.343 31.9578H28.4764L21.2098 47.6969C20.5248 49.1802 19.6332 50.0011 18.364 50.0011C17.0947 50.0011 16.2031 49.1802 15.5181 47.6969L8.25146 31.9578H16.385L18.364 36.4238L20.343 31.9578V31.9578Z" fill="#081B43"/>
<path d="M8.70683 26.0004H8.27977L6.8335 29.6964V29.7546H7.79416L7.96498 29.2767H9.01106L9.18188 29.7546H10.1478V29.6964L8.70683 26.0004ZM22.0764 28.889H22.2781V26.9028H22.0764V26.0372H22.2781H23.2119H23.4135V26.9028H23.2119V28.889H23.4135V29.7546H23.2119H22.2781H22.0764V28.889V28.889ZM8.4933 27.5507L8.73325 28.4588H8.24235L8.4933 27.5507V27.5507ZM11.5769 28.889V26.0377H10.6537V29.7546H12.6124V28.889H11.5769ZM15.2105 26.9028V26.0372H13.2037V29.7542H14.1375V28.3629H15.0713V27.5026H14.1375V26.9024H15.2105V26.9028ZM17.248 26H16.821L15.3747 29.6959V29.7542H16.3353L16.5062 29.2763H17.5522L17.7231 29.7542H18.689V29.6959L17.248 26V26ZM17.0345 27.5507L17.2744 28.4588H16.7835L17.0345 27.5507ZM20.7746 26.0372L20.4488 27.0886L20.1661 28.1557L19.883 27.0938L19.5414 26.0372H18.5591V26.0797L19.9574 29.7862H20.3845L21.7559 26.0797V26.0372H20.7741H20.7746ZM26.1678 26.0372H23.8036V26.9028H24.5243V29.7542H25.4475V26.9028H26.1678V26.0372ZM28.0346 26H27.6075L26.1612 29.6959V29.7542H27.1219L27.2927 29.2763H28.3388L28.5096 29.7542H29.4755V29.6959L28.0346 26ZM27.821 27.5507L28.061 28.4588H27.5701L27.821 27.5507V27.5507Z" fill="#081B43"/>
</svg>
