<svg width="18" height="41" viewBox="0 0 18 41" fill="none" xmlns="http://www.w3.org/2000/svg">
<path fill-rule="evenodd" clip-rule="evenodd" d="M4.19041 27.6049C4.2118 30.5937 4.18863 33.5894 4.18863 36.5816C4.18863 38.3547 3.9391 39.2733 5.1707 40.094C6.15277 40.7475 7.56438 40.9974 8.96887 41.0008C10.2931 41.0042 11.7974 40.7644 12.7403 40.1548C14.0895 39.2851 13.7954 38.3969 13.7954 36.5833C13.7954 33.6434 13.6778 30.4823 13.8026 27.5711C15.1732 27.1861 15.6455 27.2418 16.706 26.4735C17.4475 25.9348 17.9572 25.0871 17.975 23.7632C18.0107 21.1779 17.975 18.569 17.975 15.9803C17.975 14.7949 18.1355 13.4592 17.6649 12.4443C16.9288 10.8587 15.4459 10.2305 13.6582 10.3403C12.9667 10.3825 12.8579 10.7844 12.5621 11.2606C12.2662 11.7334 11.22 13.3427 11.0792 13.7902C10.9187 13.677 11.0382 13.7885 10.9081 13.6449C10.2094 12.8732 11.9204 11.1424 10.9009 10.6544C10.6264 10.5226 8.19355 10.5412 7.6125 10.5632C7.05641 10.5834 7.14197 10.6662 6.80332 10.8975C6.7249 11.9816 7.71232 13.0995 6.9869 13.7598C6.69282 13.4305 6.49498 12.9864 6.2401 12.5878C5.95849 12.1488 5.74639 11.7824 5.47904 11.3416C5.21704 10.9093 5.08336 10.4061 4.45954 10.3437C2.70394 10.1697 1.17469 10.8502 0.410062 12.3126C-0.146029 13.3764 0.0250757 14.5973 0.0250757 15.8942C0.0250757 18.4845 0.00368757 21.0834 0.0250757 23.6737C0.0518108 27.2435 3.50064 27.2165 4.19041 27.6049ZM8.57675 0.0261063C5.89611 0.299665 3.73769 2.36824 3.96227 5.18994C4.16367 7.73471 6.49319 9.77796 9.42336 9.57364C12.1129 9.3862 14.2517 7.16396 14.0325 4.35069C13.8454 1.93933 11.441 -0.266027 8.57675 0.0261063Z" fill="#2E6FA5"/>
</svg>
