<svg width="22" height="52" viewBox="0 0 22 52" fill="none" xmlns="http://www.w3.org/2000/svg">
<path fill-rule="evenodd" clip-rule="evenodd" d="M5.12098 34.5063C5.14712 38.2241 5.1188 41.9503 5.1188 45.6723C5.1188 47.8777 4.81384 49.0204 6.31903 50.0412C7.51927 50.8541 9.24446 51.1649 10.9609 51.1691C12.5794 51.1733 14.4179 50.8751 15.5702 50.1168C17.2191 49.0351 16.8597 47.9302 16.8597 45.6744C16.8597 42.0175 16.716 38.0854 16.8684 34.4642C18.5435 33.9853 19.1208 34.0547 20.4168 33.0989C21.323 32.4289 21.946 31.3745 21.9678 29.7277C22.0113 26.5119 21.9678 23.2667 21.9678 20.0467C21.9678 18.5722 22.1638 16.9108 21.5888 15.6484C20.6891 13.6761 18.8768 12.8947 16.692 13.0312C15.8468 13.0837 15.7139 13.5836 15.3524 14.176C14.9908 14.7641 13.7121 16.7658 13.54 17.3225C13.344 17.1817 13.4899 17.3204 13.3309 17.1418C12.477 16.1819 14.5682 14.0289 13.3222 13.4219C12.9867 13.2581 10.0134 13.2812 9.30327 13.3085C8.62365 13.3337 8.72821 13.4366 8.31434 13.7244C8.21849 15.0729 9.42526 16.4634 8.5387 17.2846C8.17928 16.8751 7.93749 16.3226 7.626 15.8269C7.28183 15.2808 7.02262 14.825 6.69588 14.2768C6.37567 13.7391 6.2123 13.1131 5.4499 13.0354C3.3043 12.8191 1.43534 13.6656 0.500856 15.4846C-0.178767 16.8078 0.0303477 18.3265 0.0303477 19.9396C0.0303477 23.1617 0.00420837 26.3943 0.0303477 29.6164C0.0630219 34.0568 4.27799 34.0232 5.12098 34.5063ZM10.4817 0.201662C7.20559 0.541936 4.5677 3.11499 4.84216 6.62485C5.08831 9.79023 7.93532 12.3318 11.5164 12.0776C14.8034 11.8445 17.4174 9.08028 17.1494 5.58092C16.9207 2.58148 13.9822 -0.161716 10.4817 0.201662Z" fill="#2E6FA5"/>
</svg>
