<svg width="16" height="38" viewBox="0 0 16 38" fill="none" xmlns="http://www.w3.org/2000/svg">
<path fill-rule="evenodd" clip-rule="evenodd" d="M3.72435 25.0806C3.74336 27.7779 3.72277 30.4812 3.72277 33.1815C3.72277 34.7815 3.50098 35.6105 4.59566 36.3511C5.46856 36.9408 6.72324 37.1664 7.9716 37.1694C9.14866 37.1725 10.4857 36.9561 11.3238 36.406C12.523 35.6212 12.2616 34.8196 12.2616 33.183C12.2616 30.53 12.1571 27.6773 12.268 25.0502C13.4862 24.7027 13.906 24.753 14.8486 24.0597C15.5076 23.5735 15.9607 22.8086 15.9766 21.6139C16.0083 19.2808 15.9766 16.9265 15.9766 14.5904C15.9766 13.5207 16.1191 12.3153 15.7009 11.3994C15.0466 9.96854 13.7286 9.40167 12.1396 9.50072C11.525 9.53881 11.4283 9.90149 11.1653 10.3312C10.9024 10.7579 9.97244 12.2101 9.84729 12.614C9.70471 12.5119 9.81085 12.6124 9.69521 12.4829C9.0742 11.7865 10.595 10.2245 9.68887 9.78415C9.4449 9.66529 7.28247 9.68206 6.76602 9.70187C6.27175 9.72015 6.34779 9.79482 6.04679 10.0036C5.97709 10.9819 6.85473 11.9907 6.20996 12.5865C5.94857 12.2894 5.77272 11.8886 5.54618 11.529C5.29588 11.1328 5.10736 10.8021 4.86973 10.4044C4.63685 10.0143 4.51804 9.56015 3.96356 9.50376C2.40313 9.34681 1.04388 9.96092 0.364259 11.2806C-0.130012 12.2406 0.0220711 13.3424 0.0220711 14.5127C0.0220711 16.8503 0.00306063 19.1955 0.0220711 21.5331C0.0458341 24.7545 3.11126 24.7302 3.72435 25.0806ZM7.62307 0.192992C5.24043 0.439857 3.32196 2.30658 3.52157 4.85295C3.70059 7.1494 5.77114 8.99327 8.37557 8.80888C10.7661 8.63974 12.6672 6.63434 12.4723 4.09559C12.306 1.91952 10.1689 -0.070635 7.62307 0.192992Z" fill="#FE6E27"/>
</svg>
