<svg width="13" height="13" viewBox="0 0 13 13" fill="none" xmlns="http://www.w3.org/2000/svg">
<path d="M6.50142 11.8959C9.48085 11.8959 11.8961 9.4806 11.8961 6.50118C11.8961 3.52175 9.48085 1.10645 6.50142 1.10645C3.52199 1.10645 1.10669 3.52175 1.10669 6.50118C1.10669 9.4806 3.52199 11.8959 6.50142 11.8959Z" stroke="#2E6FA5" stroke-width="0.8" stroke-miterlimit="22.9256"/>
<path d="M6.09662 8.19924C6.09389 8.0926 6.09115 8.01331 6.09115 7.96135C6.09115 7.64965 6.1349 7.38169 6.22513 7.15474C6.29075 6.98248 6.39466 6.81022 6.53957 6.63796C6.64621 6.51219 6.83761 6.32626 7.11104 6.08564C7.3872 5.84229 7.56493 5.65089 7.64696 5.50597C7.72898 5.36106 7.77 5.20247 7.77 5.03021C7.77 4.7185 7.64969 4.44781 7.40907 4.21266C7.16846 3.97751 6.87315 3.85994 6.52317 3.85994C6.18412 3.85994 5.90249 3.96657 5.67554 4.17985C5.4486 4.39312 5.30095 4.7267 5.22985 5.18059L4.41504 5.08216C4.48886 4.47788 4.70487 4.01306 5.06853 3.69315C5.43219 3.37324 5.91069 3.21191 6.50676 3.21191C7.13838 3.21191 7.64149 3.38417 8.01882 3.72869C8.39341 4.07321 8.58208 4.49156 8.58208 4.98099C8.58208 5.26536 8.51646 5.52511 8.38248 5.763C8.2485 6.00361 7.99147 6.29071 7.60594 6.63523C7.34618 6.86491 7.17666 7.0317 7.09737 7.14107C7.01807 7.25044 6.95792 7.37349 6.92237 7.51567C6.88409 7.65512 6.86222 7.88479 6.85675 8.20197H6.09662V8.19924ZM5.9517 9.79059V8.88554H6.85675V9.79059H5.9517Z" fill="#2E6FA5"/>
</svg>
