<svg width="20" height="20" viewBox="0 0 20 20" fill="none" xmlns="http://www.w3.org/2000/svg">
<path fill-rule="evenodd" clip-rule="evenodd" d="M5.93589 9.84068C5.85629 9.51944 6.35427 9.45484 6.40734 9.73171C6.46597 10.0387 5.99976 10.0979 5.93589 9.84068ZM6.91921 10.3956C6.96395 10.3349 6.95223 10.3298 6.94853 10.1839L9.3172 8.36343C9.56527 8.15741 10.5835 7.68703 10.8658 7.61557C10.8241 8.22797 10.7245 8.86924 10.6547 9.48521C10.514 10.7273 10.1426 11.8246 11.2425 12.6761C11.5581 12.9202 11.709 12.9125 11.9583 13.0217C12.0888 13.0789 13.9645 14.9539 14.3477 15.3174C14.4655 15.429 14.5226 15.4332 14.5732 15.6294C14.8929 16.864 15.2178 18.0986 15.5075 19.3344C15.655 19.6092 15.6389 19.7024 15.9098 19.8596C16.1684 20.0096 16.4063 20.0275 16.7506 19.9685C17.6663 19.5208 17.3689 18.917 17.1304 18.001C16.9299 17.2308 16.7463 16.4773 16.5445 15.6988C16.1965 14.3564 16.4195 14.7282 15.5118 13.8392C15.0009 13.3388 14.4976 12.8663 14.032 12.412C14.1431 12.1512 14.3819 12.014 14.4689 11.415L14.8993 7.58967C15.0181 6.56644 15.0157 5.98381 14.3893 5.39018C13.8957 4.92247 13.0543 4.6328 12.2008 4.97606C11.5396 5.24192 10.847 5.57863 10.1938 5.87575C8.62885 6.58757 8.71832 6.47296 7.47613 7.50185L5.86153 8.77814C5.68937 8.92045 5.58292 8.79332 5.29814 8.88204C5.08709 8.94784 4.99916 9.04936 4.85661 9.15207C4.7369 9.1479 4.79552 9.16844 4.72271 9.08121C4.58942 8.90705 4.44255 8.74033 4.30155 8.57212L3.67521 7.81861C3.49779 7.61528 3.42189 7.65517 3.22936 7.80164L1.67709 9.01393C1.73756 9.4075 2.64468 10.8892 3.00721 11.3852C3.07139 11.4727 3.06645 11.4849 3.14019 11.5287C3.38672 11.3992 3.50458 11.1473 3.84336 11.5522C3.96894 11.7023 4.1047 11.8708 3.87267 12.0813L3.71285 12.2307C3.87792 12.5216 5.50733 13.925 5.92355 14.1114L7.59677 12.8112C7.78838 12.6082 7.39128 12.2646 7.11699 11.9354L6.43635 11.1092C6.52613 10.9761 6.94266 10.7713 6.91921 10.3953V10.3956ZM5.18953 9.60459C5.27654 9.51408 5.37157 9.43251 5.49529 9.40006C5.66098 9.90796 5.81772 10.1893 6.37279 10.3161C6.34996 10.4927 6.18057 10.6091 6.04357 10.6647L5.18953 9.60459ZM19.5762 8.7311C20.5352 8.10352 19.7314 6.56822 18.5164 7.20563L16.0684 8.48698L15.2539 7.38931C15.182 7.31667 15.2514 7.35924 15.1736 7.33692C15.1397 7.76532 15.0789 8.1973 15.0311 8.62303L14.8845 9.92999C14.8944 10.1836 15.2782 10.5623 15.6815 10.6043C16.0446 10.6421 16.5596 10.3438 16.7552 10.2244C16.8728 10.1527 19.2976 8.913 19.5762 8.7308V8.7311ZM11.8855 3.74978C11.9849 3.90191 12.3505 4.14187 12.5072 4.20945C13.5893 4.74801 14.8929 4.3458 15.5152 3.39521C16.2418 2.28563 15.7343 0.989694 14.9358 0.436545C13.8904 -0.287789 12.5483 -0.0564663 11.8374 0.731578C11.0355 1.61995 11.0605 2.94953 11.8855 3.75008V3.74978ZM10.817 16.2007C10.8753 16.1659 10.8395 16.2064 10.8784 16.1572C10.9139 16.1117 10.8843 16.156 10.9124 16.0894C11.0355 15.9679 11.1228 15.6327 11.1947 15.4612L11.7319 14.1185C12.0404 13.3647 12.1444 13.3727 11.5847 13.1438C10.8269 12.8339 10.656 12.3441 10.481 12.1753C10.3989 12.2766 9.664 14.2126 9.51282 14.6017C9.39403 14.9074 9.45574 14.8151 8.81119 15.0462C8.31567 15.2239 5.65697 16.1316 5.44284 16.312C4.91647 16.7559 5.12381 17.5464 5.65018 17.8069C6.17038 18.0644 6.79426 17.7232 7.47675 17.4785L10.0222 16.5693C10.3024 16.4707 10.6421 16.3707 10.817 16.2004V16.2007ZM3.41264 11.5156C3.32871 11.5659 2.89737 11.8883 2.84646 11.9491C2.68047 12.1468 3.01369 12.5177 3.22782 12.4075C3.28027 12.3805 3.73784 12.0235 3.78721 11.9693C3.95906 11.7803 3.61998 11.3915 3.41294 11.5159L3.41264 11.5156ZM5.50578 14.1045C5.06148 13.8535 4.08557 12.992 3.76746 12.6299C3.68292 12.5335 3.64713 12.476 3.53821 12.3781C3.33951 12.4349 3.15809 12.8112 2.8008 12.3819C2.70731 12.2694 2.5987 12.1795 2.65794 11.9756C2.70361 11.8181 2.84214 11.7999 2.94365 11.6704C2.5734 11.192 2.18279 10.6007 1.88967 10.0446C1.82118 9.91481 1.65827 9.53135 1.58082 9.43698C1.45185 9.50545 1.22693 9.69777 1.08808 9.80793C-0.0763554 10.7302 -0.208103 10.6073 0.236198 11.1381L3.67243 15.2608C3.75327 15.3567 3.85015 15.401 3.99023 15.3248L5.00656 14.5329C5.13708 14.4302 5.4376 14.2552 5.5064 14.1045H5.50578Z" fill="white"/>
</svg>
