<svg width="12" height="12" viewBox="0 0 12 12" fill="none" xmlns="http://www.w3.org/2000/svg">
<path d="M10.7801 12L6.69338 7.91445C4.84491 9.13377 2.37351 8.75659 0.972965 7.0414C-0.427577 5.32621 -0.302881 2.82948 1.26159 1.26236C2.82855 -0.302607 5.32575 -0.427834 7.04143 0.972513C8.75712 2.37286 9.13455 4.84437 7.91501 6.6929L12 10.7802L10.7801 12ZM4.31354 1.72525C3.0784 1.72447 2.0147 2.59622 1.77295 3.80738C1.5312 5.01855 2.17873 6.23181 3.31954 6.7052C4.46035 7.17859 5.77671 6.78026 6.46361 5.75381C7.15051 4.72737 7.01663 3.35868 6.14386 2.48476C5.6597 1.99729 5.00061 1.7238 4.31354 1.72525Z" fill="#2E6FA5"/>
</svg>
