<svg width="175" height="175" viewBox="0 0 175 175" fill="none" xmlns="http://www.w3.org/2000/svg">
<path fill-rule="evenodd" clip-rule="evenodd" d="M87.4988 0C135.823 0 174.998 39.1751 174.998 87.4997C174.998 135.824 135.823 174.999 87.4988 174.999C39.1747 174.999 0 135.824 0 87.4997C0 39.1751 39.1747 0 87.4988 0ZM87.4988 11.5909C129.423 11.5909 163.409 45.5774 163.409 87.4997C163.409 129.424 129.423 163.408 87.4988 163.408C45.5747 163.408 11.5885 129.422 11.5885 87.4997C11.5885 45.5752 45.5747 11.5909 87.4988 11.5909ZM82.8988 132.121C77.5379 125.705 69.5931 133.939 63.3885 133.433C73.8667 141.39 76.3954 132.558 82.8988 132.121ZM88.7011 132.121C94.0621 125.705 102.007 133.939 108.211 133.433C97.7333 141.39 95.2046 132.558 88.7011 132.121ZM90.8161 136.739C96.4529 140.7 94.7977 143.958 96.2437 147.765C89.8644 145.176 92.6253 140.415 90.8161 136.739ZM86.246 137.367C82.3241 142.3 82.7425 147.289 84.9333 150.277C85.2 145.174 89.0092 142.813 86.246 137.367ZM73.5057 143.537C76.4943 140.498 78.8368 136.397 83.731 135.139C79.7517 138.339 78.4575 142.967 73.5057 143.537ZM63.9563 67.1708C62.5793 67.1708 61.423 66.8627 60.4828 66.2489C59.5425 65.6328 58.8828 64.7983 58.4989 63.7385L60.8414 62.3684C61.3839 63.7845 62.4483 64.4926 64.0368 64.4926C64.8046 64.4926 65.3655 64.3546 65.7241 64.0765C66.0805 63.7983 66.2598 63.4489 66.2598 63.0259C66.2598 62.5362 66.0414 62.1569 65.6046 61.8857C65.1678 61.6144 64.3885 61.3201 63.2621 61.0029C62.6414 60.8167 62.1149 60.6328 61.6851 60.4466C61.2552 60.2604 60.8253 60.0144 60.3954 59.7017C59.9655 59.3914 59.6391 58.9983 59.4138 58.5201C59.1885 58.0442 59.0759 57.4879 59.0759 56.8534C59.0759 55.5959 59.5218 54.5936 60.4161 53.8465C61.308 53.0994 62.3839 52.7246 63.6414 52.7246C64.7655 52.7246 65.754 52.9982 66.6069 53.5476C67.4598 54.0971 68.1241 54.8603 68.6023 55.8396L66.3011 57.1684C65.7448 55.9776 64.8598 55.3821 63.6414 55.3821C63.0736 55.3821 62.6253 55.5109 62.3012 55.7684C61.977 56.0258 61.8161 56.3592 61.8161 56.7707C61.8161 57.2074 61.9977 57.5615 62.3609 57.8327C62.7241 58.104 63.423 58.3983 64.4552 58.7155C64.8782 58.8488 65.2 58.95 65.4184 59.0236C65.6368 59.0971 65.9333 59.2098 66.3103 59.3615C66.6874 59.5132 66.9793 59.6557 67.1839 59.7891C67.3885 59.9224 67.623 60.0994 67.8874 60.3247C68.1517 60.55 68.354 60.7822 68.492 61.019C68.6322 61.2581 68.7494 61.5454 68.8483 61.8834C68.9471 62.2213 68.9977 62.5868 68.9977 62.9845C68.9977 64.2673 68.531 65.2857 67.5977 66.0397C66.6644 66.7937 65.4506 67.1708 63.9563 67.1708ZM75.9609 67.1708C74.4138 67.1708 73.1425 66.734 72.1517 65.8604C71.1586 64.9868 70.6644 63.8167 70.6644 62.3477V53.0005H73.3839V62.1293C73.3839 62.8558 73.5931 63.4328 74.0092 63.8558C74.4253 64.2788 75.0782 64.4903 75.9632 64.4903C76.8506 64.4903 77.5012 64.2788 77.9172 63.8558C78.3333 63.4328 78.5425 62.8558 78.5425 62.1293V53.0005H81.2805V62.3477C81.2805 63.8167 80.7839 64.9868 79.7931 65.8604C78.8023 66.734 77.5241 67.1708 75.9632 67.1708H75.9609ZM88.9195 53.0028C90.2552 53.0028 91.3793 53.4534 92.292 54.3522C93.2046 55.2511 93.6621 56.3569 93.6621 57.6649C93.6621 58.9753 93.2046 60.0787 92.292 60.9776C91.3793 61.8765 90.2552 62.327 88.9195 62.327H86.4782V66.8903H83.7402V53.0005H88.9195V53.0028ZM88.9195 59.7707C89.5011 59.7707 89.9839 59.5684 90.3678 59.1661C90.7517 58.7615 90.9425 58.2626 90.9425 57.6672C90.9425 57.058 90.7494 56.5569 90.3678 56.1592C89.9839 55.7615 89.5011 55.5638 88.9195 55.5638H86.4782V59.7707H88.9195ZM98.1862 64.2742H104.039V66.8926H95.4483V53.0028H103.94V55.6212H98.1862V58.5776H103.444V61.1569H98.1862V64.2719V64.2742ZM113.584 66.8926L110.786 62.0719H108.703V66.8926H105.966V53.0028H111.522C112.805 53.0028 113.897 53.4534 114.795 54.3522C115.694 55.2511 116.145 56.3362 116.145 57.6075C116.145 58.4672 115.901 59.2649 115.411 59.9983C114.922 60.7316 114.274 61.2857 113.467 61.6558L116.543 66.8949H113.586L113.584 66.8926ZM108.703 55.5615V59.6695H111.522C112.037 59.6695 112.48 59.4672 112.851 59.0649C113.221 58.6603 113.407 58.1753 113.407 57.6075C113.407 57.0396 113.221 56.5569 112.851 56.1592C112.48 55.7615 112.037 55.5638 111.522 55.5638H108.703V55.5615ZM33.3885 91.1618C31.2989 91.1618 29.5724 90.4675 28.2092 89.079C26.846 87.6905 26.1655 85.9778 26.1655 83.9387C26.1655 81.8881 26.846 80.1709 28.2092 78.7893C29.5724 77.4076 31.2989 76.7157 33.3885 76.7157C34.646 76.7157 35.8046 77.0099 36.8713 77.5984C37.9356 78.187 38.7655 78.9847 39.3609 79.9893L37 81.3594C36.6552 80.7364 36.1655 80.2514 35.531 79.9019C34.8965 79.5502 34.1816 79.3755 33.3885 79.3755C32.0391 79.3755 30.9517 79.7985 30.1241 80.6445C29.2966 81.4904 28.8851 82.5893 28.8851 83.9387C28.8851 85.2744 29.2988 86.3663 30.1241 87.2123C30.9517 88.0583 32.0391 88.4813 33.3885 88.4813C34.1816 88.4813 34.8989 88.3066 35.5402 87.9549C36.1816 87.6031 36.669 87.125 36.9977 86.5158L39.3586 87.8859C38.7632 88.8905 37.9356 89.6882 36.8782 90.2767C35.8207 90.8652 34.6552 91.1595 33.3862 91.1595L33.3885 91.1618ZM52.5954 89.0675C51.1931 90.4629 49.4874 91.1618 47.4759 91.1618C45.4644 91.1618 43.7609 90.4629 42.3655 89.0675C40.9701 87.6721 40.2713 85.9618 40.2713 83.9387C40.2713 81.9157 40.9701 80.2054 42.3655 78.81C43.7609 77.4145 45.4644 76.7157 47.4759 76.7157C49.4874 76.7157 51.1931 77.4145 52.5954 78.81C53.9977 80.2054 54.6989 81.9157 54.6989 83.9387C54.6989 85.9618 53.9977 87.6721 52.5954 89.0675ZM44.2805 87.2031C45.1402 88.056 46.2046 88.4836 47.4759 88.4836C48.7448 88.4836 49.8115 88.056 50.6713 87.2031C51.531 86.3503 51.9609 85.2629 51.9609 83.9387C51.9609 82.6169 51.531 81.5249 50.6713 80.6652C49.8115 79.8054 48.7471 79.3755 47.4759 79.3755C46.2069 79.3755 45.1402 79.8054 44.2805 80.6652C43.4207 81.5249 42.9908 82.6169 42.9908 83.9387C42.9908 85.2629 43.4207 86.3503 44.2805 87.2031ZM64.6598 76.9939H67.3977V90.8836H65.3149L59.3632 82.3916V90.8836H56.6253V76.9939H58.708L64.6598 85.4675V76.9939ZM75.4942 76.9939C77.4 76.9939 78.9908 77.6628 80.2667 78.9985C81.5425 80.3341 82.1816 81.9824 82.1816 83.9387C82.1816 85.8974 81.5425 87.5434 80.2667 88.879C78.9908 90.2147 77.4 90.8836 75.4942 90.8836H69.977V76.9939H75.4942ZM75.4942 88.2652C76.6989 88.2652 77.6759 87.8652 78.4299 87.0652C79.1839 86.2652 79.5609 85.2238 79.5609 83.941C79.5609 82.6583 79.1839 81.6169 78.4299 80.8169C77.6759 80.0169 76.6965 79.6169 75.4942 79.6169H72.7149V88.2675H75.4942V88.2652ZM89.2046 91.1618C87.6575 91.1618 86.3862 90.725 85.3954 89.8514C84.4023 88.9779 83.908 87.8077 83.908 86.3388V76.9915H86.6276V86.1204C86.6276 86.8468 86.8368 87.4238 87.2529 87.8468C87.669 88.2698 88.3218 88.4813 89.2069 88.4813C90.0942 88.4813 90.7448 88.2698 91.1609 87.8468C91.577 87.4238 91.7862 86.8468 91.7862 86.1204V76.9915H94.5241V86.3388C94.5241 87.8077 94.0276 88.9779 93.0368 89.8514C92.046 90.725 90.7678 91.1618 89.2069 91.1618H89.2046ZM103.572 91.1618C101.483 91.1618 99.7563 90.4675 98.3931 89.079C97.0299 87.6905 96.3494 85.9778 96.3494 83.9387C96.3494 81.8881 97.0299 80.1709 98.3931 78.7893C99.7563 77.4076 101.483 76.7157 103.572 76.7157C104.83 76.7157 105.989 77.0099 107.055 77.5984C108.12 78.187 108.949 78.9847 109.545 79.9893L107.184 81.3594C106.839 80.7364 106.349 80.2514 105.715 79.9019C105.08 79.5502 104.366 79.3755 103.572 79.3755C102.223 79.3755 101.136 79.7985 100.308 80.6445C99.4805 81.4904 99.069 82.5893 99.069 83.9387C99.069 85.2744 99.4828 86.3663 100.308 87.2123C101.136 88.0583 102.223 88.4813 103.572 88.4813C104.366 88.4813 105.083 88.3066 105.724 87.9549C106.366 87.6031 106.853 87.125 107.182 86.5158L109.543 87.8859C108.947 88.8905 108.12 89.6882 107.062 90.2767C106.005 90.8652 104.839 91.1595 103.57 91.1595L103.572 91.1618ZM120.359 76.9939V79.6123H116.609V90.8836H113.871V79.6123H110.14V76.9939H120.359ZM121.887 76.9939H124.625V90.8836H121.887V76.9939ZM130.639 90.8836L125.977 76.9939H128.954L132.347 87.6698L135.72 76.9939H138.715L134.032 90.8836H130.639ZM142.784 88.2652H148.637V90.8836H140.046V76.9939H148.538V79.6123H142.784V82.5686H148.041V85.1479H142.784V88.2629V88.2652ZM33.3793 100.985V103.603H29.6299V114.875H26.892V103.603H23.1609V100.985H33.3793ZM37.646 112.256H43.4989V114.875H34.908V100.985H43.4V103.603H37.646V106.56H42.9035V109.139H37.646V112.254V112.256ZM51.9126 115.153C49.823 115.153 48.0965 114.459 46.7333 113.07C45.3701 111.682 44.6897 109.969 44.6897 107.93C44.6897 105.879 45.3701 104.162 46.7333 102.78C48.0965 101.399 49.823 100.707 51.9126 100.707C53.1701 100.707 54.3287 101.001 55.3954 101.589C56.4598 102.178 57.2897 102.976 57.8851 103.98L55.5241 105.35C55.1793 104.727 54.6897 104.242 54.0552 103.893C53.4207 103.541 52.7057 103.367 51.9126 103.367C50.5632 103.367 49.4759 103.79 48.6483 104.635C47.8207 105.481 47.4092 106.58 47.4092 107.93C47.4092 109.265 47.823 110.357 48.6483 111.203C49.4759 112.049 50.5632 112.472 51.9126 112.472C52.7057 112.472 53.423 112.298 54.0644 111.946C54.7057 111.594 55.1931 111.116 55.5218 110.507L57.8828 111.877C57.2874 112.882 56.4598 113.679 55.4023 114.268C54.3448 114.856 53.1793 115.151 51.9103 115.151L51.9126 115.153ZM67.469 100.985H70.1885V114.875H67.469V109.121H62.3103V114.875H59.5724V100.985H62.3103V106.502H67.469V100.985ZM80.8023 100.985H83.5402V114.875H81.4575L75.5058 106.383V114.875H72.7678V100.985H74.8506L80.8023 109.459V100.985ZM97.8069 113.059C96.4046 114.454 94.6989 115.153 92.6874 115.153C90.6759 115.153 88.9724 114.454 87.577 113.059C86.1816 111.663 85.4828 109.953 85.4828 107.93C85.4828 105.907 86.1816 104.196 87.577 102.801C88.9724 101.406 90.6759 100.707 92.6874 100.707C94.6989 100.707 96.4046 101.406 97.8069 102.801C99.2092 104.196 99.9103 105.907 99.9103 107.93C99.9103 109.953 99.2092 111.663 97.8069 113.059ZM89.492 111.194C90.3517 112.047 91.4161 112.475 92.6874 112.475C93.9563 112.475 95.023 112.047 95.8828 111.194C96.7425 110.341 97.1724 109.254 97.1724 107.93C97.1724 106.608 96.7425 105.516 95.8828 104.656C95.023 103.796 93.9586 103.367 92.6874 103.367C91.4184 103.367 90.3517 103.796 89.492 104.656C88.6322 105.516 88.2023 106.608 88.2023 107.93C88.2023 109.254 88.6322 110.341 89.492 111.194ZM104.572 112.256H109.871V114.875H101.834V100.985H104.572V112.256ZM122.253 113.061C120.851 114.456 119.145 115.155 117.133 115.155C115.122 115.155 113.418 114.456 112.023 113.061C110.628 111.665 109.929 109.955 109.929 107.932C109.929 105.909 110.628 104.199 112.023 102.803C113.418 101.408 115.122 100.709 117.133 100.709C119.145 100.709 120.851 101.408 122.253 102.803C123.655 104.199 124.356 105.909 124.356 107.932C124.356 109.955 123.655 111.665 122.253 113.061ZM113.938 111.196C114.798 112.049 115.862 112.477 117.133 112.477C118.402 112.477 119.469 112.049 120.329 111.196C121.189 110.344 121.618 109.256 121.618 107.932C121.618 106.61 121.189 105.518 120.329 104.658C119.469 103.799 118.405 103.369 117.133 103.369C115.864 103.369 114.798 103.799 113.938 104.658C113.078 105.518 112.648 106.61 112.648 107.932C112.648 109.256 113.078 110.344 113.938 111.196ZM139.913 107.417V108.488C139.913 110.472 139.278 112.079 138.007 113.311C136.738 114.541 135.097 115.157 133.085 115.157C130.943 115.157 129.166 114.459 127.756 113.063C126.347 111.668 125.644 109.964 125.644 107.953C125.644 105.927 126.343 104.215 127.738 102.812C129.133 101.41 130.862 100.709 132.926 100.709C134.223 100.709 135.407 101.003 136.478 101.592C137.549 102.18 138.384 102.964 138.979 103.944L136.637 105.293C136.306 104.725 135.807 104.261 135.138 103.904C134.469 103.548 133.726 103.369 132.906 103.369C131.582 103.369 130.494 103.801 129.641 104.668C128.789 105.534 128.361 106.629 128.361 107.953C128.361 109.263 128.795 110.344 129.66 111.196C130.526 112.049 131.674 112.477 133.103 112.477C134.161 112.477 135.037 112.242 135.733 111.773C136.428 111.305 136.901 110.659 137.152 109.84H132.945V107.419H139.91L139.913 107.417ZM151.839 100.987L147.076 109.461V114.879H144.356V109.461L139.614 100.987H142.708L145.724 106.783L148.74 100.987H151.834H151.839ZM87.4966 21.7956L89.3862 27.9497L95.5379 27.9382L90.554 31.729L92.4667 37.8762L87.4966 34.0624L82.5264 37.8762L84.4391 31.729L79.4552 27.9382L85.6069 27.9497L87.4966 21.7956ZM51.6161 35.8279L52.5793 38.9705L55.7195 38.9636L53.177 40.8992L54.154 44.0372L51.6184 42.0924L49.0828 44.0372L50.0575 40.8992L47.5149 38.9636L50.6552 38.9705L51.6184 35.8279H51.6161ZM123.377 35.8279L124.34 38.9705L127.48 38.9636L124.938 40.8992L125.915 44.0372L123.379 42.0924L120.844 44.0372L121.818 40.8992L119.276 38.9636L122.416 38.9705L123.379 35.8279H123.377ZM107.405 26.6899L108.862 31.4394L113.607 31.4302L109.761 34.3544L111.237 39.0969L107.402 36.1544L103.568 39.0969L105.044 34.3544L101.2 31.4302L105.945 31.4394L107.402 26.6899H107.405ZM67.5885 26.6899L69.046 31.4394L73.7908 31.4302L69.9448 34.3544L71.4207 39.0969L67.5862 36.1544L63.7517 39.0969L65.2276 34.3544L61.3839 31.4302L66.1287 31.4394L67.5862 26.6899H67.5885ZM87.4966 7.43455C131.717 7.43455 167.566 43.2832 167.566 87.502C167.566 131.723 131.717 167.569 87.4966 167.569C43.2759 167.569 7.42759 131.721 7.42759 87.502C7.42759 43.2809 43.2759 7.43455 87.4966 7.43455Z" fill="#081B43"/>
</svg>
