<svg width="175" height="175" viewBox="0 0 175 175" fill="none" xmlns="http://www.w3.org/2000/svg">
<path fill-rule="evenodd" clip-rule="evenodd" d="M87.5 0C135.825 0 175 39.1744 175 87.4996C175 135.825 135.825 174.999 87.5 174.999C39.1753 174.999 0 135.825 0 87.4996C0 39.1744 39.1753 0 87.5 0ZM87.5 11.5903C129.423 11.5903 163.41 45.5757 163.41 87.4996C163.41 129.423 129.423 163.409 87.5 163.409C45.5765 163.409 11.5902 129.423 11.5902 87.4996C11.5902 45.5757 45.5765 11.5903 87.5 11.5903ZM82.8998 132.119C77.5391 125.703 69.5945 133.939 63.3899 133.434C73.8674 141.39 76.3965 132.558 82.8998 132.119ZM88.7023 132.119C94.063 125.703 102.008 133.939 108.212 133.434C97.7347 141.39 95.2056 132.558 88.7023 132.119ZM90.817 136.738C96.454 140.7 94.7986 143.957 96.2437 147.764C89.8636 145.173 92.6255 140.413 90.817 136.738ZM86.2466 137.367C82.3235 142.299 82.743 147.288 84.9323 150.278C85.1987 145.175 89.0073 142.812 86.2466 137.367ZM73.5077 143.537C76.4961 140.498 78.8397 136.396 83.7337 135.139C79.7533 138.339 78.4589 142.965 73.5077 143.537ZM71.795 53.0026V66.893H69.0767V57.8842L65.1673 64.3327H64.8499L60.9405 57.9041V66.893H58.2022V53.0026H61.0201L65.0092 59.5707L68.9771 53.0026H71.795ZM86.0624 65.077C84.6597 66.4723 82.9533 67.1706 80.9432 67.1706C78.9331 67.1706 77.2292 66.4723 75.8339 65.077C74.4374 63.6818 73.7404 61.9716 73.7404 59.9478C73.7404 57.924 74.4387 56.2138 75.8339 54.8186C77.2292 53.4233 78.9331 52.725 80.9432 52.725C82.9533 52.725 84.661 53.4233 86.0624 54.8186C87.4639 56.2151 88.1659 57.924 88.1659 59.9478C88.1659 61.9716 87.4652 63.6818 86.0624 65.077ZM77.7482 63.2126C78.6082 64.0651 79.6724 64.4921 80.9432 64.4921C82.2127 64.4921 83.2782 64.0651 84.1382 63.2126C84.9983 62.3587 85.4277 61.2709 85.4277 59.9478C85.4277 58.6247 84.9983 57.5332 84.1382 56.6731C83.2782 55.813 82.214 55.3836 80.9432 55.3836C79.6737 55.3836 78.6082 55.813 77.7482 56.6731C76.8881 57.5332 76.4587 58.6247 76.4587 59.9478C76.4587 61.2709 76.8881 62.3587 77.7482 63.2126ZM98.1268 53.0026H100.865V66.893H98.7815L92.8283 58.3995V66.893H90.0901V53.0026H92.1737L98.1268 61.4763V53.0026ZM115.132 65.077C113.73 66.4723 112.023 67.1706 110.013 67.1706C108.003 67.1706 106.299 66.4723 104.904 65.077C103.507 63.6818 102.81 61.9716 102.81 59.9478C102.81 57.924 103.509 56.2138 104.904 54.8186C106.299 53.4233 108.003 52.725 110.013 52.725C112.023 52.725 113.731 53.4233 115.132 54.8186C116.534 56.2151 117.236 57.924 117.236 59.9478C117.236 61.9716 116.535 63.6818 115.132 65.077ZM106.818 63.2126C107.678 64.0651 108.742 64.4921 110.013 64.4921C111.283 64.4921 112.348 64.0651 113.208 63.2126C114.068 62.3587 114.498 61.2709 114.498 59.9478C114.498 58.6247 114.068 57.5332 113.208 56.6731C112.348 55.813 111.284 55.3836 110.013 55.3836C108.744 55.3836 107.678 55.813 106.818 56.6731C105.958 57.5332 105.529 58.6247 105.529 59.9478C105.529 61.2709 105.958 62.3587 106.818 63.2126ZM60.7226 90.8838L59.8887 88.3833H54.3525L53.5186 90.8838H50.5626L55.4242 76.9934H58.8171L63.6986 90.8838H60.7226ZM55.2263 85.8243H59.0361L57.1306 80.1486L55.225 85.8243H55.2263ZM73.2239 76.9934V79.6134H69.4738V90.8838H66.7355V79.6134H63.0053V76.9934H73.2251H73.2239ZM85.6455 89.0679C84.2428 90.4631 82.5363 91.1614 80.5262 91.1614C78.5161 91.1614 76.8122 90.4631 75.417 89.0679C74.0205 87.6726 73.3235 85.9624 73.3235 83.9386C73.3235 81.9148 74.0217 80.2047 75.417 78.8094C76.8122 77.4141 78.5161 76.7159 80.5262 76.7159C82.5363 76.7159 84.244 77.4141 85.6455 78.8094C87.047 80.2059 87.7489 81.9148 87.7489 83.9386C87.7489 85.9624 87.0482 87.6726 85.6455 89.0679ZM77.3312 87.2034C78.1913 88.056 79.2555 88.4829 80.5262 88.4829C81.7958 88.4829 82.8612 88.056 83.7213 87.2034C84.5813 86.3495 85.0107 85.2617 85.0107 83.9386C85.0107 82.6156 84.5813 81.524 83.7213 80.6639C82.8612 79.8039 81.797 79.3745 80.5262 79.3745C79.2567 79.3745 78.1913 79.8039 77.3312 80.6639C76.4712 81.524 76.0418 82.6156 76.0418 83.9386C76.0418 85.2617 76.4712 86.3495 77.3312 87.2034ZM103.266 76.9934V90.8838H100.548V81.875L96.6382 88.3236H96.3208L92.4114 81.8949V90.8838H89.6732V76.9934H92.491L96.4801 83.5615L100.448 76.9934H103.266ZM105.846 76.9934H108.584V90.8838H105.846V76.9934ZM117.752 91.1614C115.663 91.1614 113.936 90.4669 112.573 89.0778C111.211 87.6888 110.53 85.9761 110.53 83.9386C110.53 81.8887 111.211 80.1723 112.573 78.7895C113.936 77.4067 115.663 76.7159 117.752 76.7159C119.01 76.7159 120.17 77.0096 121.235 77.5983C122.299 78.1871 123.129 78.9836 123.725 79.9893L121.364 81.3585C121.021 80.7361 120.53 80.2507 119.896 79.8997C119.261 79.5487 118.547 79.3745 117.752 79.3745C116.403 79.3745 115.314 79.7976 114.488 80.644C113.661 81.4904 113.248 82.5882 113.248 83.9374C113.248 85.2742 113.661 86.3645 114.488 87.2121C115.314 88.0585 116.402 88.4816 117.752 88.4816C118.547 88.4816 119.263 88.3061 119.906 87.9564C120.547 87.6054 121.033 87.1262 121.364 86.5176L123.725 87.8867C123.131 88.8924 122.304 89.689 121.245 90.2777C120.187 90.8664 119.023 91.1614 117.752 91.1614ZM33.3802 100.983V103.603H29.6301V114.873H26.8919V103.603H23.1617V100.983H33.3815H33.3802ZM37.6469 112.253H43.5005V114.873H34.9086V100.983H43.4009V103.603H37.6469V106.559H42.9055V109.138H37.6469V112.253ZM51.9143 115.151C49.8245 115.151 48.0982 114.456 46.7353 113.067C45.3724 111.678 44.6916 109.966 44.6916 107.928C44.6916 105.878 45.3724 104.162 46.7353 102.779C48.0982 101.396 49.8245 100.705 51.9143 100.705C53.1714 100.705 54.3314 100.999 55.3968 101.588C56.461 102.177 57.2912 102.973 57.8873 103.979L55.5262 105.348C55.1827 104.726 54.6923 104.24 54.0576 103.889C53.4228 103.538 52.7084 103.364 51.9143 103.364C50.5651 103.364 49.476 103.787 48.6496 104.634C47.8231 105.48 47.4099 106.578 47.4099 107.927C47.4099 109.264 47.8231 110.354 48.6496 111.202C49.476 112.048 50.5638 112.471 51.9143 112.471C52.7084 112.471 53.4253 112.296 54.0675 111.946C54.7085 111.595 55.1952 111.116 55.5262 110.507L57.8873 111.876C57.2924 112.882 56.466 113.679 55.4068 114.267C54.3488 114.856 53.1851 115.151 51.9143 115.151ZM67.4711 100.983H70.1894V114.873H67.4711V109.119H62.3121V114.873H59.5738V100.983H62.3121V106.499H67.4711V100.983ZM80.805 100.983H83.5433V114.873H81.4597L75.5066 106.38V114.873H72.7684V100.983H74.8519L80.805 109.457V100.983ZM97.8107 113.057C96.408 114.453 94.7015 115.151 92.6914 115.151C90.6813 115.151 88.9774 114.453 87.5822 113.057C86.1857 111.662 85.4887 109.952 85.4887 107.928C85.4887 105.904 86.1869 104.194 87.5822 102.799C88.9774 101.404 90.6813 100.705 92.6914 100.705C94.7015 100.705 96.4092 101.404 97.8107 102.799C99.2121 104.195 99.9141 105.904 99.9141 107.928C99.9141 109.952 99.2134 111.662 97.8107 113.057ZM89.4964 111.193C90.3565 112.046 91.4206 112.472 92.6914 112.472C93.961 112.472 95.0264 112.046 95.8864 111.193C96.7465 110.339 97.1759 109.251 97.1759 107.928C97.1759 106.605 96.7465 105.514 95.8864 104.654C95.0264 103.793 93.9622 103.364 92.6914 103.364C91.4219 103.364 90.3565 103.793 89.4964 104.654C88.6364 105.514 88.207 106.605 88.207 107.928C88.207 109.251 88.6364 110.339 89.4964 111.193ZM104.577 112.255H109.875V114.875H101.838V100.984H104.577V112.255ZM122.257 113.059C120.854 114.454 119.148 115.152 117.138 115.152C115.127 115.152 113.424 114.454 112.028 113.059C110.632 111.663 109.935 109.953 109.935 107.929C109.935 105.906 110.633 104.195 112.028 102.8C113.424 101.405 115.127 100.707 117.138 100.707C119.148 100.707 120.855 101.405 122.257 102.8C123.658 104.197 124.36 105.906 124.36 107.929C124.36 109.953 123.66 111.663 122.257 113.059ZM113.943 111.194C114.803 112.047 115.867 112.474 117.138 112.474C118.407 112.474 119.473 112.047 120.333 111.194C121.193 110.34 121.622 109.253 121.622 107.929C121.622 106.606 121.193 105.515 120.333 104.655C119.473 103.795 118.408 103.365 117.138 103.365C115.868 103.365 114.803 103.795 113.943 104.655C113.083 105.515 112.653 106.606 112.653 107.929C112.653 109.253 113.083 110.34 113.943 111.194ZM139.917 107.414V108.486C139.917 110.47 139.282 112.078 138.013 113.308C136.743 114.537 135.103 115.153 133.091 115.153C130.948 115.153 129.173 114.455 127.763 113.06C126.354 111.665 125.65 109.961 125.65 107.951C125.65 105.927 126.348 104.213 127.743 102.811C129.138 101.409 130.869 100.708 132.932 100.708C134.229 100.708 135.413 101.002 136.484 101.59C137.556 102.179 138.389 102.963 138.985 103.942L136.644 105.291C136.313 104.722 135.814 104.259 135.145 103.902C134.477 103.545 133.732 103.367 132.912 103.367C131.589 103.367 130.501 103.8 129.648 104.666C128.795 105.532 128.368 106.626 128.368 107.949C128.368 109.259 128.801 110.34 129.667 111.194C130.534 112.047 131.681 112.474 133.11 112.474C134.168 112.474 135.044 112.24 135.739 111.769C136.433 111.3 136.906 110.655 137.158 109.835H132.951V107.414H139.916H139.917ZM151.843 100.985L147.081 109.459V114.876H144.363V109.459L139.621 100.985H142.716L145.732 106.779L148.748 100.985H151.843ZM87.5013 21.7952L89.3906 27.9501L95.5417 27.9376L90.5581 31.7289L92.4699 37.8775L87.5 34.0651L82.5301 37.8775L84.4419 31.7289L79.4583 27.9376L85.6094 27.9501L87.4988 21.7952H87.5013ZM51.6218 35.8275L52.5864 38.9691L55.7266 38.9628L53.1826 40.8983L54.1584 44.0361L51.6218 42.0907L49.0852 44.0361L50.061 40.8983L47.5182 38.9628L50.6584 38.9691L51.623 35.8275H51.6218ZM123.382 35.8275L124.347 38.9691L127.487 38.9628L124.943 40.8983L125.919 44.0361L123.382 42.0907L120.845 44.0361L121.821 40.8983L119.278 38.9628L122.419 38.9691L123.383 35.8275H123.382ZM107.409 26.688L108.867 31.4364L113.613 31.4264L109.768 34.3514L111.244 39.0948L107.411 36.1536L103.577 39.0948L105.052 34.3514L101.207 31.4264L105.953 31.4364L107.411 26.688H107.409ZM67.5931 26.688L69.0506 31.4364L73.7964 31.4264L69.9517 34.3514L71.4279 39.0948L67.5944 36.1536L63.7608 39.0948L65.2357 34.3514L61.391 31.4264L66.1369 31.4364L67.5944 26.688H67.5931ZM87.5013 7.43187C131.721 7.43187 167.569 43.2793 167.569 87.4996C167.569 131.72 131.721 167.567 87.5013 167.567C43.2814 167.567 7.43304 131.72 7.43304 87.4996C7.43304 43.2793 43.2814 7.43187 87.5013 7.43187Z" fill="#081B43"/>
</svg>
