<svg width="175" height="175" viewBox="0 0 175 175" fill="none" xmlns="http://www.w3.org/2000/svg">
<path fill-rule="evenodd" clip-rule="evenodd" d="M87.4999 0C135.825 0 175 39.175 175 87.5001C175 135.825 135.825 175 87.4999 175C39.1749 175 0 135.825 0 87.5001C0 39.1751 39.1751 0 87.4999 0ZM87.4999 11.5903C129.424 11.5903 163.41 45.5761 163.41 87.5001C163.41 129.424 129.424 163.41 87.4999 163.41C45.576 163.41 11.5902 129.424 11.5902 87.5001C11.5902 45.5761 45.576 11.5903 87.4999 11.5903ZM82.8992 132.119C77.5386 125.703 69.5942 133.939 63.3889 133.433C73.8663 141.39 76.3958 132.558 82.8992 132.119ZM88.7012 132.119C94.0618 125.703 102.006 133.939 108.212 133.433C97.7341 141.39 95.2046 132.558 88.7012 132.119ZM90.8158 136.739C96.4528 140.7 94.798 143.958 96.2429 147.765C89.8631 145.175 92.6247 140.414 90.8158 136.739ZM86.2453 137.367C82.3227 142.3 82.7417 147.289 84.9315 150.279C85.198 145.175 89.0064 142.814 86.2453 137.367ZM73.5061 143.537C76.4942 140.499 78.8378 136.396 83.7318 135.14C79.7517 138.339 78.4571 142.967 73.5061 143.537ZM73.074 65.0776C71.6717 66.4732 69.965 67.1712 67.9544 67.1712C65.9437 67.1712 64.2404 66.473 62.8448 65.0776C61.4489 63.682 60.7512 61.9719 60.7512 59.948C60.7512 57.9242 61.4489 56.2144 62.8448 54.8185C64.2404 53.4229 65.9436 52.7252 67.9544 52.7252C69.965 52.7252 71.6718 53.4229 73.074 54.8185C74.4758 56.2144 75.177 57.9242 75.177 59.948C75.177 61.9719 74.4758 63.682 73.074 65.0776ZM64.7596 63.2124C65.6191 64.0655 66.6843 64.4922 67.9542 64.4922C69.2241 64.4922 70.2893 64.0657 71.1488 63.2124C72.0088 62.3588 72.4386 61.2711 72.4386 59.948C72.4386 58.6254 72.0086 57.5338 71.1488 56.6738C70.2893 55.8143 69.2241 55.3842 67.9542 55.3842C66.6843 55.3842 65.6191 55.8143 64.7596 56.6738C63.8996 57.5338 63.4698 58.6252 63.4698 59.948C63.4698 61.2712 63.8998 62.3588 64.7596 63.2124ZM84.7216 66.8933L81.9237 62.0715H79.8402V66.8933H77.102V53.0028H82.6581C83.9411 53.0028 85.0327 53.4528 85.9323 54.3524C86.8319 55.252 87.2814 56.3366 87.2814 57.6065C87.2814 58.4665 87.0366 59.2634 86.5474 59.9979C86.0578 60.7318 85.4094 61.2844 84.6027 61.6547L87.678 66.8933H84.7215H84.7216ZM79.8404 55.5627V59.6705H82.6582C83.1742 59.6705 83.6174 59.4687 83.9878 59.0651C84.3583 58.6615 84.5433 58.1754 84.5433 57.6065C84.5433 57.0378 84.3581 56.555 83.9878 56.1578C83.6174 55.761 83.1743 55.5627 82.6582 55.5627H79.8404ZM102.878 53.0028V66.8933H100.16V57.8846L96.2504 64.3335H95.9328L92.0239 57.9042V66.8933H89.2857V53.0028H92.1031L96.0917 59.5713L100.06 53.0028H102.878ZM108.196 64.2738H114.05V66.8933H105.458V53.0028H113.951V55.6223H108.196V58.5788H113.455V61.1584H108.196V64.2738ZM54.7688 88.2646H60.6224V90.8841H52.0306V76.9936H60.5233V79.613H54.7688V82.5696H60.0273V85.1492H54.7688V88.2646ZM70.5839 76.9936H73.3221V90.8841H71.2385L65.2856 82.391V90.8841H62.5475V76.9936H64.631L70.5839 85.4667V76.9936ZM78.6401 88.2646H84.4937V90.8841H75.9019V76.9936H84.3946V79.613H78.6401V82.5696H83.8986V85.1492H78.6401V88.2646ZM94.0384 90.8841L91.2405 86.0623H89.1569V90.8841H86.4187V76.9936H91.9748C93.2579 76.9936 94.3494 77.4435 95.249 78.3431C96.1486 79.2427 96.5981 80.3274 96.5981 81.5973C96.5981 82.4573 96.3533 83.2541 95.8641 83.9886C95.3745 84.7226 94.7262 85.2752 93.9194 85.6455L96.9948 90.8841H94.0382H94.0384ZM89.1571 79.5535V83.6612H91.975C92.4909 83.6612 92.9341 83.4595 93.3046 83.0559C93.675 82.6523 93.8601 82.1662 93.8601 81.5973C93.8601 81.0286 93.6748 80.5458 93.3046 80.1486C92.9341 79.7517 92.4911 79.5535 91.975 79.5535H89.1571ZM112.076 83.4229V84.4943C112.076 86.4786 111.441 88.0862 110.171 89.3165C108.901 90.5468 107.261 91.162 105.25 91.162C103.106 91.162 101.331 90.4638 99.9216 89.0684C98.5129 87.6728 97.8084 85.9696 97.8084 83.9588C97.8084 81.9344 98.5061 80.2213 99.902 78.8195C101.298 77.4172 103.027 76.716 105.091 76.716C106.388 76.716 107.571 77.0102 108.643 77.5989C109.714 78.1878 110.548 78.9714 111.143 79.9502L108.802 81.2997C108.471 80.731 107.971 80.2679 107.303 79.9106C106.635 79.5535 105.891 79.375 105.071 79.375C103.748 79.375 102.66 79.808 101.807 80.6748C100.954 81.541 100.527 82.6356 100.527 83.9588C100.527 85.2683 100.96 86.3496 101.827 87.2032C102.693 88.0563 103.841 88.483 105.269 88.483C106.328 88.483 107.204 88.2485 107.899 87.7784C108.593 87.3088 109.066 86.6638 109.318 85.8439H105.111V83.4229H112.075H112.076ZM124.001 76.9936L119.239 85.4667V90.8841H116.521V85.4667L111.778 76.9936H114.874L117.89 82.788L120.906 76.9936H124.002H124.001ZM33.3778 100.984V103.604H29.6271V114.875H26.889V103.604H23.1583V100.984H33.3778ZM37.644 112.255H43.4975V114.875H34.9058V100.984H43.3984V103.604H37.644V106.56H42.9025V109.14H37.644V112.255ZM51.9116 115.153C49.8212 115.153 48.095 114.458 46.7322 113.069C45.3695 111.68 44.6883 109.967 44.6883 107.93C44.6883 105.879 45.3695 104.163 46.7322 102.78C48.095 101.398 49.8212 100.707 51.9116 100.707C53.1682 100.707 54.3287 101.001 55.394 101.59C56.4586 102.179 57.2888 102.975 57.8841 103.981L55.5231 105.35C55.1792 104.728 54.6895 104.242 54.0548 103.892C53.4196 103.541 52.7052 103.366 51.9117 103.366C50.5622 103.366 49.474 103.789 48.6474 104.636C47.8207 105.482 47.4072 106.58 47.4072 107.929C47.4072 109.266 47.8205 110.357 48.6474 111.204C49.474 112.051 50.5622 112.474 51.9117 112.474C52.7052 112.474 53.4231 112.298 54.0645 111.948C54.7062 111.597 55.1922 111.118 55.5231 110.509L57.8841 111.878C57.289 112.884 56.4621 113.681 55.4038 114.269C54.3456 114.858 53.1816 115.153 51.9117 115.153H51.9116ZM67.4687 100.984H70.1872V114.875H67.4687V109.12H62.3095V114.875H59.5713V100.984H62.3095V106.501H67.4687V100.984ZM80.803 100.984H83.5412V114.875H81.4576L75.5047 106.382V114.875H72.7666V100.984H74.8501L80.803 109.457V100.984ZM97.8088 113.059C96.4064 114.455 94.6998 115.153 92.6891 115.153C90.6785 115.153 88.9752 114.455 87.5796 113.059C86.1837 111.664 85.486 109.953 85.486 107.93C85.486 105.906 86.1837 104.196 87.5796 102.8C88.9752 101.404 90.6783 100.707 92.6891 100.707C94.6998 100.707 96.4066 101.404 97.8088 102.8C99.2106 104.196 99.9117 105.906 99.9117 107.93C99.9117 109.953 99.2106 111.664 97.8088 113.059ZM89.4944 111.194C90.3539 112.047 91.4191 112.474 92.689 112.474C93.9588 112.474 95.0241 112.047 95.8835 111.194C96.7436 110.34 97.1734 109.253 97.1734 107.93C97.1734 106.607 96.7434 105.515 95.8835 104.655C95.0241 103.796 93.9588 103.366 92.689 103.366C91.4191 103.366 90.3539 103.796 89.4944 104.655C88.6344 105.515 88.2046 106.607 88.2046 107.93C88.2046 109.253 88.6346 110.34 89.4944 111.194ZM104.575 112.255H109.873V114.875H101.837V100.984H104.575V112.255ZM122.256 113.059C120.853 114.455 119.147 115.153 117.136 115.153C115.125 115.153 113.422 114.455 112.026 113.059C110.63 111.664 109.933 109.953 109.933 107.93C109.933 105.906 110.63 104.196 112.026 102.8C113.422 101.404 115.125 100.707 117.136 100.707C119.147 100.707 120.853 101.404 122.256 102.8C123.657 104.196 124.359 105.906 124.359 107.93C124.359 109.953 123.657 111.664 122.256 113.059ZM113.941 111.194C114.801 112.047 115.866 112.474 117.136 112.474C118.406 112.474 119.471 112.047 120.33 111.194C121.19 110.34 121.62 109.253 121.62 107.93C121.62 106.607 121.19 105.515 120.33 104.655C119.471 103.796 118.406 103.366 117.136 103.366C115.866 103.366 114.801 103.796 113.941 104.655C113.081 105.515 112.651 106.607 112.651 107.93C112.651 109.253 113.081 110.34 113.941 111.194ZM139.915 107.414V108.485C139.915 110.469 139.281 112.077 138.011 113.307C136.741 114.538 135.1 115.153 133.089 115.153C130.946 115.153 129.171 114.455 127.761 113.059C126.353 111.664 125.648 109.96 125.648 107.95C125.648 105.925 126.346 104.212 127.742 102.81C129.137 101.408 130.867 100.707 132.93 100.707C134.227 100.707 135.411 101.001 136.483 101.59C137.554 102.179 138.387 102.962 138.983 103.941L136.641 105.291C136.311 104.722 135.811 104.259 135.143 103.901C134.475 103.544 133.731 103.366 132.911 103.366C131.588 103.366 130.5 103.799 129.646 104.666C128.793 105.532 128.367 106.626 128.367 107.95C128.367 109.259 128.8 110.34 129.666 111.194C130.533 112.047 131.68 112.474 133.109 112.474C134.167 112.474 135.044 112.239 135.738 111.769C136.433 111.3 136.906 110.655 137.157 109.835H132.95V107.414H139.915H139.915ZM151.841 100.984L147.079 109.457V114.875H144.36V109.457L139.618 100.984H142.713L145.73 106.779L148.746 100.984H151.841H151.841ZM87.4992 21.7937L89.3885 27.9487L95.5402 27.9364L90.5563 31.7278L92.4687 37.8761L87.4992 34.0633L82.5298 37.8761L84.4416 31.7278L79.4581 27.9364L85.6098 27.9487L87.499 21.7937H87.4992ZM51.6197 35.8264L52.5839 38.9682L55.7236 38.9618L53.1799 40.8967L54.156 44.0347L51.6196 42.0888L49.0831 44.0347L50.0589 40.8967L47.5157 38.9618L50.6554 38.9682L51.6196 35.8264H51.6197ZM123.38 35.8264L124.344 38.9682L127.484 38.9618L124.94 40.8967L125.916 44.0347L123.38 42.0888L120.843 44.0347L121.819 40.8967L119.276 38.9618L122.416 38.9682L123.38 35.8264H123.38ZM107.408 26.6873L108.865 31.4362L113.611 31.4265L109.766 34.3516L111.242 39.0951L107.408 36.1534L103.574 39.0951L105.049 34.3516L101.204 31.4265L105.95 31.4362L107.408 26.6873H107.408ZM67.591 26.6873L69.0488 31.4362L73.7946 31.4265L69.9496 34.3516L71.4251 39.0951L67.5912 36.1534L63.7573 39.0951L65.2323 34.3516L61.3876 31.4265L66.1335 31.4362L67.5912 26.6873H67.591ZM87.4997 7.43151C131.72 7.43151 167.568 43.2794 167.568 87.5001C167.568 131.721 131.72 167.569 87.4997 167.569C43.2792 167.569 7.43109 131.721 7.43109 87.5001C7.43109 43.2794 43.2792 7.43151 87.4997 7.43151Z" fill="#081B43"/>
</svg>
