<svg width="88" height="90" viewBox="0 0 88 90" fill="none" xmlns="http://www.w3.org/2000/svg">
<path fill-rule="evenodd" clip-rule="evenodd" d="M0.089847 47.7435C1.53645 71.549 21.3694 91.4547 46.6372 89.915C70.4183 88.4604 89.1933 68.1099 87.941 42.181C86.7998 18.4734 66.3684 -1.33132 41.3351 0.0695563C18.0814 1.37262 -1.47705 22.1744 0.0867625 47.7435H0.089847ZM71.0537 62.1877L71.7662 63.5728H71.2511L70.591 62.235H69.9464V63.5728H69.5115V60.4082H70.7391C71.2789 60.4082 71.7199 60.7679 71.7199 61.3232C71.7199 61.7239 71.4393 62.0678 71.0537 62.1909V62.1877ZM13.6737 25.8785L19.8519 25.7996L26.7179 44.3455L26.758 25.8217H33.1335V64.2512L27.6185 64.3111L20.7927 44.4843L20.7741 64.4689L13.7046 64.4878L13.6737 25.8785ZM73.2036 31.7218H65.0298L65.0483 41.6036H70.8964V48.2042L65.0298 48.2452V64.3111H57.5993L57.6394 25.8217H73.2066V31.7249L73.2036 31.7218ZM42.2635 52.9463C42.2481 54.6091 42.1308 56.4643 42.868 57.8336C43.9568 59.8592 48.1394 60.3104 47.6212 54.404C47.1061 48.5512 38.1982 47.3491 36.4524 38.559C35.8417 35.4827 36.3198 31.7281 37.68 29.4185C40.4714 24.6701 49.1665 24.0201 52.3157 28.4594C53.534 30.1758 54.3946 34.3216 54.3761 37.2874L48.2843 37.278C48.0684 35.4638 48.272 34.0029 47.4854 32.4254C45.7057 28.8475 39.324 32.6431 45.0148 39.5339C48.0005 43.1497 53.4693 45.4971 54.5951 52.0976C56.8745 65.4438 43.0963 68.0846 37.8003 61.6324C36.3907 59.916 35.4561 56.6599 35.4283 52.9306L42.2604 52.9495L42.2635 52.9463ZM70.5232 59.3071C71.976 59.3071 73.1542 60.5123 73.1542 61.9984C73.1542 63.4845 71.976 64.6897 70.5232 64.6897C69.0704 64.6897 67.8921 63.4845 67.8921 61.9984C67.8921 60.5123 69.0704 59.3071 70.5232 59.3071ZM70.5232 59.7362C71.7446 59.7362 72.7347 60.749 72.7347 61.9984C72.7347 63.2478 71.7446 64.2606 70.5232 64.2606C69.3017 64.2606 68.3147 63.2478 68.3147 61.9984C68.3147 60.749 69.3048 59.7362 70.5232 59.7362ZM69.9433 61.8122H70.7545C71.0321 61.8122 71.2573 61.5851 71.2573 61.32C71.2573 61.055 71.0352 60.8278 70.7545 60.8278H69.9433V61.8122Z" fill="#081B43"/>
</svg>
