<svg width="88" height="90" viewBox="0 0 88 90" fill="none" xmlns="http://www.w3.org/2000/svg">
<path fill-rule="evenodd" clip-rule="evenodd" d="M44.001 0C68.2974 0 88 20.1531 88 45C88 69.8491 68.2974 90 44.001 90C19.7026 90 0 69.8491 0 45C0 20.1531 19.7026 0 44.001 0ZM30.2893 62.9918L30.7339 63.0004C30.5991 63.9656 30.2956 64.6003 29.832 64.894C29.3642 65.1898 28.8754 65.3387 28.3675 65.3387C27.729 65.3301 27.1938 65.1638 26.7534 64.8335C26.313 64.5075 25.9863 64.0757 25.7693 63.5424C25.5523 63.0091 25.4511 62.4412 25.4616 61.8388C25.4743 60.9039 25.7398 60.1245 26.2582 59.5027C26.7766 58.883 27.4572 58.5807 28.2959 58.598C28.829 58.6131 29.3347 58.7729 29.811 59.0817H29.8636L30.0596 58.7276H30.4895L30.6117 61.0637H30.1861C30.0638 60.3145 29.8341 59.7877 29.4907 59.4811C29.1472 59.1745 28.7595 59.0342 28.3338 59.0558C27.6131 59.0752 27.1453 59.3775 26.9283 59.9604C26.7112 60.5434 26.6038 61.163 26.6038 61.8151C26.6038 62.8385 26.7766 63.5985 27.1264 64.0973C27.4719 64.596 27.9124 64.8594 28.4476 64.8918C28.81 64.9156 29.1219 64.8335 29.3874 64.6435C29.6508 64.4557 29.8552 64.216 29.9985 63.9288C30.1397 63.6395 30.2387 63.3286 30.2893 62.994V62.9918ZM34.5754 63.9483L34.9505 64.1491C34.744 64.6003 34.4932 64.9091 34.2088 65.0818C33.9201 65.2502 33.5787 65.3387 33.1889 65.3387C32.8011 65.3301 32.4661 65.2265 32.1795 65.0235C31.8971 64.8184 31.6759 64.542 31.5263 64.1923C31.3745 63.8425 31.3008 63.4603 31.3008 63.0458C31.3008 62.6312 31.3809 62.2491 31.541 61.8907C31.7012 61.5366 31.9287 61.2559 32.2174 61.0508C32.5082 60.8478 32.8454 60.7463 33.2226 60.7463C33.6925 60.7399 34.0634 60.8608 34.3394 61.1155C34.6112 61.3681 34.7988 61.6769 34.8999 62.0375C34.999 62.4002 35.0453 62.7651 35.0327 63.1278H32.228C32.228 63.7302 32.3291 64.175 32.5377 64.46C32.7463 64.7471 32.9971 64.9004 33.2942 64.9156C33.5808 64.9523 33.8337 64.8745 34.0549 64.6802C34.2783 64.4859 34.4532 64.2441 34.5775 63.9504L34.5754 63.9483ZM32.2258 62.6895H33.8105C33.9432 62.6895 34.0254 62.6787 34.0612 62.655C34.0971 62.6355 34.116 62.588 34.116 62.5146C34.1266 62.3505 34.1055 62.1605 34.0528 61.9446C33.998 61.7287 33.9032 61.543 33.7662 61.3876C33.6293 61.2321 33.4396 61.1587 33.1973 61.1652C32.917 61.1717 32.6916 61.3142 32.5145 61.5927C32.3375 61.8712 32.2427 62.2383 32.2258 62.6895ZM37.1252 61.8216H37.1778C37.3317 61.4869 37.5403 61.2235 37.8079 61.0335C38.0713 60.8413 38.3452 60.7463 38.6213 60.7463C38.8362 60.7269 39.0175 60.7787 39.1692 60.9018C39.3209 61.0227 39.3968 61.1976 39.3968 61.42C39.4073 61.6035 39.363 61.7546 39.2598 61.8777C39.1565 62.0029 39.0217 62.0612 38.8531 62.0612C38.7604 62.0612 38.6487 62.0332 38.5286 61.9727C38.4085 61.9166 38.3474 61.7849 38.3474 61.5776V61.5214C38.3474 61.515 38.3474 61.5106 38.3495 61.5042C38.3516 61.4955 38.3558 61.4869 38.3558 61.4761V61.4027C38.3558 61.3552 38.3368 61.3293 38.301 61.3293C38.2062 61.3293 38.0692 61.3919 37.888 61.515C37.7068 61.6424 37.5424 61.8475 37.3991 62.1368C37.2537 62.424 37.1799 62.8061 37.1799 63.2811V64.4773C37.1799 64.5938 37.1968 64.6737 37.2284 64.7191C37.2621 64.7644 37.3464 64.786 37.4813 64.786H38.0081V65.207H35.6733V64.786H36.0821C36.2169 64.786 36.3033 64.7623 36.3349 64.7191C36.3666 64.6737 36.3834 64.5917 36.3834 64.4773V61.6208C36.3834 61.4912 36.3644 61.4092 36.3265 61.3725C36.2886 61.3358 36.1748 61.3185 35.9915 61.3185H35.6733V60.8543L37.1504 60.7442L37.1252 61.8194V61.8216ZM39.8498 61.3012V60.8737C40.699 60.8197 41.112 60.1612 41.0889 58.9025H41.4871V60.8737H42.762V61.3012H41.4871V63.7863C41.4871 64.1016 41.5229 64.3304 41.5904 64.4708C41.6599 64.609 41.78 64.6781 41.9591 64.6781C42.3827 64.6781 42.5913 64.2829 42.5913 63.4927V63.2919L43.0001 63.2811V63.4927C43.0001 63.9116 42.9243 64.324 42.7641 64.7299C42.6082 65.1358 42.2773 65.3387 41.7716 65.3387C41.0846 65.3387 40.7264 64.8745 40.7011 63.9504V61.3034H39.8477L39.8498 61.3012ZM43.6639 61.3012V60.8737L45.2232 60.7485V64.4794C45.2232 64.596 45.2401 64.6759 45.2738 64.7212C45.3075 64.7666 45.3918 64.7882 45.5267 64.7882H46.1062V65.2092H43.5564V64.7882H44.1359C44.2708 64.7882 44.3572 64.7644 44.3888 64.7212C44.4225 64.6759 44.4372 64.5938 44.4372 64.4794V61.6035C44.4372 61.4653 44.412 61.3789 44.3593 61.3509C44.3108 61.3206 44.2033 61.3034 44.0348 61.3034H43.6618L43.6639 61.3012ZM45.2232 59.3041C45.2232 59.4681 45.1748 59.6063 45.0715 59.7143C44.9704 59.8222 44.8397 59.8784 44.6775 59.8784C44.5173 59.8784 44.3888 59.8222 44.2876 59.7143C44.1865 59.6042 44.1359 59.466 44.1359 59.3041C44.1359 59.1464 44.1886 59.0083 44.294 58.8981C44.3951 58.7859 44.5257 58.7297 44.6775 58.7297C44.8334 58.7297 44.9641 58.7859 45.0652 58.8981C45.1685 59.0083 45.2211 59.1464 45.2211 59.3041H45.2232ZM47.6297 61.3012H46.6583V60.8737H47.6297C47.6044 60.3016 47.6739 59.8373 47.8299 59.4811C47.9879 59.127 48.1818 58.8809 48.4136 58.747C48.6454 58.6153 48.8814 58.5462 49.1174 58.5462C49.326 58.5527 49.503 58.6023 49.6484 58.7017C49.7938 58.7967 49.9013 58.9176 49.9708 59.0622C50.0362 59.2069 50.072 59.3472 50.072 59.4876C50.072 59.6625 50.0298 59.8201 49.9455 59.9561C49.8634 60.0943 49.7369 60.1612 49.5641 60.1612C49.4356 60.1612 49.3218 60.1159 49.2312 60.0209C49.1385 59.928 49.0921 59.8071 49.0921 59.6603C49.0921 59.5394 49.1195 59.4314 49.1743 59.3429C49.1806 59.3278 49.1933 59.3062 49.2185 59.2695C49.2544 59.2069 49.2712 59.1615 49.2712 59.1313C49.2712 58.9996 49.1975 58.9392 49.0479 58.9586C48.8877 58.9586 48.7381 59.032 48.599 59.181C48.4578 59.33 48.3841 59.5891 48.3799 59.9604C48.3862 60.0511 48.3904 60.1375 48.3925 60.2174C48.3946 60.2972 48.3988 60.3879 48.3988 60.498C48.3988 60.5304 48.3988 60.5563 48.4009 60.5866C48.403 60.6146 48.4073 60.6492 48.4073 60.6902C48.4073 60.7744 48.4136 60.837 48.4241 60.8737H49.5494V61.3012H48.4241V64.4794C48.4241 64.596 48.441 64.6759 48.4705 64.7212C48.4979 64.7666 48.5843 64.7882 48.7191 64.7882H49.5494V65.2092H46.6625V64.7882H47.3305C47.4674 64.7882 47.5496 64.7644 47.5833 64.7212C47.6171 64.6759 47.6318 64.5938 47.6318 64.4794V61.3012H47.6297ZM50.5693 61.3012V60.8737L52.1286 60.7485V64.4794C52.1286 64.596 52.1455 64.6759 52.1771 64.7212C52.2108 64.7666 52.2951 64.7882 52.43 64.7882H53.0094V65.2092H50.4618V64.7882H51.0413C51.1783 64.7882 51.2605 64.7644 51.2942 64.7212C51.3279 64.6759 51.3426 64.5938 51.3426 64.4794V61.6035C51.3426 61.4653 51.3173 61.3789 51.2689 61.3509C51.2162 61.3206 51.1087 61.3034 50.9423 61.3034H50.5693V61.3012ZM52.1286 59.3041C52.1286 59.4681 52.0781 59.6063 51.9769 59.7143C51.8779 59.8222 51.7451 59.8784 51.5871 59.8784C51.4248 59.8784 51.2963 59.8222 51.193 59.7143C51.0919 59.6042 51.0413 59.466 51.0413 59.3041C51.0413 59.1464 51.094 59.0083 51.1972 58.8981C51.3026 58.7859 51.429 58.7297 51.585 58.7297C51.7388 58.7297 51.8673 58.7859 51.9727 58.8981C52.0738 59.0083 52.1265 59.1464 52.1265 59.3041H52.1286ZM56.8404 63.9504L57.2176 64.1512C57.009 64.6025 56.7603 64.9112 56.4716 65.084C56.1829 65.2524 55.8458 65.3409 55.4517 65.3409C55.0682 65.3323 54.729 65.2286 54.4466 65.0257C54.16 64.8206 53.943 64.5442 53.7912 64.1944C53.6395 63.8446 53.5637 63.4625 53.5637 63.0479C53.5637 62.6334 53.6437 62.2512 53.8039 61.8928C53.9661 61.5387 54.1916 61.258 54.4824 61.0529C54.7753 60.85 55.1104 60.7485 55.4897 60.7485C55.9596 60.742 56.3304 60.8629 56.6023 61.1177C56.8741 61.3703 57.0616 61.6791 57.1628 62.0396C57.2639 62.4024 57.3082 62.7673 57.2977 63.13H54.4908C54.4908 63.7324 54.5962 64.1771 54.8006 64.4621C55.0092 64.7493 55.2621 64.9026 55.5592 64.9177C55.8458 64.9544 56.0986 64.8767 56.3199 64.6824C56.5433 64.4881 56.7161 64.2462 56.8404 63.9526V63.9504ZM54.4887 62.6917H56.0755C56.204 62.6917 56.2904 62.6809 56.3241 62.6571C56.3599 62.6377 56.3789 62.5902 56.3789 62.5168C56.3894 62.3527 56.3705 62.1627 56.3157 61.9468C56.263 61.7309 56.1661 61.5452 56.0312 61.3897C55.8942 61.2343 55.7046 61.1609 55.4602 61.1674C55.182 61.1738 54.9544 61.3163 54.7795 61.5949C54.6067 61.8734 54.5077 62.2404 54.4908 62.6917H54.4887ZM60.2351 58.9953V58.5721L61.8303 58.4469V64.555C61.8303 64.6392 61.8451 64.7018 61.8746 64.7385C61.9041 64.7752 61.9736 64.7925 62.0811 64.7925H62.5426V65.2135H61.0907V64.447H61.0548C60.8757 64.7817 60.6861 65.0127 60.4859 65.1466C60.2836 65.2761 60.0371 65.3431 59.7463 65.3431C59.152 65.3431 58.6969 65.1056 58.3766 64.6392C58.0605 64.1707 57.9003 63.6352 57.9003 63.0328C57.9003 62.4175 58.071 61.8842 58.4124 61.4308C58.7559 60.9774 59.2068 60.7528 59.7694 60.7528C60.1277 60.7334 60.4079 60.8111 60.6144 60.9838C60.8167 61.1587 60.9663 61.325 61.0548 61.4826H61.0907L61.0548 61.1889V59.3278C61.0548 59.1939 61.038 59.1054 61.0022 59.0622C60.9663 59.019 60.8441 58.9996 60.6439 58.9996H60.233L60.2351 58.9953ZM61.0548 63.0004C61.019 61.7892 60.6608 61.1781 59.9844 61.1674C59.6767 61.1522 59.407 61.2991 59.1794 61.6013C58.9518 61.9036 58.8338 62.3678 58.8275 63.0026C58.8275 63.4905 58.8823 63.8727 58.9919 64.1577C59.1015 64.4406 59.2426 64.6413 59.4154 64.7601C59.5861 64.8789 59.7694 64.9307 59.9675 64.9177C60.2499 64.9069 60.507 64.7687 60.7282 64.5032C60.9516 64.2376 61.0591 63.7367 61.0527 63.0026L61.0548 63.0004ZM28.8353 35.4978H29.8089L30.028 41.852L28.8585 41.9017C28.0304 38.3133 26.4162 36.4845 24.0161 36.4176C22.0732 36.3528 20.811 37.1948 20.2357 38.948C19.6583 40.7034 19.3949 42.5343 19.4434 44.4451C19.494 47.0706 19.8332 49.0764 20.4654 50.4647C21.0976 51.8508 22.2249 52.5439 23.8433 52.5439C25.095 52.5439 25.8978 52.2373 26.2519 51.622C26.608 51.0088 26.7871 50.4323 26.7871 49.9033V47.1375C26.7871 46.4898 26.6859 46.0817 26.4815 45.9155C26.2814 45.7492 25.9505 45.6672 25.4975 45.6672H24.3069V44.4451H32.9149V45.6672H32.0657C31.5958 45.6672 31.2565 45.7492 31.0563 45.9155C30.8519 46.0817 30.7508 46.4898 30.7508 47.1375V53.3665H29.8278L28.7574 51.7213H28.4623C27.493 52.5525 26.5785 53.1204 25.7272 53.4313C24.8758 53.7379 24.0119 53.8912 23.1374 53.8912C20.7372 53.8437 18.7986 52.9477 17.3214 51.2117C15.8485 49.4758 15.0709 47.3275 14.9866 44.769C14.9381 43.3073 15.132 41.9686 15.5703 40.7574C16.0107 39.5439 16.6345 38.5011 17.4457 37.6267C18.257 36.7565 19.1905 36.0937 20.2526 35.6468C21.3167 35.1998 22.383 34.9818 23.4535 34.999C25.0107 35.0509 26.4457 35.5475 27.7585 36.4953H28.0261L28.829 35.4978H28.8353ZM40.0753 35.4978L43.7461 47.036H43.8704L47.6402 35.4978H54.7901V36.7673H53.551C53.098 36.7673 52.7671 36.8515 52.5669 37.0178C52.3625 37.1841 52.2614 37.5986 52.2614 38.2636V50.6245C52.2614 51.2895 52.3625 51.7062 52.5669 51.8724C52.7671 52.0387 53.098 52.1207 53.551 52.1207H54.7901V53.3665H45.8386V52.1207H47.0565C47.381 52.1207 47.6234 52.0948 47.7856 52.0452C47.9479 51.9977 48.0827 51.8681 48.186 51.6587C48.2893 51.4536 48.3462 51.1059 48.3462 50.6245V37.8145H48.2008L43.0928 53.3644H41.9233L36.8386 37.5381H36.6679V49.9508C36.6679 50.8145 36.8386 51.3931 37.1799 51.6824C37.5213 51.9717 37.9912 52.1186 38.5897 52.1186H39.1481V53.3644H32.9697V52.1186H33.5049C34.1371 52.1186 34.6176 51.989 34.9505 51.7321C35.2834 51.4751 35.4499 50.8814 35.4499 49.9487V38.3111C35.4499 37.6634 35.3572 37.2423 35.1697 37.0523C34.9821 36.8602 34.548 36.7652 33.8695 36.7652H32.9676V35.4956H40.0711L40.0753 35.4978ZM63.1094 45.8636V50.6245C63.1094 51.2895 63.2042 51.7062 63.4002 51.8724C63.5962 52.0387 63.927 52.1207 64.399 52.1207H65.8088V53.3665H56.6613V52.1207H57.854C58.1785 52.1207 58.4271 52.0948 58.5957 52.0452C58.7664 51.9977 58.8992 51.8681 58.9961 51.6587C59.093 51.4536 59.1415 51.1059 59.1415 50.6245V38.2636C59.1415 37.5813 59.0424 37.1625 58.8507 37.0048C58.6547 36.8472 58.3239 36.7673 57.8519 36.7673H56.6592V35.4978H63.809C65.3515 35.4978 66.7128 35.5928 67.897 35.785C69.0792 35.9771 70.1433 36.4672 71.0832 37.2553C72.023 38.0434 72.5013 39.2352 72.5182 40.8308C72.5182 44.1882 70.2719 45.8636 65.7793 45.8636H63.1052H63.1094ZM63.1094 44.5941H64.2768C65.7666 44.5941 66.7675 44.2875 67.2796 43.6722C67.7896 43.0568 68.0466 42.0442 68.0466 40.63C68.0466 39.4684 67.8191 38.5335 67.3639 37.8275C66.9108 37.1193 65.9204 36.7673 64.3969 36.7673C63.9565 36.7673 63.6636 36.7933 63.5098 36.8429C63.3559 36.8904 63.2485 37.0092 63.1937 37.1927C63.1368 37.3741 63.1094 37.6418 63.1094 37.9894V44.5919V44.5941ZM14.2575 67.5194C15.151 67.5194 15.8738 68.2125 15.8738 69.0632C15.8738 69.916 15.151 70.6091 14.2575 70.6091C13.3662 70.6091 12.6434 69.916 12.6434 69.0632C12.6434 68.2125 13.3662 67.5194 14.2575 67.5194ZM24.5787 78.9756L23.6726 80.5777C23.6031 80.6986 23.5736 80.7979 23.582 80.8713C23.5904 80.9447 23.6663 81.0246 23.8096 81.1088L24.4017 81.4586L24.1889 81.8321L21.6244 80.3143L21.8351 79.9386L22.3198 80.2257C22.4694 80.3121 22.5747 80.3445 22.6359 80.3164C22.6991 80.2884 22.7644 80.2128 22.836 80.0854L25.0823 76.0954C25.154 75.968 25.1898 75.8708 25.1877 75.7996C25.1814 75.7283 25.1055 75.6506 24.9517 75.5578L24.4649 75.2728L24.682 74.8906L26.8271 76.1602C27.4888 76.5509 28.0156 76.9893 28.4076 77.475C28.7974 77.963 28.8079 78.5352 28.4413 79.1894C28.2305 79.5672 27.8807 79.8285 27.394 79.9818C26.9072 80.1307 26.2455 79.9602 25.4069 79.4614L24.5787 78.9735V78.9756ZM24.7873 78.5999L25.3626 78.9368C25.4321 78.9799 25.4869 79.0015 25.5249 79.0015C25.6408 79.0685 25.7714 79.1332 25.9252 79.1894C26.2434 79.3168 26.5405 79.3297 26.8166 79.2326C27.0905 79.1332 27.3139 78.9303 27.4867 78.6237C27.7627 78.1357 27.7922 77.7298 27.5773 77.406C27.3603 77.0821 27.0821 76.8165 26.7386 76.6136L26.3383 76.3739C26.1886 76.2875 26.0664 76.3286 25.9674 76.5034L24.7873 78.5978V78.5999ZM30.0912 77.9047L33.0203 78.9972C33.8568 79.3103 34.4005 79.6752 34.6513 80.0984C34.902 80.5172 34.9589 80.9318 34.8283 81.3398C34.7082 81.7155 34.449 81.9768 34.0507 82.1258C33.6524 82.2726 33.1404 82.2726 32.5103 82.1171L32.485 82.1862C33.0266 82.5317 33.2584 83.0585 33.1783 83.7667C33.172 83.8206 33.1615 83.9027 33.1446 84.015C33.1299 84.1251 33.1151 84.2114 33.094 84.2827C33.0203 84.7361 33.0751 84.9974 33.2647 85.0686C33.4164 85.1247 33.545 85.0751 33.6546 84.9218C33.7114 84.8484 33.7726 84.7188 33.8379 84.531C33.8484 84.5051 33.8568 84.4792 33.8695 84.4641C33.8779 84.4446 33.8885 84.4187 33.9032 84.3842L34.3247 84.5418C34.1771 85.006 33.9812 85.3471 33.7409 85.563C33.4986 85.7811 33.1741 85.8243 32.7674 85.6991C32.5124 85.6084 32.3249 85.4767 32.2069 85.3018C32.0889 85.1269 32.0299 84.9088 32.0299 84.6454C32.032 84.3842 32.0762 84.0236 32.1668 83.568C32.2237 83.3003 32.2575 83.0974 32.2638 82.957C32.2806 82.4302 32.0109 82.0653 31.4546 81.858L30.8014 81.6141L30.0638 83.6846C30.0175 83.8099 30.0027 83.9135 30.0175 83.9826C30.0322 84.0538 30.1271 84.1208 30.3062 84.1877L30.8161 84.3799L30.6728 84.7858L28.003 83.7883L28.1463 83.3824L28.6667 83.5767C28.8353 83.6393 28.9449 83.6501 29.0018 83.6112C29.0566 83.5745 29.1093 83.4838 29.1577 83.3456L30.6939 79.021C30.7424 78.8828 30.7592 78.7791 30.7466 78.7122C30.7297 78.641 30.637 78.5762 30.4642 78.5114L29.9479 78.3171L30.0933 77.9025L30.0912 77.9047ZM30.9468 81.2017L31.7159 81.4867C32.131 81.6421 32.5188 81.7004 32.8854 81.6616C33.2521 81.6227 33.5155 81.3765 33.6735 80.9231C33.7662 80.664 33.7747 80.4309 33.7051 80.2214C33.6335 80.012 33.5092 79.8393 33.3385 79.7011C33.1678 79.5629 32.9781 79.4528 32.7695 79.3751L32.1036 79.1268C32.0762 79.1181 32.0531 79.1095 32.0362 79.1073C32.0193 79.1052 32.0004 79.0987 31.9793 79.0901C31.8613 79.0965 31.7981 79.1009 31.7918 79.103C31.7138 79.1311 31.6548 79.2066 31.6105 79.3297L30.9447 81.2038L30.9468 81.2017ZM35.3972 86.2388L35.4499 85.807C35.4878 85.8135 35.5195 85.8135 35.5342 85.8092C35.608 85.8178 35.7112 85.8157 35.8397 85.7941C36.021 85.7746 36.1706 85.7163 36.2823 85.6127C36.3939 85.5112 36.5225 85.3363 36.6616 85.0859L39.2935 80.2905L39.7887 80.3531L41.2701 85.7897C41.3544 86.0855 41.4682 86.2907 41.603 86.4094C41.74 86.5282 41.9465 86.6102 42.2247 86.6577L42.172 87.0852L39.3104 86.7246L39.363 86.2971L39.481 86.3123C39.5443 86.3209 39.5927 86.3295 39.6328 86.3382C39.6686 86.3446 39.7065 86.3554 39.7444 86.3662C40.1743 86.4051 40.3513 86.2712 40.2797 85.9517L39.9931 84.8505L37.5234 84.5418L37.3169 84.9671C37.2895 84.9995 37.2642 85.0427 37.2389 85.0988C37.2305 85.1161 37.22 85.1442 37.2094 85.1809C37.1968 85.2176 37.1821 85.2478 37.1652 85.2759C37.1568 85.2932 37.1483 85.3234 37.1378 85.3666C37.1273 85.4098 37.1188 85.44 37.1104 85.4572C37.0662 85.6818 37.1146 85.8437 37.2516 85.9366C37.3907 86.0337 37.6014 86.092 37.8817 86.1136L37.8332 86.5433L35.3972 86.2388ZM37.7552 84.1272L39.8582 84.3906L39.1186 81.6572L39.0786 81.6508L37.7552 84.1251V84.1272ZM48.3209 84.6303L48.7507 84.6022C48.7002 85.5436 48.4621 86.1762 48.0364 86.5044C47.6128 86.8283 47.1535 87.0118 46.6646 87.0571C46.0514 87.1046 45.5204 86.9902 45.0694 86.7138C44.6185 86.4353 44.2708 86.0488 44.0158 85.5522C43.7629 85.06 43.6175 84.5202 43.5796 83.9416C43.5143 83.0412 43.706 82.2639 44.157 81.6227C44.6058 80.9814 45.2338 80.6317 46.0408 80.5777C46.5571 80.5431 47.0544 80.6533 47.5391 80.9123L47.5918 80.9059L47.7519 80.5475L48.1607 80.5107L48.4747 82.7476L48.0617 82.7843C47.8868 82.0739 47.6192 81.586 47.2651 81.3204C46.9069 81.0548 46.5234 80.9534 46.1125 81.0138C45.4234 81.0915 44.9999 81.4219 44.8376 82.0048C44.6775 82.5856 44.6227 83.188 44.6775 83.8163C44.7597 84.7987 44.9914 85.5177 45.3644 85.969C45.7416 86.4202 46.1862 86.634 46.7025 86.6188C47.0544 86.6102 47.3494 86.5044 47.5876 86.2971C47.8278 86.0942 48.0027 85.8459 48.1165 85.5566C48.2324 85.2673 48.2998 84.9563 48.323 84.6303H48.3209ZM53.5742 85.5501L53.6543 85.9754L50.8664 86.5303L50.7842 86.105L51.3342 85.9949C51.5154 85.9603 51.6166 85.9107 51.6398 85.848C51.665 85.7897 51.665 85.6904 51.6355 85.5587L50.7758 81.0117C50.7484 80.8735 50.7126 80.7806 50.6683 80.7267C50.6241 80.677 50.5124 80.6705 50.3312 80.7029L49.7812 80.813L49.7011 80.3812L52.489 79.8242L52.5711 80.2581L52.0212 80.3682C51.8568 80.4028 51.7599 80.4503 51.7304 80.5172C51.6966 80.582 51.6945 80.6835 51.7219 80.8217L52.5859 85.3687C52.607 85.4961 52.647 85.5825 52.7018 85.6343C52.7545 85.6818 52.8641 85.6904 53.0263 85.6602L53.5763 85.5501H53.5742ZM59.3037 81.9444L59.7125 81.8084C59.8832 82.7346 59.8032 83.4126 59.4681 83.8314C59.1331 84.2503 58.7306 84.5439 58.2649 84.708C57.6812 84.9088 57.1396 84.9283 56.636 84.7707C56.1324 84.6109 55.7025 84.3237 55.34 83.907C54.9776 83.4925 54.71 83.0067 54.5372 82.4496C54.259 81.5903 54.2611 80.7936 54.5477 80.0595C54.8301 79.3276 55.359 78.831 56.1281 78.5762C56.6212 78.4164 57.1312 78.4013 57.6601 78.5309L57.7086 78.5136L57.7802 78.1249L58.1701 77.9868L59.0003 80.0832L58.6105 80.2214C58.2733 79.5737 57.8982 79.1678 57.4894 78.9972C57.0806 78.8288 56.6845 78.8223 56.3009 78.9821C55.6498 79.2304 55.3148 79.6579 55.2979 80.2603C55.2789 80.8627 55.3695 81.4629 55.5676 82.0567C55.8837 82.9916 56.2757 83.6285 56.7456 83.9761C57.2176 84.3194 57.7023 84.4187 58.1996 84.2741C58.5367 84.1791 58.8001 84.0042 58.9834 83.7451C59.1647 83.4882 59.2785 83.2053 59.3185 82.8944C59.3606 82.5856 59.3543 82.2683 59.3016 81.9444H59.3037ZM64.6097 76.8943L64.2241 77.1296C63.986 76.7215 63.6573 76.4279 63.24 76.2465C62.8249 76.0673 62.4098 76.1062 61.9968 76.3588L61.2002 76.8489C61.0527 76.9396 60.9769 77.0411 60.9748 77.1533C60.9727 77.2635 61.0232 77.4103 61.1307 77.5895L62.0621 79.1786L62.5341 78.8871C62.7849 78.7316 62.9282 78.5503 62.9661 78.3409C63.004 78.1336 62.9071 77.8183 62.669 77.4016L63.0378 77.1771L64.4728 79.6255L64.104 79.8544C63.8722 79.4485 63.651 79.2088 63.4381 79.1397C63.2232 79.0663 63.004 79.103 62.7722 79.2434L62.277 79.5478L63.3496 81.3787C63.4213 81.4996 63.495 81.5644 63.5772 81.5795C63.6404 81.5925 63.7268 81.5687 63.8322 81.5039C63.8511 81.4975 63.8722 81.4867 63.9038 81.4694L64.732 80.9598C65.1829 80.6813 65.4189 80.3294 65.4421 79.8997C65.4611 79.4722 65.3241 78.9951 65.0291 78.4726L65.3979 78.2437L66.6074 80.3078L62.1232 83.0693L61.9062 82.7001L62.3845 82.4043C62.532 82.3136 62.61 82.2359 62.6163 82.1646C62.6226 82.0934 62.5889 81.9984 62.5152 81.871L60.1993 77.9241C60.1277 77.7968 60.0602 77.7212 59.9991 77.691C59.9359 77.6607 59.8284 77.691 59.6767 77.7838L59.1963 78.0796L58.9771 77.7018L63.4634 74.9381L64.6076 76.8899L64.6097 76.8943ZM4.37882 57.1557L4.27135 56.8124L6.77685 55.8322L6.92857 56.3072C6.51977 56.508 6.17418 56.7563 5.89392 57.0521C5.61366 57.3501 5.42611 57.6739 5.32708 58.0259C5.23014 58.3756 5.23857 58.7211 5.35447 59.0622C5.53991 59.6063 5.95081 59.9604 6.58509 60.1267C7.22147 60.2951 8.00747 60.2195 8.93886 59.9021C9.76068 59.615 10.3992 59.2263 10.8607 58.7297C11.32 58.2375 11.457 57.661 11.2695 57.0089C11.1451 56.5944 10.9112 56.2943 10.5699 56.1043C10.2285 55.9164 9.86605 55.884 9.48042 56.0136L9.02737 56.1669C8.87143 56.2165 8.77239 56.2705 8.72604 56.331C8.67968 56.3871 8.6881 56.5188 8.75132 56.7218L8.95783 57.3695L8.50056 57.5206L7.51859 54.4245L7.97375 54.2733L8.15287 54.8347C8.21398 55.0269 8.2793 55.1305 8.34884 55.1499C8.42049 55.1672 8.53217 55.1499 8.69021 55.0981L10.7995 54.3964L10.9428 54.8433L10.3823 55.4069C11.0608 55.6465 11.5265 56.1841 11.7794 57.0262C11.9606 57.6199 11.9775 58.1943 11.8279 58.7535C11.6804 59.3105 11.3833 59.7985 10.9344 60.2152C10.4898 60.6297 9.9398 60.9363 9.28867 61.1306C8.6586 61.3271 8.03908 61.3811 7.4322 61.2904C6.82531 61.1997 6.2964 60.9838 5.84756 60.6341C5.39661 60.2843 5.07842 59.8201 4.89299 59.2328C4.74126 58.7578 4.72441 58.2828 4.84663 57.8164C4.85295 57.7927 4.88666 57.6739 4.9562 57.4537C4.9541 57.4278 4.96463 57.3781 4.99203 57.3069L4.37671 57.1514L4.37882 57.1557ZM74.3346 67.5216C75.226 67.5216 75.9487 68.2147 75.9487 69.0654C75.9487 69.9182 75.226 70.6113 74.3346 70.6113C73.4411 70.6113 72.7184 69.9182 72.7184 69.0654C72.7184 68.2147 73.4411 67.5216 74.3346 67.5216ZM78.9621 55.3378L78.7113 55.7307C78.1951 55.409 77.86 55.0808 77.6999 54.7397C77.5439 54.4007 77.5165 53.9991 77.6219 53.5285C77.7293 53.0556 77.938 52.6821 78.2498 52.4122C78.5596 52.1445 78.9326 51.9739 79.3582 51.9005C79.7881 51.8271 80.2222 51.853 80.6626 51.9761C81.0798 52.084 81.4402 52.274 81.7436 52.5504C82.0429 52.8267 82.2536 53.1485 82.3631 53.5133C82.4769 53.8804 82.4896 54.2712 82.4095 54.69C82.3105 55.2147 82.0934 55.5969 81.7605 55.8301C81.4254 56.0676 81.1009 56.1474 80.7806 56.0719C80.591 56.0265 80.4456 55.9358 80.3465 55.7977C80.2475 55.6616 80.218 55.5105 80.2559 55.3399C80.2938 55.1629 80.3718 55.0333 80.4898 54.947C80.6057 54.8628 80.7511 54.839 80.9302 54.8822C81.0567 54.9124 81.1578 54.9729 81.2316 55.0571C81.2674 55.0744 81.3011 55.1046 81.3306 55.1521C81.3538 55.2061 81.3854 55.2363 81.4296 55.2493C81.4739 55.2601 81.5308 55.2449 81.6024 55.2061C81.6762 55.1694 81.7415 55.1024 81.809 55.0096C81.8743 54.9168 81.9185 54.8088 81.9459 54.6922C82.0281 54.377 81.967 54.0553 81.7563 53.7228C81.5477 53.3946 81.0693 53.1398 80.3191 52.9628C79.5437 52.7792 78.9874 52.7879 78.6481 52.993C78.3067 53.1959 78.1002 53.455 78.0328 53.7681C77.9548 54.1114 78.0223 54.4202 78.2309 54.69C78.4437 54.9578 78.6839 55.1715 78.9642 55.3356L78.9621 55.3378ZM77.0782 60.0058L76.7326 60.3188C76.3639 59.9237 76.1489 59.5415 76.0941 59.1723C76.0372 58.8031 76.0836 58.4145 76.2374 58.0043C76.3976 57.6027 76.6336 57.2896 76.9497 57.0694C77.2658 56.8513 77.6282 56.7304 78.0391 56.7088C78.4479 56.6894 78.8588 56.7606 79.274 56.9226C79.687 57.0845 80.041 57.3198 80.3318 57.6264C80.6268 57.9352 80.8164 58.2828 80.9071 58.6693C80.9956 59.0558 80.964 59.4465 80.8164 59.846C80.6373 60.3383 80.3676 60.6794 80.0073 60.8672C79.6469 61.0572 79.2676 61.1285 78.8673 61.0918C78.4669 61.0551 78.0834 60.9601 77.723 60.8046L78.8251 57.8575C78.2225 57.6199 77.7399 57.5552 77.3711 57.6631C77.0024 57.7668 76.7516 57.9719 76.6167 58.2763C76.4692 58.5613 76.4461 58.8593 76.5535 59.168C76.661 59.4789 76.8359 59.7575 77.0782 60.0014V60.0058ZM79.2634 58.0345L78.6397 59.697C78.587 59.8352 78.5659 59.928 78.5722 59.9734C78.5786 60.0187 78.6186 60.0554 78.6945 60.0835C78.8546 60.1612 79.0527 60.2152 79.2887 60.2433C79.5247 60.2713 79.7481 60.2454 79.9567 60.1612C80.1653 60.0792 80.3149 59.9108 80.4055 59.6517C80.5088 59.3559 80.454 59.0622 80.2454 58.7664C80.0326 58.4728 79.7059 58.2288 79.2634 58.0345ZM8.06647 53.0988C7.61974 53.1549 7.2004 53.1096 6.81056 52.9606C6.41651 52.8116 6.08778 52.5741 5.82227 52.2503C5.55466 51.9264 5.39872 51.5464 5.34604 51.1103C5.29336 50.6871 5.36079 50.2812 5.5378 49.8968C5.71902 49.5104 5.98242 49.1951 6.33433 48.9468C6.68624 48.7029 7.08029 48.5517 7.51016 48.4956C7.94425 48.4416 8.35938 48.4934 8.76186 48.6467C9.16012 48.8022 9.49096 49.0418 9.75436 49.3679C10.0157 49.6939 10.1716 50.0717 10.2243 50.4949C10.277 50.9354 10.2137 51.3391 10.0346 51.7148C9.85551 52.0905 9.59421 52.4014 9.25074 52.6475C8.90515 52.8937 8.50899 53.0427 8.06226 53.0988H8.06647ZM7.94215 52.0646C9.26759 51.8983 9.8808 51.3931 9.77754 50.5511C9.7354 50.1926 9.55839 49.9141 9.24441 49.7112C8.93044 49.5082 8.39731 49.4542 7.6387 49.5471C6.878 49.6421 6.36594 49.8299 6.11096 50.1041C5.85599 50.3783 5.74852 50.6936 5.79277 51.052C5.89392 51.894 6.60827 52.233 7.94215 52.0624V52.0646ZM7.23201 47.416C6.78106 47.3988 6.37437 47.2865 6.01192 47.0749C5.64527 46.8655 5.35658 46.5783 5.14585 46.2177C4.93092 45.8572 4.83609 45.4534 4.84873 45.0151C4.86138 44.5876 4.98781 44.199 5.22593 43.847C5.46194 43.4951 5.7717 43.2252 6.15732 43.0395C6.54295 42.8539 6.95175 42.7653 7.39005 42.7826C7.82625 42.7977 8.23084 42.9143 8.60171 43.1324C8.97047 43.3504 9.26127 43.6398 9.46989 44.0047C9.6785 44.3695 9.77754 44.7647 9.76279 45.19C9.75015 45.6326 9.62582 46.0234 9.39192 46.3646C9.15802 46.7079 8.85247 46.9734 8.47317 47.1591C8.09597 47.3448 7.68085 47.4333 7.23412 47.416H7.23201ZM7.26783 46.3732C8.60171 46.4207 9.28234 46.0213 9.31395 45.1749C9.32449 44.8143 9.19384 44.5077 8.91569 44.2573C8.63542 44.0068 8.11494 43.8686 7.35423 43.8406C6.5872 43.8147 6.05407 43.9161 5.75906 44.145C5.46404 44.376 5.31022 44.6718 5.29757 45.0324C5.27018 45.8766 5.92764 46.3257 7.26994 46.3732H7.26783ZM3.56122 38.3197L3.12081 38.2334L3.31889 36.4435L9.7375 37.7238C9.82812 37.7433 9.89344 37.7368 9.93769 37.713C9.98405 37.6871 10.0178 37.618 10.0409 37.4993L10.1358 36.9897L10.5783 37.0783L10.2727 38.6803L9.46778 38.5205L9.45935 38.5594C9.77543 38.825 9.97984 39.0841 10.0747 39.3345C10.1674 39.585 10.1863 39.87 10.1273 40.1917C10.0009 40.848 9.65954 41.3015 9.10112 41.5562C8.5406 41.8067 7.94636 41.8715 7.30998 41.7441C6.66516 41.6145 6.13836 41.3166 5.73377 40.8437C5.32707 40.373 5.18378 39.8268 5.30179 39.2007C5.35658 38.8077 5.49776 38.5119 5.72323 38.3219C5.94871 38.1341 6.15522 38.0024 6.33854 37.9376L6.34697 37.8987L6.03089 37.8771L4.07327 37.4885C3.9342 37.4604 3.83726 37.4626 3.78458 37.4906C3.7319 37.5209 3.68554 37.6483 3.64551 37.8706L3.557 38.3241L3.56122 38.3197ZM7.94636 38.2528C6.66516 38.0391 5.9466 38.3068 5.79277 39.0495C5.71691 39.3885 5.81174 39.7145 6.07936 40.0297C6.34908 40.345 6.81478 40.5738 7.47856 40.712C7.99061 40.8135 8.40784 40.8329 8.72814 40.7703C9.04844 40.7077 9.28866 40.5954 9.45092 40.4292C9.61107 40.2651 9.7059 40.0708 9.73329 39.8549C9.77965 39.5375 9.68693 39.2266 9.45514 38.9264C9.22545 38.6285 8.72182 38.4018 7.94636 38.2528ZM6.48394 27.3753L11.7647 28.1633L11.7878 28.118L8.11705 24.2251L9.30342 21.943L9.7354 22.1805L9.43828 22.7548C9.34767 22.9275 9.3266 23.0506 9.36452 23.1305C9.40667 23.2103 9.49096 23.2859 9.62161 23.355L14.129 25.8099C14.2385 25.8725 14.3207 25.9049 14.3797 25.92C14.4345 25.9308 14.4872 25.9179 14.5357 25.8812C14.5862 25.8423 14.641 25.7667 14.7 25.648L15.0077 25.0564L15.4312 25.2852L13.9161 28.2043L13.4926 27.9755L13.7918 27.4012C13.8887 27.2133 13.9204 27.0859 13.8887 27.0212C13.8571 26.9585 13.7665 26.8851 13.6148 26.8031L8.91147 24.2402L8.88408 24.2942L13.442 29.1263L13.3261 29.3465L6.74945 28.4095L6.72206 28.4634L11.0124 30.7974C11.3116 30.9615 11.5539 31.009 11.7373 30.9378C11.9227 30.8665 12.0892 30.683 12.243 30.3915L12.3062 30.2684L12.7298 30.4973L11.4844 32.8939L11.063 32.6629L11.1262 32.5398C11.3074 32.1944 11.3516 31.9245 11.2589 31.7388C11.1683 31.5531 11.0061 31.3955 10.77 31.2681L6.67781 29.0378C6.53452 28.9622 6.42494 28.9212 6.34908 28.9276C6.27111 28.9298 6.18682 29.0291 6.08778 29.217L5.79067 29.7913L5.35868 29.5538L6.48605 27.3796L6.48394 27.3753ZM18.4467 20.6842L18.7248 20.682C18.7733 21.1614 18.6974 21.5241 18.493 21.7659C18.1854 22.1049 17.8145 22.1437 17.3804 21.8868L17.3509 21.9257C17.5406 22.554 17.412 23.152 16.9569 23.7113C16.6281 24.1172 16.3057 24.3201 15.9897 24.3136C15.6757 24.3115 15.406 24.2165 15.1847 24.033C14.4998 23.463 14.6221 22.2711 15.5471 20.4532L15.2416 20.2027C15.0667 20.0559 14.8539 19.9609 14.6094 19.9199C14.365 19.881 14.1037 20.0408 13.8234 20.4057C13.6633 20.6086 13.5684 20.8008 13.5326 20.98C13.4989 21.1635 13.5221 21.2866 13.6043 21.3557C13.6401 21.3837 13.697 21.3881 13.7771 21.3729C13.796 21.3622 13.815 21.3535 13.8424 21.347C13.8677 21.3406 13.893 21.3384 13.9204 21.3362C14.0384 21.3039 14.1585 21.3298 14.2828 21.4183C14.3924 21.4917 14.4577 21.5953 14.4872 21.7292C14.5125 21.8609 14.4703 21.9991 14.365 22.1437C14.2575 22.2798 14.1332 22.3532 13.9962 22.3618C13.8592 22.3726 13.716 22.3337 13.5663 22.2474C13.2945 22.0725 13.1365 21.7681 13.0964 21.3406C13.0522 20.9087 13.2081 20.4661 13.56 20.0106C14.2723 19.0476 15.0772 18.9375 15.9791 19.6867L17.7239 21.1354C18 21.3643 18.2086 21.3924 18.3519 21.2197C18.4425 21.1376 18.472 20.9606 18.4467 20.6907V20.6842ZM15.8864 20.7382C15.2795 21.8674 15.2205 22.6555 15.7136 23.1067C15.8337 23.2082 15.9602 23.2816 16.0929 23.3269C16.2257 23.3723 16.3626 23.3788 16.5017 23.3421C16.6429 23.3075 16.7609 23.2298 16.8599 23.1045C17.0475 22.8908 17.1107 22.5907 17.0559 22.2128C17.0011 21.8328 16.8115 21.5047 16.487 21.2391L15.8885 20.7403L15.8864 20.7382ZM17.9831 16.4869L18.0273 16.448C17.9452 16.1091 17.9578 15.7809 18.0632 15.4656C18.1685 15.1483 18.3497 14.8935 18.6005 14.7013C18.9061 14.4487 19.199 14.3386 19.4834 14.3688C19.7679 14.3969 20.0039 14.4876 20.1873 14.6322C20.3685 14.7791 20.5307 14.9367 20.6677 15.1051L22.1891 16.9619C22.2818 17.0742 22.3619 17.1282 22.4251 17.126C22.4905 17.1238 22.5726 17.0785 22.6717 16.9943L22.9941 16.7158L23.2828 17.0699L21.5612 18.5488L21.2725 18.1969L21.4811 18.0155C21.6012 17.9119 21.6602 17.8299 21.6602 17.7651C21.6581 17.7003 21.616 17.6183 21.5359 17.5233L20.0292 15.6816C19.5066 15.0425 19.0367 14.9086 18.6195 15.2864C18.3561 15.5239 18.2549 15.8241 18.3139 16.1889C18.375 16.556 18.4951 16.9014 18.6764 17.2253C18.7101 17.2642 18.7333 17.2987 18.7501 17.3246C18.767 17.3505 18.7881 17.3786 18.8133 17.4088L18.8934 17.5082L19.9934 18.8511C20.0735 18.9461 20.1451 19.0044 20.202 19.0174C20.2589 19.0346 20.3474 18.9915 20.4633 18.8921L20.6719 18.7129L20.9606 19.0649L19.2306 20.5525L18.9419 20.2006L19.2854 19.9026C19.4013 19.8033 19.456 19.7256 19.4518 19.6629C19.4455 19.6003 19.4055 19.5226 19.3254 19.4233L17.3467 17.0072C17.2477 16.8863 17.1676 16.8302 17.1128 16.8388C17.0559 16.8475 16.9569 16.9144 16.8115 17.0396L16.5417 17.2707L16.2446 16.9101L17.4247 15.7161L17.6944 16.0464L17.9831 16.4912V16.4869ZM26.5174 13.7988C26.5026 14.1313 26.431 14.4638 26.3024 14.7985C26.1739 15.1331 25.921 15.403 25.5501 15.6125C25.135 15.8305 24.7747 15.8651 24.4691 15.7247C24.1636 15.5801 23.8812 15.2972 23.622 14.8741L22.3682 12.8186C22.2987 12.7063 22.2355 12.6415 22.1807 12.6243C22.1259 12.6092 22.0226 12.6502 21.873 12.7452L21.5443 12.9568L21.2999 12.5595L22.6106 11.5534L24.3048 14.33C24.5134 14.6689 24.722 14.9086 24.9391 15.0468C25.154 15.185 25.3816 15.1763 25.6239 15.0209C25.9337 14.8201 26.1212 14.5113 26.1844 14.0817C26.2455 13.6563 26.1233 13.1921 25.8157 12.6869L24.9053 11.1928L24.8463 11.0978C24.7937 11.0136 24.7347 10.979 24.663 10.9963C24.5935 11.0157 24.4923 11.0676 24.3617 11.1518L24.0688 11.3374L23.8264 10.938L25.154 9.92107L27.2718 13.3972C27.3455 13.516 27.4087 13.5829 27.4635 13.598C27.5204 13.6153 27.5794 13.6045 27.6384 13.5656L28.1041 13.2655L28.3401 13.6563L26.9746 14.5329L26.5637 13.7664L26.5153 13.7967L26.5174 13.7988ZM28.3275 9.0855L27.3539 9.53028L27.1664 9.09845L28.1399 8.65368C27.8681 8.09231 27.7332 7.59788 27.7353 7.16606C27.7375 6.73856 27.826 6.40606 27.9988 6.16208C28.1715 5.92242 28.3781 5.74753 28.6183 5.64173C28.8269 5.55105 29.0271 5.52298 29.2146 5.55321C29.4043 5.5856 29.5644 5.65469 29.6951 5.76696C29.8236 5.87923 29.9205 6.00662 29.9817 6.1448C30.0575 6.32185 30.087 6.4989 30.0617 6.67378C30.0407 6.84867 29.9416 6.97606 29.7667 7.05379C29.634 7.11208 29.5033 7.11856 29.3706 7.06458C29.2357 7.0106 29.1367 6.91344 29.0734 6.76662C29.0208 6.64572 29.0018 6.52696 29.0165 6.40821C29.0165 6.3931 29.0229 6.36287 29.0292 6.31537C29.0376 6.2398 29.0355 6.18583 29.0208 6.15344C28.9639 6.01742 28.8648 5.99583 28.7236 6.08003C28.5614 6.15344 28.4434 6.2981 28.3696 6.51185C28.2959 6.7256 28.3359 7.01924 28.4897 7.39492C28.5361 7.48561 28.5782 7.56765 28.6162 7.64538C28.652 7.72095 28.6962 7.81811 28.7426 7.92822C28.7574 7.95845 28.77 7.98652 28.7847 8.01243C28.8016 8.03834 28.8185 8.07072 28.8374 8.11606C28.8733 8.20027 28.907 8.25856 28.9344 8.29095L30.0575 7.77493L30.2451 8.20675L29.1198 8.72061L30.5042 11.9074C30.5569 12.0219 30.6054 12.0953 30.656 12.1277C30.7065 12.1601 30.7993 12.1449 30.9362 12.0823L31.7665 11.7045L31.9477 12.1255L29.0545 13.4469L28.8711 13.0237L29.5412 12.7193C29.6782 12.6567 29.7541 12.5962 29.7667 12.5336C29.7773 12.4753 29.7604 12.3846 29.7098 12.2702L28.3275 9.08766V9.0855ZM37.2432 9.90164L37.4686 10.0679C37.2326 10.4846 36.965 10.7329 36.6595 10.8085C36.2169 10.897 35.8924 10.7048 35.688 10.2341L35.6417 10.2471C35.4331 10.8689 34.9863 11.2748 34.2973 11.4562C33.7999 11.5857 33.4228 11.5555 33.1699 11.3612C32.917 11.169 32.7548 10.9294 32.681 10.6444C32.4534 9.77425 33.2331 8.8847 35.0264 7.96924L34.9252 7.58277C34.8683 7.35606 34.7503 7.15526 34.5733 6.9739C34.4005 6.79469 34.095 6.76447 33.663 6.89185C33.4185 6.95879 33.2289 7.05594 33.0961 7.18117C32.9634 7.30856 32.9086 7.42299 32.936 7.52447C32.9507 7.56981 32.9929 7.60867 33.0687 7.64538C33.0919 7.64538 33.113 7.65186 33.1341 7.66265C33.1594 7.67345 33.1804 7.6864 33.2057 7.69936C33.3174 7.7447 33.4017 7.8397 33.4523 7.98652C33.4965 8.10959 33.4944 8.23481 33.4354 8.35788C33.3806 8.47879 33.2668 8.56732 33.1004 8.61913C32.9381 8.66448 32.799 8.64936 32.6789 8.57379C32.5609 8.50038 32.4661 8.38163 32.3986 8.22186C32.2785 7.91527 32.3249 7.57629 32.5377 7.20276C32.7506 6.8314 33.1299 6.56583 33.6756 6.40821C34.803 6.05628 35.5173 6.45571 35.8166 7.6022L36.4003 9.82823C36.4909 10.178 36.6447 10.3248 36.8596 10.273C36.9777 10.2622 37.1041 10.1348 37.2389 9.89732L37.2432 9.90164ZM35.1401 8.40538C34.0022 8.95164 33.5028 9.55834 33.6419 10.2169C33.6819 10.3723 33.7431 10.5062 33.8231 10.6228C33.9053 10.7372 34.0128 10.8257 34.1455 10.8819C34.2783 10.938 34.4216 10.9466 34.5712 10.9056C34.8472 10.8473 35.0685 10.6444 35.2413 10.3032C35.4141 9.9621 35.4478 9.58425 35.3403 9.16971L35.1401 8.40538ZM41.2574 8.39459L41.7063 8.50038C41.5883 9.10709 41.4007 9.54539 41.1415 9.81312C40.8866 10.0808 40.5262 10.2449 40.0584 10.3011C39.5864 10.3594 39.1734 10.2881 38.8215 10.0787C38.4675 9.87357 38.183 9.57346 37.9723 9.18914C37.7573 8.8005 37.6309 8.37516 37.5951 7.90663C37.5487 7.47049 37.6035 7.0581 37.751 6.67378C37.9027 6.2873 38.1282 5.97855 38.4253 5.74753C38.7224 5.51435 39.0765 5.36537 39.4895 5.30059C40.0036 5.21639 40.4272 5.29412 40.7559 5.53378C41.0889 5.7756 41.2722 6.0606 41.3143 6.3931C41.3375 6.58958 41.3038 6.76231 41.2132 6.90697C41.1226 7.04731 40.9898 7.12935 40.8233 7.15095C40.6506 7.1747 40.5009 7.14231 40.3829 7.06026C40.2649 6.97606 40.1954 6.84219 40.1743 6.65651C40.1575 6.52481 40.1764 6.40606 40.2291 6.30458C40.2312 6.26571 40.2502 6.22253 40.2839 6.17719C40.326 6.13833 40.3408 6.09514 40.3366 6.0498C40.3303 6.0023 40.3008 5.95048 40.2396 5.89435C40.1785 5.83821 40.0964 5.79287 39.9868 5.7648C39.8793 5.73457 39.7676 5.72594 39.6517 5.74321C39.3335 5.76912 39.0575 5.93969 38.8278 6.25492C38.5939 6.56799 38.5244 7.1164 38.6192 7.90015C38.7182 8.70982 38.9163 9.24096 39.2219 9.49789C39.5232 9.75698 39.8329 9.86709 40.1427 9.82823C40.4841 9.78721 40.7412 9.61664 40.9182 9.32084C41.0931 9.0272 41.2069 8.71845 41.2595 8.39459H41.2574ZM42.6187 5.59639L42.625 5.12571C43.5606 5.08253 44.0242 4.36786 44.0221 2.9882L44.4625 2.99683L44.4267 5.15809L45.8238 5.184L45.8154 5.65469L44.4183 5.62878L44.3719 8.35356C44.3656 8.70334 44.3993 8.95379 44.471 9.10925C44.5426 9.26471 44.6775 9.34243 44.8713 9.34675C45.3328 9.35539 45.573 8.92357 45.5878 8.05561L45.5899 7.83538L46.0408 7.83322L46.0345 8.06425C46.0261 8.52629 45.9334 8.97755 45.7522 9.41584C45.573 9.85846 45.2043 10.0722 44.6522 10.0636C43.8957 10.0485 43.5143 9.53459 43.5059 8.51982L43.5564 5.61582L42.6187 5.59855V5.59639ZM50.5545 9.52812C50.3417 9.77641 50.0825 9.99016 49.7727 10.1672C49.4672 10.3421 49.1048 10.3918 48.6854 10.314C48.2324 10.2147 47.9289 10.0118 47.7814 9.703C47.6297 9.39641 47.5833 8.99266 47.6444 8.49823L47.9331 6.09299C47.95 5.96128 47.9416 5.8706 47.9057 5.8231C47.872 5.7756 47.7688 5.73889 47.596 5.71514L47.2082 5.66764L47.263 5.20128L48.8982 5.26605L48.5105 8.5155C48.4621 8.91277 48.481 9.23448 48.559 9.48277C48.6412 9.72891 48.8266 9.86926 49.109 9.90596C49.4714 9.9513 49.8107 9.82823 50.1204 9.53675C50.4323 9.24743 50.622 8.80698 50.6915 8.21538L50.9001 6.46651L50.9128 6.36071C50.9233 6.25924 50.8959 6.19446 50.8327 6.16424C50.7674 6.12969 50.6578 6.10594 50.4997 6.08651L50.1626 6.04333L50.2174 5.57696L51.8758 5.64389L51.3869 9.70948C51.37 9.84982 51.3785 9.94482 51.4143 9.99232C51.448 10.0398 51.4986 10.0679 51.5702 10.0765L52.1118 10.1478L52.0591 10.6055L50.4555 10.4047L50.6093 9.54539L50.5482 9.53675L50.5545 9.52812ZM55.3105 7.86561L55.3653 7.88288C55.6372 7.58708 55.9427 7.38629 56.282 7.27833C56.6233 7.17038 56.9352 7.16606 57.2281 7.26106C57.4599 7.3172 57.6327 7.43595 57.7507 7.61299C57.8666 7.79436 57.8877 8.00163 57.8139 8.23481C57.7676 8.42913 57.6685 8.57379 57.521 8.66232C57.3714 8.753 57.2092 8.77027 57.0364 8.71414C56.9373 8.67959 56.832 8.61266 56.7245 8.51118C56.617 8.40754 56.5981 8.24993 56.6676 8.03186L56.6845 7.97572C56.6866 7.96709 56.6887 7.96061 56.695 7.95629C56.7013 7.95413 56.7055 7.94118 56.7097 7.93038L56.735 7.85481C56.7519 7.80515 56.7414 7.77277 56.7013 7.75981C56.6023 7.72527 56.4379 7.74254 56.2082 7.81163C55.9764 7.87856 55.7383 8.0405 55.4897 8.29095C55.2431 8.54141 55.0387 8.91277 54.8828 9.40937L54.4866 10.6573C54.4487 10.7782 54.4403 10.8689 54.4592 10.9272C54.4782 10.9855 54.5583 11.0395 54.7016 11.087L55.2494 11.2662L55.1125 11.7067L52.6765 10.8948L52.8135 10.4587L53.2412 10.599C53.3845 10.6465 53.4815 10.653 53.5299 10.6163C53.5763 10.5796 53.6205 10.4997 53.6585 10.3788L54.6046 7.39924C54.6489 7.26538 54.6552 7.17254 54.6257 7.12288C54.5983 7.0689 54.4866 7.01276 54.2949 6.94799L53.9598 6.83788L54.1136 6.34992L55.692 6.74935L55.3105 7.86561ZM58.8064 8.52413L58.994 8.09663L60.6102 8.67959L58.9856 12.4235C58.9371 12.5379 58.916 12.6264 58.9287 12.6869C58.9434 12.7452 59.0172 12.8078 59.1541 12.8704L59.7336 13.136L59.5524 13.5592L56.9984 12.3932L57.1797 11.9722L57.7612 12.2378C57.8961 12.3004 57.993 12.3155 58.0436 12.2853C58.0963 12.2551 58.149 12.1817 58.1974 12.0629L59.4513 9.1805C59.5124 9.04232 59.5229 8.943 59.4871 8.89118C59.4491 8.8372 59.3459 8.77243 59.1794 8.69686L58.8043 8.52629L58.8064 8.52413ZM61.2403 7.23299C61.1686 7.39924 61.0591 7.51152 60.9095 7.57629C60.7577 7.6389 60.6039 7.63458 60.4438 7.56333C60.2815 7.48992 60.174 7.37333 60.1213 7.21788C60.0666 7.06242 60.0771 6.90265 60.1487 6.73856C60.2183 6.57878 60.3279 6.46867 60.4817 6.4039C60.6355 6.33696 60.7893 6.33912 60.9432 6.41037C61.097 6.48162 61.2003 6.59606 61.2571 6.75583C61.3119 6.9156 61.3056 7.07754 61.2382 7.23515L61.2403 7.23299ZM63.5962 11.3094L63.6467 11.3396C63.9375 11.1539 64.2473 11.0632 64.5739 11.0697C64.9005 11.0762 65.1935 11.1712 65.4484 11.3569C65.775 11.5771 65.9689 11.8276 66.0279 12.1147C66.089 12.3997 66.0785 12.6545 65.9984 12.8812C65.9204 13.1057 65.8235 13.313 65.7097 13.4987L64.4559 15.5542C64.378 15.6772 64.3548 15.7722 64.3758 15.8327C64.4011 15.8953 64.4665 15.9622 64.576 16.0335L64.9343 16.2624L64.694 16.6532L62.7891 15.4311L63.0293 15.0425L63.259 15.1893C63.3918 15.2778 63.4887 15.308 63.5477 15.2843C63.6046 15.2648 63.6678 15.2001 63.7352 15.0921L64.9785 13.0518C65.4105 12.3436 65.3873 11.847 64.909 11.5555C64.6097 11.3698 64.2958 11.3634 63.9776 11.5361C63.6552 11.711 63.3728 11.9334 63.1284 12.2097C63.101 12.2551 63.0799 12.2918 63.0588 12.3134C63.0399 12.3393 63.0209 12.3673 63.0019 12.4019L62.9324 12.512L62.0284 13.9996C61.9631 14.1076 61.9315 14.1918 61.9357 14.2544C61.9399 14.317 62.0073 14.3861 62.1338 14.4681L62.3655 14.6171L62.1295 15.0079L60.2141 13.7794L60.4522 13.3907L60.8336 13.6326C60.96 13.7146 61.0506 13.7448 61.1096 13.7233C61.1644 13.6973 61.2255 13.6326 61.2909 13.5268L62.924 10.8495C63.0061 10.7135 63.0335 10.6206 63.0104 10.5688C62.983 10.517 62.8924 10.4393 62.7301 10.3378L62.433 10.1456L62.6753 9.74619L64.1483 10.5235L63.9249 10.8905L63.6004 11.3115L63.5962 11.3094ZM70.6175 15.8089C71.2012 15.7442 71.631 15.8349 71.9134 16.0853C72.0651 16.2321 72.1473 16.3876 72.1642 16.5495C72.181 16.7136 72.122 16.8712 71.9935 17.031C71.905 17.1454 71.7954 17.2253 71.6626 17.262C71.5278 17.3009 71.4077 17.2771 71.2918 17.1865C71.0579 16.9943 71.0242 16.7957 71.1927 16.5884C71.2264 16.5409 71.2707 16.4955 71.3276 16.4567L71.3634 16.4113C71.3929 16.3746 71.3845 16.3379 71.3423 16.2991C71.2728 16.2386 71.1695 16.2019 71.0347 16.1911C70.8998 16.1803 70.7818 16.1933 70.6849 16.23C70.7186 16.6855 70.5964 17.0828 70.3224 17.4218C70.1265 17.655 69.9052 17.8191 69.6481 17.9097C69.3932 17.9983 69.115 18.0177 68.82 17.9594C68.5229 17.9054 68.2447 17.7824 67.9897 17.588C67.7853 17.4391 67.5915 17.2275 67.4018 16.9511C67.3576 16.8777 67.3154 16.8237 67.2754 16.7892C67.1827 16.7071 67.0626 16.6704 66.9214 16.6791C66.7781 16.6877 66.6706 16.7374 66.6011 16.8367C66.5547 16.9166 66.5358 17.0094 66.5484 17.1174C66.5695 17.2124 66.6643 17.3354 66.8287 17.4758L67.2185 17.8104L67.661 18.1904C68.2679 18.7453 68.5713 19.229 68.5713 19.6413C68.5713 20.0494 68.4702 20.3625 68.2658 20.5827C67.6905 21.17 66.8287 20.9822 65.6739 20.0257C65.0333 19.4988 64.6519 19.0584 64.5276 18.7065C64.4032 18.3502 64.4138 18.0674 64.5571 17.8493C64.673 17.6852 64.8458 17.5924 65.0754 17.5643C65.3093 17.5362 65.5727 17.6032 65.8762 17.7672L65.9015 17.737C65.7371 17.5513 65.6339 17.3419 65.5959 17.1087C65.558 16.8755 65.6065 16.6726 65.7392 16.4999C66.0406 16.1306 66.5189 16.0724 67.1742 16.3185C67.111 16.0724 67.1089 15.8284 67.1658 15.5801C67.2227 15.3318 67.3302 15.1159 67.484 14.9259C67.7643 14.5826 68.1415 14.3926 68.6114 14.3602C69.0834 14.3235 69.5133 14.4703 69.901 14.7942C70.2634 15.0792 70.5037 15.416 70.6175 15.8025V15.8089ZM68.2447 15.6254C68.0256 15.9234 67.9118 16.2105 67.9033 16.4826C67.897 16.7568 67.9855 16.9727 68.171 17.1303C68.3669 17.3009 68.6029 17.3354 68.8769 17.2426C69.155 17.1497 69.3932 16.9533 69.5955 16.6575C69.8504 16.3336 69.9684 16.0464 69.9558 15.7895C69.9389 15.5304 69.8462 15.3361 69.6734 15.2066C69.4943 15.0705 69.2773 15.023 69.0181 15.0684C68.7631 15.1137 68.5039 15.2994 68.2447 15.6254ZM65.3641 18.2077C65.0375 18.5532 65.2567 19.0562 66.0195 19.7126C66.4746 20.1034 66.8308 20.3107 67.0857 20.3344C67.3407 20.3603 67.5283 20.2999 67.6421 20.1617C67.8949 19.8314 67.642 19.3628 66.8834 18.754C66.5547 18.469 66.2639 18.2617 66.0153 18.1321C65.7645 18.0004 65.5517 18.0242 65.3662 18.2077H65.3641ZM75.4135 23.9099L73.6919 25.0542C73.5591 25.1406 73.4791 25.2248 73.4538 25.3047C73.4264 25.3802 73.4643 25.5012 73.5655 25.6652L73.9869 26.3281L73.5865 26.5958L71.7554 23.7048L72.1557 23.4392L72.5013 23.9833C72.6088 24.1517 72.6994 24.2402 72.7774 24.2424C72.8553 24.2489 72.9607 24.2057 73.0956 24.1128L77.3774 21.2672C77.5123 21.1743 77.5966 21.0923 77.6303 21.0189C77.6598 20.9476 77.6219 20.8245 77.5123 20.6496L77.1667 20.1034L77.5755 19.8335L79.1096 22.2495C79.5795 22.9966 79.8935 23.7177 80.0431 24.4151C80.1948 25.1147 79.9188 25.6998 79.2128 26.1683C78.8083 26.4382 78.3215 26.5202 77.7546 26.4166C77.1878 26.313 76.602 25.7883 76.0035 24.8426L75.4114 23.9099H75.4135ZM75.8139 23.6422L76.2269 24.2877C76.2754 24.3676 76.3196 24.4173 76.3554 24.441C76.4376 24.5706 76.543 24.7023 76.6694 24.8448C76.9286 25.1406 77.2215 25.3112 77.5481 25.3565C77.8748 25.4018 78.2035 25.3155 78.5301 25.0974C79.0548 24.7476 79.2908 24.3503 79.236 23.9121C79.1812 23.4694 79.0337 23.0549 78.7851 22.6706L78.4985 22.2172C78.391 22.0487 78.2456 22.025 78.0581 22.1502L75.8118 23.6465L75.8139 23.6422ZM79.1054 29.4566L79.1307 29.5128C79.5268 29.5149 79.8787 29.6056 80.1864 29.787C80.4961 29.9683 80.7132 30.1972 80.8438 30.4822C80.9618 30.6938 80.9956 30.9011 80.9471 31.1127C80.9007 31.3243 80.7659 31.4819 80.5488 31.5855C80.376 31.6805 80.2075 31.7064 80.041 31.6567C79.8766 31.6092 79.7523 31.4991 79.6743 31.3307C79.6301 31.2314 79.609 31.1083 79.609 30.9594C79.609 30.8061 79.708 30.683 79.9124 30.588L79.9651 30.5621C79.9715 30.5599 79.9757 30.5599 79.9841 30.5599C79.9925 30.5599 80.0009 30.5578 80.0115 30.5513L80.0831 30.5189C80.1295 30.4973 80.1463 30.4671 80.1295 30.4304C80.0852 30.3311 79.9609 30.2231 79.7565 30.0957C79.55 29.9705 79.2761 29.8992 78.9263 29.8841C78.5807 29.8669 78.1761 29.9705 77.7146 30.1907L76.5535 30.7456C76.4418 30.7996 76.3702 30.8536 76.3428 30.9097C76.3133 30.9637 76.328 31.0587 76.3955 31.199L76.6378 31.7345L76.2311 31.9288L75.148 29.5516L75.5568 29.3573L75.7465 29.774C75.8097 29.9122 75.8708 29.9878 75.9298 29.9986C75.9867 30.0137 76.0731 29.9899 76.1848 29.9359L78.9579 28.6124C79.0822 28.5541 79.1538 28.4937 79.1686 28.4375C79.1854 28.3814 79.1517 28.2605 79.0674 28.0748L78.9199 27.7488L79.3709 27.5329L80.1632 28.9881L79.1075 29.4588L79.1054 29.4566ZM78.7872 38.3413L78.6312 38.5745C78.2182 38.3413 77.9738 38.0693 77.8937 37.7605C77.801 37.3071 77.9822 36.9703 78.4353 36.7544L78.4247 36.7069C77.8115 36.5061 77.4112 36.0527 77.2215 35.351C77.0866 34.8436 77.1119 34.4571 77.2932 34.1937C77.4765 33.9324 77.7083 33.7597 77.9843 33.6798C78.8314 33.4294 79.7165 34.2153 80.6373 36.0354L81.0145 35.9253C81.2337 35.8605 81.4296 35.7353 81.6024 35.5539C81.7731 35.3747 81.7942 35.0617 81.6657 34.619C81.594 34.3686 81.4992 34.1764 81.3728 34.0447C81.2463 33.913 81.1325 33.859 81.0356 33.8893C80.9913 33.9001 80.9534 33.9476 80.9197 34.0274C80.9197 34.0469 80.9134 34.0706 80.9028 34.0944C80.8944 34.116 80.8818 34.1419 80.8691 34.1656C80.8249 34.2844 80.7343 34.3686 80.5952 34.4247C80.473 34.4722 80.3529 34.4722 80.2327 34.4161C80.1126 34.3621 80.0241 34.2477 79.9693 34.0771C79.923 33.9087 79.9356 33.764 80.0073 33.6431C80.0768 33.5222 80.1906 33.4229 80.3444 33.3495C80.6415 33.2199 80.9745 33.2631 81.339 33.4747C81.7078 33.6863 81.9733 34.0706 82.1356 34.6277C82.498 35.7806 82.1229 36.519 81.0061 36.8451L78.8441 37.482C78.5069 37.5813 78.3657 37.7411 78.4205 37.9613C78.4311 38.0822 78.5554 38.2096 78.7893 38.3413H78.7872ZM80.2117 36.1606C79.6596 35.0055 79.059 34.5046 78.4184 34.6557C78.2667 34.7011 78.1382 34.7659 78.0244 34.8501C77.9106 34.9343 77.8284 35.0444 77.7778 35.1826C77.7251 35.3207 77.7188 35.4676 77.761 35.6187C77.8263 35.9015 78.0286 36.1261 78.3636 36.2988C78.6987 36.4694 79.0695 36.4996 79.4678 36.3809L80.2096 36.1606H80.2117ZM80.2032 42.3918L80.1105 42.8517C79.5142 42.7416 79.0843 42.5559 78.8188 42.299C78.5554 42.0399 78.3868 41.6707 78.3236 41.1978C78.2583 40.712 78.3215 40.291 78.5196 39.924C78.7155 39.5569 79 39.2611 79.3751 39.0366C79.7481 38.812 80.1632 38.676 80.6184 38.6306C81.044 38.5745 81.4486 38.622 81.8279 38.7688C82.2051 38.9178 82.5086 39.1402 82.7425 39.4425C82.9743 39.7447 83.1239 40.1053 83.1955 40.5242C83.2903 41.051 83.2208 41.485 82.989 41.8283C82.7614 42.1716 82.4833 42.3659 82.1609 42.4156C81.9691 42.4415 81.8005 42.4091 81.6614 42.3206C81.5182 42.2299 81.436 42.0982 81.4149 41.9276C81.3896 41.7506 81.417 41.5973 81.495 41.4763C81.575 41.3511 81.7036 41.2799 81.8848 41.254C82.0134 41.2345 82.1271 41.2518 82.2283 41.3058C82.2662 41.3058 82.3084 41.3252 82.3526 41.3598C82.3905 41.3986 82.4348 41.418 82.479 41.4094C82.5233 41.4029 82.5718 41.3706 82.6265 41.3079C82.6813 41.2453 82.7235 41.159 82.7509 41.0488C82.7783 40.9366 82.7846 40.82 82.7677 40.7034C82.734 40.3774 82.5633 40.0988 82.2515 39.8678C81.9396 39.6368 81.4044 39.5742 80.6437 39.6843C79.8577 39.7966 79.3393 40.0103 79.0927 40.3277C78.8483 40.6429 78.7471 40.9582 78.7893 41.2777C78.8356 41.6275 79.0063 41.8887 79.295 42.0636C79.5858 42.2385 79.8893 42.3508 80.2053 42.3983L80.2032 42.3918ZM82.9469 43.8406L83.4083 43.8492C83.4484 44.8035 84.1459 45.2828 85.4945 45.2807L85.4861 45.7319L83.3746 45.6931L83.3493 47.1267L82.89 47.1181L82.9152 45.6844L80.2559 45.6369C79.9188 45.6305 79.6722 45.665 79.5226 45.7406C79.3709 45.814 79.295 45.9522 79.2887 46.1508C79.2824 46.6236 79.7017 46.8698 80.5488 46.8827L80.7638 46.8892L80.7659 47.3491L80.5404 47.3469C80.0937 47.3383 79.6533 47.2433 79.2213 47.0555C78.7914 46.8719 78.5807 46.4941 78.5912 45.9284C78.606 45.1533 79.1054 44.7625 80.0979 44.7517L82.9321 44.8014L82.9469 43.8406ZM82.7993 48.5539L83.2566 48.61L83.1829 50.3675L79.215 49.8666C79.0906 49.8537 79.0042 49.8601 78.9515 49.8904C78.8989 49.9206 78.863 50.0134 78.8441 50.1667L78.7661 50.8123L78.3215 50.7562L78.6629 47.9148L79.1075 47.9709L79.0295 48.6165C79.0106 48.7676 79.0232 48.867 79.0674 48.9101C79.1117 48.9533 79.1939 48.9814 79.3182 48.9987L82.3758 49.3808C82.5233 49.4002 82.6181 49.383 82.6561 49.3312C82.694 49.2815 82.7256 49.1627 82.7488 48.9771L82.7972 48.5604L82.7993 48.5539ZM84.7148 50.5597C84.5378 50.5381 84.4008 50.4647 84.2976 50.3373C84.1964 50.2078 84.1543 50.0545 84.1775 49.8753C84.2007 49.6982 84.2744 49.56 84.4029 49.4607C84.5357 49.3614 84.6853 49.3247 84.8623 49.3484C85.0309 49.3679 85.1679 49.4456 85.2732 49.5773C85.3765 49.7068 85.4207 49.858 85.3997 50.0307C85.3807 50.2034 85.3027 50.3416 85.1679 50.4409C85.0351 50.5403 84.8855 50.5813 84.7169 50.5597H84.7148ZM43.9989 11.8686C61.8872 11.8686 76.3913 26.7038 76.3913 44.9978C76.3913 63.2919 61.8851 78.1271 43.9989 78.1271C26.1086 78.1271 11.6024 63.2941 11.6024 44.9978C11.6024 26.7038 26.1086 11.8686 43.9989 11.8686Z" fill="#081B43"/>
</svg>
