<svg width="96" height="90" viewBox="0 0 96 90" fill="none" xmlns="http://www.w3.org/2000/svg">
<path d="M0 45V90H48.0014H96.0027V45V0H48.0014H0V45ZM46.896 12.4444C45.0191 13.0982 43.2298 15.1684 41.5895 18.589C41.2167 19.3584 40.8893 20.0616 40.8666 20.1376C40.8245 20.2531 40.8893 20.2862 41.2394 20.3291C43.2557 20.5536 48.5395 20.6692 51.418 20.5437C54.8735 20.3951 55.1977 20.3687 55.1977 20.2135C55.1977 20.0055 53.9788 17.516 53.457 16.6707C52.4002 14.9307 51.3532 13.7222 50.2802 13.0024C49.1489 12.2562 48.0046 12.068 46.8992 12.4477L46.896 12.4444ZM57.1556 69.3242C56.8541 70.1035 55.846 72.1407 55.3176 73.0255C54.7471 73.9864 54.0566 74.9637 53.457 75.667C53.2041 75.9641 53.0193 76.2118 53.0355 76.2382C53.1263 76.3306 55.8881 75.6505 57.3695 75.1717C60.0276 74.3099 63.3762 72.6227 65.7977 70.9256L66.5141 70.4204L66.0829 70.3214C63.9046 69.8096 61.2951 69.3275 59.2237 69.0535C58.5073 68.961 57.7942 68.8719 57.6386 68.8455C57.3533 68.8125 57.3533 68.8125 57.1588 69.3242H57.1556ZM37.8422 68.862C37.7126 68.8785 36.9314 68.9874 36.1112 69.103C34.1598 69.3771 32.633 69.6412 30.9182 70.0143C29.8291 70.2553 29.5373 70.3445 29.6021 70.427C29.748 70.6086 31.8875 72.0086 32.9604 72.6128C35.7417 74.1944 38.7629 75.3599 41.7873 76.007C42.4129 76.149 42.9672 76.2547 43.0158 76.2547C43.0644 76.2547 42.9088 76.0236 42.6657 75.733C41.3496 74.201 40.1049 72.1142 39.0967 69.7568L38.7077 68.8455L38.3998 68.8356C38.228 68.8257 37.9849 68.8356 37.8487 68.862H37.8422ZM44.5491 68.3568C42.3545 68.4823 40.8504 68.5714 40.8277 68.5978C40.7629 68.6639 41.7873 70.81 42.3221 71.751C43.4761 73.7717 44.6139 75.1288 45.7841 75.908C46.5491 76.4132 47.0127 76.5783 47.768 76.6443C48.5071 76.7037 49.0452 76.5783 49.8718 76.149C50.8053 75.6604 52.1571 74.2769 53.0744 72.8604C53.6839 71.926 55.1944 68.9841 55.1944 68.7365C55.1944 68.6044 55.0226 68.578 53.4472 68.4724C52.1149 68.3799 45.6188 68.2974 44.5458 68.3568H44.5491ZM72.5207 36.1083C69.814 36.5309 68.2386 38.4922 67.7491 42.035C67.5611 43.4184 67.6259 46.39 67.8723 47.549C68.6438 51.1743 70.6373 52.8715 73.9276 52.7163C75.6423 52.6337 76.5759 52.254 77.5938 51.2107C79.0071 49.7777 79.5776 47.7999 79.5841 44.3793C79.5841 41.5728 79.1854 39.7931 78.2259 38.3172C77.5581 37.2837 76.4787 36.521 75.276 36.2239C74.6018 36.0654 73.195 35.9993 72.5207 36.1083ZM53.2884 13.0156C53.8492 13.6793 54.7763 14.9769 55.2463 15.7495C55.8233 16.7004 56.6921 18.4405 57.0681 19.4079L57.3533 20.1277L57.8817 20.0781C60.4426 19.8206 66.4978 18.7376 66.4978 18.5296C66.4978 18.4867 65.9792 18.107 65.3438 17.6843C61.8818 15.3566 58.0438 13.7024 54.2317 12.8836C52.9221 12.6029 52.9318 12.6029 53.2884 13.0156ZM42.3545 12.768C37.9978 13.7024 34.4386 15.2014 30.714 17.6843C29.8031 18.2886 29.5114 18.5461 29.7383 18.5461C29.7707 18.5461 30.2926 18.6617 30.8923 18.7937C32.8599 19.2494 36.9638 19.9362 38.3966 20.0517L38.7045 20.0748L39.0449 19.2461C40.0368 16.8853 41.5798 14.3099 42.8343 12.9694C43.1098 12.6722 43.1098 12.6623 42.925 12.6722C42.8116 12.6821 42.5588 12.7152 42.3545 12.7647V12.768ZM49.7907 10.3841C52.0825 10.4667 54.8152 10.9223 57.2528 11.6355C64.7474 13.8213 71.169 18.5659 75.785 25.3049C76.0378 25.678 76.2485 26.0247 76.2485 26.0742C76.2485 26.1402 75.8822 26.1666 75.0783 26.1666H73.9081L73.5353 25.6284C72.5045 24.1724 70.4882 21.8875 69.1624 20.6857L68.5919 20.1706L67.2013 20.5272C64.715 21.1479 61.9758 21.6531 59.2432 21.9932C58.624 22.0757 58.1216 22.1682 58.1216 22.1913C58.1216 22.2243 58.235 22.6205 58.3744 23.0696C58.6921 24.136 59.1783 25.9256 59.1783 26.0577C59.1783 26.1402 58.9255 26.1666 58.1637 26.1666H57.1556L57.0162 25.6879C56.9514 25.4303 56.812 24.9516 56.7309 24.6379C56.4716 23.7266 56.0729 22.4917 56.0081 22.4191C55.9757 22.3795 55.4408 22.3861 54.8217 22.4356C54.2122 22.4851 52.4812 22.5677 50.9836 22.6271C48.1148 22.7262 44.0758 22.637 41.3756 22.4026C40.6851 22.3432 40.0919 22.3201 40.0595 22.3531C39.9947 22.4191 39.4079 24.2813 39.1324 25.3346L38.912 26.1699H37.9136C36.9962 26.1699 36.9054 26.1534 36.9054 26.0214C36.9054 25.8398 37.369 24.0832 37.7191 22.9507C37.8585 22.5215 37.9395 22.1385 37.8974 22.1054C37.8649 22.0823 37.4597 22.0064 36.9865 21.9569C34.766 21.6993 31.5471 21.0951 29.0867 20.4843L27.5664 20.1046L27.1353 20.4777C25.8257 21.6201 23.7219 23.9709 22.6392 25.4865L22.153 26.1732H20.9568C20.2891 26.1732 19.7542 26.1501 19.7542 26.1237C19.7542 26.0147 21.0541 24.179 21.7867 23.2346C24.9083 19.2527 28.7302 16.1226 33.2489 13.8444C36.6947 12.1043 40.0595 11.0874 44.0207 10.5657C45.0191 10.4336 47.6707 10.2917 48.2866 10.3346C48.4422 10.3445 49.123 10.3775 49.7907 10.394V10.3841ZM45.9689 29.3198C47.2364 29.4783 47.9527 29.5113 51.3596 29.5344L55.2787 29.5675V34.0381V38.5021H51.7843H48.2964L48.2704 37.5347L48.2477 36.5573L47.7582 36.3592C46.3611 35.7979 44.481 35.4909 42.3934 35.481C40.3383 35.481 39.4112 35.6626 38.523 36.2668C37.6121 36.871 37.4824 38.1059 38.2377 38.8653C39.0254 39.6775 39.9947 39.9351 44.3027 40.4799C48.0273 40.9586 49.4633 41.2657 51.2689 41.9855C52.1376 42.3322 53.2365 42.9859 53.9173 43.5736C54.9254 44.4255 55.7552 45.8354 56.1377 47.3245C56.423 48.4339 56.504 50.5701 56.2998 51.7059C55.9497 53.6441 55.2366 55.0341 53.927 56.302C52.5137 57.6755 50.6919 58.5802 48.1797 59.1514C45.4081 59.7887 41.4825 59.8877 37.5473 59.4321C36.1988 59.2835 35.4175 59.2505 32.1727 59.2241L28.3671 59.1911V54.7601V50.339H31.8615H35.3559V51.2503V52.1616L35.6736 52.3267C36.7044 52.8549 38.8277 53.2446 41.0644 53.2941C44.9186 53.3931 46.6496 52.6965 46.6561 51.0423C46.6561 50.3951 46.4778 50.0484 45.9397 49.6687C45.1585 49.1041 44.0628 48.8499 40.5587 48.3942C36.3479 47.8395 34.6817 47.4499 32.8534 46.5716C29.936 45.1651 28.4968 43.0189 28.205 39.6412C28.0429 37.8516 28.3282 36.1809 29.0187 34.7215C30.5714 31.4495 34.1241 29.5708 39.6251 29.1085C40.7305 29.0161 44.5523 29.1415 45.9657 29.3165L45.9689 29.3198ZM76.7348 29.2703C80.3589 29.825 83.2471 31.2151 85.4806 33.4834C88.2035 36.2569 89.5196 39.8162 89.5131 44.3793C89.5131 46.565 89.2764 48.206 88.7157 49.9263C86.8064 55.7704 81.8565 59.267 74.8903 59.6896C71.2403 59.9042 67.5254 59.1679 64.8673 57.6954C63.0715 56.7015 61.1622 54.9549 60.1281 53.3667C58.8769 51.4286 58.1054 49.2098 57.7942 46.6179C57.671 45.5844 57.6969 42.9661 57.8363 41.8831C58.5041 36.7488 61.2011 32.8593 65.5416 30.7627C67.3536 29.8943 69.3148 29.3727 71.7362 29.1151C72.5499 29.0326 75.8401 29.1316 76.7348 29.2736V29.2703ZM26.2568 33.3282V37.013H23.9002H21.5436V44.4651V51.9172H23.9002H26.2568V55.602V59.2868L16.8919 59.2703L7.52047 59.2472L7.49454 55.5789L7.47833 51.9205H9.83496H12.1916V44.4684V37.0163L9.85766 36.9998L7.51723 36.9734L7.49454 33.3051L7.47833 29.6467H16.866H26.2536V33.3315L26.2568 33.3282ZM22.435 63.1532C23.4658 64.6423 25.7284 67.2012 27.0024 68.3271L27.4659 68.7332L28.7917 68.403C31.3364 67.7658 33.8551 67.2936 36.4581 66.9701C37.262 66.871 37.9298 66.7786 37.946 66.772C37.9622 66.762 37.8552 66.3923 37.7191 65.9366C37.3852 64.8668 36.9054 63.0971 36.9054 62.9155C36.9054 62.7834 37.0027 62.7669 37.9136 62.7669H38.912L39.1324 63.5692C39.2556 64.015 39.5052 64.8767 39.6835 65.4909L40.0238 66.5904L40.4777 66.5408C43.1033 66.2668 49.9463 66.1941 53.1587 66.4088C54.1669 66.4748 55.2236 66.5342 55.5089 66.5342H56.0373L56.3128 65.6659C56.4684 65.1871 56.7115 64.3484 56.8574 63.8037L57.1264 62.8098L58.1508 62.7867C58.8347 62.7702 59.1751 62.7933 59.1751 62.8527C59.1751 62.9947 58.4684 65.5767 58.248 66.2239L58.0438 66.8215L58.3031 66.8644C58.449 66.8908 59.0195 66.9734 59.5803 67.0394C61.9629 67.3465 64.9224 67.9177 67.1656 68.4955C68.3293 68.8026 68.4655 68.8191 68.6276 68.7101C69.0166 68.446 70.7735 66.6663 71.6195 65.6956C72.109 65.1244 72.8222 64.2395 73.2047 63.7178L73.9113 62.7735H75.0751C75.7169 62.7735 76.2453 62.8065 76.2453 62.8395C76.2453 62.9485 75.1723 64.5201 74.5467 65.339C68.9388 72.6987 60.6533 77.4037 51.4926 78.4372C49.982 78.6022 45.6058 78.5791 44.1763 78.3942C36.7369 77.4169 30.4709 74.4354 25.0315 69.2879C23.1611 67.5149 20.8207 64.6522 19.7964 62.8726C19.7477 62.7966 20.0006 62.7735 20.9504 62.7735H22.1627L22.4318 63.1631L22.435 63.1532Z" fill="#081B43"/>
</svg>
