<svg width="217" height="90" viewBox="0 0 217 90" fill="none" xmlns="http://www.w3.org/2000/svg">
<path d="M197.79 90L175.213 21.4293L164.361 53.7006H176.561L180.972 69.2039H159.492L152.383 90H132.424L165.854 0.00344135H183.567L216.996 90H197.787H197.79ZM108.75 87.1007C103.01 89.0381 96.5257 90 89.2905 90H59.1031V36.8896H77.6893V73.9908H89.6651C94.4875 73.9908 98.6015 73.2957 102.012 71.914C105.423 70.5254 108.187 68.5328 110.31 65.926C112.428 63.3192 113.988 60.2375 114.986 56.6653C115.985 53.0898 116.484 49.0806 116.484 44.6258C116.484 40.2535 116.048 36.2805 115.175 32.7118C114.301 29.1397 112.907 26.1371 110.995 23.7006C109.079 21.2641 106.606 19.3748 103.574 18.0258C100.914 16.8506 97.636 16.2862 93.9273 16.1331H18.5881V36.7468H43.6603V52.8816H18.5881V90H0.00195312V0H59.1048H95.7391C107.771 0.578147 117.309 4.3688 124.282 11.2188C131.89 18.6952 135.694 29.7901 135.694 44.495C135.694 51.9713 134.635 58.5288 132.515 64.1554C130.395 69.7872 127.335 74.5346 123.343 78.4009C119.352 82.269 114.489 85.1666 108.75 87.0989V87.1007Z" fill="#081B43"/>
</svg>
